<?xml version="1.0" encoding="UTF-8" standalone="no"?>
<!-- Created with Inkscape (http://www.inkscape.org/) -->

<svg
   version="1.1"
   id="svg2"
   xml:space="preserve"
   width="200mm"
   height="200mm"
   viewBox="0 0 755.90551 755.90551"
   sodipodi:docname="Flame tracks 2d v2 export-9mm.svg"
   inkscape:version="1.2.1 (9c6d41e410, 2022-07-14)"
   inkscape:export-filename="C:\Users\VIAPRIES\Documents\2021 Semester 2 Github\Clubs\FLASC Branding\Flasc Logos 21 logo blue swish cutout.png"
   inkscape:export-xdpi="384"
   inkscape:export-ydpi="384"
   xmlns:inkscape="http://www.inkscape.org/namespaces/inkscape"
   xmlns:sodipodi="http://sodipodi.sourceforge.net/DTD/sodipodi-0.dtd"
   xmlns="http://www.w3.org/2000/svg"
   xmlns:svg="http://www.w3.org/2000/svg"><defs
     id="defs6"><filter
       style="color-interpolation-filters:sRGB"
       inkscape:label="Invert"
       id="filter1659"
       x="-0.011124622"
       y="-0.0085780005"
       width="1.0222496"
       height="1.0171555"><feColorMatrix
         type="hueRotate"
         values="180"
         result="color1"
         id="feColorMatrix1655" /><feColorMatrix
         values="0 0 -1 0 1 0 -1 0 0 1 -1 0 0 0 1 -0.21 -0.72 -0.07 2 0 "
         result="color2"
         id="feColorMatrix1657" /></filter><filter
       x="0"
       y="0"
       width="1"
       height="1"
       id="id1"><feColorMatrix
         values="0 0 0 0 1 0 0 0 0 1 0 0 0 0 1 0 0 0 1 0"
         color-interpolation-filters="sRGB"
         id="feColorMatrix2" /></filter><mask
       id="id2"><g
         filter="url(#id1)"
         id="g7"><rect
           x="-81"
           width="972"
           fill="#000000"
           y="-81"
           height="972"
           fill-opacity="0.149"
           id="rect5" /></g></mask><clipPath
       id="id3"><path
         d="M 1,0 H 352 V 239 H 1 Z m 0,0"
         clip-rule="nonzero"
         id="path10" /></clipPath><clipPath
       id="id4"><path
         d="M 107,0 H 353.30078 V 242.74609 H 107 Z m 0,0"
         clip-rule="nonzero"
         id="path13" /></clipPath><clipPath
       id="id5"><rect
         x="0"
         width="354"
         y="0"
         height="244"
         id="rect16" /></clipPath><mask
       id="id6"><g
         filter="url(#id1)"
         id="g21"><rect
           x="-81"
           width="972"
           fill="#000000"
           y="-81"
           height="972"
           fill-opacity="0.149"
           id="rect19" /></g></mask><clipPath
       id="id7"><path
         d="M 0,4 H 145 V 248 H 0 Z m 0,0"
         clip-rule="nonzero"
         id="path24" /></clipPath><clipPath
       id="id8"><path
         d="M 0,19 H 141 V 243 H 0 Z m 0,0"
         clip-rule="nonzero"
         id="path27" /></clipPath><clipPath
       id="id9"><path
         d="M 0,6 H 85 V 206 H 0 Z m 0,0"
         clip-rule="nonzero"
         id="path30" /></clipPath><clipPath
       id="id10"><rect
         x="0"
         width="150"
         y="0"
         height="250"
         id="rect33" /></clipPath><mask
       id="id11"><g
         filter="url(#id1)"
         id="g38"><rect
           x="-81"
           width="972"
           fill="#000000"
           y="-81"
           height="972"
           fill-opacity="0.149"
           id="rect36" /></g></mask><clipPath
       id="id12"><path
         d="M 6,1 H 168 V 205 H 6 Z m 0,0"
         clip-rule="nonzero"
         id="path41" /></clipPath><clipPath
       id="id13"><path
         d="M 11,77 H 168 V 221 H 11 Z m 0,0"
         clip-rule="nonzero"
         id="path44" /></clipPath><clipPath
       id="id14"><path
         d="M 49,6 H 168 V 207 H 49 Z m 0,0"
         clip-rule="nonzero"
         id="path47" /></clipPath><clipPath
       id="id15"><path
         d="M 0.265625,13 H 168 V 231.56641 H 0.265625 Z m 0,0"
         clip-rule="nonzero"
         id="path50" /></clipPath><clipPath
       id="id16"><path
         d="M 14,22 H 168 V 209 H 14 Z m 0,0"
         clip-rule="nonzero"
         id="path53" /></clipPath><clipPath
       id="id17"><rect
         x="0"
         width="168"
         y="0"
         height="232"
         id="rect56" /></clipPath><mask
       id="id18"><g
         filter="url(#id1)"
         id="g61"><rect
           x="-81"
           width="972"
           fill="#000000"
           y="-81"
           height="972"
           fill-opacity="0.149"
           id="rect59" /></g></mask><clipPath
       id="id19"><path
         d="M 0.535156,5 H 197 V 318 H 0.535156 Z m 0,0"
         clip-rule="nonzero"
         id="path64" /></clipPath><clipPath
       id="id20"><path
         d="M 24,26.164062 H 253.15625 V 318 H 24 Z m 0,0"
         clip-rule="nonzero"
         id="path67" /></clipPath><clipPath
       id="id21"><path
         d="M 5,13 H 247 V 318 H 5 Z m 0,0"
         clip-rule="nonzero"
         id="path70" /></clipPath><clipPath
       id="id22"><path
         d="M 63,51 H 225 V 318 H 63 Z m 0,0"
         clip-rule="nonzero"
         id="path73" /></clipPath><clipPath
       id="id23"><path
         d="M 21,50 H 228 V 318 H 21 Z m 0,0"
         clip-rule="nonzero"
         id="path76" /></clipPath><clipPath
       id="id24"><rect
         x="0"
         width="255"
         y="0"
         height="318"
         id="rect79" /></clipPath><mask
       id="id25"><g
         filter="url(#id1)"
         id="g84"><rect
           x="-81"
           width="972"
           fill="#000000"
           y="-81"
           height="972"
           fill-opacity="0.149"
           id="rect82" /></g></mask><clipPath
       id="id26"><path
         d="M 0,0.695312 H 122.92969 V 257.17187 H 0 Z m 0,0"
         clip-rule="nonzero"
         id="path87" /></clipPath><clipPath
       id="id27"><path
         d="M 0,24 H 167 V 252 H 0 Z m 0,0"
         clip-rule="nonzero"
         id="path90" /></clipPath><clipPath
       id="id28"><path
         d="M 0,37.5625 H 180.21094 V 228 H 0 Z m 0,0"
         clip-rule="nonzero"
         id="path93" /></clipPath><clipPath
       id="id29"><path
         d="M 0,37 H 120 V 223 H 0 Z m 0,0"
         clip-rule="nonzero"
         id="path96" /></clipPath><clipPath
       id="id30"><path
         d="M 0,26 H 173 V 245 H 0 Z m 0,0"
         clip-rule="nonzero"
         id="path99" /></clipPath><clipPath
       id="id31"><rect
         x="0"
         width="182"
         y="0"
         height="258"
         id="rect102" /></clipPath><mask
       id="id32"><g
         filter="url(#id1)"
         id="g107"><rect
           x="-81"
           width="972"
           fill="#000000"
           y="-81"
           height="972"
           fill-opacity="0.149"
           id="rect105" /></g></mask><clipPath
       id="id33"><path
         d="M 54,47 H 185 V 222 H 54 Z m 0,0"
         clip-rule="nonzero"
         id="path110" /></clipPath><clipPath
       id="id34"><path
         d="m 129,52 h 56 v 150 h -56 z m 0,0"
         clip-rule="nonzero"
         id="path113" /></clipPath><clipPath
       id="id35"><path
         d="m 94,206 h 61 v 62.79687 H 94 Z m 0,0"
         clip-rule="nonzero"
         id="path116" /></clipPath><clipPath
       id="id36"><path
         d="M 1.347656,1.046875 H 185 V 262 H 1.347656 Z m 0,0"
         clip-rule="nonzero"
         id="path119" /></clipPath><clipPath
       id="id37"><rect
         x="0"
         width="185"
         y="0"
         height="270"
         id="rect122" /></clipPath></defs><sodipodi:namedview
     id="namedview4"
     pagecolor="#ffffff"
     bordercolor="#666666"
     borderopacity="1.0"
     inkscape:pageshadow="2"
     inkscape:pageopacity="0.0"
     inkscape:pagecheckerboard="0"
     showgrid="false"
     inkscape:zoom="1"
     inkscape:cx="303.99999"
     inkscape:cy="344.49999"
     inkscape:window-width="1920"
     inkscape:window-height="1001"
     inkscape:window-x="-9"
     inkscape:window-y="-9"
     inkscape:window-maximized="1"
     inkscape:current-layer="svg2"
     inkscape:object-paths="false"
     inkscape:snap-nodes="true"
     inkscape:snap-bbox="true"
     inkscape:snap-bbox-midpoints="false"
     inkscape:bbox-nodes="false"
     inkscape:snap-smooth-nodes="true"
     inkscape:snap-bbox-edge-midpoints="true"
     inkscape:bbox-paths="true"
     width="800px"
     inkscape:snap-page="true"
     inkscape:showpageshadow="0"
     inkscape:deskcolor="#d1d1d1"
     inkscape:document-units="mm" /><path
     style="color:#000000;fill:#e00bab;stroke-linecap:round;stroke-miterlimit:10;-inkscape-stroke:none"
     d="m 213.97266,-1180.1016 c -20.79187,-4e-4 -37.92778,17.09 -37.92774,37.836 4e-5,16.2441 10.50918,30.1173 24.98242,35.4297 l -0.082,89.8186 c 0,10.3721 -2.10342,21.0562 -6.19726,30.22853 L 72.462891,-712.81055 c -7.293037,16.34019 -5.278771,37.34392 7.882812,55.58789 10.413082,14.43414 27.464537,23.14524 45.253907,23.14454 l 313.57813,-0.012 c 16.25347,-6.5e-4 33.4794,-5.12696 44.40625,-18.66016 16.51199,-20.45053 17.78031,-44.65384 10.14844,-61.83594 L 374.52344,-982.9668 c -4.97671,-11.20436 -8.53711,-22.7221 -8.53711,-33.1074 l -0.006,-90.7754 c 14.51677,-5.3019 25.06415,-19.1751 25.06445,-35.4258 3.9e-4,-20.7393 -17.08812,-37.8262 -37.83008,-37.8262 z m 139.24218,25.5118 c 6.9599,0 12.31849,5.361 12.31836,12.3125 -1.3e-4,6.9515 -5.36535,12.3144 -12.30859,12.3144 h -12.75586 v 12.7559 l 0.006,101.1328 c 0,15.9348 5.02683,30.61507 10.73437,43.46483 l 119.20899,268.38085 c 3.54206,7.97448 4.02858,22.18386 -6.6836,35.45118 -2.46297,3.05046 -16.02047,9.17544 -24.55664,9.17578 h -6.10546 v -6.69141 c 12.07481,-3.97406 22.04437,-13.84571 25.75,-27.08008 1.89927,-6.7844 -2.06118,-13.82384 -8.84571,-15.72265 -6.78381,-1.89941 -13.82298,2.06002 -15.72265,8.84375 -1.76561,6.30575 -10.79639,11.24581 -15.52149,10.12109 -4.66877,-1.11131 -5.53209,-2.2175 -7.63476,-8.4082 -2.10267,-6.19071 -3.20929,-16.76315 -4.07032,-29.3711 -1.18426,-17.34098 2.20492,-26.49965 4.44336,-29.37109 2.23845,-2.87144 2.44276,-2.6551 6.04297,-1.43359 6.67109,2.26339 13.91396,-1.30951 16.17774,-7.98047 2.26339,-6.67109 -1.30951,-13.91396 -7.98047,-16.17774 -11.24902,-3.81664 -26.00432,-0.81201 -34.36133,9.90821 -8.35701,10.72021 -11.19826,25.95807 -9.77539,46.79297 0.87487,12.81072 1.6119,24.78152 5.36719,35.83789 3.22742,9.50221 10.35613,18.81439 20.61914,23.23632 v 7.49805 l -69.45899,0.002 v -7.92382 c 7.35233,-2.8389 14.53784,-7.9202 20.67188,-15.3125 13.2314,-15.94554 17.70631,-40.1531 18.83984,-67.96289 1.13353,-27.8098 -2.17865,-59.09933 -10.29492,-87.41602 -3.42452,-11.94771 -5.80978,-20.00315 -7.29883,-25.65039 -1.48905,-5.64724 2.7983,-4.24357 4.67188,-2.08594 4.56114,5.36925 12.61137,6.02421 17.98046,1.46289 5.36926,-4.56114 6.02423,-12.61137 1.4629,-17.98047 -11.48536,-13.51987 -31.92289,-13.4941 -42.76563,-2.40625 -6.77003,6.92307 -7.74502,17.55799 -6.26758,25.73438 1.47744,8.17639 4.42866,16.57177 7.69141,27.95508 7.2349,25.24171 10.34712,54.39563 9.33008,79.34765 -1.01705,24.95203 -7.26737,45.82356 -12.98243,52.71094 -0.3826,0.46108 -0.67061,0.64088 -1.03906,1.05859 v -16.00195 c 14.71979,-46.26568 3.61694,-104.89617 -15.61719,-157.37109 -3.43785,-9.37923 -8.11337,-21.22243 -13.9707,-31.07032 -2.92866,-4.92394 -5.95788,-9.43515 -10.79883,-13.25195 -2.42047,-1.9084 -5.47612,-3.73475 -9.51172,-4.4668 -4.03559,-0.73205 -8.92601,0.13267 -12.54101,2.25977 -7.04848,4.14739 -8.79021,10.22972 -9.99609,15.29688 -1.20589,5.06715 -1.58004,10.28311 -1.7168,15.87695 -0.27352,11.18767 0.62487,23.79727 1.20508,34.74023 1.75646,33.12797 5.8239,84.64126 -6.19141,136.91016 -1.57805,6.8658 2.70845,13.7109 9.57422,15.28906 6.8658,1.57805 13.7109,-2.70845 15.28906,-9.57422 6.67024,-29.01681 8.73706,-57.36369 8.95313,-82.51172 1.37549,-8.21005 5.6097,-10.48889 10.87695,-11.07031 4.80974,-0.53091 9.3979,1.30562 12.05859,5.7207 4.62333,29.03291 4.62256,56.45276 -2.44726,77.28711 l -0.67774,1.99414 v 14.91211 c -2.38134,-4.57943 -7.28776,-7.27241 -12.42968,-6.82226 -6.94617,1.17523 -11.62444,7.75891 -10.44922,14.70508 2.12641,12.56517 10.59257,23.35157 22.8789,28.0664 v 7.55078 l -45.57812,0.002 0.0996,-3.16406 c 6.86313,1.59063 13.71622,-2.68369 15.30664,-9.54687 1.59063,-6.86313 -2.6837,-13.71622 -9.54688,-15.30664 -6.14758,-1.4248 -16.0898,-4.93475 -19.58789,-10.68164 -3.98968,-6.55453 -2.64946,-15.73288 -0.39648,-29.28711 16.26932,-97.87967 -4.88073,-180.85765 -15.88685,-214.97666 -2.16245,-6.70534 -9.35153,-10.38776 -16.05664,-8.22461 -6.70456,2.16328 -10.38598,9.35209 -8.22266,16.05664 10.20704,31.64184 30.29462,110.94813 15,202.96289 -2.14464,12.90248 -6.26877,30.2408 3.76953,46.73242 2.8505,4.68299 6.33732,8.27811 10.00977,11.17578 v 14.26172 l -45.77148,0.002 c -5.24827,-27.3119 -12.45586,-80.26205 -11.79493,-120.85937 3.95771,-10.17936 15.98634,-20.86249 30.40821,-21.94336 7.02557,-0.52615 12.29423,-6.6483 11.76757,-13.67383 -0.52717,-7.02479 -6.649,-12.2923 -13.67382,-11.76562 -8.91451,0.66811 -17.11168,3.2771 -24.41211,7.14062 2.42994,-13.52378 5.47719,-24.81384 8.97656,-33.24414 5.13119,-12.3615 10.94549,-18.23812 14.94141,-19.98633 6.45424,-2.82349 9.3976,-10.34454 6.57421,-16.79883 -2.82349,-6.45424 -10.34453,-9.3976 -16.79882,-6.57421 -12.97464,5.6764 -21.74324,17.83215 -28.2793,33.57812 -6.53606,15.74597 -11.01855,35.83885 -13.75781,60.49219 -4.96867,44.71802 3.33504,107.85755 10.04687,143.63476 l -44.12695,0.002 c -8.35304,3.3e-4 -19.68257,-5.79155 -24.56445,-12.5586 -8.653151,-11.99459 -8.664851,-22.66952 -5.275394,-30.26367 L 218.04492,-976.39453 c 5.73339,-12.84577 8.4106,-26.87547 8.41211,-40.61527 l 0.10156,-112.93 h -12.76757 c -6.82229,2e-4 -12.23436,-5.3678 -12.23438,-12.3261 -10e-6,-6.9584 5.32251,-12.3244 12.41602,-12.3242 z M 289.5,-883.60742 c 3.28884,6.58636 6.56699,14.22616 9.03125,20.94922 4.13005,11.26769 7.67513,22.83524 10.69531,34.40234 -2.79504,-0.3069 -5.60162,-0.42072 -8.36914,-0.11523 -2.97156,0.32801 -5.90281,1.16918 -8.76758,2.26172 -0.46076,-10.18631 -1.04285,-19.44652 -1.45898,-27.29493 -0.54713,-10.31911 -1.19082,-21.2721 -1.13086,-30.20312 z"
     id="path3810"
     transform="matrix(1.3333333,0,0,1.3333333,0,1587.4)"
     sodipodi:nodetypes="csccccsccsccccssccsscccccsccccccsssssccsssccccssszcccsssssccsssssssscsccsccccccccccccsccccssccccccccscccssccssccccscccscscsc" /></svg>
