<?xml version="1.0" encoding="UTF-8" standalone="no"?>
<!-- Created with Inkscape (http://www.inkscape.org/) -->

<svg
   version="1.1"
   id="svg2"
   xml:space="preserve"
   width="200mm"
   height="200mm"
   viewBox="0 0 755.90551 755.90551"
   sodipodi:docname="Flame tracks 2d v2 export-05mm-segmented.svg"
   inkscape:version="1.2.1 (9c6d41e410, 2022-07-14)"
   inkscape:export-filename="C:\Users\VIAPRIES\Documents\2021 Semester 2 Github\Clubs\FLASC Branding\Flasc Logos 21 logo blue swish cutout.png"
   inkscape:export-xdpi="384"
   inkscape:export-ydpi="384"
   xmlns:inkscape="http://www.inkscape.org/namespaces/inkscape"
   xmlns:sodipodi="http://sodipodi.sourceforge.net/DTD/sodipodi-0.dtd"
   xmlns="http://www.w3.org/2000/svg"
   xmlns:svg="http://www.w3.org/2000/svg"><defs
     id="defs6"><filter
       style="color-interpolation-filters:sRGB"
       inkscape:label="Invert"
       id="filter1659"
       x="-0.011124622"
       y="-0.0085780005"
       width="1.0222496"
       height="1.0171555"><feColorMatrix
         type="hueRotate"
         values="180"
         result="color1"
         id="feColorMatrix1655" /><feColorMatrix
         values="0 0 -1 0 1 0 -1 0 0 1 -1 0 0 0 1 -0.21 -0.72 -0.07 2 0 "
         result="color2"
         id="feColorMatrix1657" /></filter><filter
       x="0"
       y="0"
       width="1"
       height="1"
       id="id1"><feColorMatrix
         values="0 0 0 0 1 0 0 0 0 1 0 0 0 0 1 0 0 0 1 0"
         color-interpolation-filters="sRGB"
         id="feColorMatrix2" /></filter><mask
       id="id2"><g
         filter="url(#id1)"
         id="g7"><rect
           x="-81"
           width="972"
           fill="#000000"
           y="-81"
           height="972"
           fill-opacity="0.149"
           id="rect5" /></g></mask><clipPath
       id="id3"><path
         d="M 1,0 H 352 V 239 H 1 Z m 0,0"
         clip-rule="nonzero"
         id="path10" /></clipPath><clipPath
       id="id4"><path
         d="M 107,0 H 353.30078 V 242.74609 H 107 Z m 0,0"
         clip-rule="nonzero"
         id="path13" /></clipPath><clipPath
       id="id5"><rect
         x="0"
         width="354"
         y="0"
         height="244"
         id="rect16" /></clipPath><mask
       id="id6"><g
         filter="url(#id1)"
         id="g21"><rect
           x="-81"
           width="972"
           fill="#000000"
           y="-81"
           height="972"
           fill-opacity="0.149"
           id="rect19" /></g></mask><clipPath
       id="id7"><path
         d="M 0,4 H 145 V 248 H 0 Z m 0,0"
         clip-rule="nonzero"
         id="path24" /></clipPath><clipPath
       id="id8"><path
         d="M 0,19 H 141 V 243 H 0 Z m 0,0"
         clip-rule="nonzero"
         id="path27" /></clipPath><clipPath
       id="id9"><path
         d="M 0,6 H 85 V 206 H 0 Z m 0,0"
         clip-rule="nonzero"
         id="path30" /></clipPath><clipPath
       id="id10"><rect
         x="0"
         width="150"
         y="0"
         height="250"
         id="rect33" /></clipPath><mask
       id="id11"><g
         filter="url(#id1)"
         id="g38"><rect
           x="-81"
           width="972"
           fill="#000000"
           y="-81"
           height="972"
           fill-opacity="0.149"
           id="rect36" /></g></mask><clipPath
       id="id12"><path
         d="M 6,1 H 168 V 205 H 6 Z m 0,0"
         clip-rule="nonzero"
         id="path41" /></clipPath><clipPath
       id="id13"><path
         d="M 11,77 H 168 V 221 H 11 Z m 0,0"
         clip-rule="nonzero"
         id="path44" /></clipPath><clipPath
       id="id14"><path
         d="M 49,6 H 168 V 207 H 49 Z m 0,0"
         clip-rule="nonzero"
         id="path47" /></clipPath><clipPath
       id="id15"><path
         d="M 0.265625,13 H 168 V 231.56641 H 0.265625 Z m 0,0"
         clip-rule="nonzero"
         id="path50" /></clipPath><clipPath
       id="id16"><path
         d="M 14,22 H 168 V 209 H 14 Z m 0,0"
         clip-rule="nonzero"
         id="path53" /></clipPath><clipPath
       id="id17"><rect
         x="0"
         width="168"
         y="0"
         height="232"
         id="rect56" /></clipPath><mask
       id="id18"><g
         filter="url(#id1)"
         id="g61"><rect
           x="-81"
           width="972"
           fill="#000000"
           y="-81"
           height="972"
           fill-opacity="0.149"
           id="rect59" /></g></mask><clipPath
       id="id19"><path
         d="M 0.535156,5 H 197 V 318 H 0.535156 Z m 0,0"
         clip-rule="nonzero"
         id="path64" /></clipPath><clipPath
       id="id20"><path
         d="M 24,26.164062 H 253.15625 V 318 H 24 Z m 0,0"
         clip-rule="nonzero"
         id="path67" /></clipPath><clipPath
       id="id21"><path
         d="M 5,13 H 247 V 318 H 5 Z m 0,0"
         clip-rule="nonzero"
         id="path70" /></clipPath><clipPath
       id="id22"><path
         d="M 63,51 H 225 V 318 H 63 Z m 0,0"
         clip-rule="nonzero"
         id="path73" /></clipPath><clipPath
       id="id23"><path
         d="M 21,50 H 228 V 318 H 21 Z m 0,0"
         clip-rule="nonzero"
         id="path76" /></clipPath><clipPath
       id="id24"><rect
         x="0"
         width="255"
         y="0"
         height="318"
         id="rect79" /></clipPath><mask
       id="id25"><g
         filter="url(#id1)"
         id="g84"><rect
           x="-81"
           width="972"
           fill="#000000"
           y="-81"
           height="972"
           fill-opacity="0.149"
           id="rect82" /></g></mask><clipPath
       id="id26"><path
         d="M 0,0.695312 H 122.92969 V 257.17187 H 0 Z m 0,0"
         clip-rule="nonzero"
         id="path87" /></clipPath><clipPath
       id="id27"><path
         d="M 0,24 H 167 V 252 H 0 Z m 0,0"
         clip-rule="nonzero"
         id="path90" /></clipPath><clipPath
       id="id28"><path
         d="M 0,37.5625 H 180.21094 V 228 H 0 Z m 0,0"
         clip-rule="nonzero"
         id="path93" /></clipPath><clipPath
       id="id29"><path
         d="M 0,37 H 120 V 223 H 0 Z m 0,0"
         clip-rule="nonzero"
         id="path96" /></clipPath><clipPath
       id="id30"><path
         d="M 0,26 H 173 V 245 H 0 Z m 0,0"
         clip-rule="nonzero"
         id="path99" /></clipPath><clipPath
       id="id31"><rect
         x="0"
         width="182"
         y="0"
         height="258"
         id="rect102" /></clipPath><mask
       id="id32"><g
         filter="url(#id1)"
         id="g107"><rect
           x="-81"
           width="972"
           fill="#000000"
           y="-81"
           height="972"
           fill-opacity="0.149"
           id="rect105" /></g></mask><clipPath
       id="id33"><path
         d="M 54,47 H 185 V 222 H 54 Z m 0,0"
         clip-rule="nonzero"
         id="path110" /></clipPath><clipPath
       id="id34"><path
         d="m 129,52 h 56 v 150 h -56 z m 0,0"
         clip-rule="nonzero"
         id="path113" /></clipPath><clipPath
       id="id35"><path
         d="m 94,206 h 61 v 62.79687 H 94 Z m 0,0"
         clip-rule="nonzero"
         id="path116" /></clipPath><clipPath
       id="id36"><path
         d="M 1.347656,1.046875 H 185 V 262 H 1.347656 Z m 0,0"
         clip-rule="nonzero"
         id="path119" /></clipPath><clipPath
       id="id37"><rect
         x="0"
         width="185"
         y="0"
         height="270"
         id="rect122" /></clipPath></defs><sodipodi:namedview
     id="namedview4"
     pagecolor="#ffffff"
     bordercolor="#666666"
     borderopacity="1.0"
     inkscape:pageshadow="2"
     inkscape:pageopacity="0.0"
     inkscape:pagecheckerboard="0"
     showgrid="false"
     inkscape:zoom="5.6568542"
     inkscape:cx="438.93654"
     inkscape:cy="290.17895"
     inkscape:window-width="1920"
     inkscape:window-height="1001"
     inkscape:window-x="-9"
     inkscape:window-y="-9"
     inkscape:window-maximized="1"
     inkscape:current-layer="svg2"
     inkscape:object-paths="false"
     inkscape:snap-nodes="true"
     inkscape:snap-bbox="true"
     inkscape:snap-bbox-midpoints="false"
     inkscape:bbox-nodes="false"
     inkscape:snap-smooth-nodes="true"
     inkscape:snap-bbox-edge-midpoints="true"
     inkscape:bbox-paths="true"
     width="800px"
     inkscape:snap-page="true"
     inkscape:showpageshadow="0"
     inkscape:deskcolor="#d1d1d1"
     inkscape:document-units="mm" /><path
     style="color:#000000;fill:#e00bab;stroke-miterlimit:10;-inkscape-stroke:none"
     d="m 213.9375,-1168.0547 -5.18945,0.5195 -4.86524,1.5039 -4.39844,2.377 -3.82812,3.1504 -3.15625,3.8164 -2.38281,4.3828 -1.50391,4.8418 -0.52539,5.1973 0.52539,5.1972 1.50195,4.8418 2.375,4.3828 3.14258,3.8165 3.80469,3.1503 4.36719,2.379 4.82031,1.5019 4.45703,0.4531 -0.0898,99.5039 -0.44727,9.0215 -1.34765,8.96096 -2.26172,8.76367 -3.19336,8.42969 -122.287112,273.98633 -1.724609,4.72851 -1.082032,5.06641 -0.388671,5.32031 0.34375,5.52149 1.117187,5.66601 1.931641,5.75391 2.783203,5.78515 3.68164,5.76758 3.214844,3.87891 3.746094,3.50976 4.181645,3.09375 4.52734,2.63282 4.78711,2.1289 4.95508,1.57813 5.03906,0.98437 5.00781,0.33594 313.6211,-0.0117 4.81835,-0.26172 4.97657,-0.76172 4.97656,-1.22265 4.84766,-1.65235 4.58203,-2.04882 4.18359,-2.41407 3.65234,-2.7539 2.97266,-3.0586 4.56055,-6.5 3.38867,-6.61718 2.30664,-6.63282 1.30859,-6.53711 0.39649,-6.33984 -0.4336,-6.03125 -1.17578,-5.62109 -1.82617,-5.08203 -119.21289,-268.39454 -3.74609,-9.16992 -3.04297,-9.45312 -2.04297,-9.64257 -0.74805,-9.7696 -0.006,-100.5468 1.60352,-0.3829 5.07617,-1.4746 5.97656,-2.3496 4.83399,-3.1601 3.17383,-3.8457 2.37695,-4.3809 1.50195,-4.8398 0.52344,-5.1953 -0.52344,-5.1934 -1.50195,-4.8398 -2.37695,-4.3809 -3.14844,-3.8145 -3.81641,-3.1484 -4.38086,-2.377 -4.84179,-1.5039 -5.16016,-0.5195 z m 0.0703,1.418 h 139.16992 l 4.94922,0.498 4.57227,1.4199 4.13672,2.2442 3.60547,2.9746 2.97461,3.6055 2.24609,4.1367 1.41992,4.5703 0.49414,4.9102 -0.49414,4.9101 -1.41992,4.5723 -2.24609,4.1367 -2.94727,3.5742 -4.53125,2.9629 -5.78125,2.2715 -4.98242,1.4473 -2.65821,0.6347 0.006,101.7207 0.75977,9.916 2.07812,9.80668 3.08204,9.57422 3.77343,9.24023 119.20118,268.36719 1.77539,4.93946 1.13671,5.42968 0.41797,5.84375 -0.38281,6.14649 -1.27148,6.34961 -2.24219,6.44726 -3.29883,6.44141 -4.43945,6.32812 -2.81641,2.89844 -3.49609,2.63477 -4.04492,2.33593 -4.45704,1.99219 -4.72656,1.61133 -4.85547,1.19336 -4.84375,0.74023 -4.71289,0.25586 h -18.13281 v -3.06836 -3.78906 -3.79101 -3.78907 -3.78906 -3.78906 -3.79102 -3.11914 l 4.42188,-0.41015 4.81445,-1.41211 4.54297,-2.27539 4.12304,-3.05469 3.54688,-3.74805 2.82031,-4.35742 1.90235,-4.81445 -1.31836,-0.51954 -1.85157,4.68165 -2.67187,4.13085 -3.3711,3.5625 -3.92382,2.90625 -4.32032,2.16407 -4.56054,1.33789 -4.64844,0.42969 -4.58008,-0.55469 -5.7793,-2.22266 -4.49609,-3.5 -3.43359,-4.70312 -2.55078,-5.83203 -1.82813,-6.85938 -1.27344,-7.76953 -0.89257,-8.56055 -0.68946,-9.21094 -0.18164,-12.97851 1.25,-10.49609 2.45899,-8.16016 3.4375,-5.97266 4.18359,-3.95312 4.73828,-2.12305 5.13281,-0.45508 5.44336,1.11133 0.28321,-1.38867 -5.64454,-1.15234 -5.57617,0.49414 -5.17578,2.31836 -4.50976,4.26171 -3.6211,6.29297 -2.54297,8.43555 -1.27734,10.71289 0.18555,13.11523 0.69531,9.2754 0.89648,8.62109 1.29102,7.88086 1.875,7.0293 2.65625,6.07421 3.64258,4.98829 4.81836,3.75195 6.13867,2.36133 4.0039,0.48437 v 3.18164 3.79102 3.78906 3.78906 3.78907 3.79101 3.78906 3.06836 l -93.55468,0.004 v -3.11328 -3.83203 -3.83008 -3.83008 -3.83203 -3.83008 -3.83203 -3.1582 l 7.54492,-1.55274 7.96094,-4.45508 7.95703,-7.71875 6.41797,-10.67773 4.8125,-14.14258 3.21484,-16.91211 1.61328,-19.01953 v -20.44922 l -1.62695,-21.20312 -3.27539,-21.2793 -4.9336,-20.66211 -2.40625,-8.19726 -2.11132,-7.10352 -1.69727,-6.11914 -1.17187,-5.22656 -0.53125,-4.41993 0.20507,-3.70703 1.02344,-3.11523 1.96094,-2.69727 2.33594,-1.95312 2.66015,-1.42969 2.88867,-0.85547 3.03125,-0.23633 3.0918,0.42774 3.07422,1.13867 2.97852,1.90234 2.8457,2.77344 0.99023,-1.01562 -2.95117,-2.87305 -3.22851,-2.06445 -3.36133,-1.24414 -3.39649,-0.47071 -3.33398,0.25977 -3.16992,0.93945 -2.91797,1.56836 -2.58203,2.15625 -2.19336,3.02149 -1.15039,3.5039 -0.22266,4.01563 0.55469,4.61523 1.19336,5.33203 1.71289,6.16406 2.11328,7.11329 2.39648,8.16211 4.91211,20.57031 3.25586,21.16797 1.6211,21.0957 v 20.33594 l -1.60157,18.88476 -3.18359,16.74414 -4.73242,13.9043 -6.24414,10.38867 -7.69141,7.46094 -7.60742,4.25781 -7.04492,1.44922 v -4.02734 -4.80274 -4.80273 -4.80469 -4.80273 -4.80274 -4.80273 -4.71289 l 4.16797,-16.23047 2.11718,-17.63281 0.20703,-18.63477 -1.52148,-19.36914 -1.98246,-13.40626 -1.0918,-6.43945 -4.45117,-20.0586 -5.65039,-20.00976 -6.67383,-19.69336 -2.72656,-7.17383 -3.13086,-7.56641 -3.45508,-7.46484 -3.70508,-6.86133 -3.875,-5.75586 -2.00195,-2.33008 -2.0293,-1.86523 -2.07422,-1.34375 -2.13086,-0.73633 -2.1621,-0.01 -2.11524,0.80078 -1.48828,1.24609 -1.19922,1.74219 -0.95117,2.16601 -0.74805,2.56641 -0.9707,6.11719 -0.41992,7.2539 -0.002,8.06055 0.28516,8.54297 0.43945,8.69336 0.47071,8.51562 0.73437,13.19141 0.74805,14.86914 0.53515,16.32813 0.0937,17.56836 -0.57617,18.58789 -1.47265,19.39062 -2.59571,19.97461 -3.95312,20.35938 1.39062,0.26953 3.96289,-20.40235 2.60743,-20.05468 1.47656,-19.46094 0.57812,-18.64649 -0.01,-2.39257 2.82617,-9.05665 4.95312,-6.57421 6.47852,-4.26172 7.37305,-1.97657 7.62109,0.29102 7.21094,2.53906 6.15234,4.75782 4.24219,6.62109 2.05273,13.25195 1.51368,19.25391 -0.20508,18.49219 -2.09571,17.46484 -4.1914,16.3125 v 4.89258 4.80273 4.80274 4.80273 4.80469 4.80273 4.80274 3.92187 l -5.47852,-0.67773 -5.88281,-2.74219 -4.83203,-4.25977 -3.51563,-5.36523 -1.96484,-6.15234 -1.34961,0.43164 2.02344,6.33593 3.72461,5.6875 5.1289,4.51954 6.27149,2.92382 5.875,0.72657 v 3.2832 3.83203 3.83008 3.83203 3.83008 3.83008 3.83203 3.11328 l -69.67188,0.004 v -3.53321 -4.24609 -4.2461 -4.24609 -4.24609 -4.2461 -4.24609 -3.11914 l 1.03907,0.56836 3.93164,1.6875 3.73242,1.28711 3.35547,0.95117 2.80078,0.68359 0.33594,-1.37695 -2.77539,-0.67773 -3.29297,-0.9336 -3.64453,-1.25586 -3.82227,-1.64258 -3.82617,-2.08984 -3.66016,-2.5957 -3.32226,-3.16602 -2.82227,-3.79883 -2.14062,-4.29101 -1.36719,-4.4375 -0.71289,-4.57031 -0.17383,-4.68946 0.25391,-4.78906 0.56445,-4.86719 0.75586,-4.92187 0.83203,-4.96875 4.30664,-34.93555 1.4375,-33.24609 -0.89258,-31.13867 -2.67578,-28.62891 -3.91406,-25.71484 -4.60938,-22.39649 -4.75976,-18.67578 -4.35938,-14.54102 -1.35742,0.40821 4.35156,14.51172 4.74219,18.61523 4.5957,22.32813 3.90235,25.63671 2.66797,28.54297 0.89062,31.04297 -1.43164,33.13867 -4.29883,34.84766 -0.82617,4.94922 -0.76172,4.95703 -0.57226,4.9375 -0.25977,4.89648 0.17773,4.83789 0.74219,4.75391 1.43164,4.64453 2.24805,4.50781 2.9707,3.99805 3.48438,3.31836 3.80859,2.70508 1.50195,0.82031 v 3.89258 4.24609 4.2461 4.24609 4.24609 4.2461 4.24609 3.53321 l -67.88281,0.002 -2.47265,-12.22852 -2.82618,-16.58984 -2.79882,-19.42578 -2.51563,-21.30078 -1.96875,-22.21094 -1.16016,-22.15625 -0.0918,-21.11328 2.33594,-5.79102 3.35156,-5.59961 4.2539,-5.20312 5.06641,-4.66797 5.78906,-3.99414 6.42188,-3.18555 6.96875,-2.23633 7.48047,-1.16601 -0.2168,-1.40039 -7.5918,1.18164 -7.17383,2.30469 -6.60937,3.27734 -5.95703,4.10742 -5.21289,4.80469 -4.38086,5.36133 -3.46289,5.7832 -0.77344,1.91797 0.94336,-14.67188 2.30273,-16.95507 2.91993,-15.14063 3.51171,-13.29492 4.07618,-11.41602 4.60547,-9.51172 5.10156,-7.58007 5.55664,-5.63086 6.0625,-3.72852 -0.74219,-1.20703 -6.20898,3.81836 -5.76953,5.8457 -5.23243,7.77539 -4.68359,9.66992 -4.11914,11.54493 -3.54102,13.39843 -2.9375,15.22852 -2.3125,17.04297 -1.24023,19.2539 0.0937,21.2168 1.16211,22.2168 1.97265,22.25586 2.51954,21.33984 2.80664,19.46289 2.83007,16.62891 2.42188,11.96875 -58.5957,0.002 -4.8711,-0.32617 -4.87109,-0.95117 -4.80273,-1.5293 -4.64454,-2.06641 -4.39453,-2.55468 -4.052732,-2.99805 -3.619141,-3.39258 -3.103515,-3.74219 -3.585938,-5.62109 -2.710937,-5.63086 -1.873047,-5.58398 -1.082031,-5.48242 -0.332032,-5.33204 0.376954,-5.12695 1.039062,-4.875 1.673828,-4.58984 122.283199,-273.97852 3.23438,-8.53906 2.30078,-8.91016 1.36914,-9.10359 0.45313,-9.1269 0.0918,-100.8203 -5.59179,-0.5664 -4.55079,-1.4199 -4.12304,-2.2461 -3.59571,-2.9766 -2.9707,-3.6055 -2.24219,-4.1406 -1.41992,-4.5723 -0.49414,-4.914 0.49414,-4.9121 1.42188,-4.5723 2.25,-4.1387 2.98242,-3.6074 3.61719,-2.9766 4.15429,-2.2461 4.59571,-1.4199 z m 70.13281,259.65818 1.66602,0.008 1.74609,0.60351 1.82813,1.18555 1.88086,1.72852 1.89258,2.20312 3.78906,5.62695 3.65234,6.76368 3.42578,7.39843 3.11133,7.52149 2.70899,7.13086 6.65429,19.63281 5.62891,19.93555 4.43164,19.97461 0.46875,3.03125 -2.64453,-4.12696 -6.52734,-5.04687 -7.62696,-2.6875 -8.04883,-0.3086 -7.80273,2.0918 -6.875,4.52344 -5.24805,6.96679 -1.57422,5.04493 -0.0566,-10.55274 -0.53711,-16.35937 -0.74804,-14.88672 -0.73633,-13.19336 -0.46875,-8.51367 -0.43945,-8.67774 -0.28321,-8.50586 0.002,-7.99414 0.41211,-7.14453 0.94531,-5.95898 0.69726,-2.39063 0.86133,-1.96094 1.01367,-1.4707 1.15625,-0.96875 z"
     id="path3810"
     transform="matrix(1.3333333,0,0,1.3333333,0,1587.4)"
     sodipodi:nodetypes="cccccccccccccccccccccccccccccccccccccccccccccccccccccccccccccccccccccccccccccccccccccccccccccccccccccccccccccccccccccccccccccccccccccccccccccccccccccccccccccccccccccccccccccccccccccccccccccccccccccccccccccccccccccccccccccccccccccccccccccccccccccccccccccccccccccccccccccccccccccccccccccccccccccccccccccccccccccccccccccccccccccccccccccccccccccccccccccccccccccccccccccccccccccccccccccccccccccccccccccccccccccccccccccccccccccccccccccccccccccccccccccccccccccccccccccccccccccccccccccccccccccccccccccccccccccccccccccccccccccccccccccccccccccccccc" /></svg>
