<?xml version="1.0" encoding="UTF-8" standalone="no"?>
<!-- Created with Inkscape (http://www.inkscape.org/) -->

<svg
   width="40"
   height="40"
   viewBox="0 0 10.583333 10.583334"
   version="1.1"
   id="svg5"
   inkscape:version="1.1 (c68e22c387, 2021-05-23)"
   sodipodi:docname="bug-snail.svg"
   inkscape:export-filename="C:\Users\VIAPRIES\Documents\2021 Semester 2 Github\Clubs\FUCS Branding\2022 In Progress\Icons v7.png"
   inkscape:export-xdpi="768.289"
   inkscape:export-ydpi="768.289"
   xmlns:inkscape="http://www.inkscape.org/namespaces/inkscape"
   xmlns:sodipodi="http://sodipodi.sourceforge.net/DTD/sodipodi-0.dtd"
   xmlns="http://www.w3.org/2000/svg"
   xmlns:svg="http://www.w3.org/2000/svg">
  <sodipodi:namedview
     id="namedview7"
     pagecolor="#ffffff"
     bordercolor="#666666"
     borderopacity="1.0"
     inkscape:pageshadow="2"
     inkscape:pageopacity="0.0"
     inkscape:pagecheckerboard="0"
     inkscape:document-units="px"
     showgrid="true"
     units="px"
     inkscape:zoom="2"
     inkscape:cx="140"
     inkscape:cy="128.25"
     inkscape:window-width="1920"
     inkscape:window-height="1001"
     inkscape:window-x="-9"
     inkscape:window-y="-9"
     inkscape:window-maximized="1"
     inkscape:current-layer="layer1"
     inkscape:object-paths="false"
     inkscape:snap-intersection-paths="true"
     inkscape:snap-midpoints="false"
     inkscape:snap-center="true"
     inkscape:snap-others="true"
     inkscape:snap-global="true"
     inkscape:snap-object-midpoints="false"
     inkscape:snap-smooth-nodes="true"
     inkscape:snap-bbox="true"
     inkscape:bbox-paths="false"
     inkscape:bbox-nodes="false"
     inkscape:snap-bbox-edge-midpoints="false"
     inkscape:snap-bbox-midpoints="true"
     inkscape:snap-to-guides="false"
     inkscape:snap-grids="false"
     inkscape:snap-nodes="false"
     inkscape:snap-text-baseline="false"
     inkscape:object-nodes="true">
    <inkscape:grid
       type="xygrid"
       id="grid4513"
       spacingx="8.4666668"
       spacingy="8.4666668"
       empspacing="1"
       dotted="false"
       color="#3f3fff"
       opacity="0.0627451"
       enabled="true"
       visible="false" />
    <inkscape:grid
       type="axonomgrid"
       id="grid34136"
       enabled="false"
       units="px"
       spacingy="0.26458333" />
  </sodipodi:namedview>
  <defs
     id="defs2">
    <linearGradient
       id="Icons"
       inkscape:swatch="solid"
       gradientTransform="translate(-1683.8589,-769.40794)">
      <stop
         style="stop-color:#000000;stop-opacity:1;"
         offset="0"
         id="stop1069" />
    </linearGradient>
    <marker
       style="overflow:visible"
       id="Torso"
       refX="0"
       refY="0"
       orient="auto"
       inkscape:stockid="Torso"
       inkscape:isstock="true">
      <g
         transform="scale(0.7)"
         id="g6337">
        <path
           style="fill:none;fill-opacity:0.75;fill-rule:evenodd;stroke:context-stroke;stroke-width:1.25"
           d="m -4.7792281,-3.239542 c 2.350374,0.3659393 5.30026732,1.9375477 5.03715532,3.62748546 C -0.00518779,2.0778819 -2.2126741,2.6176539 -4.5630471,2.2517169 -6.9134221,1.8857769 -8.521035,0.75201414 -8.257922,-0.93792336 -7.994809,-2.6278615 -7.1296041,-3.6054813 -4.7792281,-3.239542 Z"
           id="path6323" />
        <path
           style="fill:none;fill-opacity:0.75;fill-rule:evenodd;stroke:context-stroke;stroke-width:1pt"
           d="M 4.4598789,0.08866574 C -2.5564571,-4.378332 5.2248769,-3.9061806 -0.84829578,-8.7197331"
           id="path6325" />
        <path
           style="fill:none;fill-opacity:0.75;fill-rule:evenodd;stroke:context-stroke;stroke-width:1pt"
           d="M 4.9298719,0.05752074 C -1.3872731,1.7494689 1.8027579,5.4782079 -4.9448731,7.5462725"
           id="path6327" />
        <rect
           style="fill:context-stroke;fill-rule:evenodd;stroke-width:1pt"
           width="2.6366582"
           height="2.7608147"
           x="-10.391706"
           y="-1.7408575"
           transform="matrix(0.527536,-0.849533,0.887668,0.460484,0,0)"
           id="rect6329" />
        <rect
           style="fill:context-stroke;fill-rule:evenodd;stroke-width:1pt"
           width="2.7327356"
           height="2.8614161"
           x="4.9587269"
           y="-7.9629307"
           transform="matrix(0.671205,-0.741272,0.790802,0.612072,0,0)"
           id="rect6331" />
        <path
           style="fill:#ff0000;fill-opacity:0.75;fill-rule:evenodd;stroke:context-stroke;stroke-width:1pt"
           d="m 16.779951,-28.685045 a 0.60731727,0.60731727 0 1 0 -1.214634,0 0.60731727,0.60731727 0 1 0 1.214634,0 z"
           transform="matrix(0,-1.109517,1.109517,0,25.96648,19.71619)"
           id="path6333" />
        <path
           style="fill:#ff0000;fill-opacity:0.75;fill-rule:evenodd;stroke:context-stroke;stroke-width:1pt"
           d="m 16.779951,-28.685045 a 0.60731727,0.60731727 0 1 0 -1.214634,0 0.60731727,0.60731727 0 1 0 1.214634,0 z"
           transform="matrix(0,-1.109517,1.109517,0,26.8245,16.99126)"
           id="path6335" />
      </g>
    </marker>
    <marker
       style="overflow:visible"
       id="EmptyTriangleInL"
       refX="0"
       refY="0"
       orient="auto"
       inkscape:stockid="EmptyTriangleInL"
       inkscape:isstock="true">
      <path
         transform="matrix(-0.8,0,0,-0.8,4.8,0)"
         style="fill:context-fill;fill-rule:evenodd;stroke:context-stroke;stroke-width:1pt"
         d="M 5.77,0 -2.88,5 V -5 Z"
         id="path6262" />
    </marker>
    <marker
       style="overflow:visible"
       id="EmptyTriangleOutL"
       refX="0"
       refY="0"
       orient="auto"
       inkscape:stockid="EmptyTriangleOutL"
       inkscape:isstock="true">
      <path
         transform="matrix(0.8,0,0,0.8,-4.8,0)"
         style="fill:context-fill;fill-rule:evenodd;stroke:context-stroke;stroke-width:1pt"
         d="M 5.77,0 -2.88,5 V -5 Z"
         id="path6271" />
    </marker>
    <marker
       style="overflow:visible"
       id="Tail"
       refX="0"
       refY="0"
       orient="auto"
       inkscape:stockid="Tail"
       inkscape:isstock="true">
      <g
         transform="scale(-1.2)"
         id="g6159">
        <path
           style="fill:none;fill-rule:evenodd;stroke:context-stroke;stroke-width:0.8;stroke-linecap:round"
           d="M -3.8048674,-3.9585227 0.54352094,0"
           id="path6147" />
        <path
           style="fill:none;fill-rule:evenodd;stroke:context-stroke;stroke-width:0.8;stroke-linecap:round"
           d="M -1.2866832,-3.9585227 3.0617053,0"
           id="path6149" />
        <path
           style="fill:none;fill-rule:evenodd;stroke:context-stroke;stroke-width:0.8;stroke-linecap:round"
           d="M 1.3053582,-3.9585227 5.6537466,0"
           id="path6151" />
        <path
           style="fill:none;fill-rule:evenodd;stroke:context-stroke;stroke-width:0.8;stroke-linecap:round"
           d="M -3.8048674,4.1775838 0.54352094,0.21974226"
           id="path6153" />
        <path
           style="fill:none;fill-rule:evenodd;stroke:context-stroke;stroke-width:0.8;stroke-linecap:round"
           d="M -1.2866832,4.1775838 3.0617053,0.21974226"
           id="path6155" />
        <path
           style="fill:none;fill-rule:evenodd;stroke:context-stroke;stroke-width:0.8;stroke-linecap:round"
           d="M 1.3053582,4.1775838 5.6537466,0.21974226"
           id="path6157" />
      </g>
    </marker>
    <clipPath
       clipPathUnits="userSpaceOnUse"
       id="clipPath2169">
      <path
         style="fill:none;stroke:#000000;stroke-width:0.264583px;stroke-linecap:butt;stroke-linejoin:miter;stroke-opacity:1"
         d="m 92.234711,185.59196 2.057977,96.16357 195.694752,0.18709 0.18708,-125.16232 -51.82356,1.30962 1.49671,13.84457 z"
         id="path2171"
         sodipodi:nodetypes="ccccccc" />
    </clipPath>
  </defs>
  <g
     inkscape:label="Icons"
     inkscape:groupmode="layer"
     id="layer1"
     style="display:inline">
    <path
       id="circle6548"
       style="fill:none;stroke:url(#Icons);stroke-width:0.264583;stroke-linecap:round;stroke-linejoin:round;stroke-miterlimit:10;paint-order:markers fill stroke"
       d="m 8.0302962,3.2544543 a 0.13229184,0.13229184 0 0 1 -0.132292,0.132292 0.13229184,0.13229184 0 0 1 -0.132292,-0.132292 0.13229184,0.13229184 0 0 1 0.132292,-0.132292 0.13229184,0.13229184 0 0 1 0.132292,0.132292 z m -0.696076,-0.168728 a 0.13229184,0.13229184 0 0 1 -0.132291,0.132292 0.13229184,0.13229184 0 0 1 -0.132292,-0.132292 0.13229184,0.13229184 0 0 1 0.132292,-0.132292 0.13229184,0.13229184 0 0 1 0.132291,0.132292 z m -2.791486,3.21409 c 0.570764,0.389865 1.044328,0.300198 1.449848,-0.125132 m 1.246298,-1.985421 c 0.0579,-0.445589 0.275525,-0.834237 0.587865,-1.046287 m -0.943244,1.062873 c -0.09,-0.440231 -0.01001,-0.902695 0.216749,-1.20471 m -1.107644,3.173547 c 0.297323,2e-6 0.607302,-1.113379 0.607302,-1.568849 -3e-6,-0.455482 0.455455,-0.455484 0.708512,-0.404858 0.253027,0.0506 0.404861,0.25303 0.303647,0.404857 -0.101213,0.151826 -0.303648,0.202432 -0.303648,0.202432 0,0 -0.556691,2.821629 -1.315809,2.821631 l -3.439583,-3e-6 c 0.181319,-0.304237 0.568859,-0.591629 1.049337,-0.678882 m 0.437313,-0.760078 c 0.01042,0.04595 -0.04002,0.07812 -0.07978,0.08025 -0.09672,0.0057 -0.156046,-0.09647 -0.152571,-0.182377 0.007,-0.171652 0.187797,-0.269964 0.343838,-0.253269 0.274347,0.02937 0.425083,0.320145 0.385897,0.57366 -0.06307,0.408038 -0.499225,0.626136 -0.880811,0.553565 -0.575803,-0.109504 -0.877614,-0.730303 -0.759244,-1.273633 0.170054,-0.780533 1.018336,-1.183772 1.760012,-1.005755 0.704649,0.169127 1.217917,0.787388 1.335282,1.491066" />
  </g>
</svg>
