<?xml version="1.0" encoding="UTF-8" standalone="no"?>
<!-- Created with Inkscape (http://www.inkscape.org/) -->

<svg
   version="1.1"
   id="svg2"
   xml:space="preserve"
   width="1080"
   height="1080"
   viewBox="0 0 1080 1080"
   sodipodi:docname="Anchor-v5.svg"
   inkscape:version="1.2.1 (9c6d41e410, 2022-07-14)"
   inkscape:export-filename="Anchor-v5 smooth stepped.png"
   inkscape:export-xdpi="384"
   inkscape:export-ydpi="384"
   xmlns:inkscape="http://www.inkscape.org/namespaces/inkscape"
   xmlns:sodipodi="http://sodipodi.sourceforge.net/DTD/sodipodi-0.dtd"
   xmlns:xlink="http://www.w3.org/1999/xlink"
   xmlns="http://www.w3.org/2000/svg"
   xmlns:svg="http://www.w3.org/2000/svg"><defs
     id="defs6"><linearGradient
       inkscape:collect="always"
       id="linearGradient7136"><stop
         style="stop-color:#edc359;stop-opacity:1;"
         offset="0"
         id="stop7126" /><stop
         style="stop-color:#edc359;stop-opacity:1;"
         offset="0.2"
         id="stop7128" /><stop
         style="stop-color:#e76f99;stop-opacity:1;"
         offset="0.2"
         id="stop7138" /><stop
         style="stop-color:#e76f99;stop-opacity:1;"
         offset="0.40000001"
         id="stop7140" /><stop
         style="stop-color:#a17bc3;stop-opacity:1;"
         offset="0.40000001"
         id="stop7130" /><stop
         style="stop-color:#a17bc3;stop-opacity:1;"
         offset="0.60000002"
         id="stop7142" /><stop
         style="stop-color:#4fbeed;stop-opacity:1;"
         offset="0.60000002"
         id="stop7132" /><stop
         style="stop-color:#4fbeed;stop-opacity:1;"
         offset="0.80000001"
         id="stop7144" /><stop
         style="stop-color:#2ec4b5;stop-opacity:1;"
         offset="0.80000001"
         id="stop7146" /><stop
         style="stop-color:#2ec4b5;stop-opacity:1;"
         offset="1"
         id="stop7134" /></linearGradient><linearGradient
       inkscape:collect="always"
       id="linearGradient5190"><stop
         style="stop-color:#f7c54f;stop-opacity:1;"
         offset="0"
         id="stop5186" /><stop
         style="stop-color:#f96395;stop-opacity:1;"
         offset="0.25"
         id="stop5539" /><stop
         style="stop-color:#a657f3;stop-opacity:1;"
         offset="0.5"
         id="stop5881" /><stop
         style="stop-color:#48bff4;stop-opacity:1;"
         offset="0.75"
         id="stop6159" /><stop
         style="stop-color:#0de5cd;stop-opacity:1;"
         offset="1"
         id="stop5188" /></linearGradient><filter
       style="color-interpolation-filters:sRGB"
       inkscape:label="Invert"
       id="filter1659"
       x="0"
       y="0"
       width="1"
       height="1"><feColorMatrix
         type="hueRotate"
         values="180"
         result="color1"
         id="feColorMatrix1655" /><feColorMatrix
         values="0 0 -1 0 1 0 -1 0 0 1 -1 0 0 0 1 -0.21 -0.72 -0.07 2 0 "
         result="color2"
         id="feColorMatrix1657" /></filter><filter
       x="0"
       y="0"
       width="1"
       height="1"
       id="id1"><feColorMatrix
         values="0 0 0 0 1 0 0 0 0 1 0 0 0 0 1 0 0 0 1 0"
         color-interpolation-filters="sRGB"
         id="feColorMatrix2" /></filter><mask
       id="id2"><g
         filter="url(#id1)"
         id="g7"><rect
           x="-81"
           width="972"
           fill="#000000"
           y="-80.999999"
           height="971.999992"
           fill-opacity="0.149"
           id="rect5" /></g></mask><clipPath
       id="id3"><path
         d="M 1 0 L 352 0 L 352 239 L 1 239 Z M 1 0 "
         clip-rule="nonzero"
         id="path10" /></clipPath><clipPath
       id="id4"><path
         d="M 107 0 L 353.300781 0 L 353.300781 242.746094 L 107 242.746094 Z M 107 0 "
         clip-rule="nonzero"
         id="path13" /></clipPath><clipPath
       id="id5"><rect
         x="0"
         width="354"
         y="0"
         height="244"
         id="rect16" /></clipPath><mask
       id="id6"><g
         filter="url(#id1)"
         id="g21"><rect
           x="-81"
           width="972"
           fill="#000000"
           y="-80.999999"
           height="971.999992"
           fill-opacity="0.149"
           id="rect19" /></g></mask><clipPath
       id="id7"><path
         d="M 0 4 L 145 4 L 145 248 L 0 248 Z M 0 4 "
         clip-rule="nonzero"
         id="path24" /></clipPath><clipPath
       id="id8"><path
         d="M 0 19 L 141 19 L 141 243 L 0 243 Z M 0 19 "
         clip-rule="nonzero"
         id="path27" /></clipPath><clipPath
       id="id9"><path
         d="M 0 6 L 85 6 L 85 206 L 0 206 Z M 0 6 "
         clip-rule="nonzero"
         id="path30" /></clipPath><clipPath
       id="id10"><rect
         x="0"
         width="150"
         y="0"
         height="250"
         id="rect33" /></clipPath><mask
       id="id11"><g
         filter="url(#id1)"
         id="g38"><rect
           x="-81"
           width="972"
           fill="#000000"
           y="-80.999999"
           height="971.999992"
           fill-opacity="0.149"
           id="rect36" /></g></mask><clipPath
       id="id12"><path
         d="M 6 1 L 168 1 L 168 205 L 6 205 Z M 6 1 "
         clip-rule="nonzero"
         id="path41" /></clipPath><clipPath
       id="id13"><path
         d="M 11 77 L 168 77 L 168 221 L 11 221 Z M 11 77 "
         clip-rule="nonzero"
         id="path44" /></clipPath><clipPath
       id="id14"><path
         d="M 49 6 L 168 6 L 168 207 L 49 207 Z M 49 6 "
         clip-rule="nonzero"
         id="path47" /></clipPath><clipPath
       id="id15"><path
         d="M 0.265625 13 L 168 13 L 168 231.566406 L 0.265625 231.566406 Z M 0.265625 13 "
         clip-rule="nonzero"
         id="path50" /></clipPath><clipPath
       id="id16"><path
         d="M 14 22 L 168 22 L 168 209 L 14 209 Z M 14 22 "
         clip-rule="nonzero"
         id="path53" /></clipPath><clipPath
       id="id17"><rect
         x="0"
         width="168"
         y="0"
         height="232"
         id="rect56" /></clipPath><mask
       id="id18"><g
         filter="url(#id1)"
         id="g61"><rect
           x="-81"
           width="972"
           fill="#000000"
           y="-80.999999"
           height="971.999992"
           fill-opacity="0.149"
           id="rect59" /></g></mask><clipPath
       id="id19"><path
         d="M 0.535156 5 L 197 5 L 197 318 L 0.535156 318 Z M 0.535156 5 "
         clip-rule="nonzero"
         id="path64" /></clipPath><clipPath
       id="id20"><path
         d="M 24 26.164062 L 253.15625 26.164062 L 253.15625 318 L 24 318 Z M 24 26.164062 "
         clip-rule="nonzero"
         id="path67" /></clipPath><clipPath
       id="id21"><path
         d="M 5 13 L 247 13 L 247 318 L 5 318 Z M 5 13 "
         clip-rule="nonzero"
         id="path70" /></clipPath><clipPath
       id="id22"><path
         d="M 63 51 L 225 51 L 225 318 L 63 318 Z M 63 51 "
         clip-rule="nonzero"
         id="path73" /></clipPath><clipPath
       id="id23"><path
         d="M 21 50 L 228 50 L 228 318 L 21 318 Z M 21 50 "
         clip-rule="nonzero"
         id="path76" /></clipPath><clipPath
       id="id24"><rect
         x="0"
         width="255"
         y="0"
         height="318"
         id="rect79" /></clipPath><mask
       id="id25"><g
         filter="url(#id1)"
         id="g84"><rect
           x="-81"
           width="972"
           fill="#000000"
           y="-80.999999"
           height="971.999992"
           fill-opacity="0.149"
           id="rect82" /></g></mask><clipPath
       id="id26"><path
         d="M 0 0.695312 L 122.929688 0.695312 L 122.929688 257.171875 L 0 257.171875 Z M 0 0.695312 "
         clip-rule="nonzero"
         id="path87" /></clipPath><clipPath
       id="id27"><path
         d="M 0 24 L 167 24 L 167 252 L 0 252 Z M 0 24 "
         clip-rule="nonzero"
         id="path90" /></clipPath><clipPath
       id="id28"><path
         d="M 0 37.5625 L 180.210938 37.5625 L 180.210938 228 L 0 228 Z M 0 37.5625 "
         clip-rule="nonzero"
         id="path93" /></clipPath><clipPath
       id="id29"><path
         d="M 0 37 L 120 37 L 120 223 L 0 223 Z M 0 37 "
         clip-rule="nonzero"
         id="path96" /></clipPath><clipPath
       id="id30"><path
         d="M 0 26 L 173 26 L 173 245 L 0 245 Z M 0 26 "
         clip-rule="nonzero"
         id="path99" /></clipPath><clipPath
       id="id31"><rect
         x="0"
         width="182"
         y="0"
         height="258"
         id="rect102" /></clipPath><mask
       id="id32"><g
         filter="url(#id1)"
         id="g107"><rect
           x="-81"
           width="972"
           fill="#000000"
           y="-80.999999"
           height="971.999992"
           fill-opacity="0.149"
           id="rect105" /></g></mask><clipPath
       id="id33"><path
         d="M 54 47 L 185 47 L 185 222 L 54 222 Z M 54 47 "
         clip-rule="nonzero"
         id="path110" /></clipPath><clipPath
       id="id34"><path
         d="M 129 52 L 185 52 L 185 202 L 129 202 Z M 129 52 "
         clip-rule="nonzero"
         id="path113" /></clipPath><clipPath
       id="id35"><path
         d="M 94 206 L 155 206 L 155 268.796875 L 94 268.796875 Z M 94 206 "
         clip-rule="nonzero"
         id="path116" /></clipPath><clipPath
       id="id36"><path
         d="M 1.347656 1.046875 L 185 1.046875 L 185 262 L 1.347656 262 Z M 1.347656 1.046875 "
         clip-rule="nonzero"
         id="path119" /></clipPath><clipPath
       id="id37"><rect
         x="0"
         width="185"
         y="0"
         height="270"
         id="rect122" /></clipPath><linearGradient
       inkscape:collect="always"
       xlink:href="#linearGradient15215"
       id="linearGradient15217"
       x1="741.7887"
       y1="367.86038"
       x2="950.36816"
       y2="689.48151"
       gradientUnits="userSpaceOnUse" /><linearGradient
       inkscape:collect="always"
       id="linearGradient15215"><stop
         style="stop-color:#f7a466;stop-opacity:1"
         offset="0"
         id="stop15211" /><stop
         style="stop-color:#ef6dc5;stop-opacity:1"
         offset="1"
         id="stop15213" /></linearGradient><linearGradient
       inkscape:collect="always"
       xlink:href="#linearGradient15215"
       id="linearGradient2193"
       gradientUnits="userSpaceOnUse"
       x1="741.7887"
       y1="367.86038"
       x2="950.36816"
       y2="689.48151"
       gradientTransform="matrix(1.3100007,0,0,1.3093829,-536.77018,9.0466288)" /><linearGradient
       id="white"
       inkscape:swatch="solid"
       gradientTransform="matrix(0,0,0,0,1189.4448,-780.14211)"><stop
         style="stop-color:#ffffff;stop-opacity:1;"
         offset="0"
         id="stop4439" /></linearGradient><linearGradient
       id="dark-blue"
       inkscape:swatch="solid"
       gradientTransform="matrix(12.190581,0,0,12.190581,-7844.7204,-915.91079)"><stop
         style="stop-color:#05667d;stop-opacity:1;"
         offset="0"
         id="stop32118" /></linearGradient><linearGradient
       inkscape:collect="always"
       xlink:href="#linearGradient15215"
       id="linearGradient2193-9"
       gradientUnits="userSpaceOnUse"
       x1="741.7887"
       y1="367.86038"
       x2="950.36816"
       y2="689.48151"
       gradientTransform="matrix(1.3100007,0,0,1.3093829,-181.08397,534.49664)" /><clipPath
       clipPathUnits="userSpaceOnUse"
       id="clipPath1492"><path
         id="path1494"
         style="fill:#d2894f;fill-opacity:1;stroke:none;stroke-width:0;stroke-dasharray:none;paint-order:stroke fill markers;stop-color:#000000"
         d="M -3.6476408,-15.65135 V 160.39774 H 135.81277 V -15.65135 Z M 44.053366,-4.612088 h 44.054747 c 1.536384,0 2.74018,1.203792 2.74018,2.740176 0,1.53638684 -1.203796,2.73835124 -2.74018,2.73835124 H 86.21008 c -1.734997,0 -3.174951,1.45250416 -3.174951,3.18043386 V 37.886239 c 0,4.493295 0.941403,8.936297 2.765752,13.043242 l 7.544625,16.981793 c -0.622218,0.316763 -1.244772,0.634966 -1.866971,0.951757 -4.363276,2.221641 -7.186194,1.993556 -9.939543,0.639371 -2.75334,-1.354176 -5.415075,-4.151157 -8.291773,-7.343673 -2.876698,-3.192517 -5.980668,-6.748084 -10.005305,-9.351315 -3.018473,-1.952421 -6.596946,-3.320935 -10.805431,-3.516556 -1.402828,-0.06519 -2.875228,1.12e-4 -4.42082,0.217385 -0.376323,0.05303 -0.75248,0.105205 -1.128952,0.157105 1.477306,-3.748831 2.241466,-7.742706 2.241466,-11.779109 V 4.0468731 c 0,-1.7279335 -1.441786,-3.18042638 -3.176779,-3.18043386 h -1.898032 c -1.53638,0 -2.738349,-1.2019644 -2.738349,-2.73835124 0,-1.536384 1.201965,-2.740176 2.738349,-2.740176 z" /></clipPath><filter
       style="color-interpolation-filters:sRGB"
       inkscape:label="Drop Shadow"
       id="filter1212"
       x="-0.038301825"
       y="-0.02964657"
       width="1.0766036"
       height="1.061146"><feFlood
         flood-opacity="0.498039"
         flood-color="rgb(0,0,0)"
         result="flood"
         id="feFlood1202" /><feComposite
         in="flood"
         in2="SourceGraphic"
         operator="in"
         result="composite1"
         id="feComposite1204" /><feGaussianBlur
         in="composite1"
         stdDeviation="2"
         result="blur"
         id="feGaussianBlur1206" /><feOffset
         dx="0"
         dy="0.3"
         result="offset"
         id="feOffset1208" /><feComposite
         in="SourceGraphic"
         in2="offset"
         operator="over"
         result="composite2"
         id="feComposite1210"
         dy="0" /></filter><linearGradient
       inkscape:collect="always"
       xlink:href="#linearGradient5190"
       id="linearGradient5192"
       x1="107.68839"
       y1="342.27417"
       x2="1030.1851"
       y2="584.77081"
       gradientUnits="userSpaceOnUse"
       gradientTransform="translate(14,14)" /><linearGradient
       inkscape:collect="always"
       xlink:href="#linearGradient7136"
       id="linearGradient7124"
       gradientUnits="userSpaceOnUse"
       x1="107.68839"
       y1="342.27417"
       x2="1030.1851"
       y2="584.77081"
       gradientTransform="translate(14,14)" /><linearGradient
       inkscape:collect="always"
       xlink:href="#linearGradient5190-0"
       id="linearGradient5192-4"
       x1="107.68839"
       y1="342.27417"
       x2="1030.1851"
       y2="584.77081"
       gradientUnits="userSpaceOnUse"
       gradientTransform="translate(13.999999,14.00022)" /><linearGradient
       inkscape:collect="always"
       id="linearGradient5190-0"><stop
         style="stop-color:#edc359;stop-opacity:1;"
         offset="0"
         id="stop5186-9" /><stop
         style="stop-color:#ed6f96;stop-opacity:1;"
         offset="0.25"
         id="stop5539-7" /><stop
         style="stop-color:#a17bc3;stop-opacity:1;"
         offset="0.5"
         id="stop5881-0" /><stop
         style="stop-color:#4fbeed;stop-opacity:1;"
         offset="0.75"
         id="stop6159-0" /><stop
         style="stop-color:#2ec4b5;stop-opacity:1;"
         offset="1"
         id="stop5188-6" /></linearGradient><linearGradient
       inkscape:collect="always"
       xlink:href="#linearGradient5190-6"
       id="linearGradient5192-3"
       x1="107.68839"
       y1="342.27417"
       x2="1030.1851"
       y2="584.77081"
       gradientUnits="userSpaceOnUse"
       gradientTransform="translate(14.000028,14.000222)" /><linearGradient
       inkscape:collect="always"
       id="linearGradient5190-6"><stop
         style="stop-color:#f7c54f;stop-opacity:1;"
         offset="0"
         id="stop5186-8" /><stop
         style="stop-color:#f96395;stop-opacity:1;"
         offset="0.25"
         id="stop5539-5" /><stop
         style="stop-color:#9b57dd;stop-opacity:1;"
         offset="0.5"
         id="stop5881-6" /><stop
         style="stop-color:#48bff4;stop-opacity:1;"
         offset="0.75"
         id="stop6159-3" /><stop
         style="stop-color:#0de5cd;stop-opacity:1;"
         offset="1"
         id="stop5188-3" /></linearGradient></defs><sodipodi:namedview
     id="namedview4"
     pagecolor="#292929"
     bordercolor="#666666"
     borderopacity="1.0"
     inkscape:pageshadow="2"
     inkscape:pageopacity="0"
     inkscape:pagecheckerboard="0"
     showgrid="false"
     inkscape:zoom="0.35355339"
     inkscape:cx="234.75945"
     inkscape:cy="425.67828"
     inkscape:window-width="1920"
     inkscape:window-height="1001"
     inkscape:window-x="-9"
     inkscape:window-y="-9"
     inkscape:window-maximized="1"
     inkscape:current-layer="layer3"
     inkscape:object-paths="true"
     inkscape:snap-nodes="true"
     inkscape:snap-bbox="true"
     inkscape:snap-bbox-midpoints="false"
     inkscape:bbox-nodes="false"
     inkscape:snap-smooth-nodes="true"
     inkscape:snap-bbox-edge-midpoints="true"
     inkscape:bbox-paths="true"
     width="800px"
     inkscape:snap-page="true"
     inkscape:showpageshadow="0"
     inkscape:deskcolor="#d1d1d1" /><g
     inkscape:groupmode="layer"
     id="g2281"
     inkscape:label="Anchor editable"
     style="display:none"><g
       id="g12465"
       inkscape:label="Crown"
       transform="matrix(0.88818564,0,0,0.88119726,100.72177,104.89188)"
       style="stroke-width:1.13035"><path
         style="fill:#ffffff;fill-opacity:1;stroke:none;stroke-width:0;stroke-linecap:round;stroke-linejoin:round;stroke-miterlimit:10.1;stroke-dasharray:none;stroke-opacity:1;paint-order:markers fill stroke;stop-color:#000000"
         id="path1340"
         sodipodi:type="arc"
         sodipodi:cx="475.32458"
         sodipodi:cy="475.36035"
         sodipodi:rx="511.17963"
         sodipodi:ry="511.17963"
         sodipodi:start="5.9341195"
         sodipodi:end="1.9198622"
         sodipodi:arc-type="arc"
         d="M 955.67632,300.52664 A 511.17963,511.17963 0 0 1 836.78315,836.81894 511.17963,511.17963 0 0 1 300.49084,955.71207"
         sodipodi:open="true" /><path
         style="fill:#000000;fill-opacity:1;stroke:none;stroke-width:0;stroke-linecap:round;stroke-linejoin:round;stroke-miterlimit:10.1;stroke-dasharray:none;stroke-opacity:1;paint-order:markers fill stroke;stop-color:#000000"
         id="path3060"
         sodipodi:type="arc"
         sodipodi:cx="378.62817"
         sodipodi:cy="378.59241"
         sodipodi:rx="558.8689"
         sodipodi:ry="558.8689"
         sodipodi:start="5.9341195"
         sodipodi:end="1.9198622"
         sodipodi:arc-type="arc"
         d="M 903.79316,187.44801 A 558.8689,558.8689 0 0 1 773.80815,773.77241 558.8689,558.8689 0 0 1 187.48374,903.75738"
         sodipodi:open="true" /><g
         id="g5001"
         transform="rotate(-5.7965842,2307.7848,-3269.2522)"
         style="stroke-width:1.13035"><path
           id="path4743"
           style="fill:#ffffff;fill-opacity:1;stroke:none;stroke-width:0;stroke-linecap:round;stroke-linejoin:round;stroke-miterlimit:10.1;stroke-dasharray:none;stroke-opacity:1;paint-order:markers fill stroke;stop-color:#000000"
           d="m 583.2009,114.74579 c -10.09918,60.06755 -20.89432,90.12314 -31.72668,118.57398 l 41.4029,-31.31279 46.84572,25.86444 C 625.25379,188.50502 608.71681,149.92284 583.2009,114.74579 Z"
           sodipodi:nodetypes="ccccc" /><path
           id="path7966"
           style="fill:#ffffff;fill-opacity:1;stroke:none;stroke-width:0;stroke-linecap:round;stroke-linejoin:round;stroke-miterlimit:10.1;stroke-dasharray:none;stroke-opacity:1;paint-order:markers fill stroke;stop-color:#000000"
           d="m -142.46342,706.65504 c 60.871669,2.1781 92.483499,-2.35681 122.530809,-7.25067 l -38.99436,34.2656 15.92261,51.08778 c -35.65557,-22.08499 -70.127359,-46.03812 -99.459059,-78.10271 z"
           sodipodi:nodetypes="ccccc" /></g></g><g
       id="g4348"
       inkscape:label="Shank"
       transform="translate(14,14)"><rect
         style="display:inline;fill:#ffffff;fill-opacity:1;stroke:#ffffff;stroke-width:40;stroke-linecap:round;stroke-linejoin:round;stroke-miterlimit:10.1;stroke-dasharray:none;stroke-opacity:1;paint-order:markers fill stroke;stop-color:#000000"
         id="rect3760"
         width="50.215729"
         height="29.837036"
         x="-25.107861"
         y="357.44687"
         transform="rotate(-45)" /><rect
         style="fill:#ffffff;fill-opacity:1;stroke-width:0;stroke-linecap:round;stroke-linejoin:round;stroke-miterlimit:10.1;paint-order:markers fill stroke;stop-color:#000000"
         id="rect1182"
         width="900"
         height="70"
         x="313.67532"
         y="-35"
         transform="rotate(45)"
         rx="35"
         inkscape:label="rect4128"
         ry="35" /></g><g
       id="g4355"
       inkscape:label="Stock"
       transform="translate(14,14)"><path
         style="fill:none;fill-opacity:1;stroke:#ffffff;stroke-width:30;stroke-linecap:round;stroke-linejoin:round;stroke-miterlimit:10.1;stroke-dasharray:none;stroke-opacity:1;paint-order:markers fill stroke;stop-color:#000000"
         d="M 557,95 306,306 95,557"
         id="path14888"
         sodipodi:nodetypes="ccc" /><g
         id="g3358"
         transform="matrix(0.3761514,0.44745974,-0.44745974,0.3761514,478.44996,-44.87373)"
         inkscape:transform-center-y="-23.113204"
         inkscape:transform-center-x="-25.102524"><path
           id="path3356"
           style="fill:#ffffff;fill-opacity:1;stroke:none;stroke-width:0;stroke-linecap:round;stroke-linejoin:round;stroke-miterlimit:10.1;stroke-dasharray:none;paint-order:markers fill stroke;stop-color:#000000"
           d="m 287.48233,125.45332 c 25.40449,-31.199308 34.6983,-45.816646 36.76955,-59.750524 5.44151,-36.606589 -26.1225,-36.825009 -54.624,-36.825009 -28.5015,0 -60.06551,0.21842 -54.624,36.825009 2.07125,13.933878 11.36506,28.551216 36.76955,59.750524 h 17.85445 z"
           sodipodi:nodetypes="csssccc" /></g><g
         id="g3503"
         transform="matrix(0.44745974,0.3761514,0.3761514,-0.44745974,-44.873508,478.45038)"
         inkscape:transform-center-y="25.102529"
         inkscape:transform-center-x="23.113204"><path
           id="path3501"
           style="fill:#ffffff;fill-opacity:1;stroke:none;stroke-width:0;stroke-linecap:round;stroke-linejoin:round;stroke-miterlimit:10.1;stroke-dasharray:none;paint-order:markers fill stroke;stop-color:#000000"
           d="m 287.48233,125.45332 c 25.40449,-31.199308 34.6983,-45.816646 36.76955,-59.750524 5.44151,-36.606589 -26.1225,-36.825009 -54.624,-36.825009 -28.5015,0 -60.06551,0.21842 -54.624,36.825009 2.07125,13.933878 11.36506,28.551216 36.76955,59.750524 h 17.85445 z"
           sodipodi:nodetypes="csssccc" /></g></g><g
       id="g4529"
       inkscape:label="Chain"
       transform="translate(14,14)"><circle
         style="display:inline;fill:none;fill-opacity:1;stroke:#ffffff;stroke-width:20;stroke-linecap:round;stroke-linejoin:round;stroke-miterlimit:10.1;stroke-dasharray:none;stroke-opacity:1;paint-order:markers fill stroke;stop-color:#000000"
         id="path12587"
         cx="314.85281"
         cy="314.85281"
         r="84.852814" /><rect
         style="fill:none;stroke:#ffffff;stroke-width:15;stroke-linecap:round;stroke-linejoin:round;stroke-miterlimit:10.1;stroke-dasharray:none;stroke-opacity:1;paint-order:markers fill stroke;stop-color:#000000"
         id="rect1027"
         width="45"
         height="75"
         x="354.72632"
         y="300.04398"
         rx="22.5"
         ry="22.5"
         transform="rotate(13.641374)"
         inkscape:transform-center-x="8.8441453"
         inkscape:transform-center-y="36.442167" /><rect
         style="fill:none;stroke:#ffffff;stroke-width:15.002;stroke-linecap:round;stroke-linejoin:round;stroke-miterlimit:10.1;stroke-dasharray:none;stroke-opacity:1;paint-order:markers fill stroke;stop-color:#000000"
         id="rect4281"
         width="21.899137"
         height="74.993805"
         x="312.10068"
         y="400.8103"
         rx="22.491842"
         ry="22.499035"
         transform="matrix(0.99258837,0.12152505,-0.09858413,0.99512872,0,0)"
         inkscape:transform-center-x="3.6966053"
         inkscape:transform-center-y="37.314259" /><rect
         style="fill:none;stroke:#ffffff;stroke-width:15;stroke-linecap:round;stroke-linejoin:round;stroke-miterlimit:10.1;stroke-dasharray:none;stroke-opacity:1;paint-order:markers fill stroke;stop-color:#000000"
         id="rect4283"
         width="45"
         height="75"
         x="207.12119"
         y="519.05756"
         rx="22.5"
         ry="22.5"
         transform="rotate(-4.8563513)"
         inkscape:transform-center-x="-3.1746625"
         inkscape:transform-center-y="37.365379" /><rect
         style="fill:none;stroke:#ffffff;stroke-width:15.002;stroke-linecap:round;stroke-linejoin:round;stroke-miterlimit:10.1;stroke-dasharray:none;stroke-opacity:1;paint-order:markers fill stroke;stop-color:#000000"
         id="rect4285"
         width="21.899137"
         height="74.993805"
         x="134.91789"
         y="602.14093"
         rx="22.491842"
         ry="22.499035"
         transform="matrix(0.97958218,-0.20104417,0.223599,0.97468122,0,0)"
         inkscape:transform-center-x="-8.3842874"
         inkscape:transform-center-y="36.547563" /><rect
         style="fill:none;stroke:#ffffff;stroke-width:15;stroke-linecap:round;stroke-linejoin:round;stroke-miterlimit:10.1;stroke-dasharray:none;stroke-opacity:1;paint-order:markers fill stroke;stop-color:#000000"
         id="rect4287"
         width="45"
         height="75"
         x="65.12365"
         y="675.15393"
         rx="22.5"
         ry="22.5"
         transform="rotate(-17.723156)"
         inkscape:transform-center-x="-11.415677"
         inkscape:transform-center-y="35.720195" /><rect
         style="fill:none;stroke:#ffffff;stroke-width:15.002;stroke-linecap:round;stroke-linejoin:round;stroke-miterlimit:10.1;stroke-dasharray:none;stroke-opacity:1;paint-order:markers fill stroke;stop-color:#000000"
         id="rect4289"
         width="21.899137"
         height="74.993805"
         x="159.47346"
         y="716.31097"
         rx="22.491842"
         ry="22.499035"
         transform="matrix(0.98515247,-0.17168169,0.1943729,0.98092771,0,0)"
         inkscape:transform-center-x="-7.2883901"
         inkscape:transform-center-y="36.781768" /><rect
         style="fill:none;stroke:#ffffff;stroke-width:15;stroke-linecap:round;stroke-linejoin:round;stroke-miterlimit:10.1;stroke-dasharray:none;stroke-opacity:1;paint-order:markers fill stroke;stop-color:#000000"
         id="rect4291"
         width="45"
         height="75"
         x="226.68767"
         y="758.38855"
         rx="22.5"
         ry="22.5"
         transform="rotate(-5.3941431)"
         inkscape:transform-center-x="-3.5252329"
         inkscape:transform-center-y="37.333915" /><rect
         style="fill:none;stroke:#ffffff;stroke-width:15.002;stroke-linecap:round;stroke-linejoin:round;stroke-miterlimit:10.1;stroke-dasharray:none;stroke-opacity:1;paint-order:markers fill stroke;stop-color:#000000"
         id="rect4358"
         width="21.899137"
         height="74.993805"
         x="507.21747"
         y="671.12274"
         rx="22.491842"
         ry="22.499035"
         transform="matrix(0.96122025,0.27578187,-0.25352382,0.96732914,0,0)"
         inkscape:transform-center-x="9.5063611"
         inkscape:transform-center-y="36.271832" /><rect
         style="fill:none;stroke:#ffffff;stroke-width:15;stroke-linecap:round;stroke-linejoin:round;stroke-miterlimit:10.1;stroke-dasharray:none;stroke-opacity:1;paint-order:markers fill stroke;stop-color:#000000"
         id="rect4360"
         width="45"
         height="75"
         x="840.05914"
         y="291.22092"
         rx="22.5"
         ry="22.5"
         transform="rotate(50.943592)"
         inkscape:transform-center-x="29.119769"
         inkscape:transform-center-y="23.628137" /><rect
         style="fill:none;stroke:#ffffff;stroke-width:15.002;stroke-linecap:round;stroke-linejoin:round;stroke-miterlimit:10.1;stroke-dasharray:none;stroke-opacity:1;paint-order:markers fill stroke;stop-color:#000000"
         id="rect4362"
         width="21.899137"
         height="74.993805"
         x="921.03027"
         y="-0.3760843"
         rx="22.491842"
         ry="22.499035"
         transform="matrix(0.29097054,0.95673201,-0.94976168,0.31297405,0,0)"
         inkscape:transform-center-x="35.613129"
         inkscape:transform-center-y="11.735523" /></g></g><g
     inkscape:groupmode="layer"
     id="g4738"
     inkscape:label="Anchor baked smooth"
     style="display:none"><path
       id="rect4734-4"
       style="color:#000000;display:inline;mix-blend-mode:normal;fill:url(#linearGradient5192-4);fill-opacity:1;fill-rule:nonzero;stroke-width:0.999867;stroke-linecap:round;stroke-linejoin:round;stroke-miterlimit:10.1;-inkscape-stroke:none;paint-order:markers fill stroke"
       d="m 292.66009,903.19049 c -2.086,-6.85892 -8.55032,-9.66144 -14.46812,-10.48909 -5.91781,-0.82766 -12.54395,-0.0316 -19.39348,2.22548 l -28.48915,9.388 c -6.84952,2.25712 -12.70673,5.57473 -17.08886,9.79651 -4.38212,4.22178 -8.12124,10.38662 -6.03524,17.24554 2.08601,6.85892 8.55217,9.66082 14.46997,10.48848 5.91781,0.82765 12.54153,0.0304 19.39106,-2.22674 l 28.48914,-9.388 c 6.84953,-2.25712 12.70916,-5.57347 17.09129,-9.79526 4.38214,-4.22178 8.11938,-10.38601 6.03339,-17.24492 z m -15.00327,4.94401 c -0.24562,0.36909 -0.41215,0.69828 -1.1919,1.44948 -2.19091,2.11076 -6.3059,4.6499 -11.29463,6.29383 l -28.48914,9.388 c -4.98873,1.64393 -9.75781,2.03235 -12.71653,1.61855 -1.05299,-0.14727 -1.37118,-0.31673 -1.77611,-0.47144 0.24561,-0.36909 0.41146,-0.70003 1.19133,-1.45136 2.19092,-2.11075 6.30591,-4.6499 11.29464,-6.29383 l 28.48914,-9.388 c 4.98873,-1.64393 9.75781,-2.03235 12.71652,-1.61855 1.05317,0.14729 1.37177,0.31859 1.77668,0.47332 z m 59.51207,-45.56688 c -10.39026,-12.80511 -29.39323,-14.78349 -42.19835,-4.39323 l -23.29577,18.90256 c -12.80511,10.39027 -14.7835,29.39323 -4.39323,42.19833 10.39028,12.80512 29.39323,14.7835 42.19833,4.39323 l 23.29578,-18.90256 c 12.80511,-10.39026 14.7835,-29.39322 4.39324,-42.19833 z m -11.64789,9.45127 c 5.31774,6.55367 4.35705,15.78143 -2.19662,21.09917 l -23.29577,18.90256 c -6.55368,5.31774 -15.78143,4.35705 -21.09918,-2.19661 -5.31774,-6.55367 -4.35705,-15.78143 2.19662,-21.09917 l 23.29577,-18.90256 c 6.55366,-5.31774 15.78143,-4.35705 21.09918,2.19661 z m 18.30878,-73.17732 c -6.89109,-1.97711 -12.75943,1.92702 -16.6707,6.44449 -3.91127,4.51746 -6.84227,10.51066 -8.67064,17.48689 l -7.60473,29.0161 c -1.82838,6.97622 -2.22961,13.69727 -1.06775,19.67025 1.16188,5.97299 4.30658,12.46101 11.19768,14.43812 6.89109,1.97711 12.75707,-1.92567 16.66833,-6.44313 3.91127,-4.51747 6.84277,-10.51256 8.67115,-17.48878 l 7.60472,-29.01611 c 1.82837,-6.97622 2.2291,-13.69537 1.06724,-19.66836 -1.16186,-5.973 -4.30419,-12.46236 -11.1953,-14.43947 z m -4.00439,15.2789 c 0.17636,0.40667 0.36143,0.72644 0.56834,1.79019 0.5809,2.9863 0.47558,7.82047 -0.85609,12.90148 l -7.60472,29.0161 c -1.33166,5.081 -3.5978,9.29522 -5.55331,11.5538 -0.69657,0.80454 -1.01164,0.98081 -1.36158,1.23649 -0.17638,-0.40661 -0.36319,-0.72639 -0.57023,-1.79074 -0.58089,-2.9863 -0.47557,-7.82047 0.85609,-12.90148 l 7.60473,-29.0161 c 1.33166,-5.081 3.5978,-9.29522 5.5533,-11.5538 0.69697,-0.80499 1.01355,-0.98034 1.36347,-1.23594 z m -7.15296,-75.98209 c -16.41721,1.55019 -28.59714,16.27012 -27.04694,32.68735 l 2.8202,29.86714 c 1.55018,16.41724 16.27012,28.59715 32.68734,27.04696 16.41723,-1.5502 28.59714,-16.27011 27.04694,-32.68735 l -2.82019,-29.86715 c -1.5502,-16.41722 -16.27012,-28.59714 -32.68735,-27.04695 z m 1.4101,14.93358 c 8.40236,-0.79339 15.55028,5.12113 16.34367,13.52347 l 2.8202,29.86715 c 0.79339,8.40235 -5.12113,15.55028 -13.52348,16.34367 -8.40234,0.79339 -15.55028,-5.12113 -16.34367,-13.52347 l -2.8202,-29.86715 c -0.79338,-8.40235 5.12113,-15.55028 13.52348,-16.34367 z m -14.41552,-73.03848 c -7.06267,1.2308 -10.63532,7.30348 -12.18108,13.0755 -1.54575,5.77201 -1.56674,12.44575 -0.16495,19.52006 l 5.83043,29.42399 c 1.40179,7.07431 3.97754,13.29354 7.63122,18.15945 3.65369,4.86591 9.31451,9.33146 16.37718,8.10066 7.06267,-1.23081 10.63494,-7.3054 12.1807,-13.07742 1.54575,-5.77201 1.5652,-12.4435 0.16341,-19.51781 l -5.83043,-29.42399 c -1.40179,-7.07431 -3.976,-13.29578 -7.62968,-18.1617 -3.65369,-4.86592 -9.31413,-9.32955 -16.3768,-8.09874 z m 3.06813,15.49402 c 0.33625,0.2888 0.64373,0.49314 1.29464,1.36001 1.82673,2.43279 3.84349,6.82953 4.86445,11.98198 l 5.83043,29.42399 c 1.02097,5.15243 0.82275,9.9332 0.0499,12.81903 -0.27543,1.02854 -0.48365,1.32452 -0.68683,1.7073 -0.33625,-0.28885 -0.64239,-0.49568 -1.29309,-1.36227 -1.82673,-2.4328 -3.84311,-6.82763 -4.86407,-11.98006 l -5.83043,-29.424 c -1.02097,-5.15244 -0.82313,-9.93512 -0.0503,-12.82093 0.27521,-1.0277 0.48215,-1.32219 0.68528,-1.70505 z m -22.0248,-72.23487 c -15.7076,5.01993 -24.46355,22.00109 -19.44361,37.70869 l 9.13254,28.57616 c 5.01993,15.7076 22.00109,24.46355 37.70869,19.44362 15.70761,-5.01994 24.46355,-22.0011 19.44362,-37.7087 l -9.13254,-28.57616 c -5.01993,-15.70761 -22.0011,-24.46354 -37.7087,-19.44361 z m 4.56627,14.28808 c 8.03916,-2.56921 16.28515,1.68264 18.85435,9.7218 l 9.13254,28.57616 c 2.56921,8.03916 -1.68265,16.28514 -9.72181,18.85435 -8.03916,2.5692 -16.28514,-1.68265 -18.85434,-9.72181 l -9.13255,-28.57616 c -2.5692,-8.03915 1.68265,-16.28514 9.72181,-18.85434 z m -15.42667,-73.32119 c -7.02274,1.44131 -10.41233,7.61804 -11.78491,13.43366 -1.37257,5.81564 -1.19412,12.48703 0.41844,19.51627 l 6.70666,29.23474 c 1.61256,7.02924 4.37345,13.17064 8.17091,17.92519 3.79746,4.75456 9.58876,9.04705 16.6115,7.60574 7.02273,-1.4413 10.41232,-7.61804 11.7849,-13.43366 1.37258,-5.81563 1.19413,-12.48703 -0.41843,-19.51627 l -6.70666,-29.23474 c -1.61256,-7.02924 -4.37345,-13.17062 -8.17091,-17.92519 -3.79746,-4.75456 -9.58877,-9.04705 -16.6115,-7.60574 z m 3.53173,15.39502 c 0.34473,0.27875 0.65887,0.47457 1.33469,1.32072 1.89861,2.37712 4.04586,6.71163 5.22034,11.83125 l 6.70666,29.23473 c 1.17449,5.11962 1.11965,9.90608 0.43341,12.8137 -0.24428,1.03499 -0.44437,1.33634 -0.63595,1.72516 -0.34474,-0.27877 -0.65708,-0.4751 -1.33279,-1.32111 -1.8986,-2.37712 -4.04777,-6.71124 -5.22224,-11.83086 l -6.70667,-29.23473 c -1.17447,-5.11962 -1.11772,-9.90647 -0.43148,-12.81409 0.24423,-1.03482 0.44246,-1.33593 0.63403,-1.72477 z m -7.27762,-75.37336 c -16.43105,1.39603 -28.74859,16.00099 -27.35256,32.43204 l 2.53973,29.8923 c 1.39603,16.43105 16.00099,28.7486 32.43204,27.35257 16.43106,-1.39603 28.7486,-16.00099 27.35257,-32.43204 l -2.53974,-29.8923 c -1.39603,-16.43106 -16.00097,-28.7486 -32.43204,-27.35257 z m 1.26987,14.94615 c 8.40942,-0.71449 15.50153,5.26686 16.21602,13.67628 l 2.53974,29.89231 c 0.71449,8.40942 -5.26686,15.50153 -13.67629,16.21602 -8.40942,0.71448 -15.50153,-5.26687 -16.21602,-13.67629 l -2.53973,-29.8923 c -0.71449,-8.40942 5.26686,-15.50153 13.67628,-16.21602 z m 8.50853,-74.57567 c -7.11597,-0.87123 -12.29701,3.90566 -15.45092,8.98094 -3.1539,5.07527 -5.11005,11.45393 -5.82101,18.63064 l -2.95714,29.84998 c -0.71097,7.17671 -0.0506,13.87769 2.0342,19.59434 2.08478,5.71666 6.20672,11.63057 13.32269,12.5018 7.11598,0.87123 12.29683,-3.90372 15.45074,-8.97899 3.1539,-5.07528 5.1083,-11.45612 5.81927,-18.63283 l 2.95714,-29.84998 c 0.71097,-7.17671 0.0523,-13.8755 -2.03245,-19.59216 -2.08478,-5.71667 -6.20653,-11.63252 -13.32252,-12.50374 z m -1.55732,15.71992 c 0.23796,0.37408 0.47147,0.65969 0.84243,1.67689 1.04232,2.85814 1.69691,7.64895 1.17909,12.87598 l -2.95714,29.84998 c -0.51783,5.22702 -2.09476,9.74658 -3.67161,12.28406 -0.56154,0.90364 -0.84502,1.12542 -1.15051,1.43289 -0.23797,-0.37399 -0.47311,-0.65912 -0.84436,-1.67712 -1.04232,-2.85815 -1.69672,-7.65091 -1.1789,-12.87793 l 2.95714,-29.84998 c 0.51783,-5.22702 2.09457,-9.74465 3.67142,-12.28211 0.56129,-0.90323 0.84696,-1.12513 1.15244,-1.43266 z m 17.26528,-73.11227 c -16.02508,-3.88912 -32.33992,6.05334 -36.22905,22.07842 l -7.07532,29.15372 c -3.88912,16.02509 6.05334,32.33992 22.07841,36.22905 16.02509,3.88913 32.33992,-6.05333 36.22905,-22.07841 l 7.07532,-29.15373 c 3.88912,-16.02508 -6.05333,-32.33992 -22.07841,-36.22905 z m -3.53766,14.57687 c 8.20164,1.99046 13.02966,9.91288 11.0392,18.11452 l -7.07531,29.15373 c -1.99046,8.20164 -9.91288,13.02966 -18.11453,11.03921 -8.20164,-1.99046 -13.02966,-9.91288 -11.0392,-18.11453 l 7.07531,-29.15373 c 1.99046,-8.20164 9.91288,-13.02966 18.11453,-11.0392 z m 20.80076,-167.83596 c -52.26726,0 -94.85352,42.58626 -94.85352,94.85352 0,52.26726 42.58626,94.85156 94.85352,94.85156 52.26727,0 94.85157,-42.5843 94.85157,-94.85156 0,-52.26727 -42.5843,-94.85352 -94.85157,-94.85352 z m 0,20 c 41.45847,0 74.85157,33.39504 74.85157,74.85352 0,41.45847 -33.39309,74.85156 -74.85157,74.85156 -41.45848,0 -74.85352,-33.39309 -74.85352,-74.85156 0,-41.45847 33.39506,-74.85352 74.85352,-74.85352 z m -183.90082,290.45195 -7.98914,-6.71598 -7.98915,-6.71597 c -23.10315,4.4045 -32.760086,7.44929 -38.928126,12.90503 -16.20448,14.33315 -2.16302,26.30373 10.590256,37.02461 12.75327,10.72088 26.95905,22.49599 38.29381,4.06918 4.31445,-7.01395 5.65418,-17.0505 6.02235,-40.56687 z M 544.45153,144.9527 c 23.51637,-0.36818 33.55292,-1.7079 40.56687,-6.02235 18.42681,-11.33476 6.6517,-25.54055 -4.06918,-38.29382 -10.72088,-12.753276 -22.69146,-26.794736 -37.02461,-10.590256 -5.45574,6.16804 -8.50054,15.824976 -12.90503,38.928136 l 6.71596,7.98914 z m 23.93128,-50.722016 a 15,15 0 0 0 -7.03515,3.28711 l -251,211.000006 a 15.0015,15.0015 0 0 0 -1.83008,1.83008 l -211.000006,251 a 15,15 0 0 0 1.83008,21.13476 15,15 0 0 0 21.134756,-1.83008 L 330.64647,330.6467 580.65233,120.48264 a 15,15 0 0 0 1.83008,-21.134766 15,15 0 0 0 -14.0996,-5.11719 z M 285.29941,235.80217 c -13.7108,-13.7108 -35.78667,-13.7108 -49.49747,0 -13.7108,13.7108 -13.7108,35.78667 0,49.49747 l 586.89861,586.89861 c 13.7108,13.71081 35.78667,13.71081 49.49748,0 13.71081,-13.7108 13.71081,-35.78667 0,-49.49747 z m -50.4418,34.56293 a 20.002,20.002 0 0 0 0,28.28427 l 21.0972,21.09719 a 20.002,20.002 0 0 0 28.28426,0 l 35.50727,-35.50726 a 20.002,20.002 0 0 0 0,-28.28427 l -21.09719,-21.09719 a 20.002,20.002 0 0 0 -28.28427,0 z m 107.11314,657.38269 c 28.79511,25.50028 61.4046,43.43186 94.89254,59.62024 l -18.65271,-43.37107 31.38337,-33.51079 c -26.11212,6.96456 -53.63893,13.75367 -107.6232,17.26162 z M 930.10308,344.24315 c -3.53578,53.55951 -10.37874,80.86973 -17.39853,106.77641 l 33.77653,-31.13644 43.7151,18.50594 c -16.3168,-33.22446 -34.3906,-65.57737 -60.0931,-94.14591 z m 19.436,25.47191 -18.75198,18.60352 A 496.37933,492.47374 0 0 1 788.0078,786.7385 496.37933,492.47374 0 0 1 386.84764,927.98068 l -19.23437,19.08204 A 454.02241,450.45009 0 0 0 843.94141,842.29514 454.02241,450.45009 0 0 0 949.53908,369.71506 Z" /></g><g
     inkscape:groupmode="layer"
     id="layer2"
     inkscape:label="Gradient baked smooth vibrant"
     style="display:inline"><path
       id="rect4734-2"
       style="color:#000000;display:inline;mix-blend-mode:normal;fill:url(#linearGradient5192-3);fill-opacity:1;fill-rule:nonzero;stroke-width:0.999867;stroke-linecap:round;stroke-linejoin:round;stroke-miterlimit:10.1;-inkscape-stroke:none;paint-order:markers fill stroke"
       d="m 292.66008,903.19048 c -2.086,-6.8589 -8.5503,-9.6614 -14.4681,-10.4891 -5.9178,-0.8276 -12.5439,-0.032 -19.3935,2.2255 l -28.4891,9.388 c -6.8495,2.2571 -12.7067,5.5747 -17.0889,9.7965 -4.3821,4.2218 -8.1212,10.3866 -6.0352,17.2456 2.086,6.8589 8.5522,9.6608 14.47,10.4884 5.9178,0.8277 12.5415,0.03 19.391,-2.2267 l 28.4892,-9.388 c 6.8495,-2.2571 12.7091,-5.5735 17.0913,-9.7953 4.3821,-4.2217 8.1193,-10.386 6.0333,-17.2449 z m -15.0032,4.944 c -0.2456,0.3691 -0.4122,0.6983 -1.1919,1.4495 -2.1909,2.1108 -6.3059,4.6499 -11.2947,6.2938 l -28.4891,9.388 c -4.9887,1.644 -9.7578,2.0324 -12.7165,1.6186 -1.053,-0.1473 -1.3712,-0.3167 -1.7761,-0.4715 0.2456,-0.369 0.4114,-0.7 1.1913,-1.4513 2.1909,-2.1108 6.3059,-4.6499 11.2946,-6.2938 l 28.4892,-9.388 c 4.9887,-1.644 9.7578,-2.0324 12.7165,-1.6186 1.0532,0.1473 1.3718,0.3186 1.7767,0.4733 z m 59.512,-45.5669 c -10.3902,-12.8051 -29.3932,-14.7834 -42.1983,-4.3932 l -23.2958,18.9026 c -12.8051,10.3902 -14.7835,29.3932 -4.3932,42.1983 10.3903,12.8051 29.3932,14.7835 42.1983,4.3932 l 23.2958,-18.9025 c 12.8051,-10.3903 14.7835,-29.3932 4.3932,-42.1984 z m -11.6478,9.4513 c 5.3177,6.5537 4.357,15.7814 -2.1967,21.0992 l -23.2957,18.9025 c -6.5537,5.3178 -15.7815,4.3571 -21.0992,-2.1966 -5.3178,-6.5536 -4.3571,-15.7814 2.1966,-21.0991 l 23.2958,-18.9026 c 6.5536,-5.3177 15.7814,-4.357 21.0992,2.1966 z m 18.3087,-73.1773 c -6.891,-1.9771 -12.7594,1.927 -16.6707,6.4445 -3.9112,4.5174 -6.8422,10.5106 -8.6706,17.4869 l -7.6047,29.0161 c -1.8284,6.9762 -2.2296,13.6972 -1.0678,19.6702 1.1619,5.973 4.3066,12.461 11.1977,14.4381 6.8911,1.9772 12.7571,-1.9256 16.6683,-6.4431 3.9113,-4.5175 6.8428,-10.5125 8.6712,-17.4888 l 7.6047,-29.0161 c 1.8284,-6.9762 2.2291,-13.6953 1.0672,-19.6683 -1.1618,-5.973 -4.3042,-12.4624 -11.1953,-14.4395 z m -4.0043,15.2789 c 0.1763,0.4067 0.3614,0.7264 0.5683,1.7902 0.5809,2.9863 0.4756,7.8205 -0.8561,12.9015 l -7.6047,29.0161 c -1.3317,5.081 -3.5978,9.2952 -5.5533,11.5538 -0.6966,0.8045 -1.0117,0.9808 -1.3616,1.2365 -0.1764,-0.4067 -0.3632,-0.7264 -0.5702,-1.7908 -0.5809,-2.9863 -0.4756,-7.8205 0.856,-12.9015 l 7.6048,-29.0161 c 1.3316,-5.081 3.5978,-9.2952 5.5533,-11.5538 0.6969,-0.805 1.0135,-0.9803 1.3635,-1.2359 z m -7.153,-75.9821 c -16.4172,1.5502 -28.5971,16.2701 -27.047,32.6874 l 2.8202,29.8671 c 1.5502,16.4172 16.2702,28.5971 32.6874,27.047 16.4172,-1.5502 28.5971,-16.2702 27.0469,-32.6874 l -2.8202,-29.8671 c -1.5502,-16.4173 -16.2701,-28.5972 -32.6873,-27.047 z m 1.4101,14.9336 c 8.4023,-0.7934 15.5503,5.1211 16.3437,13.5235 l 2.8202,29.8671 c 0.7934,8.4024 -5.1212,15.5503 -13.5235,16.3437 -8.4024,0.7934 -15.5503,-5.1212 -16.3437,-13.5235 l -2.8202,-29.8671 c -0.7934,-8.4024 5.1211,-15.5503 13.5235,-16.3437 z m -14.4155,-73.0385 c -7.0627,1.2308 -10.6353,7.30348 -12.1811,13.0755 -1.5458,5.77201 -1.5667,12.44575 -0.165,19.52006 l 5.8305,29.42404 c 1.4018,7.0743 3.9775,13.2935 7.6312,18.1594 3.6537,4.8659 9.3145,9.3315 16.3772,8.1007 7.0626,-1.2308 10.6349,-7.3054 12.1807,-13.0775 1.5457,-5.772 1.5652,-12.4435 0.1634,-19.5178 l -5.8304,-29.42396 c -1.4018,-7.07431 -3.976,-13.29578 -7.6297,-18.1617 -3.6537,-4.86592 -9.3142,-9.32955 -16.3768,-8.09874 z m 3.0681,15.49402 c 0.3363,0.2888 0.6437,0.49314 1.2946,1.36001 1.8268,2.43279 3.8435,6.82953 4.8645,11.98198 l 5.8304,29.42399 c 1.021,5.1524 0.8228,9.9332 0.05,12.819 -0.2754,1.0286 -0.4836,1.3246 -0.6868,1.7073 -0.3363,-0.2888 -0.6424,-0.4956 -1.2931,-1.3622 -1.8267,-2.4328 -3.8431,-6.8277 -4.8641,-11.9801 l -5.8304,-29.424 c -1.021,-5.15244 -0.8231,-9.93512 -0.05,-12.82093 0.2752,-1.0277 0.4822,-1.32219 0.6853,-1.70505 z m -22.0248,-72.23487 c -15.7076,5.01993 -24.4635,22.00109 -19.4436,37.70869 l 9.1325,28.57616 c 5.02,15.7076 22.0011,24.46355 37.7087,19.44362 15.7076,-5.01994 24.4636,-22.0011 19.4436,-37.7087 l -9.1325,-28.57616 c -5.0199,-15.70761 -22.0011,-24.46354 -37.7087,-19.44361 z m 4.5663,14.28808 c 8.0391,-2.56921 16.2851,1.68264 18.8543,9.7218 l 9.1326,28.57616 c 2.5692,8.03916 -1.6827,16.28514 -9.7218,18.85435 -8.0392,2.5692 -16.2852,-1.68265 -18.8544,-9.72181 l -9.1325,-28.57616 c -2.5692,-8.03915 1.6826,-16.28514 9.7218,-18.85434 z m -15.4267,-73.32119 c -7.0227,1.44131 -10.4123,7.61804 -11.7849,13.43366 -1.3726,5.81564 -1.1941,12.48703 0.4184,19.51627 l 6.7067,29.23474 c 1.6126,7.02924 4.3734,13.17064 8.1709,17.92519 3.7975,4.75456 9.5888,9.04705 16.6115,7.60574 7.0227,-1.4413 10.4123,-7.61804 11.7849,-13.43366 1.3726,-5.81563 1.1941,-12.48703 -0.4184,-19.51627 l -6.7067,-29.23474 c -1.6125,-7.02924 -4.3734,-13.17062 -8.1709,-17.92519 -3.7975,-4.75456 -9.5888,-9.04705 -16.6115,-7.60574 z m 3.5317,15.39502 c 0.3448,0.27875 0.6589,0.47457 1.3347,1.32072 1.8986,2.37712 4.0459,6.71163 5.2204,11.83125 l 6.7066,29.23473 c 1.1745,5.11962 1.1197,9.90608 0.4334,12.8137 -0.2443,1.03499 -0.4443,1.33634 -0.6359,1.72516 -0.3448,-0.27877 -0.6571,-0.4751 -1.3328,-1.32111 -1.8986,-2.37712 -4.0478,-6.71124 -5.2223,-11.83086 l -6.7066,-29.23473 c -1.1745,-5.11962 -1.1177,-9.90647 -0.4315,-12.81409 0.2442,-1.03482 0.4425,-1.33593 0.634,-1.72477 z m -7.2776,-75.37336 c -16.431,1.39603 -28.7486,16.00099 -27.3525,32.43204 l 2.5397,29.8923 c 1.396,16.43105 16.001,28.7486 32.432,27.35257 16.4311,-1.39603 28.7486,-16.00099 27.3526,-32.43204 l -2.5397,-29.8923 c -1.3961,-16.43106 -16.001,-28.7486 -32.4321,-27.35257 z m 1.2699,14.94615 c 8.4094,-0.71449 15.5015,5.26686 16.216,13.67628 l 2.5397,29.89231 c 0.7145,8.40942 -5.2668,15.50153 -13.6762,16.21602 -8.4095,0.71448 -15.5016,-5.26687 -16.2161,-13.67629 l -2.5397,-29.8923 c -0.7145,-8.40942 5.2669,-15.50153 13.6763,-16.21602 z m 8.5085,-74.57567 c -7.116,-0.87123 -12.297,3.90566 -15.4509,8.98094 -3.1539,5.07527 -5.1101,11.45393 -5.821,18.63064 l -2.9572,29.84998 c -0.7109,7.17671 -0.051,13.87769 2.0342,19.59434 2.0848,5.71666 6.2068,11.63057 13.3227,12.5018 7.116,0.87123 12.2969,-3.90372 15.4508,-8.97899 3.1539,-5.07528 5.1083,-11.45612 5.8192,-18.63283 l 2.9572,-29.84998 c 0.7109,-7.17671 0.052,-13.8755 -2.0325,-19.59216 -2.0848,-5.71667 -6.2065,-11.63252 -13.3225,-12.50374 z m -1.5573,15.71992 c 0.238,0.37408 0.4715,0.65969 0.8424,1.67689 1.0423,2.85814 1.6969,7.64895 1.1791,12.87598 l -2.9571,29.84998 c -0.5179,5.22702 -2.0948,9.74658 -3.6716,12.28406 -0.5616,0.90364 -0.8451,1.12542 -1.1505,1.43289 -0.238,-0.37399 -0.4732,-0.65912 -0.8444,-1.67712 -1.0423,-2.85815 -1.6967,-7.65091 -1.1789,-12.87793 l 2.9571,-29.84998 c 0.5179,-5.22702 2.0946,-9.74465 3.6715,-12.28211 0.5612,-0.90323 0.8469,-1.12513 1.1524,-1.43266 z m 17.2653,-73.11227 c -16.0251,-3.88912 -32.3399,6.05334 -36.2291,22.07842 l -7.0753,29.15372 c -3.8891,16.02509 6.0533,32.33992 22.0784,36.22905 16.0251,3.88913 32.3399,-6.05333 36.2291,-22.07841 l 7.0753,-29.15373 c 3.8891,-16.02508 -6.0533,-32.33992 -22.0784,-36.22905 z m -3.5377,14.57687 c 8.2017,1.99046 13.0297,9.91288 11.0392,18.11452 l -7.0753,29.15373 c -1.9905,8.20164 -9.9129,13.02966 -18.1145,11.03921 -8.2017,-1.99046 -13.0297,-9.91288 -11.0392,-18.11453 l 7.0753,-29.15373 c 1.9904,-8.20164 9.9129,-13.02966 18.1145,-11.0392 z m 20.8008,-167.83596 c -52.2673,0 -94.8535,42.58626 -94.8535,94.85352 0,52.26726 42.5862,94.85156 94.8535,94.85156 52.2672,0 94.8515,-42.5843 94.8515,-94.85156 0,-52.26727 -42.5843,-94.85352 -94.8515,-94.85352 z m 0,20 c 41.4584,0 74.8515,33.39504 74.8515,74.85352 0,41.45847 -33.3931,74.85156 -74.8515,74.85156 -41.4585,0 -74.8535,-33.39309 -74.8535,-74.85156 0,-41.45847 33.395,-74.85352 74.8535,-74.85352 z m -183.9008,290.45195 -7.9892,-6.71598 -7.9891,-6.71597 c -23.1032,4.4045 -32.760102,7.44929 -38.928202,12.90503 -16.2045,14.33315 -2.163,26.30373 10.590302,37.02461 12.7533,10.72088 26.959,22.49599 38.2938,4.06918 4.3145,-7.01395 5.6542,-17.0505 6.0224,-40.56687 z M 544.45158,144.9527 c 23.5164,-0.36818 33.5529,-1.7079 40.5669,-6.02235 18.4268,-11.33476 6.6517,-25.54054 -4.0692,-38.29382 -10.7209,-12.753268 -22.6915,-26.794738 -37.0246,-10.590258 -5.4558,6.16805 -8.5006,15.824988 -12.9051,38.928138 l 6.716,7.98914 z m 23.9313,-50.722008 a 15,15 0 0 0 -7.0352,3.28711 l -251,210.999998 a 15.0015,15.0015 0 0 0 -1.8301,1.83008 l -211.000002,251 a 15,15 0 0 0 1.8301,21.13476 15,15 0 0 0 21.134802,-1.83008 l 210.164,-250.00586 250.0059,-210.16406 a 15,15 0 0 0 1.8301,-21.134758 15,15 0 0 0 -14.0996,-5.11719 z M 285.29948,235.80217 c -13.7108,-13.7108 -35.7867,-13.7108 -49.4975,0 -13.7108,13.7108 -13.7108,35.78667 0,49.49747 l 586.8986,586.89864 c 13.7108,13.7108 35.7867,13.7108 49.4975,0 13.7108,-13.7108 13.7108,-35.7867 0,-49.4975 z m -50.4418,34.56293 a 20.002,20.002 0 0 0 0,28.28427 l 21.0972,21.09719 a 20.002,20.002 0 0 0 28.2842,0 l 35.5073,-35.50726 a 20.002,20.002 0 0 0 0,-28.28427 l -21.0972,-21.09719 a 20.002,20.002 0 0 0 -28.2843,0 z m 107.1131,657.38268 c 28.7951,25.5003 61.4046,43.4319 94.8926,59.6203 l -18.6528,-43.3711 31.3834,-33.5108 c -26.1121,6.9646 -53.6389,13.7537 -107.6232,17.2616 z m 588.1323,-583.50463 c -3.5357,53.55951 -10.3787,80.86973 -17.3985,106.77641 l 33.7766,-31.13644 43.715,18.50594 c -16.3168,-33.22446 -34.3906,-65.57737 -60.0931,-94.14591 z m 19.436,25.47191 -18.7519,18.60352 a 496.37933,492.47374 0 0 1 -142.7793,398.4199 496.37933,492.47374 0 0 1 -401.1602,141.2422 l -19.2344,19.082 a 454.02241,450.45009 0 0 0 476.3282,-104.7675 454.02241,450.45009 0 0 0 105.5976,-472.58012 z" /></g><g
     inkscape:groupmode="layer"
     id="layer3"
     inkscape:label="Gradient baked smooth vibrant-2"
     style="display:inline"><path
       id="rect4734"
       style="color:#000000;display:inline;mix-blend-mode:normal;fill:url(#linearGradient5192);fill-opacity:1;fill-rule:nonzero;stroke-width:0.999867;stroke-linecap:round;stroke-linejoin:round;stroke-miterlimit:10.1;-inkscape-stroke:none;paint-order:markers fill stroke"
       d="m 292.66009,903.19027 c -2.086,-6.85892 -8.55031,-9.66144 -14.46812,-10.48909 -5.91781,-0.82766 -12.54395,-0.0316 -19.39348,2.22548 l -28.48914,9.388 c -6.84953,2.25712 -12.70674,5.57473 -17.08887,9.79651 -4.38212,4.22178 -8.12123,10.38662 -6.03523,17.24554 2.086,6.85892 8.55216,9.66082 14.46997,10.48848 5.91781,0.82765 12.54153,0.0304 19.39106,-2.22674 l 28.48914,-9.388 c 6.84953,-2.25712 12.70916,-5.57347 17.09129,-9.79526 4.38213,-4.22178 8.11938,-10.38601 6.03338,-17.24492 z m -15.00327,4.94401 c -0.24562,0.36909 -0.41215,0.69828 -1.1919,1.44948 -2.19091,2.11076 -6.3059,4.6499 -11.29463,6.29383 l -28.48914,9.388 c -4.98873,1.64393 -9.75781,2.03235 -12.71653,1.61855 -1.05299,-0.14727 -1.37118,-0.31673 -1.77611,-0.47144 0.24561,-0.36909 0.41146,-0.70003 1.19133,-1.45136 2.19092,-2.11075 6.30591,-4.6499 11.29464,-6.29383 l 28.48914,-9.388 c 4.98873,-1.64393 9.75781,-2.03235 12.71652,-1.61855 1.05317,0.14729 1.37177,0.31859 1.77668,0.47332 z m 59.51207,-45.56688 c -10.39026,-12.80511 -29.39323,-14.78349 -42.19834,-4.39323 l -23.29578,18.90256 c -12.80511,10.39027 -14.78349,29.39323 -4.39322,42.19833 10.39027,12.80512 29.39322,14.7835 42.19833,4.39323 l 23.29578,-18.90256 c 12.80511,-10.39026 14.7835,-29.39322 4.39323,-42.19833 z m -11.64789,9.45127 c 5.31774,6.55367 4.35705,15.78143 -2.19661,21.09917 l -23.29578,18.90256 c -6.55367,5.31774 -15.78143,4.35705 -21.09917,-2.19661 -5.31775,-6.55367 -4.35705,-15.78143 2.19661,-21.09917 l 23.29578,-18.90256 c 6.55366,-5.31774 15.78143,-4.35705 21.09917,2.19661 z m 18.30879,-73.17732 c -6.89109,-1.97711 -12.75944,1.92702 -16.67071,6.44449 -3.91127,4.51746 -6.84227,10.51066 -8.67064,17.48689 l -7.60473,29.0161 c -1.82837,6.97622 -2.2296,13.69727 -1.06774,19.67025 1.16187,5.97299 4.30657,12.46101 11.19767,14.43812 6.89109,1.97711 12.75707,-1.92567 16.66833,-6.44313 3.91127,-4.51747 6.84277,-10.51256 8.67115,-17.48878 l 7.60472,-29.01611 c 1.82837,-6.97622 2.2291,-13.69537 1.06724,-19.66836 -1.16186,-5.973 -4.30419,-12.46236 -11.19529,-14.43947 z m -4.00439,15.2789 c 0.17635,0.40667 0.36143,0.72644 0.56834,1.79019 0.5809,2.9863 0.47558,7.82047 -0.85609,12.90148 l -7.60472,29.0161 c -1.33166,5.081 -3.5978,9.29522 -5.55331,11.5538 -0.69657,0.80454 -1.01165,0.98081 -1.36159,1.23649 -0.17638,-0.40661 -0.36319,-0.72639 -0.57023,-1.79074 -0.58089,-2.9863 -0.47557,-7.82047 0.85609,-12.90148 l 7.60473,-29.0161 c 1.33166,-5.081 3.5978,-9.29522 5.5533,-11.5538 0.69697,-0.80499 1.01355,-0.98034 1.36348,-1.23594 z m -7.15296,-75.98209 c -16.41722,1.55019 -28.59714,16.27012 -27.04695,32.68735 l 2.8202,29.86714 c 1.55019,16.41724 16.27012,28.59715 32.68734,27.04696 16.41723,-1.5502 28.59714,-16.27011 27.04695,-32.68735 l -2.82019,-29.86715 c -1.5502,-16.41722 -16.27012,-28.59714 -32.68735,-27.04695 z m 1.4101,14.93358 c 8.40235,-0.79339 15.55028,5.12113 16.34367,13.52347 l 2.8202,29.86715 c 0.79339,8.40235 -5.12113,15.55028 -13.52348,16.34367 -8.40234,0.79339 -15.55028,-5.12113 -16.34367,-13.52347 l -2.8202,-29.86715 c -0.79338,-8.40235 5.12113,-15.55028 13.52348,-16.34367 z m -14.41552,-73.03848 c -7.06267,1.2308 -10.63532,7.30348 -12.18108,13.0755 -1.54575,5.77201 -1.56674,12.44575 -0.16495,19.52006 l 5.83043,29.42399 c 1.40179,7.07431 3.97754,13.29354 7.63122,18.15945 3.65369,4.86591 9.31451,9.33146 16.37718,8.10066 7.06267,-1.23081 10.63494,-7.3054 12.1807,-13.07742 1.54575,-5.77201 1.5652,-12.4435 0.16341,-19.51781 L 343.6735,706.2937 c -1.40179,-7.07431 -3.976,-13.29578 -7.62968,-18.1617 -3.65369,-4.86592 -9.31413,-9.32955 -16.3768,-8.09874 z m 3.06813,15.49402 c 0.33625,0.2888 0.64373,0.49314 1.29464,1.36001 1.82672,2.43279 3.84349,6.82953 4.86445,11.98198 l 5.83043,29.42399 c 1.02097,5.15243 0.82275,9.9332 0.0499,12.81903 -0.27543,1.02854 -0.48365,1.32452 -0.68683,1.7073 -0.33625,-0.28885 -0.64239,-0.49568 -1.29309,-1.36227 -1.82673,-2.4328 -3.84311,-6.82763 -4.86407,-11.98006 l -5.83043,-29.424 c -1.02097,-5.15244 -0.82313,-9.93512 -0.0503,-12.82093 0.27521,-1.0277 0.48215,-1.32219 0.68528,-1.70505 z m -22.0248,-72.23487 c -15.7076,5.01993 -24.46355,22.00109 -19.44361,37.70869 l 9.13254,28.57616 c 5.01993,15.7076 22.00109,24.46355 37.70869,19.44362 15.70761,-5.01994 24.46355,-22.0011 19.44362,-37.7087 l -9.13254,-28.57616 c -5.01993,-15.70761 -22.0011,-24.46354 -37.7087,-19.44361 z m 4.56627,14.28808 c 8.03916,-2.56921 16.28515,1.68264 18.85435,9.7218 l 9.13254,28.57616 c 2.56921,8.03916 -1.68265,16.28514 -9.72181,18.85435 -8.03916,2.5692 -16.28514,-1.68265 -18.85434,-9.72181 l -9.13255,-28.57616 c -2.5692,-8.03915 1.68265,-16.28514 9.72181,-18.85434 z M 289.84995,564.2593 c -7.02274,1.44131 -10.41233,7.61804 -11.78491,13.43366 -1.37257,5.81564 -1.19412,12.48703 0.41844,19.51627 l 6.70666,29.23474 c 1.61256,7.02924 4.37345,13.17064 8.17091,17.92519 3.79746,4.75456 9.58876,9.04705 16.6115,7.60574 7.02273,-1.4413 10.41232,-7.61804 11.7849,-13.43366 1.37258,-5.81563 1.19413,-12.48703 -0.41843,-19.51627 l -6.70666,-29.23474 c -1.61256,-7.02924 -4.37345,-13.17062 -8.17091,-17.92519 -3.79746,-4.75456 -9.58877,-9.04705 -16.6115,-7.60574 z m 3.53173,15.39502 c 0.34473,0.27875 0.65887,0.47457 1.33469,1.32072 1.89861,2.37712 4.04586,6.71163 5.22034,11.83125 l 6.70666,29.23473 c 1.17448,5.11962 1.11964,9.90608 0.4334,12.8137 -0.24428,1.03499 -0.44436,1.33634 -0.63595,1.72516 -0.34474,-0.27877 -0.65708,-0.4751 -1.33279,-1.32111 -1.8986,-2.37712 -4.04777,-6.71124 -5.22224,-11.83086 l -6.70667,-29.23473 c -1.17447,-5.11962 -1.11772,-9.90647 -0.43148,-12.81409 0.24423,-1.03482 0.44246,-1.33593 0.63404,-1.72477 z m -7.27762,-75.37336 c -16.43105,1.39603 -28.74859,16.00099 -27.35256,32.43204 l 2.53973,29.8923 c 1.39603,16.43105 16.00099,28.7486 32.43204,27.35257 16.43106,-1.39603 28.7486,-16.00099 27.35257,-32.43204 l -2.53974,-29.8923 c -1.39603,-16.43106 -16.00098,-28.7486 -32.43204,-27.35257 z m 1.26987,14.94615 c 8.40942,-0.71449 15.50153,5.26686 16.21602,13.67628 l 2.53974,29.89231 c 0.71449,8.40942 -5.26686,15.50153 -13.67629,16.21602 -8.40942,0.71448 -15.50153,-5.26687 -16.21602,-13.67629 l -2.53973,-29.8923 c -0.71449,-8.40942 5.26686,-15.50153 13.67628,-16.21602 z m 8.50853,-74.57567 c -7.11597,-0.87123 -12.29702,3.90566 -15.45092,8.98094 -3.1539,5.07527 -5.11005,11.45393 -5.82102,18.63064 l -2.95714,29.84998 c -0.71097,7.17671 -0.0506,13.87769 2.0342,19.59434 2.08478,5.71666 6.20672,11.63057 13.32269,12.5018 7.11598,0.87123 12.29683,-3.90372 15.45074,-8.97899 3.1539,-5.07528 5.1083,-11.45612 5.81927,-18.63283 l 2.95714,-29.84998 c 0.71097,-7.17671 0.0523,-13.8755 -2.03245,-19.59216 -2.08478,-5.71667 -6.20653,-11.63252 -13.32251,-12.50374 z m -1.55732,15.71992 c 0.23796,0.37408 0.47147,0.65969 0.84243,1.67689 1.04232,2.85814 1.69691,7.64895 1.17909,12.87598 l -2.95714,29.84998 c -0.51783,5.22702 -2.09476,9.74658 -3.67161,12.28406 -0.56154,0.90364 -0.84502,1.12542 -1.15051,1.43289 -0.23797,-0.37399 -0.47311,-0.65912 -0.84436,-1.67712 -1.04232,-2.85815 -1.69672,-7.65091 -1.1789,-12.87793 l 2.95714,-29.84998 c 0.51783,-5.22702 2.09457,-9.74465 3.67142,-12.28211 0.56129,-0.90323 0.84696,-1.12513 1.15244,-1.43266 z m 17.26528,-73.11227 c -16.02508,-3.88912 -32.33992,6.05334 -36.22905,22.07842 l -7.07532,29.15372 c -3.88912,16.02509 6.05334,32.33992 22.07841,36.22905 16.02509,3.88913 32.33992,-6.05333 36.22905,-22.07841 l 7.07532,-29.15373 c 3.88912,-16.02508 -6.05333,-32.33992 -22.07841,-36.22905 z m -3.53766,14.57687 c 8.20164,1.99046 13.02966,9.91288 11.0392,18.11452 l -7.07531,29.15373 c -1.99046,8.20164 -9.91288,13.02966 -18.11453,11.03921 -8.20164,-1.99046 -13.02966,-9.91288 -11.0392,-18.11453 l 7.07531,-29.15373 c 1.99046,-8.20164 9.91288,-13.02966 18.11453,-11.0392 z M 328.85352,234 C 276.58626,234 234,276.58626 234,328.85352 c 0,52.26726 42.58625,94.85156 94.85352,94.85156 52.26726,0 94.85156,-42.5843 94.85156,-94.85156 C 423.70508,276.58625 381.12078,234 328.85352,234 Z m 0,20 c 41.45847,0 74.85156,33.39504 74.85156,74.85352 0,41.45847 -33.39309,74.85156 -74.85156,74.85156 C 287.39504,403.70508 254,370.31199 254,328.85352 254,287.39505 287.39505,254 328.85352,254 Z M 144.9527,544.45195 136.96356,537.73597 128.97441,531.02 c -23.10315,4.4045 -32.76009,7.44929 -38.928139,12.90503 -16.204476,14.33315 -2.163012,26.30373 10.590259,37.02461 12.75328,10.72088 26.95906,22.49599 38.29382,4.06918 4.31445,-7.01395 5.65418,-17.0505 6.02235,-40.56687 z M 544.45153,144.95248 c 23.51637,-0.36818 33.55292,-1.7079 40.56687,-6.02235 18.42681,-11.33476 6.6517,-25.54054 -4.06918,-38.29382 -10.72088,-12.753273 -22.69146,-26.794737 -37.02461,-10.590261 -5.45574,6.168049 -8.50053,15.824991 -12.90503,38.928141 l 6.71597,7.98914 z m 23.93128,-50.722011 a 15,15 0 0 0 -7.03515,3.287109 l -251,211.000002 a 15.0015,15.0015 0 0 0 -1.83008,1.83008 l -211.000002,251 a 15,15 0 0 0 1.830078,21.13476 15,15 0 0 0 21.134764,-1.83008 L 330.64648,330.64648 580.65234,120.48242 a 15,15 0 0 0 1.83008,-21.134764 15,15 0 0 0 -14.09961,-5.117187 z M 285.29942,235.80195 c -13.7108,-13.7108 -35.78667,-13.7108 -49.49747,0 -13.7108,13.7108 -13.7108,35.78667 0,49.49747 l 586.89861,586.89861 c 13.7108,13.71081 35.78667,13.71081 49.49747,0 13.71081,-13.7108 13.71081,-35.78667 0,-49.49747 z m -50.4418,34.56293 a 20.002,20.002 0 0 0 0,28.28427 l 21.09719,21.09719 a 20.002,20.002 0 0 0 28.28427,0 l 35.50726,-35.50726 a 20.002,20.002 0 0 0 0,-28.28427 l -21.09719,-21.09719 a 20.002,20.002 0 0 0 -28.28427,0 z m 107.11313,657.38269 c 28.79511,25.50028 61.4046,43.43186 94.89255,59.62028 l -18.65271,-43.37111 31.38337,-33.51079 c -26.11212,6.96456 -53.63893,13.75367 -107.62321,17.26162 z M 930.10309,344.24293 c -3.53578,53.55951 -10.37874,80.86973 -17.39853,106.77641 l 33.77655,-31.13644 43.71506,18.50594 c -16.31679,-33.22446 -34.39058,-65.57737 -60.09308,-94.14591 z m 19.43597,25.47191 -18.75195,18.60352 A 496.37933,492.47374 0 0 1 788.00781,786.73828 496.37933,492.47374 0 0 1 386.84765,927.98046 L 367.61328,947.0625 A 454.02241,450.45009 0 0 0 843.94141,842.29492 454.02241,450.45009 0 0 0 949.53906,369.71484 Z" /></g><g
     inkscape:groupmode="layer"
     id="g6960"
     inkscape:label="Anchor baked stepped"
     style="display:none"><path
       id="path6958"
       style="color:#000000;mix-blend-mode:normal;fill:url(#linearGradient7124);fill-opacity:1;fill-rule:nonzero;stroke-width:0.999867;stroke-linecap:round;stroke-linejoin:round;stroke-miterlimit:10.1;-inkscape-stroke:none;paint-order:markers fill stroke"
       d="m 292.66009,903.19027 c -2.086,-6.85892 -8.55031,-9.66144 -14.46812,-10.48909 -5.91781,-0.82766 -12.54395,-0.0316 -19.39348,2.22548 l -28.48914,9.388 c -6.84953,2.25712 -12.70674,5.57473 -17.08887,9.79651 -4.38212,4.22178 -8.12123,10.38662 -6.03523,17.24554 2.086,6.85892 8.55216,9.66082 14.46997,10.48848 5.91781,0.82765 12.54153,0.0304 19.39106,-2.22674 l 28.48914,-9.388 c 6.84953,-2.25712 12.70916,-5.57347 17.09129,-9.79526 4.38213,-4.22178 8.11938,-10.38601 6.03338,-17.24492 z m -15.00327,4.94401 c -0.24562,0.36909 -0.41215,0.69828 -1.1919,1.44948 -2.19091,2.11076 -6.3059,4.6499 -11.29463,6.29383 l -28.48914,9.388 c -4.98873,1.64393 -9.75781,2.03235 -12.71653,1.61855 -1.05299,-0.14727 -1.37118,-0.31673 -1.77611,-0.47144 0.24561,-0.36909 0.41146,-0.70003 1.19133,-1.45136 2.19092,-2.11075 6.30591,-4.6499 11.29464,-6.29383 l 28.48914,-9.388 c 4.98873,-1.64393 9.75781,-2.03235 12.71652,-1.61855 1.05317,0.14729 1.37177,0.31859 1.77668,0.47332 z m 59.51207,-45.56688 c -10.39026,-12.80511 -29.39323,-14.78349 -42.19834,-4.39323 l -23.29578,18.90256 c -12.80511,10.39027 -14.78349,29.39323 -4.39322,42.19833 10.39027,12.80512 29.39322,14.7835 42.19833,4.39323 l 23.29578,-18.90256 c 12.80511,-10.39026 14.7835,-29.39322 4.39323,-42.19833 z m -11.64789,9.45127 c 5.31774,6.55367 4.35705,15.78143 -2.19661,21.09917 l -23.29578,18.90256 c -6.55367,5.31774 -15.78143,4.35705 -21.09917,-2.19661 -5.31775,-6.55367 -4.35705,-15.78143 2.19661,-21.09917 l 23.29578,-18.90256 c 6.55366,-5.31774 15.78143,-4.35705 21.09917,2.19661 z m 18.30879,-73.17732 c -6.89109,-1.97711 -12.75944,1.92702 -16.67071,6.44449 -3.91127,4.51746 -6.84227,10.51066 -8.67064,17.48689 l -7.60473,29.0161 c -1.82837,6.97622 -2.2296,13.69727 -1.06774,19.67025 1.16187,5.97299 4.30657,12.46101 11.19767,14.43812 6.89109,1.97711 12.75707,-1.92567 16.66833,-6.44313 3.91127,-4.51747 6.84277,-10.51256 8.67115,-17.48878 l 7.60472,-29.01611 c 1.82837,-6.97622 2.2291,-13.69537 1.06724,-19.66836 -1.16186,-5.973 -4.30419,-12.46236 -11.19529,-14.43947 z m -4.00439,15.2789 c 0.17635,0.40667 0.36143,0.72644 0.56834,1.79019 0.5809,2.9863 0.47558,7.82047 -0.85609,12.90148 l -7.60472,29.0161 c -1.33166,5.081 -3.5978,9.29522 -5.55331,11.5538 -0.69657,0.80454 -1.01165,0.98081 -1.36159,1.23649 -0.17638,-0.40661 -0.36319,-0.72639 -0.57023,-1.79074 -0.58089,-2.9863 -0.47557,-7.82047 0.85609,-12.90148 l 7.60473,-29.0161 c 1.33166,-5.081 3.5978,-9.29522 5.5533,-11.5538 0.69697,-0.80499 1.01355,-0.98034 1.36348,-1.23594 z m -7.15296,-75.98209 c -16.41722,1.55019 -28.59714,16.27012 -27.04695,32.68735 l 2.8202,29.86714 c 1.55019,16.41724 16.27012,28.59715 32.68734,27.04696 16.41723,-1.5502 28.59714,-16.27011 27.04695,-32.68735 l -2.82019,-29.86715 c -1.5502,-16.41722 -16.27012,-28.59714 -32.68735,-27.04695 z m 1.4101,14.93358 c 8.40235,-0.79339 15.55028,5.12113 16.34367,13.52347 l 2.8202,29.86715 c 0.79339,8.40235 -5.12113,15.55028 -13.52348,16.34367 -8.40234,0.79339 -15.55028,-5.12113 -16.34367,-13.52347 l -2.8202,-29.86715 c -0.79338,-8.40235 5.12113,-15.55028 13.52348,-16.34367 z m -14.41552,-73.03848 c -7.06267,1.2308 -10.63532,7.30348 -12.18108,13.0755 -1.54575,5.77201 -1.56674,12.44575 -0.16495,19.52006 l 5.83043,29.42399 c 1.40179,7.07431 3.97754,13.29354 7.63122,18.15945 3.65369,4.86591 9.31451,9.33146 16.37718,8.10066 7.06267,-1.23081 10.63494,-7.3054 12.1807,-13.07742 1.54575,-5.77201 1.5652,-12.4435 0.16341,-19.51781 L 343.6735,706.2937 c -1.40179,-7.07431 -3.976,-13.29578 -7.62968,-18.1617 -3.65369,-4.86592 -9.31413,-9.32955 -16.3768,-8.09874 z m 3.06813,15.49402 c 0.33625,0.2888 0.64373,0.49314 1.29464,1.36001 1.82672,2.43279 3.84349,6.82953 4.86445,11.98198 l 5.83043,29.42399 c 1.02097,5.15243 0.82275,9.9332 0.0499,12.81903 -0.27543,1.02854 -0.48365,1.32452 -0.68683,1.7073 -0.33625,-0.28885 -0.64239,-0.49568 -1.29309,-1.36227 -1.82673,-2.4328 -3.84311,-6.82763 -4.86407,-11.98006 l -5.83043,-29.424 c -1.02097,-5.15244 -0.82313,-9.93512 -0.0503,-12.82093 0.27521,-1.0277 0.48215,-1.32219 0.68528,-1.70505 z m -22.0248,-72.23487 c -15.7076,5.01993 -24.46355,22.00109 -19.44361,37.70869 l 9.13254,28.57616 c 5.01993,15.7076 22.00109,24.46355 37.70869,19.44362 15.70761,-5.01994 24.46355,-22.0011 19.44362,-37.7087 l -9.13254,-28.57616 c -5.01993,-15.70761 -22.0011,-24.46354 -37.7087,-19.44361 z m 4.56627,14.28808 c 8.03916,-2.56921 16.28515,1.68264 18.85435,9.7218 l 9.13254,28.57616 c 2.56921,8.03916 -1.68265,16.28514 -9.72181,18.85435 -8.03916,2.5692 -16.28514,-1.68265 -18.85434,-9.72181 l -9.13255,-28.57616 c -2.5692,-8.03915 1.68265,-16.28514 9.72181,-18.85434 z M 289.84995,564.2593 c -7.02274,1.44131 -10.41233,7.61804 -11.78491,13.43366 -1.37257,5.81564 -1.19412,12.48703 0.41844,19.51627 l 6.70666,29.23474 c 1.61256,7.02924 4.37345,13.17064 8.17091,17.92519 3.79746,4.75456 9.58876,9.04705 16.6115,7.60574 7.02273,-1.4413 10.41232,-7.61804 11.7849,-13.43366 1.37258,-5.81563 1.19413,-12.48703 -0.41843,-19.51627 l -6.70666,-29.23474 c -1.61256,-7.02924 -4.37345,-13.17062 -8.17091,-17.92519 -3.79746,-4.75456 -9.58877,-9.04705 -16.6115,-7.60574 z m 3.53173,15.39502 c 0.34473,0.27875 0.65887,0.47457 1.33469,1.32072 1.89861,2.37712 4.04586,6.71163 5.22034,11.83125 l 6.70666,29.23473 c 1.17448,5.11962 1.11964,9.90608 0.4334,12.8137 -0.24428,1.03499 -0.44436,1.33634 -0.63595,1.72516 -0.34474,-0.27877 -0.65708,-0.4751 -1.33279,-1.32111 -1.8986,-2.37712 -4.04777,-6.71124 -5.22224,-11.83086 l -6.70667,-29.23473 c -1.17447,-5.11962 -1.11772,-9.90647 -0.43148,-12.81409 0.24423,-1.03482 0.44246,-1.33593 0.63404,-1.72477 z m -7.27762,-75.37336 c -16.43105,1.39603 -28.74859,16.00099 -27.35256,32.43204 l 2.53973,29.8923 c 1.39603,16.43105 16.00099,28.7486 32.43204,27.35257 16.43106,-1.39603 28.7486,-16.00099 27.35257,-32.43204 l -2.53974,-29.8923 c -1.39603,-16.43106 -16.00098,-28.7486 -32.43204,-27.35257 z m 1.26987,14.94615 c 8.40942,-0.71449 15.50153,5.26686 16.21602,13.67628 l 2.53974,29.89231 c 0.71449,8.40942 -5.26686,15.50153 -13.67629,16.21602 -8.40942,0.71448 -15.50153,-5.26687 -16.21602,-13.67629 l -2.53973,-29.8923 c -0.71449,-8.40942 5.26686,-15.50153 13.67628,-16.21602 z m 8.50853,-74.57567 c -7.11597,-0.87123 -12.29702,3.90566 -15.45092,8.98094 -3.1539,5.07527 -5.11005,11.45393 -5.82102,18.63064 l -2.95714,29.84998 c -0.71097,7.17671 -0.0506,13.87769 2.0342,19.59434 2.08478,5.71666 6.20672,11.63057 13.32269,12.5018 7.11598,0.87123 12.29683,-3.90372 15.45074,-8.97899 3.1539,-5.07528 5.1083,-11.45612 5.81927,-18.63283 l 2.95714,-29.84998 c 0.71097,-7.17671 0.0523,-13.8755 -2.03245,-19.59216 -2.08478,-5.71667 -6.20653,-11.63252 -13.32251,-12.50374 z m -1.55732,15.71992 c 0.23796,0.37408 0.47147,0.65969 0.84243,1.67689 1.04232,2.85814 1.69691,7.64895 1.17909,12.87598 l -2.95714,29.84998 c -0.51783,5.22702 -2.09476,9.74658 -3.67161,12.28406 -0.56154,0.90364 -0.84502,1.12542 -1.15051,1.43289 -0.23797,-0.37399 -0.47311,-0.65912 -0.84436,-1.67712 -1.04232,-2.85815 -1.69672,-7.65091 -1.1789,-12.87793 l 2.95714,-29.84998 c 0.51783,-5.22702 2.09457,-9.74465 3.67142,-12.28211 0.56129,-0.90323 0.84696,-1.12513 1.15244,-1.43266 z m 17.26528,-73.11227 c -16.02508,-3.88912 -32.33992,6.05334 -36.22905,22.07842 l -7.07532,29.15372 c -3.88912,16.02509 6.05334,32.33992 22.07841,36.22905 16.02509,3.88913 32.33992,-6.05333 36.22905,-22.07841 l 7.07532,-29.15373 c 3.88912,-16.02508 -6.05333,-32.33992 -22.07841,-36.22905 z m -3.53766,14.57687 c 8.20164,1.99046 13.02966,9.91288 11.0392,18.11452 l -7.07531,29.15373 c -1.99046,8.20164 -9.91288,13.02966 -18.11453,11.03921 -8.20164,-1.99046 -13.02966,-9.91288 -11.0392,-18.11453 l 7.07531,-29.15373 c 1.99046,-8.20164 9.91288,-13.02966 18.11453,-11.0392 z M 328.85352,234 C 276.58626,234 234,276.58626 234,328.85352 c 0,52.26726 42.58625,94.85156 94.85352,94.85156 52.26726,0 94.85156,-42.5843 94.85156,-94.85156 C 423.70508,276.58625 381.12078,234 328.85352,234 Z m 0,20 c 41.45847,0 74.85156,33.39504 74.85156,74.85352 0,41.45847 -33.39309,74.85156 -74.85156,74.85156 C 287.39504,403.70508 254,370.31199 254,328.85352 254,287.39505 287.39505,254 328.85352,254 Z M 144.9527,544.45195 136.96356,537.73597 128.97441,531.02 c -23.10315,4.4045 -32.76009,7.44929 -38.928139,12.90503 -16.204476,14.33315 -2.163012,26.30373 10.590259,37.02461 12.75328,10.72088 26.95906,22.49599 38.29382,4.06918 4.31445,-7.01395 5.65418,-17.0505 6.02235,-40.56687 z M 544.45153,144.95248 c 23.51637,-0.36818 33.55292,-1.7079 40.56687,-6.02235 18.42681,-11.33476 6.6517,-25.54054 -4.06918,-38.29382 -10.72088,-12.753273 -22.69146,-26.794737 -37.02461,-10.590261 -5.45574,6.168049 -8.50053,15.824991 -12.90503,38.928141 l 6.71597,7.98914 z m 23.93128,-50.722011 a 15,15 0 0 0 -7.03515,3.287109 l -251,211.000002 a 15.0015,15.0015 0 0 0 -1.83008,1.83008 l -211.000002,251 a 15,15 0 0 0 1.830078,21.13476 15,15 0 0 0 21.134764,-1.83008 L 330.64648,330.64648 580.65234,120.48242 a 15,15 0 0 0 1.83008,-21.134764 15,15 0 0 0 -14.09961,-5.117187 z M 285.29942,235.80195 c -13.7108,-13.7108 -35.78667,-13.7108 -49.49747,0 -13.7108,13.7108 -13.7108,35.78667 0,49.49747 l 586.89861,586.89861 c 13.7108,13.71081 35.78667,13.71081 49.49747,0 13.71081,-13.7108 13.71081,-35.78667 0,-49.49747 z m -50.4418,34.56293 a 20.002,20.002 0 0 0 0,28.28427 l 21.09719,21.09719 a 20.002,20.002 0 0 0 28.28427,0 l 35.50726,-35.50726 a 20.002,20.002 0 0 0 0,-28.28427 l -21.09719,-21.09719 a 20.002,20.002 0 0 0 -28.28427,0 z m 107.11313,657.38269 c 28.79511,25.50028 61.4046,43.43186 94.89255,59.62028 l -18.65271,-43.37111 31.38337,-33.51079 c -26.11212,6.96456 -53.63893,13.75367 -107.62321,17.26162 z M 930.10309,344.24293 c -3.53578,53.55951 -10.37874,80.86973 -17.39853,106.77641 l 33.77655,-31.13644 43.71506,18.50594 c -16.31679,-33.22446 -34.39058,-65.57737 -60.09308,-94.14591 z m 19.43597,25.47191 -18.75195,18.60352 A 496.37933,492.47374 0 0 1 788.00781,786.73828 496.37933,492.47374 0 0 1 386.84765,927.98046 L 367.61328,947.0625 A 454.02241,450.45009 0 0 0 843.94141,842.29492 454.02241,450.45009 0 0 0 949.53906,369.71484 Z" /></g><g
     inkscape:groupmode="layer"
     id="layer1"
     inkscape:label="Old"
     sodipodi:insensitive="true"
     style="display:none"><path
       id="path17083"
       style="display:inline;fill:#ffffff;fill-opacity:1;stroke:none;stroke-width:0;stroke-linecap:round;stroke-linejoin:round;stroke-miterlimit:10.1;stroke-dasharray:none;stroke-opacity:1;paint-order:markers fill stroke;stop-color:#000000"
       d="m 464.54116,62.171305 c 0.72061,-26.777819 -11.97981,-31.060574 -31.06058,-31.060574 -19.08077,0 -31.76217,4.98935 -31.06058,31.060574 0.76814,28.544309 6.23398,54.288975 31.06058,115.913445 24.82661,-61.62447 30.29243,-87.369136 31.06058,-115.913445 z"
       sodipodi:nodetypes="szscs" /><g
       id="g3265"
       transform="translate(-61.164737,-86.974134)"
       style="display:inline"><path
         id="path3261"
         style="fill:#ffffff;fill-opacity:1;stroke:none;stroke-width:0;stroke-linecap:round;stroke-linejoin:round;stroke-miterlimit:10.1;stroke-dasharray:none;stroke-opacity:1;paint-order:markers fill stroke;stop-color:#000000"
         d="M 439.08531,57.221558 C 439.7869,31.150334 427.1055,26.160984 408.02473,26.160984 c -19.08077,0 -31.76217,4.98935 -31.06058,31.060574 0.76814,28.544309 6.73398,38.788972 31.06058,75.913442 24.3266,-37.12447 30.29244,-47.369133 31.06058,-75.913442 z"
         sodipodi:nodetypes="szscs" /></g><g
       id="g3270"
       transform="matrix(1,0,0,0.78032048,31.791608,-79.49656)"
       inkscape:transform-center-y="-41.737009"
       style="display:inline"><path
         id="path3268"
         style="fill:#ffffff;fill-opacity:1;stroke:none;stroke-width:0;stroke-linecap:round;stroke-linejoin:round;stroke-miterlimit:10.1;stroke-dasharray:none;stroke-opacity:1;paint-order:markers fill stroke;stop-color:#000000"
         d="M 439.08531,57.221558 C 439.7869,31.150334 427.1055,26.160984 408.02473,26.160984 c -19.08077,0 -31.76217,4.98935 -31.06058,31.060574 0.76814,28.544309 6.73398,38.788972 31.06058,75.913442 24.3266,-37.12447 30.29244,-47.369133 31.06058,-75.913442 z"
         sodipodi:nodetypes="szscs" /></g><g
       id="g3341"
       style="display:inline"><path
         style="fill:#ffffff;fill-opacity:1;stroke:none;stroke-width:0;stroke-linecap:round;stroke-linejoin:round;stroke-miterlimit:10.1;stroke-dasharray:none;paint-order:markers fill stroke;stop-color:#000000"
         d="M 251.77343,125.45332 C 226.36894,94.254012 217.07513,79.636674 215.00388,65.702796 209.56237,29.096207 241.12757,31.138772 269.62788,30.877787"
         id="path3335"
         sodipodi:nodetypes="csc" /><path
         style="fill:#ffffff;fill-opacity:1;stroke:none;stroke-width:0;stroke-linecap:round;stroke-linejoin:round;stroke-miterlimit:10.1;stroke-dasharray:none;paint-order:markers fill stroke;stop-color:#000000"
         d="m 287.48233,125.45332 c 25.40449,-31.199308 34.6983,-45.816646 36.76955,-59.750524 5.44151,-36.606589 -26.12369,-34.564024 -54.624,-34.825009"
         id="path3337"
         sodipodi:nodetypes="csc" /></g><g
       id="g3353"
       transform="translate(-116.5,34.5)"
       style="display:inline"><path
         id="path3351"
         style="fill:#ffffff;fill-opacity:1;stroke:none;stroke-width:0;stroke-linecap:round;stroke-linejoin:round;stroke-miterlimit:10.1;stroke-dasharray:none;paint-order:markers fill stroke;stop-color:#000000"
         d="m 287.48233,125.45332 c 25.40449,-31.199308 34.6983,-45.816646 36.76955,-59.750524 5.44151,-36.606589 -26.1225,-36.825009 -54.624,-36.825009 -28.5015,0 -60.06551,0.21842 -54.624,36.825009 2.07125,13.933878 11.36506,28.551216 36.76955,59.750524 h 17.85445 z"
         sodipodi:nodetypes="csssccc" /></g><rect
       style="display:inline;fill:none;stroke:#ffffff;stroke-width:15;stroke-linecap:round;stroke-linejoin:round;stroke-miterlimit:10.1;stroke-dasharray:none;stroke-opacity:1;paint-order:markers fill stroke;stop-color:#000000"
       id="rect4071"
       width="45"
       height="75"
       x="283.3237"
       y="382.06381"
       rx="22.5"
       ry="22.5" /><path
       id="path2265"
       style="color:#000000;display:inline;fill:#ffffff;stroke-width:1.22479;stroke-linecap:round;stroke-linejoin:round;-inkscape-stroke:none;paint-order:markers fill stroke"
       d="m -641.96796,-227.55866 c -17.041,0 -31.05207,14.01107 -31.05207,31.05207 0,17.04101 14.01105,31.05416 31.05207,31.05416 h 5.11886 v 152.990629 c 0,18.2343704 -3.81183,36.26874 -11.21045,52.92282 L -824.98563,438.7136 c -17.24895,38.82628 11.61158,83.21973 54.088,83.21973 h 461.79594 c 42.4763,0 71.33521,-44.39313 54.08802,-83.21973 L -431.92303,40.461019 c -7.40298,-16.66546 -11.22719,-34.6929196 -11.22719,-52.92282 V -165.45243 h 5.11886 c 17.04102,0 31.05417,-14.01314 31.05417,-31.05416 0,-17.04102 -14.01317,-31.05207 -31.05417,-31.05207 z m -0.002,18.36892 h 203.93451 c 7.11213,0 12.68524,5.57312 12.68524,12.68524 0,7.11214 -5.57311,12.67688 -12.68524,12.67688 h -8.78595 c -8.03153,0 -14.69765,6.72393 -14.69765,14.72274 v 156.647269 c 0,20.8000504 4.35933,41.36673 12.80448,60.37832 l 34.92417,78.611261 c -2.88034,1.46633 -5.76137,2.93906 -8.64161,4.40553 -20.19818,10.28427 -33.26559,9.22873 -46.0112,2.96003 -12.74557,-6.26865 -25.06754,-19.21679 -38.38415,-33.995361 -13.31662,-14.77858 -27.68604,-31.23895 -46.31662,-43.28965 -13.97291,-9.038 -30.53764,-15.37147 -50.01926,-16.27702 -6.49389,-0.30177 -13.31025,4.1e-4 -20.465,1.00621 -1.74204,0.24548 -3.48281,0.48562 -5.22555,0.72588 6.83865,-17.35383 10.37579,-35.8401596 10.37579,-54.5252 V -169.10488 c 0,-7.99882 -6.6745,-14.72271 -14.70601,-14.72274 h -8.78595 c -7.11211,0 -12.67688,-5.56474 -12.67688,-12.67688 0,-7.11212 5.56475,-12.68524 12.67688,-12.68524 z" /><g
       id="g2277"
       style="display:inline"
       transform="matrix(1.2247921,0,0,1.2247921,-771.91638,-161.42391)"><path
         id="path2267"
         style="fill:#2ec4b5;fill-opacity:1;fill-rule:nonzero;stroke:none;stroke-width:0;stroke-miterlimit:4;stroke-dasharray:none;stroke-opacity:1"
         d="m 553.19542,804.3256 c 0.7,0.35272 1.37584,0.75993 2.01951,1.22766 4.94797,3.59548 8.99187,8.63836 10.41946,14.63568 0.88454,3.71584 1.22675,7.63129 0.58966,11.39747 -0.50719,2.99827 -3.15337,5.17021 -6.04263,6.00065 -2.13443,0.6134 -3.88869,-0.14258 -5.47847,-1.66226 -3.01878,-2.88567 -9.09567,-1.96525 -11.73623,1.7508 z m -18.39008,60.00417 c -0.5272,6.67739 -0.35167,13.86188 0.2855,21.4593 1.10247,13.14546 5.51579,35.01501 17.24046,35.30073 6.0943,0.14849 8.74637,-0.7284 12.85134,-5.00619 4.33215,-4.51445 7.84313,-9.84682 10.25798,-15.60296 1.46975,-3.50333 2.99064,-7.37332 6.30142,-9.49473 2.79844,-1.79319 6.55888,-1.07645 9.23987,0.60296 2.15366,1.34914 4.13866,3.24696 5.10717,5.59954 1.37878,3.34918 0.41291,7.14982 -0.60861,10.49965 -2.31261,7.58367 -6.45372,14.47687 -10.99628,20.92234 -5.04091,7.15255 -10.83293,13.94831 -17.98564,19.07092 -5.19796,3.72261 -11.74068,5.48142 -18.1107,5.33641 -6.25603,-0.14247 -12.4378,-2.77964 -16.7022,-7.42829 -6.30101,-6.86885 -10.94098,-15.39927 -14.26107,-24.35619 z" /><path
         id="path2269"
         style="fill:#4fbeed;fill-opacity:1;fill-rule:nonzero;stroke:none;stroke-width:0;stroke-miterlimit:4;stroke-dasharray:none;stroke-opacity:1"
         d="m 517.42458,921.23326 c -1.84964,-4.98994 -3.28964,-10.11225 -4.37899,-15.15337 -4.05267,-18.75436 -3.54461,-36.8471 -1.50624,-54.22474 1.46663,-12.50359 4.08591,-23.55592 11.02303,-34.15484 3.796,-5.7997 7.47918,-11.51126 13.92807,-14.35646 3.10655,-1.37066 6.60001,-1.2225 9.89028,-0.8923 2.34468,0.23529 4.69087,0.80388 6.81469,1.87405 l -10.2287,33.35 c -0.0593,0.0834 -0.11679,0.16819 -0.17251,0.25439 -4.80645,7.43493 -7.1948,16.34213 -7.98887,26.39978 z m -82.03246,-2.34391 c 0.37179,0.38509 0.77173,0.74876 1.20393,1.08712 2.90961,2.27793 6.71969,2.66116 10.31051,2.59914 5.41116,-0.0935 10.70074,-2.19546 14.59383,-5.92978 4.22851,-4.05607 6.91404,-9.35368 9.25234,-14.64847 4.64035,-10.50762 6.57412,-21.97769 7.39618,-33.36146 0.33955,-4.70256 0.40699,-9.41542 0.58371,-14.12465 0.35171,-9.37278 -0.91013,-18.70366 -2.03526,-27.99406 -1.11394,-9.19816 -2.72886,-18.31362 -4.65951,-27.36493 l 10.45854,-34.37657 c 2.5176,9.44259 5.62744,18.72243 8.28023,28.12965 4.9476,17.54511 8.70571,35.29191 9.27735,53.58292 1.03334,33.06498 -3.01082,67.99463 -22.56435,91.31631 -6.75841,8.06081 -16.09207,14.23903 -26.58777,14.60426 -1.65442,0.0574 -3.31294,0.0434 -4.96791,0.007 -6.80922,-0.2637 -13.65456,-2.87207 -18.46126,-7.68661 z m 68.0558,-222.50424 c 5.13164,1.82586 9.80871,5.10059 11.792,9.63172 1.71274,3.91306 3.74242,7.71307 4.97997,11.81222 1.36046,4.5062 1.73712,9.34798 1.00046,14.0011 -0.3236,2.04397 -1.24471,4.45656 -3.50714,5.00883 -1.22145,0.29815 -2.21868,-0.75369 -3.07007,-1.44222 -3.7404,-3.02505 -7.33517,-6.38414 -11.74195,-8.42455 -1.91126,-0.88496 -5.37556,-1.14092 -8.61806,-0.81051 z m -63.26594,206.73015 c 0.62253,1.36387 1.38878,2.66085 2.33205,3.85587 2.33164,2.95399 6.88708,3.68662 9.98046,1.62125 2.55035,-1.70283 4.31694,-4.336 5.9368,-6.90026 1.50243,-2.3783 2.49113,-5.01398 3.23311,-7.70891 3.24005,-11.76835 4.90633,-24.41672 5.71625,-34.86473 0.3245,-4.186 0.0632,-8.40228 -0.12868,-12.59464 -0.32792,-7.16509 -0.89226,-14.6302 -2.06959,-21.82909 -0.1112,-0.67992 -0.22387,-1.35853 -0.33802,-2.036 z" /><path
         id="path2271"
         style="fill:#a17bc3;fill-opacity:1;fill-rule:nonzero;stroke:none;stroke-width:0;stroke-miterlimit:4;stroke-dasharray:none;stroke-opacity:1"
         d="m 369.35491,852.89039 c -1.15848,10.25895 -2.4858,20.5381 -3.82748,30.93364 -1.09711,8.50069 0.21388,17.46419 3.52955,25.51615 2.00631,4.87225 5.38485,9.18362 9.66962,12.23984 4.3622,3.11147 9.48905,4.88335 14.64723,6.22651 7.60849,1.98121 14.32959,7.46045 17.67568,14.59099 0.91909,1.95852 1.25922,4.59549 -0.0748,6.44163 -1.86242,2.57731 -5.15736,3.6063 -8.3162,3.60509 l -44.5919,-0.0171 c -6.30146,-0.002 -12.90366,-1.12734 -17.72131,-4.89375 z m 95.48945,-30.23164 c -1.17285,-6.96099 -2.50072,-13.80195 -3.97032,-20.71208 -1.20763,-5.67821 -2.54435,-11.54859 -3.88007,-17.18062 -2.14006,-9.02343 -4.21885,-18.05555 -6.83194,-26.98311 -5.30097,-18.11086 -11.71787,-35.91453 -19.48671,-53.11701 -3.01436,-6.6746 -6.52229,-13.72722 -9.93345,-19.70201 l -6.46925,21.23932 c 3.91096,5.87752 6.04058,16.05629 7.62245,25.71216 1.0149,6.19502 2.27162,15.25852 2.4905,23.2591 0.31691,11.58307 -1.58087,17.80506 -6.00298,19.50947 -2.06921,0.79749 -4.39529,0.50194 -6.07465,-0.5643 -6.91209,-4.38858 -8.3689,-22.48413 -8.59279,-26.06404 -0.0838,-1.34066 -0.31696,-3.13925 -0.63601,-5.25059 l -18.12168,59.21293 c -0.46653,21.13266 -2.33437,42.2451 -4.56681,63.26341 -1.11931,10.53792 -3.19574,19.43292 -3.09708,29.01786 0.0581,5.64418 1.12216,11.80923 5.24023,15.91776 1.8741,1.86978 2.97767,2.95757 5.26592,2.70407 3.69663,-0.40955 6.6141,-3.19707 8.9953,-5.87455 1.89708,-2.13314 3.82055,-4.36675 4.91488,-7.03254 2.28,-5.55425 3.27837,-11.53398 4.21274,-17.43605 3.19399,-20.17549 4.28629,-40.60233 6.35037,-60.90864 0.78674,-7.73986 1.42465,-15.5356 3.1614,-23.13233 0.75757,-3.31366 1.76145,-6.96838 4.59138,-9.13157 2.79176,-2.13402 6.97652,-1.49028 9.39414,0.94288 2.82129,2.83942 4.18252,6.73638 5.31188,10.47897 2.96126,9.81305 4.30226,20.03873 5.23105,30.22359 1.10297,12.09537 1.41951,24.30495 0.28488,36.41625 -0.37366,3.98846 -1.27889,7.88785 -1.91339,11.83356 -0.67113,4.17351 -0.97978,8.86427 -0.61756,13.25069 0.29576,3.58184 0.96086,7.26816 2.46519,10.56393 z m -37.37168,122.07047 c -0.30465,-0.30514 -0.60111,-0.61915 -0.88885,-0.94199 -5.65357,-6.34306 -10.29621,-13.73755 -13.08824,-20.98849 v 0.002 c -1.3882,-3.60522 -2.84154,-7.35857 -2.84681,-11.24481 -0.006,-3.4547 1.84373,-7.00003 4.73774,-8.99797 2.91725,-2.01395 6.76856,-1.19396 9.79737,0.17269 2.67259,1.20593 4.26805,3.82767 5.22051,6.48579 1.2167,3.39554 2.44204,7.03661 4.98772,9.6734 z m 44.56517,-145.57696 c -2.10449,-9.86633 -4.58412,-19.65646 -7.19896,-29.3944 -0.98217,-3.65771 -2.00033,-7.52545 -2.91659,-11.06009 -2.57266,-9.92439 -5.16827,-19.95544 -5.67338,-30.24018 -0.31429,-6.39931 0.48941,-13.23019 4.29034,-18.58851 2.4103,-3.39789 5.72885,-6.02377 9.05619,-8.4681 6.33015,-4.65027 17.61453,-7.0373 25.60609,-6.67111 2.65228,0.12154 5.51378,0.68297 8.24638,1.65524 l -9.16479,29.77659 c -2.5845,0.26336 -5.02809,0.89926 -6.43199,1.88612 -3.76484,2.64641 -7.19972,6.9092 -8.13676,11.23489 -1.46619,6.76847 -0.0942,13.75795 1.48855,20.38637 0.40798,1.70858 0.84116,3.41022 1.29346,5.10661 z" /><path
         id="path2273"
         style="fill:#ed6f96;fill-opacity:1;fill-rule:nonzero;stroke:none;stroke-width:0;stroke-miterlimit:4;stroke-dasharray:none;stroke-opacity:1"
         d="m 307.5693,773.31295 c 1.18494,-0.21455 2.35215,-0.52001 3.47081,-0.85405 4.35653,-1.30087 12.28976,-2.25994 16.61332,-0.83851 2.91606,0.95897 5.44621,3.22385 6.26889,6.24457 0.85233,3.12972 0.57887,6.42367 0.31369,9.61203 -0.17906,2.15284 -1.07813,4.28002 -2.8469,5.62796 -3.38883,2.58257 -11.52181,4.32048 -19.27992,7.51551 -6.92631,2.85253 -13.06578,7.70441 -17.36537,14.36638 z m -19.30472,62.9396 c -2.16014,22.53765 0.2745,43.82266 3.47963,67.24564 1.35731,9.91921 6.1018,33.65053 4.01339,40.89484 -0.6438,2.23316 -2.02195,8.03413 -8.06204,8.03413 h -10.47997 c -2.20065,0 -3.9069,-1.73544 -4.93059,-3.59742 -3.57749,-6.50705 -5.54182,-13.73987 -7.01414,-20.96055 -0.70254,-3.44538 -1.2925,-6.92057 -1.79474,-10.4111 z m 52.08072,111.28084 c -9.12749,-7.38661 -8.07666,-23.23742 -6.69886,-33.64431 3.32013,-24.27559 6.76809,-51.33653 9.78986,-71.60462 2.30877,-15.48572 3.6603,-36.15593 2.89077,-51.76509 -1.79502,-36.40848 -2.24628,-70.36263 -12.61035,-102.76929 l 14.84733,-48.56676 c 2.33419,5.75514 3.61356,12.11623 4.69088,17.27142 8.72472,41.74933 15.10651,72.27588 18.44268,108.34427 2.8327,30.62517 0.91093,59.2786 -2.3427,88.09138 z m 80.39657,-262.56947 c -0.5384,-0.94304 -1.0744,-1.85923 -1.60566,-2.74284 -4.00923,-6.66819 -8.37635,-13.31971 -14.31822,-18.43048 -2.55709,-2.19943 -5.67134,-4.46527 -9.19565,-4.22037 -3.0698,0.21333 -5.77174,2.21208 -7.75644,4.56764 -3.58559,4.25556 -4.76654,9.65521 -5.85964,14.51344 -1.55101,6.89344 -1.83123,13.23418 -1.90784,19.73375 -0.18433,15.63252 1.17559,31.18623 2.40413,46.70384 0.70511,8.90651 1.58568,17.74843 2.05307,26.67434 0.52803,10.08416 0.62444,20.17175 0.40184,30.25473 l 18.12168,-59.21293 c -0.28057,-1.85672 -0.6276,-3.95531 -0.99798,-6.19704 -3.31276,-20.05039 -4.94439,-33.34804 2.34715,-35.18461 4.47623,-0.78962 7.64365,1.51289 9.84431,4.77985 z" /><path
         id="path2275"
         style="fill:#edc359;fill-opacity:1;fill-rule:nonzero;stroke:none;stroke-width:0;stroke-miterlimit:4;stroke-dasharray:none;stroke-opacity:1"
         d="m 263.47612,917.45809 c -1.17525,-8.16791 -1.87017,-16.41982 -2.40326,-24.57031 -1.36161,-20.8174 -1.40002,-41.69701 -1.57337,-62.58314 -0.0593,-7.15413 0.087,-14.3425 0.41623,-21.42075 0.3686,-7.92484 1.08044,-15.83383 2.17906,-23.69077 0.28588,-2.04441 0.64123,-4.3542 0.99419,-6.49557 3.84305,-23.315 11.1481,-45.97836 20.88268,-67.50085 l 10.42309,-23.0447 c 2.84882,-6.29856 10.09822,-10.22129 17.05897,-9.59046 2.87217,0.26031 5.34416,2.12649 6.72168,4.56989 4.51193,8.0032 6.91772,16.94656 3.66299,26.83865 -5.17983,15.7432 -16.05041,15.37436 -24.20729,37.7317 -1.64301,4.50333 -3.04919,10.82876 -2.66999,16.63281 0.21687,3.31907 1.46583,6.77525 4.5191,8.25421 2.53971,1.23015 5.36139,1.21804 8.0891,0.72415 l -12.82548,41.67389 c -3.0957,4.79661 -5.23762,10.53157 -6.0327,17.13423 -0.16646,1.38231 -0.31502,2.75922 -0.44654,4.13148 z m 70.2406,-229.70801 c -0.79307,-2.47976 -1.64417,-4.95046 -2.55836,-7.41251 -3.5698,-9.61408 -9.79436,-18.0373 -12.86669,-27.83444 -0.97879,-3.12114 -1.95739,-6.3111 -2.1133,-9.60072 -0.15284,-3.22535 1.0661,-6.27533 2.37696,-9.16793 1.27389,-2.81096 2.62361,-5.66049 4.93925,-7.78323 4.51293,-4.13701 10.01761,-2.96834 15.26613,0.28588 4.60745,2.85675 7.653,7.64434 9.80334,12.94619 z" /></g></g></svg>
