<?xml version="1.0" encoding="UTF-8" standalone="no"?>
<!-- Created with Inkscape (http://www.inkscape.org/) -->

<svg
   version="1.1"
   id="svg2"
   xml:space="preserve"
   width="800"
   height="1200"
   viewBox="0 0 799.99999 1200"
   sodipodi:docname="Merch Logo 3.10.svg"
   inkscape:version="1.1 (c68e22c387, 2021-05-23)"
   inkscape:export-filename="C:\Users\VIAPRIES\Documents\2021 Semester 2 Github\Clubs\FLASC Branding\Merch\2022 FLASC\Embroidery\Titty flasc\Merch Logo 3.7 fill-white text-multicolour-diagonal-steep-reg bubbles-multi.png"
   inkscape:export-xdpi="384"
   inkscape:export-ydpi="384"
   xmlns:inkscape="http://www.inkscape.org/namespaces/inkscape"
   xmlns:sodipodi="http://sodipodi.sourceforge.net/DTD/sodipodi-0.dtd"
   xmlns="http://www.w3.org/2000/svg"
   xmlns:svg="http://www.w3.org/2000/svg"><defs
     id="defs6"><linearGradient
       id="C"
       inkscape:swatch="solid"><stop
         style="stop-color:#2ec4b5;stop-opacity:1;"
         offset="0"
         id="stop1752" /></linearGradient><linearGradient
       id="F"
       inkscape:swatch="solid"><stop
         style="stop-color:#edc359;stop-opacity:1;"
         offset="0"
         id="stop1746" /></linearGradient><linearGradient
       id="L"
       inkscape:swatch="solid"><stop
         style="stop-color:#ed6f96;stop-opacity:1;"
         offset="0"
         id="stop1740" /></linearGradient><linearGradient
       id="A"
       inkscape:swatch="solid"><stop
         style="stop-color:#a17bc3;stop-opacity:1;"
         offset="0"
         id="stop1734" /></linearGradient><linearGradient
       id="S"
       inkscape:swatch="solid"><stop
         style="stop-color:#4fbeed;stop-opacity:1;"
         offset="0"
         id="stop1728" /></linearGradient><linearGradient
       id="Bubble1"
       inkscape:swatch="solid"
       gradientTransform="matrix(1.3468699,0,0,1.8856184,-121.90474,-277.3334)"><stop
         style="stop-color:#d4b457;stop-opacity:1;"
         offset="0"
         id="stop17369" /></linearGradient><linearGradient
       id="Bubble3"
       inkscape:swatch="solid"><stop
         style="stop-color:#ef8c80;stop-opacity:1;"
         offset="0"
         id="stop17075" /></linearGradient><linearGradient
       id="Bubble2"
       inkscape:swatch="solid"><stop
         style="stop-color:#c882d8;stop-opacity:1;"
         offset="0"
         id="stop17033" /></linearGradient><linearGradient
       id="Fill3"
       inkscape:swatch="solid"><stop
         style="stop-color:#65488c;stop-opacity:1;"
         offset="0"
         id="stop16289" /></linearGradient><linearGradient
       id="Fill1"
       inkscape:swatch="solid"><stop
         style="stop-color:#a17bc3;stop-opacity:1;"
         offset="0"
         id="stop16117" /></linearGradient><linearGradient
       id="Fill2"
       inkscape:swatch="solid"><stop
         style="stop-color:#253b75;stop-opacity:1;"
         offset="0"
         id="stop14494" /></linearGradient></defs><sodipodi:namedview
     id="namedview4"
     pagecolor="#6ca5d5"
     bordercolor="#666666"
     borderopacity="1.0"
     inkscape:pageshadow="2"
     inkscape:pageopacity="0"
     inkscape:pagecheckerboard="0"
     showgrid="false"
     inkscape:zoom="0.5"
     inkscape:cx="312"
     inkscape:cy="615"
     inkscape:window-width="1920"
     inkscape:window-height="1001"
     inkscape:window-x="-9"
     inkscape:window-y="-9"
     inkscape:window-maximized="1"
     inkscape:current-layer="layer3"
     inkscape:object-paths="true"
     inkscape:snap-nodes="true"
     inkscape:snap-bbox="true"
     inkscape:snap-bbox-midpoints="true"
     inkscape:bbox-nodes="true"
     inkscape:snap-smooth-nodes="false"
     inkscape:snap-bbox-edge-midpoints="false"
     inkscape:bbox-paths="true"
     width="800px"
     height="1000px"
     inkscape:snap-page="true"
     inkscape:snap-grids="false"
     inkscape:snap-others="false"
     inkscape:snap-center="false"
     inkscape:object-nodes="false" /><g
     inkscape:groupmode="layer"
     id="layer3"
     inkscape:label="Titty flasc"
     style="display:inline"><path
       style="color:#000000;fill:#ffffff;stroke-linecap:round;stroke-linejoin:round;-inkscape-stroke:none"
       d="m 358.14844,255.54297 c -15.57375,0 -28.35938,12.78758 -28.35938,28.36133 0,15.57375 12.78563,28.35937 28.35938,28.35937 15.57375,0 28.36133,-12.78562 28.36133,-28.35937 0,-15.57375 -12.78758,-28.36133 -28.36133,-28.36133 z"
       id="path10139"
       sodipodi:nodetypes="sssss" /><path
       style="color:#000000;fill:#ffffff;stroke-linecap:round;stroke-linejoin:round;-inkscape-stroke:none"
       d="m 451.8418,205.51562 c -13.23061,0 -24.11719,10.88658 -24.11719,24.11719 0,13.23061 10.88658,24.11719 24.11719,24.11719 13.2306,0 24.11523,-10.88658 24.11523,-24.11719 0,-13.23061 -10.88463,-24.11719 -24.11523,-24.11719 z"
       id="path10166"
       sodipodi:nodetypes="sssss" /><path
       style="color:#000000;fill:#ffffff;stroke-linecap:round;stroke-linejoin:round;-inkscape-stroke:none"
       d="m 383.95898,127.20313 c -10.88746,-1e-5 -19.875,8.98753 -19.875,19.87499 0,10.88747 8.98754,19.875 19.875,19.875 10.88747,0 19.87305,-8.98753 19.87305,-19.875 0,-10.88746 -8.98558,-19.87499 -19.87305,-19.87499 z"
       id="path10433"
       sodipodi:nodetypes="sssss" /><path
       id="path1113"
       style="color:#000000;fill:#ffffff;stroke-linecap:round;stroke-linejoin:round;-inkscape-stroke:none;paint-order:markers fill stroke"
       d="m 483.2541,379.0332 c 5.8068,0 10.35351,4.54671 10.35351,10.35352 0,5.80681 -4.54671,10.35351 -10.35351,10.35351 h -7.17383 c -6.5575,0 -12.00586,5.48878 -12.00586,12.01954 v 127.89245 c 0,16.98257 3.56379,33.77651 10.45898,49.29883 l 28.51172,64.1875 c -2.35168,1.1972 -4.70326,2.39457 -7.05488,3.59189 -16.49113,8.39676 -27.16005,7.53613 -37.5664,2.41797 -10.40635,-5.11816 -20.46728,-15.6877 -31.33985,-27.75391 -10.87256,-12.06621 -22.60515,-25.50478 -37.8164,-35.34375 -11.40844,-7.37923 -24.93179,-12.55166 -40.83789,-13.29101 -5.30204,-0.24645 -10.86933,-9e-4 -16.71094,0.82031 -1.42233,0.20048 -2.84469,0.40154 -4.26758,0.59768 5.58352,-14.16881 8.47461,-29.26968 8.47461,-44.52539 V 411.75977 c 0,-6.53078 -5.44839,-12.01951 -12.00586,-12.01954 h -7.17383 c -5.8068,0 -10.35351,-4.54669 -10.35351,-10.35351 0,-5.80682 4.5467,-10.35352 10.35351,-10.35352 z M 167.31836,908.02148 c -14.08318,31.70034 9.48156,67.94532 44.16211,67.94532 h 377.03906 c 34.68047,0 58.24391,-36.24472 44.16211,-67.94532 L 488.24023,582.86133 c -6.04429,-13.60677 -9.16601,-28.3249 -9.16601,-43.20899 V 414.74023 h 4.17969 c 13.91341,0 25.35351,-11.4401 25.35351,-25.35351 0,-13.91341 -11.44012,-25.35352 -25.35351,-25.35352 H 316.74609 c -13.9134,0 -25.35351,11.44012 -25.35351,25.35352 0,13.9134 11.4401,25.35351 25.35351,25.35351 h 4.17969 v 124.91211 c 0,14.88774 -3.11161,29.61151 -9.15234,43.20899 z"
       sodipodi:nodetypes="sssssscccssssccssssssscssccscsssssscscc" /><g
       id="g7385"><path
         id="path1064"
         style="fill:#2ec4b5;fill-opacity:1;fill-rule:nonzero;stroke:none;stroke-width:0;stroke-miterlimit:4;stroke-dasharray:none;stroke-opacity:1"
         d="m 553.19542,804.3256 c 0.7,0.35272 1.37584,0.75993 2.01951,1.22766 4.94797,3.59548 8.99187,8.63836 10.41946,14.63568 0.88454,3.71584 1.22675,7.63129 0.58966,11.39747 -0.50719,2.99827 -3.15337,5.17021 -6.04263,6.00065 -2.13443,0.6134 -3.88869,-0.14258 -5.47847,-1.66226 -3.01878,-2.88567 -9.09567,-1.96525 -11.73623,1.7508 z m -18.39008,60.00417 c -0.5272,6.67739 -0.35167,13.86188 0.2855,21.4593 1.10247,13.14546 5.51579,35.01501 17.24046,35.30073 6.0943,0.14849 8.74637,-0.7284 12.85134,-5.00619 4.33215,-4.51445 7.84313,-9.84682 10.25798,-15.60296 1.46975,-3.50333 2.99064,-7.37332 6.30142,-9.49473 2.79844,-1.79319 6.55888,-1.07645 9.23987,0.60296 2.15366,1.34914 4.13866,3.24696 5.10717,5.59954 1.37878,3.34918 0.41291,7.14982 -0.60861,10.49965 -2.31261,7.58367 -6.45372,14.47687 -10.99628,20.92234 -5.04091,7.15255 -10.83293,13.94831 -17.98564,19.07092 -5.19796,3.72261 -11.74068,5.48142 -18.1107,5.33641 -6.25603,-0.14247 -12.4378,-2.77964 -16.7022,-7.42829 -6.30101,-6.86885 -10.94098,-15.39927 -14.26107,-24.35619 z" /><path
         id="path1066"
         style="fill:#4fbeed;fill-opacity:1;fill-rule:nonzero;stroke:none;stroke-width:0;stroke-miterlimit:4;stroke-dasharray:none;stroke-opacity:1"
         d="m 517.42458,921.23326 c -1.84964,-4.98994 -3.28964,-10.11225 -4.37899,-15.15337 -4.05267,-18.75436 -3.54461,-36.8471 -1.50624,-54.22474 1.46663,-12.50359 4.08591,-23.55592 11.02303,-34.15484 3.796,-5.7997 7.47918,-11.51126 13.92807,-14.35646 3.10655,-1.37066 6.60001,-1.2225 9.89028,-0.8923 2.34468,0.23529 4.69087,0.80388 6.81469,1.87405 l -10.2287,33.35 c -0.0593,0.0834 -0.11679,0.16819 -0.17251,0.25439 -4.80645,7.43493 -7.1948,16.34213 -7.98887,26.39978 z m -82.03246,-2.34391 c 0.37179,0.38509 0.77173,0.74876 1.20393,1.08712 2.90961,2.27793 6.71969,2.66116 10.31051,2.59914 5.41116,-0.0935 10.70074,-2.19546 14.59383,-5.92978 4.22851,-4.05607 6.91404,-9.35368 9.25234,-14.64847 4.64035,-10.50762 6.57412,-21.97769 7.39618,-33.36146 0.33955,-4.70256 0.40699,-9.41542 0.58371,-14.12465 0.35171,-9.37278 -0.91013,-18.70366 -2.03526,-27.99406 -1.11394,-9.19816 -2.72886,-18.31362 -4.65951,-27.36493 l 10.45854,-34.37657 c 2.5176,9.44259 5.62744,18.72243 8.28023,28.12965 4.9476,17.54511 8.70571,35.29191 9.27735,53.58292 1.03334,33.06498 -3.01082,67.99463 -22.56435,91.31631 -6.75841,8.06081 -16.09207,14.23903 -26.58777,14.60426 -1.65442,0.0574 -3.31294,0.0434 -4.96791,0.007 -6.80922,-0.2637 -13.65456,-2.87207 -18.46126,-7.68661 z m 68.0558,-222.50424 c 5.13164,1.82586 9.80871,5.10059 11.792,9.63172 1.71274,3.91306 3.74242,7.71307 4.97997,11.81222 1.36046,4.5062 1.73712,9.34798 1.00046,14.0011 -0.3236,2.04397 -1.24471,4.45656 -3.50714,5.00883 -1.22145,0.29815 -2.21868,-0.75369 -3.07007,-1.44222 -3.7404,-3.02505 -7.33517,-6.38414 -11.74195,-8.42455 -1.91126,-0.88496 -5.37556,-1.14092 -8.61806,-0.81051 z m -63.26594,206.73015 c 0.62253,1.36387 1.38878,2.66085 2.33205,3.85587 2.33164,2.95399 6.88708,3.68662 9.98046,1.62125 2.55035,-1.70283 4.31694,-4.336 5.9368,-6.90026 1.50243,-2.3783 2.49113,-5.01398 3.23311,-7.70891 3.24005,-11.76835 4.90633,-24.41672 5.71625,-34.86473 0.3245,-4.186 0.0632,-8.40228 -0.12868,-12.59464 -0.32792,-7.16509 -0.89226,-14.6302 -2.06959,-21.82909 -0.1112,-0.67992 -0.22387,-1.35853 -0.33802,-2.036 z" /><path
         id="path1058"
         style="fill:#a17bc3;fill-opacity:1;fill-rule:nonzero;stroke:none;stroke-width:0;stroke-miterlimit:4;stroke-dasharray:none;stroke-opacity:1"
         d="m 369.35491,852.89039 c -1.15848,10.25895 -2.4858,20.5381 -3.82748,30.93364 -1.09711,8.50069 0.21388,17.46419 3.52955,25.51615 2.00631,4.87225 5.38485,9.18362 9.66962,12.23984 4.3622,3.11147 9.48905,4.88335 14.64723,6.22651 7.60849,1.98121 14.32959,7.46045 17.67568,14.59099 0.91909,1.95852 1.25922,4.59549 -0.0748,6.44163 -1.86242,2.57731 -5.15736,3.6063 -8.3162,3.60509 l -44.5919,-0.0171 c -6.30146,-0.002 -12.90366,-1.12734 -17.72131,-4.89375 z m 95.48945,-30.23164 c -1.17285,-6.96099 -2.50072,-13.80195 -3.97032,-20.71208 -1.20763,-5.67821 -2.54435,-11.54859 -3.88007,-17.18062 -2.14006,-9.02343 -4.21885,-18.05555 -6.83194,-26.98311 -5.30097,-18.11086 -11.71787,-35.91453 -19.48671,-53.11701 -3.01436,-6.6746 -6.52229,-13.72722 -9.93345,-19.70201 l -6.46925,21.23932 c 3.91096,5.87752 6.04058,16.05629 7.62245,25.71216 1.0149,6.19502 2.27162,15.25852 2.4905,23.2591 0.31691,11.58307 -1.58087,17.80506 -6.00298,19.50947 -2.06921,0.79749 -4.39529,0.50194 -6.07465,-0.5643 -6.91209,-4.38858 -8.3689,-22.48413 -8.59279,-26.06404 -0.0838,-1.34066 -0.31696,-3.13925 -0.63601,-5.25059 l -18.12168,59.21293 c -0.46653,21.13266 -2.33437,42.2451 -4.56681,63.26341 -1.11931,10.53792 -3.19574,19.43292 -3.09708,29.01786 0.0581,5.64418 1.12216,11.80923 5.24023,15.91776 1.8741,1.86978 2.97767,2.95757 5.26592,2.70407 3.69663,-0.40955 6.6141,-3.19707 8.9953,-5.87455 1.89708,-2.13314 3.82055,-4.36675 4.91488,-7.03254 2.28,-5.55425 3.27837,-11.53398 4.21274,-17.43605 3.19399,-20.17549 4.28629,-40.60233 6.35037,-60.90864 0.78674,-7.73986 1.42465,-15.5356 3.1614,-23.13233 0.75757,-3.31366 1.76145,-6.96838 4.59138,-9.13157 2.79176,-2.13402 6.97652,-1.49028 9.39414,0.94288 2.82129,2.83942 4.18252,6.73638 5.31188,10.47897 2.96126,9.81305 4.30226,20.03873 5.23105,30.22359 1.10297,12.09537 1.41951,24.30495 0.28488,36.41625 -0.37366,3.98846 -1.27889,7.88785 -1.91339,11.83356 -0.67113,4.17351 -0.97978,8.86427 -0.61756,13.25069 0.29576,3.58184 0.96086,7.26816 2.46519,10.56393 z m -37.37168,122.07047 c -0.30465,-0.30514 -0.60111,-0.61915 -0.88885,-0.94199 -5.65357,-6.34306 -10.29621,-13.73755 -13.08824,-20.98849 v 0.002 c -1.3882,-3.60522 -2.84154,-7.35857 -2.84681,-11.24481 -0.006,-3.4547 1.84373,-7.00003 4.73774,-8.99797 2.91725,-2.01395 6.76856,-1.19396 9.79737,0.17269 2.67259,1.20593 4.26805,3.82767 5.22051,6.48579 1.2167,3.39554 2.44204,7.03661 4.98772,9.6734 z m 44.56517,-145.57696 c -2.10449,-9.86633 -4.58412,-19.65646 -7.19896,-29.3944 -0.98217,-3.65771 -2.00033,-7.52545 -2.91659,-11.06009 -2.57266,-9.92439 -5.16827,-19.95544 -5.67338,-30.24018 -0.31429,-6.39931 0.48941,-13.23019 4.29034,-18.58851 2.4103,-3.39789 5.72885,-6.02377 9.05619,-8.4681 6.33015,-4.65027 17.61453,-7.0373 25.60609,-6.67111 2.65228,0.12154 5.51378,0.68297 8.24638,1.65524 l -9.16479,29.77659 c -2.5845,0.26336 -5.02809,0.89926 -6.43199,1.88612 -3.76484,2.64641 -7.19972,6.9092 -8.13676,11.23489 -1.46619,6.76847 -0.0942,13.75795 1.48855,20.38637 0.40798,1.70858 0.84116,3.41022 1.29346,5.10661 z" /><path
         id="path1048"
         style="fill:#ed6f96;fill-opacity:1;fill-rule:nonzero;stroke:none;stroke-width:0;stroke-miterlimit:4;stroke-dasharray:none;stroke-opacity:1"
         d="m 307.5693,773.31295 c 1.18494,-0.21455 2.35215,-0.52001 3.47081,-0.85405 4.35653,-1.30087 12.28976,-2.25994 16.61332,-0.83851 2.91606,0.95897 5.44621,3.22385 6.26889,6.24457 0.85233,3.12972 0.57887,6.42367 0.31369,9.61203 -0.17906,2.15284 -1.07813,4.28002 -2.8469,5.62796 -3.38883,2.58257 -11.52181,4.32048 -19.27992,7.51551 -6.92631,2.85253 -13.06578,7.70441 -17.36537,14.36638 z m -19.30472,62.9396 c -2.16014,22.53765 0.2745,43.82266 3.47963,67.24564 1.35731,9.91921 6.1018,33.65053 4.01339,40.89484 -0.6438,2.23316 -2.02195,8.03413 -8.06204,8.03413 h -10.47997 c -2.20065,0 -3.9069,-1.73544 -4.93059,-3.59742 -3.57749,-6.50705 -5.54182,-13.73987 -7.01414,-20.96055 -0.70254,-3.44538 -1.2925,-6.92057 -1.79474,-10.4111 z m 52.08072,111.28084 c -9.12749,-7.38661 -8.07666,-23.23742 -6.69886,-33.64431 3.32013,-24.27559 6.76809,-51.33653 9.78986,-71.60462 2.30877,-15.48572 3.6603,-36.15593 2.89077,-51.76509 -1.79502,-36.40848 -2.24628,-70.36263 -12.61035,-102.76929 l 14.84733,-48.56676 c 2.33419,5.75514 3.61356,12.11623 4.69088,17.27142 8.72472,41.74933 15.10651,72.27588 18.44268,108.34427 2.8327,30.62517 0.91093,59.2786 -2.3427,88.09138 z m 80.39657,-262.56947 c -0.5384,-0.94304 -1.0744,-1.85923 -1.60566,-2.74284 -4.00923,-6.66819 -8.37635,-13.31971 -14.31822,-18.43048 -2.55709,-2.19943 -5.67134,-4.46527 -9.19565,-4.22037 -3.0698,0.21333 -5.77174,2.21208 -7.75644,4.56764 -3.58559,4.25556 -4.76654,9.65521 -5.85964,14.51344 -1.55101,6.89344 -1.83123,13.23418 -1.90784,19.73375 -0.18433,15.63252 1.17559,31.18623 2.40413,46.70384 0.70511,8.90651 1.58568,17.74843 2.05307,26.67434 0.52803,10.08416 0.62444,20.17175 0.40184,30.25473 l 18.12168,-59.21293 c -0.28057,-1.85672 -0.6276,-3.95531 -0.99798,-6.19704 -3.31276,-20.05039 -4.94439,-33.34804 2.34715,-35.18461 4.47623,-0.78962 7.64365,1.51289 9.84431,4.77985 z" /><path
         id="path1050"
         style="fill:#edc359;fill-opacity:1;fill-rule:nonzero;stroke:none;stroke-width:0;stroke-miterlimit:4;stroke-dasharray:none;stroke-opacity:1"
         d="m 263.47612,917.45809 c -1.17525,-8.16791 -1.87017,-16.41982 -2.40326,-24.57031 -1.36161,-20.8174 -1.40002,-41.69701 -1.57337,-62.58314 -0.0593,-7.15413 0.087,-14.3425 0.41623,-21.42075 0.3686,-7.92484 1.08044,-15.83383 2.17906,-23.69077 0.28588,-2.04441 0.64123,-4.3542 0.99419,-6.49557 3.84305,-23.315 11.1481,-45.97836 20.88268,-67.50085 l 10.42309,-23.0447 c 2.84882,-6.29856 10.09822,-10.22129 17.05897,-9.59046 2.87217,0.26031 5.34416,2.12649 6.72168,4.56989 4.51193,8.0032 6.91772,16.94656 3.66299,26.83865 -5.17983,15.7432 -16.05041,15.37436 -24.20729,37.7317 -1.64301,4.50333 -3.04919,10.82876 -2.66999,16.63281 0.21687,3.31907 1.46583,6.77525 4.5191,8.25421 2.53971,1.23015 5.36139,1.21804 8.0891,0.72415 l -12.82548,41.67389 c -3.0957,4.79661 -5.23762,10.53157 -6.0327,17.13423 -0.16646,1.38231 -0.31502,2.75922 -0.44654,4.13148 z m 70.2406,-229.70801 c -0.79307,-2.47976 -1.64417,-4.95046 -2.55836,-7.41251 -3.5698,-9.61408 -9.79436,-18.0373 -12.86669,-27.83444 -0.97879,-3.12114 -1.95739,-6.3111 -2.1133,-9.60072 -0.15284,-3.22535 1.0661,-6.27533 2.37696,-9.16793 1.27389,-2.81096 2.62361,-5.66049 4.93925,-7.78323 4.51293,-4.13701 10.01761,-2.96834 15.26613,0.28588 4.60745,2.85675 7.653,7.64434 9.80334,12.94619 z" /></g></g></svg>
