<?xml version="1.0" encoding="UTF-8" standalone="no"?>
<!-- Created with Inkscape (http://www.inkscape.org/) -->

<svg
   width="1000"
   height="1000"
   viewBox="0 0 264.58333 264.58334"
   version="1.1"
   id="svg5"
   inkscape:version="1.1 (c68e22c387, 2021-05-23)"
   sodipodi:docname="Duck v8 single layer black.svg"
   inkscape:export-filename="C:\Users\VIAPRIES\Documents\2021 Semester 2 Github\Clubs\FUCS Branding\2022 Refresh\Merch\Duck v8 heavy sourcepro.png"
   inkscape:export-xdpi="768.289"
   inkscape:export-ydpi="768.289"
   xmlns:inkscape="http://www.inkscape.org/namespaces/inkscape"
   xmlns:sodipodi="http://sodipodi.sourceforge.net/DTD/sodipodi-0.dtd"
   xmlns="http://www.w3.org/2000/svg"
   xmlns:svg="http://www.w3.org/2000/svg">
  <sodipodi:namedview
     id="namedview7"
     pagecolor="#ffffff"
     bordercolor="#666666"
     borderopacity="1.0"
     inkscape:pageshadow="2"
     inkscape:pageopacity="0.0"
     inkscape:pagecheckerboard="false"
     inkscape:document-units="px"
     showgrid="false"
     inkscape:zoom="0.45254834"
     inkscape:cx="834.16503"
     inkscape:cy="756.82523"
     inkscape:window-width="1920"
     inkscape:window-height="1001"
     inkscape:window-x="-9"
     inkscape:window-y="-9"
     inkscape:window-maximized="1"
     inkscape:current-layer="g222213"
     units="px" />
  <defs
     id="defs2" />
  <g
     inkscape:groupmode="layer"
     id="g222213"
     inkscape:label="Duck heavy sourcpro baked"
     style="display:inline"
     sodipodi:insensitive="true">
    <path
       id="path2306"
       style="font-weight:900;font-size:6.35px;line-height:1.25;font-family:'Source Code Pro';-inkscape-font-specification:'Source Code Pro Heavy';baseline-shift:baseline;stroke-width:0.264583"
       d="m 178.62115,222.64581 v -0.762 h 2.9972 v 0.762 z m -3.80999,0 v -0.762 h 2.9972 v 0.762 z m -3.80999,0 v -0.762 h 2.9972 v 0.762 z m -3.80999,0 v -0.762 h 2.9972 v 0.762 z m -3.80999,0 v -0.762 h 2.9972 v 0.762 z m -3.80999,0 v -0.762 h 2.9972 v 0.762 z m -3.80999,0 v -0.762 h 2.9972 v 0.762 z m -3.80999,0 v -0.762 h 2.9972 v 0.762 z m -3.80999,0 v -0.762 h 2.9972 v 0.762 z m -3.80999,0 v -0.762 h 2.9972 v 0.762 z m -3.80999,0 v -0.762 h 2.9972 v 0.762 z m -3.80999,0 v -0.762 h 2.9972 v 0.762 z m -3.80999,0 v -0.762 h 2.9972 v 0.762 z m -3.80999,0 v -0.762 h 2.9972 v 0.762 z m -3.80999,0 v -0.762 h 2.9972 v 0.762 z m -3.80999,0 v -0.762 h 2.9972 v 0.762 z m -3.80999,0 v -0.762 h 2.9972 v 0.762 z m -3.80999,0 v -0.762 h 2.9972 v 0.762 z m -3.80999,0 v -0.762 h 2.9972 v 0.762 z m -3.80999,0 v -0.762 h 2.9972 v 0.762 z m -3.80999,0 v -0.762 h 2.9972 v 0.762 z m -3.809993,0 v -0.762 h 2.997203 v 0.762 z m -3.80999,0 v -0.762 h 2.9972 v 0.762 z m -3.80999,0 v -0.762 h 2.9972 v 0.762 z m -3.80999,0 v -0.762 h 2.9972 v 0.762 z m -3.80999,0 v -0.762 h 2.9972 v 0.762 z m 114.299703,-7.9375 v -0.762 h 2.9972 v 0.762 z m -3.80999,0 v -0.762 h 2.9972 v 0.762 z m -3.80999,0 v -0.762 h 2.9972 v 0.762 z m -3.80999,0 v -0.762 h 2.9972 v 0.762 z m -3.80999,0 v -0.762 h 2.9972 v 0.762 z m -3.80999,0 v -0.762 h 2.9972 v 0.762 z m -3.80999,0 v -0.762 h 2.9972 v 0.762 z m -3.80999,0 v -0.762 h 2.9972 v 0.762 z m -3.80999,0 v -0.762 h 2.9972 v 0.762 z m -3.80999,0 v -0.762 h 2.9972 v 0.762 z m -3.80999,0 v -0.762 h 2.9972 v 0.762 z m -3.80999,0 v -0.762 h 2.9972 v 0.762 z m -3.80999,0 v -0.762 h 2.9972 v 0.762 z m -3.80999,0 v -0.762 h 2.9972 v 0.762 z m -3.80999,0 v -0.762 h 2.9972 v 0.762 z m -3.80999,0 v -0.762 h 2.9972 v 0.762 z m -3.80999,0 v -0.762 h 2.9972 v 0.762 z m -3.80999,0 v -0.762 h 2.9972 v 0.762 z m -3.80999,0 v -0.762 h 2.9972 v 0.762 z m -3.80999,0 v -0.762 h 2.9972 v 0.762 z m -3.80999,0 v -0.762 h 2.9972 v 0.762 z m -3.80999,0 v -0.762 h 2.9972 v 0.762 z m -3.80999,0 v -0.762 h 2.9972 v 0.762 z m -3.80999,0 v -0.762 h 2.9972 v 0.762 z m -3.80999,0 v -0.762 h 2.9972 v 0.762 z m -3.80999,0 v -0.762 h 2.9972 v 0.762 z m -3.809993,0 v -0.762 h 2.997203 v 0.762 z m -3.80999,0 v -0.762 h 2.9972 v 0.762 z m -3.80999,0 v -0.762 h 2.9972 v 0.762 z m -3.80999,0 v -0.762 h 2.9972 v 0.762 z m -3.80999,0 v -0.762 h 2.9972 v 0.762 z m -3.80999,0 v -0.762 h 2.9972 v 0.762 z m -3.80999,0 v -0.762 h 2.9972 v 0.762 z m -3.809993,0 v -0.762 h 2.9972 v 0.762 z m -3.80999,0 v -0.762 h 2.9972 v 0.762 z m -3.80999,0 v -0.762 h 2.9972 v 0.762 z m 148.589606,-7.9375 v -0.762 h 2.9972 v 0.762 z m -3.80998,0 v -0.762 h 2.9972 v 0.762 z m -3.80999,0 v -0.762 h 2.99719 v 0.762 z m -3.80999,0 v -0.762 h 2.9972 v 0.762 z m -3.80999,0 v -0.762 h 2.9972 v 0.762 z m -3.80999,0 v -0.762 h 2.9972 v 0.762 z m -3.80999,0 v -0.762 h 2.9972 v 0.762 z m -3.80999,0 v -0.762 h 2.9972 v 0.762 z m -3.80999,0 v -0.762 h 2.9972 v 0.762 z m -3.80999,0 v -0.762 h 2.9972 v 0.762 z m -3.80999,0 v -0.762 h 2.9972 v 0.762 z m -3.80999,0 v -0.762 h 2.9972 v 0.762 z m -3.80999,0 v -0.762 h 2.9972 v 0.762 z m -3.80999,0 v -0.762 h 2.9972 v 0.762 z m -3.80999,0 v -0.762 h 2.9972 v 0.762 z m -3.80999,0 v -0.762 h 2.9972 v 0.762 z m -3.80999,0 v -0.762 h 2.9972 v 0.762 z m -3.80999,0 v -0.762 h 2.9972 v 0.762 z m -3.80999,0 v -0.762 h 2.9972 v 0.762 z m -3.80999,0 v -0.762 h 2.9972 v 0.762 z m -3.80999,0 v -0.762 h 2.9972 v 0.762 z m -3.80999,0 v -0.762 h 2.9972 v 0.762 z m -3.80999,0 v -0.762 h 2.9972 v 0.762 z m -3.80999,0 v -0.762 h 2.9972 v 0.762 z m -3.80999,0 v -0.762 h 2.9972 v 0.762 z m -3.80999,0 v -0.762 h 2.9972 v 0.762 z m -3.80999,0 v -0.762 h 2.9972 v 0.762 z m -3.80999,0 v -0.762 h 2.9972 v 0.762 z m -3.80999,0 v -0.762 h 2.9972 v 0.762 z m -3.80999,0 v -0.762 h 2.9972 v 0.762 z m -3.809993,0 v -0.762 h 2.997203 v 0.762 z m -3.80999,0 v -0.762 h 2.9972 v 0.762 z m -3.80999,0 v -0.762 h 2.9972 v 0.762 z m -3.80999,0 v -0.762 h 2.9972 v 0.762 z m -3.80999,0 v -0.762 h 2.9972 v 0.762 z m -3.80999,0 v -0.762 h 2.9972 v 0.762 z m -3.80999,0 v -0.762 h 2.9972 v 0.762 z m -3.809993,0 v -0.762 h 2.9972 v 0.762 z m -3.80999,0 v -0.762 h 2.9972 v 0.762 z m -3.80999,0 v -0.762 h 2.9972 v 0.762 z m -3.80999,0 v -0.762 h 2.9972 v 0.762 z m -3.80999,0 v -0.762 h 2.9972 v 0.762 z m -3.80999,0 v -0.762 h 2.9972 v 0.762 z m -3.80999,0 v -0.762 h 2.9972 v 0.762 z m 175.259546,-7.9375 v -0.762 h 2.9972 v 0.762 z m -3.81,0 v -0.762 h 2.9972 v 0.762 z m -3.80998,0 v -0.762 h 2.9972 v 0.762 z m -3.81,0 v -0.762 h 2.9972 v 0.762 z m -3.80998,0 v -0.762 h 2.9972 v 0.762 z m -3.80999,0 v -0.762 h 2.99719 v 0.762 z m -3.80999,0 v -0.762 h 2.9972 v 0.762 z m -3.80999,0 v -0.762 h 2.9972 v 0.762 z m -3.80999,0 v -0.762 h 2.9972 v 0.762 z m -3.80999,0 v -0.762 h 2.9972 v 0.762 z m -3.80999,0 v -0.762 h 2.9972 v 0.762 z m -3.80999,0 v -0.762 h 2.9972 v 0.762 z m -3.80999,0 v -0.762 h 2.9972 v 0.762 z m -3.80999,0 v -0.762 h 2.9972 v 0.762 z m -3.80999,0 v -0.762 h 2.9972 v 0.762 z m -3.80999,0 v -0.762 h 2.9972 v 0.762 z m -3.80999,0 v -0.762 h 2.9972 v 0.762 z m -3.80999,0 v -0.762 h 2.9972 v 0.762 z m -3.80999,0 v -0.762 h 2.9972 v 0.762 z m -3.80999,0 v -0.762 h 2.9972 v 0.762 z m -3.80999,0 v -0.762 h 2.9972 v 0.762 z m -3.80999,0 v -0.762 h 2.9972 v 0.762 z m -3.80999,0 v -0.762 h 2.9972 v 0.762 z m -3.80999,0 v -0.762 h 2.9972 v 0.762 z m -3.80999,0 v -0.762 h 2.9972 v 0.762 z m -3.80999,0 v -0.762 h 2.9972 v 0.762 z m -3.80999,0 v -0.762 h 2.9972 v 0.762 z m -3.80999,0 v -0.762 h 2.9972 v 0.762 z m -3.80999,0 v -0.762 h 2.9972 v 0.762 z m -3.80999,0 v -0.762 h 2.9972 v 0.762 z m -3.80999,0 v -0.762 h 2.9972 v 0.762 z m -3.80999,0 v -0.762 h 2.9972 v 0.762 z m -3.80999,0 v -0.762 h 2.9972 v 0.762 z m -3.809993,0 v -0.762 h 2.997203 v 0.762 z m -3.80999,0 v -0.762 h 2.9972 v 0.762 z m -3.80999,0 v -0.762 h 2.9972 v 0.762 z m -3.80999,0 v -0.762 h 2.9972 v 0.762 z m -3.80999,0 v -0.762 h 2.9972 v 0.762 z m -3.80999,0 v -0.762 h 2.9972 v 0.762 z m -3.80999,0 v -0.762 h 2.9972 v 0.762 z m -3.809993,0 v -0.762 h 2.9972 v 0.762 z m -3.80999,0 v -0.762 h 2.9972 v 0.762 z m -3.80999,0 v -0.762 h 2.9972 v 0.762 z m -3.80999,0 v -0.762 h 2.9972 v 0.762 z m -3.80999,0 v -0.762 h 2.9972 v 0.762 z m -3.80999,0 v -0.762 h 2.9972 v 0.762 z m -3.80999,0 v -0.762 h 2.9972 v 0.762 z m -3.80999,0 v -0.762 h 2.9972 v 0.762 z m -3.809992,0 v -0.762 h 2.9972 v 0.762 z m -3.80999,0 v -0.762 h 2.9972 v 0.762 z m 194.309498,-7.9375 v -0.76199 h 2.9972 v 0.76199 z m -3.81,0 v -0.76199 h 2.9972 v 0.76199 z m -3.80998,0 v -0.76199 h 2.9972 v 0.76199 z m -3.81,0 v -0.76199 h 2.9972 v 0.76199 z m -3.80998,0 v -0.76199 h 2.9972 v 0.76199 z m -3.81,0 v -0.76199 h 2.9972 v 0.76199 z m -3.80998,0 v -0.76199 h 2.9972 v 0.76199 z m -3.80999,0 v -0.76199 h 2.99719 v 0.76199 z m -3.80999,0 v -0.76199 h 2.9972 v 0.76199 z m -3.80999,0 v -0.76199 h 2.9972 v 0.76199 z m -3.80999,0 v -0.76199 h 2.9972 v 0.76199 z m -3.80999,0 v -0.76199 h 2.9972 v 0.76199 z m -3.80999,0 v -0.76199 h 2.9972 v 0.76199 z m -3.80999,0 v -0.76199 h 2.9972 v 0.76199 z m -3.80999,0 v -0.76199 h 2.9972 v 0.76199 z m -3.80999,0 v -0.76199 h 2.9972 v 0.76199 z m -3.80999,0 v -0.76199 h 2.9972 v 0.76199 z m -3.80999,0 v -0.76199 h 2.9972 v 0.76199 z m -3.80999,0 v -0.76199 h 2.9972 v 0.76199 z m -3.80999,0 v -0.76199 h 2.9972 v 0.76199 z m -3.80999,0 v -0.76199 h 2.9972 v 0.76199 z m -3.80999,0 v -0.76199 h 2.9972 v 0.76199 z m -3.80999,0 v -0.76199 h 2.9972 v 0.76199 z m -3.80999,0 v -0.76199 h 2.9972 v 0.76199 z m -3.80999,0 v -0.76199 h 2.9972 v 0.76199 z m -3.80999,0 v -0.76199 h 2.9972 v 0.76199 z m -3.80999,0 v -0.76199 h 2.9972 v 0.76199 z m -3.80999,0 v -0.76199 h 2.9972 v 0.76199 z m -3.80999,0 v -0.76199 h 2.9972 v 0.76199 z m -3.80999,0 v -0.76199 h 2.9972 v 0.76199 z m -3.80999,0 v -0.76199 h 2.9972 v 0.76199 z m -3.80999,0 v -0.76199 h 2.9972 v 0.76199 z m -3.80999,0 v -0.76199 h 2.9972 v 0.76199 z m -3.80999,0 v -0.76199 h 2.9972 v 0.76199 z m -3.80999,0 v -0.76199 h 2.9972 v 0.76199 z m -3.809993,0 v -0.76199 h 2.997203 v 0.76199 z m -3.80999,0 v -0.76199 h 2.9972 v 0.76199 z m -3.80999,0 v -0.76199 h 2.9972 v 0.76199 z m -3.80999,0 v -0.76199 h 2.9972 v 0.76199 z m -3.80999,0 v -0.76199 h 2.9972 v 0.76199 z m -3.80999,0 v -0.76199 h 2.9972 v 0.76199 z m -3.80999,0 v -0.76199 h 2.9972 v 0.76199 z m -3.809993,0 v -0.76199 h 2.9972 v 0.76199 z m -3.80999,0 v -0.76199 h 2.9972 v 0.76199 z m -3.80999,0 v -0.76199 h 2.9972 v 0.76199 z m -3.80999,0 v -0.76199 h 2.9972 v 0.76199 z m -3.80999,0 v -0.76199 h 2.9972 v 0.76199 z m -3.80999,0 v -0.76199 h 2.9972 v 0.76199 z m -3.80999,0 v -0.76199 h 2.9972 v 0.76199 z m -3.80999,0 v -0.76199 h 2.9972 v 0.76199 z m -3.809992,0 v -0.76199 h 2.9972 v 0.76199 z m -3.80999,0 v -0.76199 h 2.9972 v 0.76199 z m -3.80999,0 v -0.76199 h 2.9972 v 0.76199 z m -3.809989,0 v -0.76199 h 2.9972 v 0.76199 z m 209.549457,-7.93749 v -0.762 h 2.9972 v 0.762 z m -3.81,0 v -0.762 h 2.9972 v 0.762 z m -3.80998,0 v -0.762 h 2.9972 v 0.762 z m -3.81,0 v -0.762 h 2.9972 v 0.762 z m -3.80998,0 v -0.762 h 2.9972 v 0.762 z m -3.81,0 v -0.762 h 2.9972 v 0.762 z m -3.80998,0 v -0.762 h 2.9972 v 0.762 z m -3.81,0 v -0.762 h 2.9972 v 0.762 z m -3.80998,0 v -0.762 h 2.9972 v 0.762 z m -3.80999,0 v -0.762 h 2.99719 v 0.762 z m -3.80999,0 v -0.762 h 2.9972 v 0.762 z m -3.80999,0 v -0.762 h 2.9972 v 0.762 z m -3.80999,0 v -0.762 h 2.9972 v 0.762 z m -3.80999,0 v -0.762 h 2.9972 v 0.762 z m -3.80999,0 v -0.762 h 2.9972 v 0.762 z m -3.80999,0 v -0.762 h 2.9972 v 0.762 z m -3.80999,0 v -0.762 h 2.9972 v 0.762 z m -3.80999,0 v -0.762 h 2.9972 v 0.762 z m -3.80999,0 v -0.762 h 2.9972 v 0.762 z m -3.80999,0 v -0.762 h 2.9972 v 0.762 z m -3.80999,0 v -0.762 h 2.9972 v 0.762 z m -3.80999,0 v -0.762 h 2.9972 v 0.762 z m -3.80999,0 v -0.762 h 2.9972 v 0.762 z m -3.80999,0 v -0.762 h 2.9972 v 0.762 z m -3.80999,0 v -0.762 h 2.9972 v 0.762 z m -3.80999,0 v -0.762 h 2.9972 v 0.762 z m -3.80999,0 v -0.762 h 2.9972 v 0.762 z m -3.80999,0 v -0.762 h 2.9972 v 0.762 z m -3.80999,0 v -0.762 h 2.9972 v 0.762 z m -3.80999,0 v -0.762 h 2.9972 v 0.762 z m -3.80999,0 v -0.762 h 2.9972 v 0.762 z m -3.80999,0 v -0.762 h 2.9972 v 0.762 z m -3.80999,0 v -0.762 h 2.9972 v 0.762 z m -3.80999,0 v -0.762 h 2.9972 v 0.762 z m -3.80999,0 v -0.762 h 2.9972 v 0.762 z m -3.80999,0 v -0.762 h 2.9972 v 0.762 z m -3.80999,0 v -0.762 h 2.9972 v 0.762 z m -3.809993,0 v -0.762 h 2.997203 v 0.762 z m -3.80999,0 v -0.762 h 2.9972 v 0.762 z m -3.80999,0 v -0.762 h 2.9972 v 0.762 z m -3.80999,0 v -0.762 h 2.9972 v 0.762 z m -3.80999,0 v -0.762 h 2.9972 v 0.762 z m -3.80999,0 v -0.762 h 2.9972 v 0.762 z m -3.80999,0 v -0.762 h 2.9972 v 0.762 z m -3.809993,0 v -0.762 h 2.9972 v 0.762 z m -3.80999,0 v -0.762 h 2.9972 v 0.762 z m -3.80999,0 v -0.762 h 2.9972 v 0.762 z m -3.80999,0 v -0.762 h 2.9972 v 0.762 z m -3.80999,0 v -0.762 h 2.9972 v 0.762 z m -3.80999,0 v -0.762 h 2.9972 v 0.762 z m -3.80999,0 v -0.762 h 2.9972 v 0.762 z m -3.80999,0 v -0.762 h 2.9972 v 0.762 z m -3.809992,0 v -0.762 h 2.9972 v 0.762 z m -3.80999,0 v -0.762 h 2.9972 v 0.762 z m -3.80999,0 v -0.762 h 2.9972 v 0.762 z m -3.809989,0 v -0.762 h 2.9972 v 0.762 z m -3.809991,0 v -0.762 h 2.9972 v 0.762 z m -3.80999,0 v -0.762 h 2.9972 v 0.762 z m 220.979418,-7.9375 v -0.762 h 2.9972 v 0.762 z m -3.80998,0 v -0.762 h 2.9972 v 0.762 z m -3.81,0 v -0.762 h 2.9972 v 0.762 z m -3.80998,0 v -0.762 h 2.9972 v 0.762 z m -3.81,0 v -0.762 h 2.9972 v 0.762 z m -3.80998,0 v -0.762 h 2.9972 v 0.762 z m -3.81,0 v -0.762 h 2.9972 v 0.762 z m -3.80998,0 v -0.762 h 2.9972 v 0.762 z m -3.81,0 v -0.762 h 2.9972 v 0.762 z m -3.80998,0 v -0.762 h 2.9972 v 0.762 z m -3.80999,0 v -0.762 h 2.99719 v 0.762 z m -3.80999,0 v -0.762 h 2.9972 v 0.762 z m -3.80999,0 v -0.762 h 2.9972 v 0.762 z m -3.80999,0 v -0.762 h 2.9972 v 0.762 z m -3.80999,0 v -0.762 h 2.9972 v 0.762 z m -3.80999,0 v -0.762 h 2.9972 v 0.762 z m -3.80999,0 v -0.762 h 2.9972 v 0.762 z m -3.80999,0 v -0.762 h 2.9972 v 0.762 z m -3.80999,0 v -0.762 h 2.9972 v 0.762 z m -3.80999,0 v -0.762 h 2.9972 v 0.762 z m -3.80999,0 v -0.762 h 2.9972 v 0.762 z m -3.80999,0 v -0.762 h 2.9972 v 0.762 z m -3.80999,0 v -0.762 h 2.9972 v 0.762 z m -3.80999,0 v -0.762 h 2.9972 v 0.762 z m -3.80999,0 v -0.762 h 2.9972 v 0.762 z m -3.80999,0 v -0.762 h 2.9972 v 0.762 z m -3.80999,0 v -0.762 h 2.9972 v 0.762 z m -3.80999,0 v -0.762 h 2.9972 v 0.762 z m -3.80999,0 v -0.762 h 2.9972 v 0.762 z m -3.80999,0 v -0.762 h 2.9972 v 0.762 z m -3.80999,0 v -0.762 h 2.9972 v 0.762 z m -3.80999,0 v -0.762 h 2.9972 v 0.762 z m -3.80999,0 v -0.762 h 2.9972 v 0.762 z m -3.80999,0 v -0.762 h 2.9972 v 0.762 z m -3.80999,0 v -0.762 h 2.9972 v 0.762 z m -3.80999,0 v -0.762 h 2.9972 v 0.762 z m -3.80999,0 v -0.762 h 2.9972 v 0.762 z m -3.80999,0 v -0.762 h 2.9972 v 0.762 z m -3.809993,0 v -0.762 h 2.997203 v 0.762 z m -3.80999,0 v -0.762 h 2.9972 v 0.762 z m -3.80999,0 v -0.762 h 2.9972 v 0.762 z m -3.80999,0 v -0.762 h 2.9972 v 0.762 z m -3.80999,0 v -0.762 h 2.9972 v 0.762 z m -3.80999,0 v -0.762 h 2.9972 v 0.762 z m -3.80999,0 v -0.762 h 2.9972 v 0.762 z m -3.809993,0 v -0.762 h 2.9972 v 0.762 z m -3.80999,0 v -0.762 h 2.9972 v 0.762 z m -3.80999,0 v -0.762 h 2.9972 v 0.762 z m -3.80999,0 v -0.762 h 2.9972 v 0.762 z m -3.80999,0 v -0.762 h 2.9972 v 0.762 z m -3.80999,0 v -0.762 h 2.9972 v 0.762 z m -3.80999,0 v -0.762 h 2.9972 v 0.762 z m -3.80999,0 v -0.762 h 2.9972 v 0.762 z m -3.809992,0 v -0.762 h 2.9972 v 0.762 z m -3.80999,0 v -0.762 h 2.9972 v 0.762 z m -3.80999,0 v -0.762 h 2.9972 v 0.762 z m -3.809989,0 v -0.762 h 2.9972 v 0.762 z m -3.809991,0 v -0.762 h 2.9972 v 0.762 z m -3.80999,0 v -0.762 h 2.9972 v 0.762 z m -3.809991,0 v -0.762 h 2.9972 v 0.762 z m 228.599409,-7.9375 v -0.762 h 2.9972 v 0.762 z m -3.81,0 v -0.762 h 2.9972 v 0.762 z m -3.80998,0 v -0.762 h 2.9972 v 0.762 z m -3.81,0 v -0.762 h 2.9972 v 0.762 z m -3.80998,0 v -0.762 h 2.9972 v 0.762 z m -3.81,0 v -0.762 h 2.9972 v 0.762 z m -3.80998,0 v -0.762 h 2.9972 v 0.762 z m -3.81,0 v -0.762 h 2.9972 v 0.762 z m -3.80998,0 v -0.762 h 2.9972 v 0.762 z m -3.81,0 v -0.762 h 2.9972 v 0.762 z m -3.80998,0 v -0.762 h 2.9972 v 0.762 z m -3.80999,0 v -0.762 h 2.99719 v 0.762 z m -3.80999,0 v -0.762 h 2.9972 v 0.762 z m -3.80999,0 v -0.762 h 2.9972 v 0.762 z m -3.80999,0 v -0.762 h 2.9972 v 0.762 z m -3.80999,0 v -0.762 h 2.9972 v 0.762 z m -3.80999,0 v -0.762 h 2.9972 v 0.762 z m -3.80999,0 v -0.762 h 2.9972 v 0.762 z m -3.80999,0 v -0.762 h 2.9972 v 0.762 z m -3.80999,0 v -0.762 h 2.9972 v 0.762 z m -3.80999,0 v -0.762 h 2.9972 v 0.762 z m -3.80999,0 v -0.762 h 2.9972 v 0.762 z m -3.80999,0 v -0.762 h 2.9972 v 0.762 z m -3.80999,0 v -0.762 h 2.9972 v 0.762 z m -3.80999,0 v -0.762 h 2.9972 v 0.762 z m -3.80999,0 v -0.762 h 2.9972 v 0.762 z m -3.80999,0 v -0.762 h 2.9972 v 0.762 z m -3.80999,0 v -0.762 h 2.9972 v 0.762 z m -3.80999,0 v -0.762 h 2.9972 v 0.762 z m -3.80999,0 v -0.762 h 2.9972 v 0.762 z m -3.80999,0 v -0.762 h 2.9972 v 0.762 z m -3.80999,0 v -0.762 h 2.9972 v 0.762 z m -3.80999,0 v -0.762 h 2.9972 v 0.762 z m -3.80999,0 v -0.762 h 2.9972 v 0.762 z m -3.80999,0 v -0.762 h 2.9972 v 0.762 z m -3.80999,0 v -0.762 h 2.9972 v 0.762 z m -3.80999,0 v -0.762 h 2.9972 v 0.762 z m -3.80999,0 v -0.762 h 2.9972 v 0.762 z m -3.80999,0 v -0.762 h 2.9972 v 0.762 z m -3.809993,0 v -0.762 h 2.997203 v 0.762 z m -3.80999,0 v -0.762 h 2.9972 v 0.762 z m -3.80999,0 v -0.762 h 2.9972 v 0.762 z m -3.80999,0 v -0.762 h 2.9972 v 0.762 z m -3.80999,0 v -0.762 h 2.9972 v 0.762 z m -3.80999,0 v -0.762 h 2.9972 v 0.762 z m -3.80999,0 v -0.762 h 2.9972 v 0.762 z m -3.809993,0 v -0.762 h 2.9972 v 0.762 z m -3.80999,0 v -0.762 h 2.9972 v 0.762 z m -3.80999,0 v -0.762 h 2.9972 v 0.762 z m -3.80999,0 v -0.762 h 2.9972 v 0.762 z m -3.80999,0 v -0.762 h 2.9972 v 0.762 z m -3.80999,0 v -0.762 h 2.9972 v 0.762 z m -3.80999,0 v -0.762 h 2.9972 v 0.762 z m -3.80999,0 v -0.762 h 2.9972 v 0.762 z m -3.809992,0 v -0.762 h 2.9972 v 0.762 z m -3.80999,0 v -0.762 h 2.9972 v 0.762 z m -3.80999,0 v -0.762 h 2.9972 v 0.762 z m -3.809989,0 v -0.762 h 2.9972 v 0.762 z m -3.809991,0 v -0.762 h 2.9972 v 0.762 z m -3.80999,0 v -0.762 h 2.9972 v 0.762 z m -3.809991,0 v -0.762 h 2.9972 v 0.762 z m -3.80999,0 v -0.762 h 2.9972 v 0.762 z m 236.219379,-7.9375 v -0.762 h 2.9972 v 0.762 z m -3.80998,0 v -0.762 h 2.9972 v 0.762 z m -3.81,0 v -0.762 h 2.9972 v 0.762 z m -3.80998,0 v -0.762 h 2.9972 v 0.762 z m -3.81,0 v -0.762 h 2.9972 v 0.762 z m -3.80998,0 v -0.762 h 2.9972 v 0.762 z m -3.81,0 v -0.762 h 2.9972 v 0.762 z m -3.80998,0 v -0.762 h 2.9972 v 0.762 z m -3.81,0 v -0.762 h 2.9972 v 0.762 z m -3.80998,0 v -0.762 h 2.9972 v 0.762 z m -3.81,0 v -0.762 h 2.9972 v 0.762 z m -3.80998,0 v -0.762 h 2.9972 v 0.762 z m -3.80999,0 v -0.762 h 2.99719 v 0.762 z m -2.28599,1.7145 0.508,-4.1275 h 0.6096 l -0.4953,4.1275 z m -1.2065,0 0.508,-4.1275 h 0.6096 l -0.4953,4.1275 z m -0.1905,-2.4384 v -0.6858 h 2.8956 v 0.6858 z m -0.127,1.2954 v -0.6858 h 2.8956 v 0.6858 z m -2.28599,1.143 0.508,-4.1275 h 0.6096 l -0.4953,4.1275 z m -1.2065,0 0.508,-4.1275 h 0.6096 l -0.4953,4.1275 z m -0.1905,-2.4384 v -0.6858 h 2.8956 v 0.6858 z m -0.127,1.2954 v -0.6858 h 2.8956 v 0.6858 z m -2.28599,1.143 0.508,-4.1275 h 0.6096 l -0.4953,4.1275 z m -1.2065,0 0.508,-4.1275 h 0.6096 l -0.4953,4.1275 z m -0.1905,-2.4384 v -0.6858 h 2.8956 v 0.6858 z m -0.127,1.2954 v -0.6858 h 2.8956 v 0.6858 z m -2.28599,1.143 0.508,-4.1275 h 0.6096 l -0.4953,4.1275 z m -1.2065,0 0.508,-4.1275 h 0.6096 l -0.4953,4.1275 z m -0.1905,-2.4384 v -0.6858 h 2.8956 v 0.6858 z m -0.127,1.2954 v -0.6858 h 2.8956 v 0.6858 z m -2.28599,1.143 0.508,-4.1275 h 0.6096 l -0.4953,4.1275 z m -1.2065,0 0.508,-4.1275 h 0.6096 l -0.4953,4.1275 z m -0.1905,-2.4384 v -0.6858 h 2.8956 v 0.6858 z m -0.127,1.2954 v -0.6858 h 2.8956 v 0.6858 z m -2.28599,1.143 0.508,-4.1275 h 0.6096 l -0.4953,4.1275 z m -1.2065,0 0.508,-4.1275 h 0.6096 l -0.4953,4.1275 z m -0.1905,-2.4384 v -0.6858 h 2.8956 v 0.6858 z m -0.127,1.2954 v -0.6858 h 2.8956 v 0.6858 z m -2.28599,1.143 0.508,-4.1275 h 0.6096 l -0.4953,4.1275 z m -1.2065,0 0.508,-4.1275 h 0.6096 l -0.4953,4.1275 z m -0.1905,-2.4384 v -0.6858 h 2.8956 v 0.6858 z m -0.127,1.2954 v -0.6858 h 2.8956 v 0.6858 z m -2.28599,1.143 0.508,-4.1275 h 0.6096 l -0.4953,4.1275 z m -1.2065,0 0.508,-4.1275 h 0.6096 l -0.4953,4.1275 z m -0.1905,-2.4384 v -0.6858 h 2.8956 v 0.6858 z m -0.127,1.2954 v -0.6858 h 2.8956 v 0.6858 z m -2.28599,1.143 0.508,-4.1275 h 0.6096 l -0.4953,4.1275 z m -1.2065,0 0.508,-4.1275 h 0.6096 l -0.4953,4.1275 z m -0.1905,-2.4384 v -0.6858 h 2.8956 v 0.6858 z m -0.127,1.2954 v -0.6858 h 2.8956 v 0.6858 z m -2.28599,1.143 0.508,-4.1275 h 0.6096 l -0.4953,4.1275 z m -1.2065,0 0.508,-4.1275 h 0.6096 l -0.4953,4.1275 z m -0.1905,-2.4384 v -0.6858 h 2.8956 v 0.6858 z m -0.127,1.2954 v -0.6858 h 2.8956 v 0.6858 z m -2.28599,1.143 0.508,-4.1275 h 0.6096 l -0.4953,4.1275 z m -1.2065,0 0.508,-4.1275 h 0.6096 l -0.4953,4.1275 z m -0.1905,-2.4384 v -0.6858 h 2.8956 v 0.6858 z m -0.127,1.2954 v -0.6858 h 2.8956 v 0.6858 z m -2.28599,1.143 0.508,-4.1275 h 0.6096 l -0.4953,4.1275 z m -1.2065,0 0.508,-4.1275 h 0.6096 l -0.4953,4.1275 z m -0.1905,-2.4384 v -0.6858 h 2.8956 v 0.6858 z m -0.127,1.2954 v -0.6858 h 2.8956 v 0.6858 z m -2.28599,1.143 0.508,-4.1275 h 0.6096 l -0.4953,4.1275 z m -1.2065,0 0.508,-4.1275 h 0.6096 l -0.4953,4.1275 z m -0.1905,-2.4384 v -0.6858 h 2.8956 v 0.6858 z m -0.127,1.2954 v -0.6858 h 2.8956 v 0.6858 z m -2.28599,1.143 0.508,-4.1275 h 0.6096 l -0.4953,4.1275 z m -1.2065,0 0.508,-4.1275 h 0.6096 l -0.4953,4.1275 z m -0.1905,-2.4384 v -0.6858 h 2.8956 v 0.6858 z m -0.127,1.2954 v -0.6858 h 2.8956 v 0.6858 z m -2.28599,1.143 0.508,-4.1275 h 0.6096 l -0.4953,4.1275 z m -1.2065,0 0.508,-4.1275 h 0.6096 l -0.4953,4.1275 z m -0.1905,-2.4384 v -0.6858 h 2.8956 v 0.6858 z m -0.127,1.2954 v -0.6858 h 2.8956 v 0.6858 z m -2.28599,1.143 0.508,-4.1275 h 0.6096 l -0.4953,4.1275 z m -1.2065,0 0.508,-4.1275 h 0.6096 l -0.4953,4.1275 z m -0.1905,-2.4384 v -0.6858 h 2.8956 v 0.6858 z m -0.127,1.2954 v -0.6858 h 2.8956 v 0.6858 z m -2.28599,1.143 0.508,-4.1275 h 0.6096 l -0.4953,4.1275 z m -1.2065,0 0.508,-4.1275 h 0.6096 l -0.4953,4.1275 z m -0.1905,-2.4384 v -0.6858 h 2.8956 v 0.6858 z m -0.127,1.2954 v -0.6858 h 2.8956 v 0.6858 z m -2.28599,1.143 0.508,-4.1275 h 0.6096 l -0.4953,4.1275 z m -1.2065,0 0.508,-4.1275 h 0.6096 l -0.4953,4.1275 z m -0.1905,-2.4384 v -0.6858 h 2.8956 v 0.6858 z m -0.127,1.2954 v -0.6858 h 2.8956 v 0.6858 z m -2.28599,1.143 0.508,-4.1275 h 0.6096 l -0.4953,4.1275 z m -1.2065,0 0.508,-4.1275 h 0.6096 l -0.4953,4.1275 z m -0.1905,-2.4384 v -0.6858 h 2.8956 v 0.6858 z m -0.127,1.2954 v -0.6858 h 2.8956 v 0.6858 z m -2.28599,1.143 0.508,-4.1275 h 0.6096 l -0.4953,4.1275 z m -1.2065,0 0.508,-4.1275 h 0.6096 l -0.4953,4.1275 z m -0.1905,-2.4384 v -0.6858 h 2.8956 v 0.6858 z m -0.127,1.2954 v -0.6858 h 2.8956 v 0.6858 z m -2.28599,1.143 0.508,-4.1275 h 0.6096 l -0.4953,4.1275 z m -1.2065,0 0.508,-4.1275 h 0.6096 l -0.4953,4.1275 z m -0.1905,-2.4384 v -0.6858 h 2.8956 v 0.6858 z m -0.127,1.2954 v -0.6858 h 2.8956 v 0.6858 z m -2.28599,1.143 0.508,-4.1275 h 0.6096 l -0.4953,4.1275 z m -1.2065,0 0.508,-4.1275 h 0.6096 l -0.4953,4.1275 z m -0.1905,-2.4384 v -0.6858 h 2.8956 v 0.6858 z m -0.127,1.2954 v -0.6858 h 2.8956 v 0.6858 z m -2.28599,1.143 0.508,-4.1275 h 0.6096 l -0.4953,4.1275 z m -1.2065,0 0.508,-4.1275 h 0.6096 l -0.4953,4.1275 z m -0.1905,-2.4384 v -0.6858 h 2.8956 v 0.6858 z m -0.127,1.2954 v -0.6858 h 2.8956 v 0.6858 z m -2.28599,1.143 0.508,-4.1275 h 0.6096 l -0.4953,4.1275 z m -1.2065,0 0.508,-4.1275 h 0.6096 l -0.4953,4.1275 z m -0.1905,-2.4384 v -0.6858 h 2.8956 v 0.6858 z m -0.127,1.2954 v -0.6858 h 2.8956 v 0.6858 z m -2.28599,1.143 0.508,-4.1275 h 0.6096 l -0.4953,4.1275 z m -1.2065,0 0.508,-4.1275 h 0.6096 l -0.4953,4.1275 z m -0.1905,-2.4384 v -0.6858 h 2.8956 v 0.6858 z m -0.127,1.2954 v -0.6858 h 2.8956 v 0.6858 z m -2.28599,1.143 0.508,-4.1275 h 0.6096 l -0.4953,4.1275 z m -1.2065,0 0.508,-4.1275 h 0.6096 l -0.4953,4.1275 z m -0.1905,-2.4384 v -0.6858 h 2.8956 v 0.6858 z m -0.127,1.2954 v -0.6858 h 2.8956 v 0.6858 z m -2.28599,1.143 0.508,-4.1275 h 0.6096 l -0.4953,4.1275 z m -1.2065,0 0.508,-4.1275 h 0.6096 l -0.4953,4.1275 z m -0.1905,-2.4384 v -0.6858 h 2.8956 v 0.6858 z m -0.127,1.2954 v -0.6858 h 2.8956 v 0.6858 z m -2.28599,1.143 0.508,-4.1275 h 0.6096 l -0.4953,4.1275 z m -1.206503,0 0.508,-4.1275 h 0.609603 l -0.495303,4.1275 z m -0.1905,-2.4384 v -0.6858 h 2.895603 v 0.6858 z m -0.127,1.2954 v -0.6858 h 2.895603 v 0.6858 z m -2.28599,1.143 0.508,-4.1275 h 0.6096 l -0.4953,4.1275 z m -1.2065,0 0.508,-4.1275 h 0.6096 l -0.4953,4.1275 z m -0.1905,-2.4384 v -0.6858 h 2.8956 v 0.6858 z m -0.127,1.2954 v -0.6858 h 2.8956 v 0.6858 z m -2.28599,1.143 0.508,-4.1275 h 0.6096 l -0.4953,4.1275 z m -1.2065,0 0.508,-4.1275 h 0.6096 l -0.4953,4.1275 z m -0.1905,-2.4384 v -0.6858 h 2.8956 v 0.6858 z m -0.127,1.2954 v -0.6858 h 2.8956 v 0.6858 z m -2.28599,1.143 0.508,-4.1275 h 0.6096 l -0.4953,4.1275 z m -1.2065,0 0.508,-4.1275 h 0.6096 l -0.4953,4.1275 z m -0.1905,-2.4384 v -0.6858 h 2.8956 v 0.6858 z m -0.127,1.2954 v -0.6858 h 2.8956 v 0.6858 z m -2.28599,1.143 0.508,-4.1275 h 0.6096 l -0.4953,4.1275 z m -1.2065,0 0.508,-4.1275 h 0.6096 l -0.4953,4.1275 z m -0.1905,-2.4384 v -0.6858 h 2.8956 v 0.6858 z m -0.127,1.2954 v -0.6858 h 2.8956 v 0.6858 z m -2.28599,1.143 0.508,-4.1275 h 0.6096 l -0.4953,4.1275 z m -1.2065,0 0.508,-4.1275 h 0.6096 l -0.4953,4.1275 z m -0.1905,-2.4384 v -0.6858 h 2.8956 v 0.6858 z m -0.127,1.2954 v -0.6858 h 2.8956 v 0.6858 z m -2.28599,1.143 0.508,-4.1275 h 0.6096 l -0.4953,4.1275 z m -1.2065,0 0.508,-4.1275 h 0.6096 l -0.4953,4.1275 z m -0.1905,-2.4384 v -0.6858 h 2.8956 v 0.6858 z m -0.127,1.2954 v -0.6858 h 2.8956 v 0.6858 z m -3.809993,-0.5715 v -0.762 h 2.9972 v 0.762 z m -3.80999,0 v -0.762 h 2.9972 v 0.762 z m -3.80999,0 v -0.762 h 2.9972 v 0.762 z m -3.80999,0 v -0.762 h 2.9972 v 0.762 z m -3.80999,0 v -0.762 h 2.9972 v 0.762 z m -3.80999,0 v -0.762 h 2.9972 v 0.762 z m -3.80999,0 v -0.762 h 2.9972 v 0.762 z m -3.80999,0 v -0.762 h 2.9972 v 0.762 z m -3.809992,0 v -0.762 h 2.9972 v 0.762 z m -3.80999,0 v -0.762 h 2.9972 v 0.762 z m -3.80999,0 v -0.762 h 2.9972 v 0.762 z m -3.809989,0 v -0.762 h 2.9972 v 0.762 z m -3.809991,0 v -0.762 h 2.9972 v 0.762 z m -3.80999,0 v -0.762 h 2.9972 v 0.762 z m -3.809991,0 v -0.762 h 2.9972 v 0.762 z m -3.80999,0 v -0.762 h 2.9972 v 0.762 z m -3.80999,0 v -0.762 h 2.9972 v 0.762 z m 240.029369,-7.9375 v -0.762 h 2.9972 v 0.762 z m -3.80998,0 v -0.762 h 2.9972 v 0.762 z m -3.81,0 v -0.762 h 2.9972 v 0.762 z m -3.80998,0 v -0.762 h 2.9972 v 0.762 z m -3.81,0 v -0.762 h 2.9972 v 0.762 z m -3.80998,0 v -0.762 h 2.9972 v 0.762 z m -3.81,0 v -0.762 h 2.9972 v 0.762 z m -3.80998,0 v -0.762 h 2.9972 v 0.762 z m -3.81,0 v -0.762 h 2.9972 v 0.762 z m -3.80998,0 v -0.762 h 2.9972 v 0.762 z m -3.81,0 v -0.762 h 2.9972 v 0.762 z m -2.28598,1.7145 0.508,-4.1275 h 0.6096 l -0.4953,4.1275 z m -1.2065,0 0.508,-4.1275 h 0.6096 l -0.4953,4.1275 z m -0.1905,-2.4384 v -0.6858 h 2.8956 v 0.6858 z m -0.127,1.2954 v -0.6858 h 2.8956 v 0.6858 z m -2.286,1.143 0.508,-4.1275 h 0.6096 l -0.4953,4.1275 z m -1.20649,0 0.508,-4.1275 h 0.60959 l -0.49529,4.1275 z m -0.1905,-2.4384 v -0.6858 h 2.89559 v 0.6858 z m -0.127,1.2954 v -0.6858 h 2.89559 v 0.6858 z m -2.28599,1.143 0.508,-4.1275 h 0.6096 l -0.4953,4.1275 z m -1.2065,0 0.508,-4.1275 h 0.6096 l -0.4953,4.1275 z m -0.1905,-2.4384 v -0.6858 h 2.8956 v 0.6858 z m -0.127,1.2954 v -0.6858 h 2.8956 v 0.6858 z m -2.28599,1.143 0.508,-4.1275 h 0.6096 l -0.4953,4.1275 z m -1.2065,0 0.508,-4.1275 h 0.6096 l -0.4953,4.1275 z m -0.1905,-2.4384 v -0.6858 h 2.8956 v 0.6858 z m -0.127,1.2954 v -0.6858 h 2.8956 v 0.6858 z m -2.28599,1.143 0.508,-4.1275 h 0.6096 l -0.4953,4.1275 z m -1.2065,0 0.508,-4.1275 h 0.6096 l -0.4953,4.1275 z m -0.1905,-2.4384 v -0.6858 h 2.8956 v 0.6858 z m -0.127,1.2954 v -0.6858 h 2.8956 v 0.6858 z m -2.28599,1.143 0.508,-4.1275 h 0.6096 l -0.4953,4.1275 z m -1.2065,0 0.508,-4.1275 h 0.6096 l -0.4953,4.1275 z m -0.1905,-2.4384 v -0.6858 h 2.8956 v 0.6858 z m -0.127,1.2954 v -0.6858 h 2.8956 v 0.6858 z m -2.28599,1.143 0.508,-4.1275 h 0.6096 l -0.4953,4.1275 z m -1.2065,0 0.508,-4.1275 h 0.6096 l -0.4953,4.1275 z m -0.1905,-2.4384 v -0.6858 h 2.8956 v 0.6858 z m -0.127,1.2954 v -0.6858 h 2.8956 v 0.6858 z m -2.28599,1.143 0.508,-4.1275 h 0.6096 l -0.4953,4.1275 z m -1.2065,0 0.508,-4.1275 h 0.6096 l -0.4953,4.1275 z m -0.1905,-2.4384 v -0.6858 h 2.8956 v 0.6858 z m -0.127,1.2954 v -0.6858 h 2.8956 v 0.6858 z m -2.28599,1.143 0.508,-4.1275 h 0.6096 l -0.4953,4.1275 z m -1.2065,0 0.508,-4.1275 h 0.6096 l -0.4953,4.1275 z m -0.1905,-2.4384 v -0.6858 h 2.8956 v 0.6858 z m -0.127,1.2954 v -0.6858 h 2.8956 v 0.6858 z m -2.28599,1.143 0.508,-4.1275 h 0.6096 l -0.4953,4.1275 z m -1.2065,0 0.508,-4.1275 h 0.6096 l -0.4953,4.1275 z m -0.1905,-2.4384 v -0.6858 h 2.8956 v 0.6858 z m -0.127,1.2954 v -0.6858 h 2.8956 v 0.6858 z m -2.28599,1.143 0.508,-4.1275 h 0.6096 l -0.4953,4.1275 z m -1.2065,0 0.508,-4.1275 h 0.6096 l -0.4953,4.1275 z m -0.1905,-2.4384 v -0.6858 h 2.8956 v 0.6858 z m -0.127,1.2954 v -0.6858 h 2.8956 v 0.6858 z m -2.28599,1.143 0.508,-4.1275 h 0.6096 l -0.4953,4.1275 z m -1.2065,0 0.508,-4.1275 h 0.6096 l -0.4953,4.1275 z m -0.1905,-2.4384 v -0.6858 h 2.8956 v 0.6858 z m -0.127,1.2954 v -0.6858 h 2.8956 v 0.6858 z m -2.28599,1.143 0.508,-4.1275 h 0.6096 l -0.4953,4.1275 z m -1.2065,0 0.508,-4.1275 h 0.6096 l -0.4953,4.1275 z m -0.1905,-2.4384 v -0.6858 h 2.8956 v 0.6858 z m -0.127,1.2954 v -0.6858 h 2.8956 v 0.6858 z m -2.28599,1.143 0.508,-4.1275 h 0.6096 l -0.4953,4.1275 z m -1.2065,0 0.508,-4.1275 h 0.6096 l -0.4953,4.1275 z m -0.1905,-2.4384 v -0.6858 h 2.8956 v 0.6858 z m -0.127,1.2954 v -0.6858 h 2.8956 v 0.6858 z m -2.28599,1.143 0.508,-4.1275 h 0.6096 l -0.4953,4.1275 z m -1.2065,0 0.508,-4.1275 h 0.6096 l -0.4953,4.1275 z m -0.1905,-2.4384 v -0.6858 h 2.8956 v 0.6858 z m -0.127,1.2954 v -0.6858 h 2.8956 v 0.6858 z m -2.28599,1.143 0.508,-4.1275 h 0.6096 l -0.4953,4.1275 z m -1.2065,0 0.508,-4.1275 h 0.6096 l -0.4953,4.1275 z m -0.1905,-2.4384 v -0.6858 h 2.8956 v 0.6858 z m -0.127,1.2954 v -0.6858 h 2.8956 v 0.6858 z m -2.28599,1.143 0.508,-4.1275 h 0.6096 l -0.4953,4.1275 z m -1.2065,0 0.508,-4.1275 h 0.6096 l -0.4953,4.1275 z m -0.1905,-2.4384 v -0.6858 h 2.8956 v 0.6858 z m -0.127,1.2954 v -0.6858 h 2.8956 v 0.6858 z m -2.28599,1.143 0.508,-4.1275 h 0.6096 l -0.4953,4.1275 z m -1.2065,0 0.508,-4.1275 h 0.6096 l -0.4953,4.1275 z m -0.1905,-2.4384 v -0.6858 h 2.8956 v 0.6858 z m -0.127,1.2954 v -0.6858 h 2.8956 v 0.6858 z m -2.28599,1.143 0.508,-4.1275 h 0.6096 l -0.4953,4.1275 z m -1.2065,0 0.508,-4.1275 h 0.6096 l -0.4953,4.1275 z m -0.1905,-2.4384 v -0.6858 h 2.8956 v 0.6858 z m -0.127,1.2954 v -0.6858 h 2.8956 v 0.6858 z m -2.28599,1.143 0.508,-4.1275 h 0.6096 l -0.4953,4.1275 z m -1.2065,0 0.508,-4.1275 h 0.6096 l -0.4953,4.1275 z m -0.1905,-2.4384 v -0.6858 h 2.8956 v 0.6858 z m -0.127,1.2954 v -0.6858 h 2.8956 v 0.6858 z m -2.28599,1.143 0.508,-4.1275 h 0.6096 l -0.4953,4.1275 z m -1.2065,0 0.508,-4.1275 h 0.6096 l -0.4953,4.1275 z m -0.1905,-2.4384 v -0.6858 h 2.8956 v 0.6858 z m -0.127,1.2954 v -0.6858 h 2.8956 v 0.6858 z m -2.28599,1.143 0.508,-4.1275 h 0.6096 l -0.4953,4.1275 z m -1.2065,0 0.508,-4.1275 h 0.6096 l -0.4953,4.1275 z m -0.1905,-2.4384 v -0.6858 h 2.8956 v 0.6858 z m -0.127,1.2954 v -0.6858 h 2.8956 v 0.6858 z m -2.28599,1.143 0.508,-4.1275 h 0.6096 l -0.4953,4.1275 z m -1.2065,0 0.508,-4.1275 h 0.6096 l -0.4953,4.1275 z m -0.1905,-2.4384 v -0.6858 h 2.8956 v 0.6858 z m -0.127,1.2954 v -0.6858 h 2.8956 v 0.6858 z m -2.28599,1.143 0.508,-4.1275 h 0.6096 l -0.4953,4.1275 z m -1.2065,0 0.508,-4.1275 h 0.6096 l -0.4953,4.1275 z m -0.1905,-2.4384 v -0.6858 h 2.8956 v 0.6858 z m -0.127,1.2954 v -0.6858 h 2.8956 v 0.6858 z m -2.28599,1.143 0.508,-4.1275 h 0.6096 l -0.4953,4.1275 z m -1.2065,0 0.508,-4.1275 h 0.6096 l -0.4953,4.1275 z m -0.1905,-2.4384 v -0.6858 h 2.8956 v 0.6858 z m -0.127,1.2954 v -0.6858 h 2.8956 v 0.6858 z m -2.28599,1.143 0.508,-4.1275 h 0.6096 l -0.4953,4.1275 z m -1.2065,0 0.508,-4.1275 h 0.6096 l -0.4953,4.1275 z m -0.1905,-2.4384 v -0.6858 h 2.8956 v 0.6858 z m -0.127,1.2954 v -0.6858 h 2.8956 v 0.6858 z m -2.28599,1.143 0.508,-4.1275 h 0.6096 l -0.4953,4.1275 z m -1.2065,0 0.508,-4.1275 h 0.6096 l -0.4953,4.1275 z m -0.1905,-2.4384 v -0.6858 h 2.8956 v 0.6858 z m -0.127,1.2954 v -0.6858 h 2.8956 v 0.6858 z m -2.28599,1.143 0.508,-4.1275 h 0.6096 l -0.4953,4.1275 z m -1.2065,0 0.508,-4.1275 h 0.6096 l -0.4953,4.1275 z m -0.1905,-2.4384 v -0.6858 h 2.8956 v 0.6858 z m -0.127,1.2954 v -0.6858 h 2.8956 v 0.6858 z m -2.28599,1.143 0.508,-4.1275 h 0.6096 l -0.4953,4.1275 z m -1.2065,0 0.508,-4.1275 h 0.6096 l -0.4953,4.1275 z m -0.1905,-2.4384 v -0.6858 h 2.8956 v 0.6858 z m -0.127,1.2954 v -0.6858 h 2.8956 v 0.6858 z m -2.28599,1.143 0.508,-4.1275 h 0.6096 l -0.4953,4.1275 z m -1.206503,0 0.508,-4.1275 h 0.609603 l -0.495303,4.1275 z m -0.1905,-2.4384 v -0.6858 h 2.895603 v 0.6858 z m -0.127,1.2954 v -0.6858 h 2.895603 v 0.6858 z m -2.28599,1.143 0.508,-4.1275 h 0.6096 l -0.4953,4.1275 z m -1.2065,0 0.508,-4.1275 h 0.6096 l -0.4953,4.1275 z m -0.1905,-2.4384 v -0.6858 h 2.8956 v 0.6858 z m -0.127,1.2954 v -0.6858 h 2.8956 v 0.6858 z m -2.28599,1.143 0.508,-4.1275 h 0.6096 l -0.4953,4.1275 z m -1.2065,0 0.508,-4.1275 h 0.6096 l -0.4953,4.1275 z m -0.1905,-2.4384 v -0.6858 h 2.8956 v 0.6858 z m -0.127,1.2954 v -0.6858 h 2.8956 v 0.6858 z m -2.28599,1.143 0.508,-4.1275 h 0.6096 l -0.4953,4.1275 z m -1.2065,0 0.508,-4.1275 h 0.6096 l -0.4953,4.1275 z m -0.1905,-2.4384 v -0.6858 h 2.8956 v 0.6858 z m -0.127,1.2954 v -0.6858 h 2.8956 v 0.6858 z m -2.28599,1.143 0.508,-4.1275 h 0.6096 l -0.4953,4.1275 z m -1.2065,0 0.508,-4.1275 h 0.6096 l -0.4953,4.1275 z m -0.1905,-2.4384 v -0.6858 h 2.8956 v 0.6858 z m -0.127,1.2954 v -0.6858 h 2.8956 v 0.6858 z m -2.28599,1.143 0.508,-4.1275 h 0.6096 l -0.4953,4.1275 z m -1.2065,0 0.508,-4.1275 h 0.6096 l -0.4953,4.1275 z m -0.1905,-2.4384 v -0.6858 h 2.8956 v 0.6858 z m -0.127,1.2954 v -0.6858 h 2.8956 v 0.6858 z m -2.28599,1.143 0.508,-4.1275 h 0.6096 l -0.4953,4.1275 z m -1.2065,0 0.508,-4.1275 h 0.6096 l -0.4953,4.1275 z m -0.1905,-2.4384 v -0.6858 h 2.8956 v 0.6858 z m -0.127,1.2954 v -0.6858 h 2.8956 v 0.6858 z m -2.285993,1.143 0.508,-4.1275 h 0.6096 l -0.4953,4.1275 z m -1.2065,0 0.508,-4.1275 h 0.6096 l -0.4953,4.1275 z m -0.1905,-2.4384 v -0.6858 h 2.8956 v 0.6858 z m -0.127,1.2954 v -0.6858 h 2.8956 v 0.6858 z m -2.28599,1.143 0.508,-4.1275 h 0.6096 l -0.4953,4.1275 z m -1.2065,0 0.508,-4.1275 h 0.6096 l -0.4953,4.1275 z m -0.1905,-2.4384 v -0.6858 h 2.8956 v 0.6858 z m -0.127,1.2954 v -0.6858 h 2.8956 v 0.6858 z m -2.28599,1.143 0.508,-4.1275 h 0.6096 l -0.4953,4.1275 z m -1.2065,0 0.508,-4.1275 h 0.6096 l -0.4953,4.1275 z m -0.1905,-2.4384 v -0.6858 h 2.8956 v 0.6858 z m -0.127,1.2954 v -0.6858 h 2.8956 v 0.6858 z m -3.80999,-0.5715 v -0.762 h 2.9972 v 0.762 z m -3.80999,0 v -0.762 h 2.9972 v 0.762 z m -3.80999,0 v -0.762 h 2.9972 v 0.762 z m -3.80999,0 v -0.762 h 2.9972 v 0.762 z m -3.80999,0 v -0.762 h 2.9972 v 0.762 z m -3.809992,0 v -0.762 h 2.9972 v 0.762 z m -3.80999,0 v -0.762 h 2.9972 v 0.762 z m -3.80999,0 v -0.762 h 2.9972 v 0.762 z m -3.809989,0 v -0.762 h 2.9972 v 0.762 z m -3.809991,0 v -0.762 h 2.9972 v 0.762 z m -3.80999,0 v -0.762 h 2.9972 v 0.762 z m -3.809991,0 v -0.762 h 2.9972 v 0.762 z m -3.80999,0 v -0.762 h 2.9972 v 0.762 z m -3.80999,0 v -0.762 h 2.9972 v 0.762 z m 207.238069,-6.1468 q -0.3683,0 -0.5969,-0.2413 -0.2286,-0.2413 -0.2286,-0.5842 0,-0.33655 0.2286,-0.57785 0.2286,-0.24765 0.5969,-0.24765 0.37465,0 0.5969,0.24765 0.2286,0.2413 0.2286,0.57785 0,0.3429 -0.2286,0.5842 -0.22225,0.2413 -0.5969,0.2413 z m -11.40458,-0.0762 0.508,-4.1275 h 0.6096 l -0.4953,4.1275 z m -1.20649,0 0.508,-4.1275 h 0.60959 l -0.49529,4.1275 z m -0.1905,-2.4384 v -0.6858 h 2.89559 v 0.6858 z m -0.127,1.2954 v -0.6858 h 2.89559 v 0.6858 z m -2.28599,1.143 0.508,-4.1275 h 0.6096 l -0.4953,4.1275 z m -1.2065,0 0.508,-4.1275 h 0.6096 l -0.4953,4.1275 z m -0.1905,-2.4384 v -0.6858 h 2.8956 v 0.6858 z m -0.127,1.2954 v -0.6858 h 2.8956 v 0.6858 z m -2.28599,1.143 0.508,-4.1275 h 0.6096 l -0.4953,4.1275 z m -1.2065,0 0.508,-4.1275 h 0.6096 l -0.4953,4.1275 z m -0.1905,-2.4384 v -0.6858 h 2.8956 v 0.6858 z m -0.127,1.2954 v -0.6858 h 2.8956 v 0.6858 z m -2.28599,1.143 0.508,-4.1275 h 0.6096 l -0.4953,4.1275 z m -1.2065,0 0.508,-4.1275 h 0.6096 l -0.4953,4.1275 z m -0.1905,-2.4384 v -0.6858 h 2.8956 v 0.6858 z m -0.127,1.2954 v -0.6858 h 2.8956 v 0.6858 z m -2.28599,1.143 0.508,-4.1275 h 0.6096 l -0.4953,4.1275 z m -1.2065,0 0.508,-4.1275 h 0.6096 l -0.4953,4.1275 z m -0.1905,-2.4384 v -0.6858 h 2.8956 v 0.6858 z m -0.127,1.2954 v -0.6858 h 2.8956 v 0.6858 z m -2.28599,1.143 0.508,-4.1275 h 0.6096 l -0.4953,4.1275 z m -1.2065,0 0.508,-4.1275 h 0.6096 l -0.4953,4.1275 z m -0.1905,-2.4384 v -0.6858 h 2.8956 v 0.6858 z m -0.127,1.2954 v -0.6858 h 2.8956 v 0.6858 z m -2.28599,1.143 0.508,-4.1275 h 0.6096 l -0.4953,4.1275 z m -1.2065,0 0.508,-4.1275 h 0.6096 l -0.4953,4.1275 z m -0.1905,-2.4384 v -0.6858 h 2.8956 v 0.6858 z m -0.127,1.2954 v -0.6858 h 2.8956 v 0.6858 z m -2.28599,1.143 0.508,-4.1275 h 0.6096 l -0.4953,4.1275 z m -1.2065,0 0.508,-4.1275 h 0.6096 l -0.4953,4.1275 z m -0.1905,-2.4384 v -0.6858 h 2.8956 v 0.6858 z m -0.127,1.2954 v -0.6858 h 2.8956 v 0.6858 z m -2.28599,1.143 0.508,-4.1275 h 0.6096 l -0.4953,4.1275 z m -1.2065,0 0.508,-4.1275 h 0.6096 l -0.4953,4.1275 z m -0.1905,-2.4384 v -0.6858 h 2.8956 v 0.6858 z m -0.127,1.2954 v -0.6858 h 2.8956 v 0.6858 z m -2.28599,1.143 0.508,-4.1275 h 0.6096 l -0.4953,4.1275 z m -1.2065,0 0.508,-4.1275 h 0.6096 l -0.4953,4.1275 z m -0.1905,-2.4384 v -0.6858 h 2.8956 v 0.6858 z m -0.127,1.2954 v -0.6858 h 2.8956 v 0.6858 z m -2.28599,1.143 0.508,-4.1275 h 0.6096 l -0.4953,4.1275 z m -1.2065,0 0.508,-4.1275 h 0.6096 l -0.4953,4.1275 z m -0.1905,-2.4384 v -0.6858 h 2.8956 v 0.6858 z m -0.127,1.2954 v -0.6858 h 2.8956 v 0.6858 z m -2.28599,1.143 0.508,-4.1275 h 0.6096 l -0.4953,4.1275 z m -1.2065,0 0.508,-4.1275 h 0.6096 l -0.4953,4.1275 z m -0.1905,-2.4384 v -0.6858 h 2.8956 v 0.6858 z m -0.127,1.2954 v -0.6858 h 2.8956 v 0.6858 z m -2.28599,1.143 0.508,-4.1275 h 0.6096 l -0.4953,4.1275 z m -1.2065,0 0.508,-4.1275 h 0.6096 l -0.4953,4.1275 z m -0.1905,-2.4384 v -0.6858 h 2.8956 v 0.6858 z m -0.127,1.2954 v -0.6858 h 2.8956 v 0.6858 z m -2.28599,1.143 0.508,-4.1275 h 0.6096 l -0.4953,4.1275 z m -1.2065,0 0.508,-4.1275 h 0.6096 l -0.4953,4.1275 z m -0.1905,-2.4384 v -0.6858 h 2.8956 v 0.6858 z m -0.127,1.2954 v -0.6858 h 2.8956 v 0.6858 z m -2.28599,1.143 0.508,-4.1275 h 0.6096 l -0.4953,4.1275 z m -1.2065,0 0.508,-4.1275 h 0.6096 l -0.4953,4.1275 z m -0.1905,-2.4384 v -0.6858 h 2.8956 v 0.6858 z m -0.127,1.2954 v -0.6858 h 2.8956 v 0.6858 z m -2.28599,1.143 0.508,-4.1275 h 0.6096 l -0.4953,4.1275 z m -1.2065,0 0.508,-4.1275 h 0.6096 l -0.4953,4.1275 z m -0.1905,-2.4384 v -0.6858 h 2.8956 v 0.6858 z m -0.127,1.2954 v -0.6858 h 2.8956 v 0.6858 z m -2.28599,1.143 0.508,-4.1275 h 0.6096 l -0.4953,4.1275 z m -1.2065,0 0.508,-4.1275 h 0.6096 l -0.4953,4.1275 z m -0.1905,-2.4384 v -0.6858 h 2.8956 v 0.6858 z m -0.127,1.2954 v -0.6858 h 2.8956 v 0.6858 z m -2.28599,1.143 0.508,-4.1275 h 0.6096 l -0.4953,4.1275 z m -1.2065,0 0.508,-4.1275 h 0.6096 l -0.4953,4.1275 z m -0.1905,-2.4384 v -0.6858 h 2.8956 v 0.6858 z m -0.127,1.2954 v -0.6858 h 2.8956 v 0.6858 z m -2.28599,1.143 0.508,-4.1275 h 0.6096 l -0.4953,4.1275 z m -1.2065,0 0.508,-4.1275 h 0.6096 l -0.4953,4.1275 z m -0.1905,-2.4384 v -0.6858 h 2.8956 v 0.6858 z m -0.127,1.2954 v -0.6858 h 2.8956 v 0.6858 z m -2.28599,1.143 0.508,-4.1275 h 0.6096 l -0.4953,4.1275 z m -1.2065,0 0.508,-4.1275 h 0.6096 l -0.4953,4.1275 z m -0.1905,-2.4384 v -0.6858 h 2.8956 v 0.6858 z m -0.127,1.2954 v -0.6858 h 2.8956 v 0.6858 z m -2.28599,1.143 0.508,-4.1275 h 0.6096 l -0.4953,4.1275 z m -1.2065,0 0.508,-4.1275 h 0.6096 l -0.4953,4.1275 z m -0.1905,-2.4384 v -0.6858 h 2.8956 v 0.6858 z m -0.127,1.2954 v -0.6858 h 2.8956 v 0.6858 z m -2.28599,1.143 0.508,-4.1275 h 0.6096 l -0.4953,4.1275 z m -1.2065,0 0.508,-4.1275 h 0.6096 l -0.4953,4.1275 z m -0.1905,-2.4384 v -0.6858 h 2.8956 v 0.6858 z m -0.127,1.2954 v -0.6858 h 2.8956 v 0.6858 z m -2.28599,1.143 0.508,-4.1275 h 0.6096 l -0.4953,4.1275 z m -1.2065,0 0.508,-4.1275 h 0.6096 l -0.4953,4.1275 z m -0.1905,-2.4384 v -0.6858 h 2.8956 v 0.6858 z m -0.127,1.2954 v -0.6858 h 2.8956 v 0.6858 z m -2.28599,1.143 0.508,-4.1275 h 0.6096 l -0.4953,4.1275 z m -1.2065,0 0.508,-4.1275 h 0.6096 l -0.4953,4.1275 z m -0.1905,-2.4384 v -0.6858 h 2.8956 v 0.6858 z m -0.127,1.2954 v -0.6858 h 2.8956 v 0.6858 z m -2.28599,1.143 0.508,-4.1275 h 0.6096 l -0.4953,4.1275 z m -1.2065,0 0.508,-4.1275 h 0.6096 l -0.4953,4.1275 z m -0.1905,-2.4384 v -0.6858 h 2.8956 v 0.6858 z m -0.127,1.2954 v -0.6858 h 2.8956 v 0.6858 z m -2.28599,1.143 0.508,-4.1275 h 0.6096 l -0.4953,4.1275 z m -1.2065,0 0.508,-4.1275 h 0.6096 l -0.4953,4.1275 z m -0.1905,-2.4384 v -0.6858 h 2.8956 v 0.6858 z m -0.127,1.2954 v -0.6858 h 2.8956 v 0.6858 z m -2.28599,1.143 0.508,-4.1275 h 0.6096 l -0.4953,4.1275 z m -1.2065,0 0.508,-4.1275 h 0.6096 l -0.4953,4.1275 z m -0.1905,-2.4384 v -0.6858 h 2.8956 v 0.6858 z m -0.127,1.2954 v -0.6858 h 2.8956 v 0.6858 z m -2.28599,1.143 0.508,-4.1275 h 0.6096 l -0.4953,4.1275 z m -1.2065,0 0.508,-4.1275 h 0.6096 l -0.4953,4.1275 z m -0.1905,-2.4384 v -0.6858 h 2.8956 v 0.6858 z m -0.127,1.2954 v -0.6858 h 2.8956 v 0.6858 z m -2.28599,1.143 0.508,-4.1275 h 0.6096 l -0.4953,4.1275 z m -1.206503,0 0.508,-4.1275 h 0.609603 l -0.495303,4.1275 z m -0.1905,-2.4384 v -0.6858 h 2.895603 v 0.6858 z m -0.127,1.2954 v -0.6858 h 2.895603 v 0.6858 z m -2.28599,1.143 0.508,-4.1275 h 0.6096 l -0.4953,4.1275 z m -1.2065,0 0.508,-4.1275 h 0.6096 l -0.4953,4.1275 z m -0.1905,-2.4384 v -0.6858 h 2.8956 v 0.6858 z m -0.127,1.2954 v -0.6858 h 2.8956 v 0.6858 z m -2.28599,1.143 0.508,-4.1275 h 0.6096 l -0.4953,4.1275 z m -1.2065,0 0.508,-4.1275 h 0.6096 l -0.4953,4.1275 z m -0.1905,-2.4384 v -0.6858 h 2.8956 v 0.6858 z m -0.127,1.2954 v -0.6858 h 2.8956 v 0.6858 z m -2.28599,1.143 0.508,-4.1275 h 0.6096 l -0.4953,4.1275 z m -1.2065,0 0.508,-4.1275 h 0.6096 l -0.4953,4.1275 z m -0.1905,-2.4384 v -0.6858 h 2.8956 v 0.6858 z m -0.127,1.2954 v -0.6858 h 2.8956 v 0.6858 z m -2.28599,1.143 0.508,-4.1275 h 0.6096 l -0.4953,4.1275 z m -1.2065,0 0.508,-4.1275 h 0.6096 l -0.4953,4.1275 z m -0.1905,-2.4384 v -0.6858 h 2.8956 v 0.6858 z m -0.127,1.2954 v -0.6858 h 2.8956 v 0.6858 z m -2.28599,1.143 0.508,-4.1275 h 0.6096 l -0.4953,4.1275 z m -1.2065,0 0.508,-4.1275 h 0.6096 l -0.4953,4.1275 z m -0.1905,-2.4384 v -0.6858 h 2.8956 v 0.6858 z m -0.127,1.2954 v -0.6858 h 2.8956 v 0.6858 z m -2.28599,1.143 0.508,-4.1275 h 0.6096 l -0.4953,4.1275 z m -1.2065,0 0.508,-4.1275 h 0.6096 l -0.4953,4.1275 z m -0.1905,-2.4384 v -0.6858 h 2.8956 v 0.6858 z m -0.127,1.2954 v -0.6858 h 2.8956 v 0.6858 z m -2.285993,1.143 0.508,-4.1275 h 0.6096 l -0.4953,4.1275 z m -1.2065,0 0.508,-4.1275 h 0.6096 l -0.4953,4.1275 z m -0.1905,-2.4384 v -0.6858 h 2.8956 v 0.6858 z m -0.127,1.2954 v -0.6858 h 2.8956 v 0.6858 z m -2.28599,1.143 0.508,-4.1275 h 0.6096 l -0.4953,4.1275 z m -1.2065,0 0.508,-4.1275 h 0.6096 l -0.4953,4.1275 z m -0.1905,-2.4384 v -0.6858 h 2.8956 v 0.6858 z m -0.127,1.2954 v -0.6858 h 2.8956 v 0.6858 z m -2.28599,1.143 0.508,-4.1275 h 0.6096 l -0.4953,4.1275 z m -1.2065,0 0.508,-4.1275 h 0.6096 l -0.4953,4.1275 z m -0.1905,-2.4384 v -0.6858 h 2.8956 v 0.6858 z m -0.127,1.2954 v -0.6858 h 2.8956 v 0.6858 z m -2.28599,1.143 0.508,-4.1275 h 0.6096 l -0.4953,4.1275 z m -1.2065,0 0.508,-4.1275 h 0.6096 l -0.4953,4.1275 z m -0.1905,-2.4384 v -0.6858 h 2.8956 v 0.6858 z m -0.127,1.2954 v -0.6858 h 2.8956 v 0.6858 z m -21.361342,1.2192 q -0.3683,0 -0.5969,-0.2413 -0.2286,-0.2413 -0.2286,-0.5842 0,-0.33655 0.2286,-0.57785 0.2286,-0.24765 0.5969,-0.24765 0.37465,0 0.5969,0.24765 0.2286,0.2413 0.2286,0.57785 0,0.3429 -0.2286,0.5842 -0.22225,0.2413 -0.5969,0.2413 z m 213.359438,-7.9375 q -0.3683,0 -0.5969,-0.2413 -0.2286,-0.2413 -0.2286,-0.5842 0,-0.33655 0.2286,-0.57785 0.2286,-0.24765 0.5969,-0.24765 0.37465,0 0.5969,0.24765 0.2286,0.2413 0.2286,0.57785 0,0.3429 -0.2286,0.5842 -0.22225,0.2413 -0.5969,0.2413 z m -53.31445,-0.0762 0.508,-4.1275 h 0.6096 l -0.4953,4.1275 z m -1.2065,0 0.508,-4.1275 h 0.6096 l -0.4953,4.1275 z m -0.1905,-2.4384 v -0.6858 h 2.8956 v 0.6858 z m -0.127,1.2954 v -0.6858 h 2.8956 v 0.6858 z m -2.28599,1.143 0.508,-4.1275 h 0.6096 l -0.4953,4.1275 z m -1.2065,0 0.508,-4.1275 h 0.6096 l -0.4953,4.1275 z m -0.1905,-2.4384 v -0.6858 h 2.8956 v 0.6858 z m -0.127,1.2954 v -0.6858 h 2.8956 v 0.6858 z m -2.28599,1.143 0.508,-4.1275 h 0.6096 l -0.4953,4.1275 z m -1.2065,0 0.508,-4.1275 h 0.6096 l -0.4953,4.1275 z m -0.1905,-2.4384 v -0.6858 h 2.8956 v 0.6858 z m -0.127,1.2954 v -0.6858 h 2.8956 v 0.6858 z m -2.28599,1.143 0.508,-4.1275 h 0.6096 l -0.4953,4.1275 z m -1.2065,0 0.508,-4.1275 h 0.6096 l -0.4953,4.1275 z m -0.1905,-2.4384 v -0.6858 h 2.8956 v 0.6858 z m -0.127,1.2954 v -0.6858 h 2.8956 v 0.6858 z m -2.28599,1.143 0.508,-4.1275 h 0.6096 l -0.4953,4.1275 z m -1.2065,0 0.508,-4.1275 h 0.6096 l -0.4953,4.1275 z m -0.1905,-2.4384 v -0.6858 h 2.8956 v 0.6858 z m -0.127,1.2954 v -0.6858 h 2.8956 v 0.6858 z m -2.28599,1.143 0.508,-4.1275 h 0.6096 l -0.4953,4.1275 z m -1.2065,0 0.508,-4.1275 h 0.6096 l -0.4953,4.1275 z m -0.1905,-2.4384 v -0.6858 h 2.8956 v 0.6858 z m -0.127,1.2954 v -0.6858 h 2.8956 v 0.6858 z m -2.28599,1.143 0.508,-4.1275 h 0.6096 l -0.4953,4.1275 z m -1.2065,0 0.508,-4.1275 h 0.6096 l -0.4953,4.1275 z m -0.1905,-2.4384 v -0.6858 h 2.8956 v 0.6858 z m -0.127,1.2954 v -0.6858 h 2.8956 v 0.6858 z m -2.28599,1.143 0.508,-4.1275 h 0.6096 l -0.4953,4.1275 z m -1.2065,0 0.508,-4.1275 h 0.6096 l -0.4953,4.1275 z m -0.1905,-2.4384 v -0.6858 h 2.8956 v 0.6858 z m -0.127,1.2954 v -0.6858 h 2.8956 v 0.6858 z m -2.28599,1.143 0.508,-4.1275 h 0.6096 l -0.4953,4.1275 z m -1.2065,0 0.508,-4.1275 h 0.6096 l -0.4953,4.1275 z m -0.1905,-2.4384 v -0.6858 h 2.8956 v 0.6858 z m -0.127,1.2954 v -0.6858 h 2.8956 v 0.6858 z m -2.28599,1.143 0.508,-4.1275 h 0.6096 l -0.4953,4.1275 z m -1.2065,0 0.508,-4.1275 h 0.6096 l -0.4953,4.1275 z m -0.1905,-2.4384 v -0.6858 h 2.8956 v 0.6858 z m -0.127,1.2954 v -0.6858 h 2.8956 v 0.6858 z m -2.28599,1.143 0.508,-4.1275 h 0.6096 l -0.4953,4.1275 z m -1.2065,0 0.508,-4.1275 h 0.6096 l -0.4953,4.1275 z m -0.1905,-2.4384 v -0.6858 h 2.8956 v 0.6858 z m -0.127,1.2954 v -0.6858 h 2.8956 v 0.6858 z m -2.28599,1.143 0.508,-4.1275 h 0.6096 l -0.4953,4.1275 z m -1.2065,0 0.508,-4.1275 h 0.6096 l -0.4953,4.1275 z m -0.1905,-2.4384 v -0.6858 h 2.8956 v 0.6858 z m -0.127,1.2954 v -0.6858 h 2.8956 v 0.6858 z m -2.28599,1.143 0.508,-4.1275 h 0.6096 l -0.4953,4.1275 z m -1.2065,0 0.508,-4.1275 h 0.6096 l -0.4953,4.1275 z m -0.1905,-2.4384 v -0.6858 h 2.8956 v 0.6858 z m -0.127,1.2954 v -0.6858 h 2.8956 v 0.6858 z m -2.28599,1.143 0.508,-4.1275 h 0.6096 l -0.4953,4.1275 z m -1.2065,0 0.508,-4.1275 h 0.6096 l -0.4953,4.1275 z m -0.1905,-2.4384 v -0.6858 h 2.8956 v 0.6858 z m -0.127,1.2954 v -0.6858 h 2.8956 v 0.6858 z m -2.28599,1.143 0.508,-4.1275 h 0.6096 l -0.4953,4.1275 z m -1.2065,0 0.508,-4.1275 h 0.6096 l -0.4953,4.1275 z m -0.1905,-2.4384 v -0.6858 h 2.8956 v 0.6858 z m -0.127,1.2954 v -0.6858 h 2.8956 v 0.6858 z m -2.28599,1.143 0.508,-4.1275 h 0.6096 l -0.4953,4.1275 z m -1.2065,0 0.508,-4.1275 h 0.6096 l -0.4953,4.1275 z m -0.1905,-2.4384 v -0.6858 h 2.8956 v 0.6858 z m -0.127,1.2954 v -0.6858 h 2.8956 v 0.6858 z m -2.28599,1.143 0.508,-4.1275 h 0.6096 l -0.4953,4.1275 z m -1.2065,0 0.508,-4.1275 h 0.6096 l -0.4953,4.1275 z m -0.1905,-2.4384 v -0.6858 h 2.8956 v 0.6858 z m -0.127,1.2954 v -0.6858 h 2.8956 v 0.6858 z m -2.28599,1.143 0.508,-4.1275 h 0.6096 l -0.4953,4.1275 z m -1.2065,0 0.508,-4.1275 h 0.6096 l -0.4953,4.1275 z m -0.1905,-2.4384 v -0.6858 h 2.8956 v 0.6858 z m -0.127,1.2954 v -0.6858 h 2.8956 v 0.6858 z m -2.28599,1.143 0.508,-4.1275 h 0.6096 l -0.4953,4.1275 z m -1.2065,0 0.508,-4.1275 h 0.6096 l -0.4953,4.1275 z m -0.1905,-2.4384 v -0.6858 h 2.8956 v 0.6858 z m -0.127,1.2954 v -0.6858 h 2.8956 v 0.6858 z m -2.28599,1.143 0.508,-4.1275 h 0.6096 l -0.4953,4.1275 z m -1.2065,0 0.508,-4.1275 h 0.6096 l -0.4953,4.1275 z m -0.1905,-2.4384 v -0.6858 h 2.8956 v 0.6858 z m -0.127,1.2954 v -0.6858 h 2.8956 v 0.6858 z m -2.28599,1.143 0.508,-4.1275 h 0.6096 l -0.4953,4.1275 z m -1.2065,0 0.508,-4.1275 h 0.6096 l -0.4953,4.1275 z m -0.1905,-2.4384 v -0.6858 h 2.8956 v 0.6858 z m -0.127,1.2954 v -0.6858 h 2.8956 v 0.6858 z m -2.28599,1.143 0.508,-4.1275 h 0.6096 l -0.4953,4.1275 z m -1.2065,0 0.508,-4.1275 h 0.6096 l -0.4953,4.1275 z m -0.1905,-2.4384 v -0.6858 h 2.8956 v 0.6858 z m -0.127,1.2954 v -0.6858 h 2.8956 v 0.6858 z m -2.28599,1.143 0.508,-4.1275 h 0.6096 l -0.4953,4.1275 z m -1.2065,0 0.508,-4.1275 h 0.6096 l -0.4953,4.1275 z m -0.1905,-2.4384 v -0.6858 h 2.8956 v 0.6858 z m -0.127,1.2954 v -0.6858 h 2.8956 v 0.6858 z m -2.28599,1.143 0.508,-4.1275 h 0.6096 l -0.4953,4.1275 z m -1.2065,0 0.508,-4.1275 h 0.6096 l -0.4953,4.1275 z m -0.1905,-2.4384 v -0.6858 h 2.8956 v 0.6858 z m -0.127,1.2954 v -0.6858 h 2.8956 v 0.6858 z m -2.28599,1.143 0.508,-4.1275 h 0.6096 l -0.4953,4.1275 z m -1.2065,0 0.508,-4.1275 h 0.6096 l -0.4953,4.1275 z m -0.1905,-2.4384 v -0.6858 h 2.8956 v 0.6858 z m -0.127,1.2954 v -0.6858 h 2.8956 v 0.6858 z m -2.28599,1.143 0.508,-4.1275 h 0.6096 l -0.4953,4.1275 z m -1.2065,0 0.508,-4.1275 h 0.6096 l -0.4953,4.1275 z m -0.1905,-2.4384 v -0.6858 h 2.8956 v 0.6858 z m -0.127,1.2954 v -0.6858 h 2.8956 v 0.6858 z m -2.28599,1.143 0.508,-4.1275 h 0.6096 l -0.4953,4.1275 z m -1.206503,0 0.508,-4.1275 h 0.609603 l -0.495303,4.1275 z m -0.1905,-2.4384 v -0.6858 h 2.895603 v 0.6858 z m -0.127,1.2954 v -0.6858 h 2.895603 v 0.6858 z m -2.28599,1.143 0.508,-4.1275 h 0.6096 l -0.4953,4.1275 z m -1.2065,0 0.508,-4.1275 h 0.6096 l -0.4953,4.1275 z m -0.1905,-2.4384 v -0.6858 h 2.8956 v 0.6858 z m -0.127,1.2954 v -0.6858 h 2.8956 v 0.6858 z m -2.28599,1.143 0.508,-4.1275 h 0.6096 l -0.4953,4.1275 z m -1.2065,0 0.508,-4.1275 h 0.6096 l -0.4953,4.1275 z m -0.1905,-2.4384 v -0.6858 h 2.8956 v 0.6858 z m -0.127,1.2954 v -0.6858 h 2.8956 v 0.6858 z m -2.28599,1.143 0.508,-4.1275 h 0.6096 l -0.4953,4.1275 z m -1.2065,0 0.508,-4.1275 h 0.6096 l -0.4953,4.1275 z m -0.1905,-2.4384 v -0.6858 h 2.8956 v 0.6858 z m -0.127,1.2954 v -0.6858 h 2.8956 v 0.6858 z m -2.28599,1.143 0.508,-4.1275 h 0.6096 l -0.4953,4.1275 z m -1.2065,0 0.508,-4.1275 h 0.6096 l -0.4953,4.1275 z m -0.1905,-2.4384 v -0.6858 h 2.8956 v 0.6858 z m -0.127,1.2954 v -0.6858 h 2.8956 v 0.6858 z m -2.28599,1.143 0.508,-4.1275 h 0.6096 l -0.4953,4.1275 z m -1.2065,0 0.508,-4.1275 h 0.6096 l -0.4953,4.1275 z m -0.1905,-2.4384 v -0.6858 h 2.8956 v 0.6858 z m -0.127,1.2954 v -0.6858 h 2.8956 v 0.6858 z m -2.28599,1.143 0.508,-4.1275 h 0.6096 l -0.4953,4.1275 z m -1.2065,0 0.508,-4.1275 h 0.6096 l -0.4953,4.1275 z m -0.1905,-2.4384 v -0.6858 h 2.8956 v 0.6858 z m -0.127,1.2954 v -0.6858 h 2.8956 v 0.6858 z m -2.285993,1.143 0.508,-4.1275 h 0.6096 l -0.4953,4.1275 z m -1.2065,0 0.508,-4.1275 h 0.6096 l -0.4953,4.1275 z m -0.1905,-2.4384 v -0.6858 h 2.8956 v 0.6858 z m -0.127,1.2954 v -0.6858 h 2.8956 v 0.6858 z m -2.28599,1.143 0.508,-4.1275 h 0.6096 l -0.4953,4.1275 z m -1.2065,0 0.508,-4.1275 h 0.6096 l -0.4953,4.1275 z m -0.1905,-2.4384 v -0.6858 h 2.8956 v 0.6858 z m -0.127,1.2954 v -0.6858 h 2.8956 v 0.6858 z m -2.28599,1.143 0.508,-4.1275 h 0.6096 l -0.4953,4.1275 z m -1.2065,0 0.508,-4.1275 h 0.6096 l -0.4953,4.1275 z m -0.1905,-2.4384 v -0.6858 h 2.8956 v 0.6858 z m -0.127,1.2954 v -0.6858 h 2.8956 v 0.6858 z m -2.28599,1.143 0.508,-4.1275 h 0.6096 l -0.4953,4.1275 z m -1.2065,0 0.508,-4.1275 h 0.6096 l -0.4953,4.1275 z m -0.1905,-2.4384 v -0.6858 h 2.8956 v 0.6858 z m -0.127,1.2954 v -0.6858 h 2.8956 v 0.6858 z m -36.601302,1.2192 q -0.3683,0 -0.5969,-0.2413 -0.2286,-0.2413 -0.2286,-0.5842 0,-0.33655 0.2286,-0.57785 0.2286,-0.24765 0.5969,-0.24765 0.37465,0 0.5969,0.24765 0.2286,0.2413 0.2286,0.57785 0,0.3429 -0.2286,0.5842 -0.22225,0.2413 -0.5969,0.2413 z m -11.429971,0 q -0.3683,0 -0.5969,-0.2413 -0.2286,-0.2413 -0.2286,-0.5842 0,-0.33655 0.2286,-0.57785 0.2286,-0.24765 0.5969,-0.24765 0.37465,0 0.5969,0.24765 0.2286,0.2413 0.2286,0.57785 0,0.3429 -0.2286,0.5842 -0.22225,0.2413 -0.5969,0.2413 z m 220.979429,-7.9375 q -0.3683,0 -0.5969,-0.2413 -0.2286,-0.2413 -0.2286,-0.5842 0,-0.33655 0.2286,-0.57785 0.2286,-0.24765 0.5969,-0.24765 0.37465,0 0.5969,0.24765 0.2286,0.2413 0.2286,0.57785 0,0.3429 -0.2286,0.5842 -0.22225,0.2413 -0.5969,0.2413 z m -19.04996,0 q -0.3683,0 -0.5969,-0.2413 -0.2286,-0.2413 -0.2286,-0.5842 0,-0.33655 0.2286,-0.57785 0.2286,-0.24765 0.5969,-0.24765 0.37465,0 0.5969,0.24765 0.2286,0.2413 0.2286,0.57785 0,0.3429 -0.2286,0.5842 -0.22225,0.2413 -0.5969,0.2413 z m -30.45451,-0.0762 0.508,-4.1275 h 0.6096 l -0.4953,4.1275 z m -1.2065,0 0.508,-4.1275 h 0.6096 l -0.4953,4.1275 z m -0.1905,-2.4384 v -0.6858 h 2.8956 v 0.6858 z m -0.127,1.2954 v -0.6858 h 2.8956 v 0.6858 z m -2.28599,1.143 0.508,-4.1275 h 0.6096 l -0.4953,4.1275 z m -1.2065,0 0.508,-4.1275 h 0.6096 l -0.4953,4.1275 z m -0.1905,-2.4384 v -0.6858 h 2.8956 v 0.6858 z m -0.127,1.2954 v -0.6858 h 2.8956 v 0.6858 z m -2.28599,1.143 0.508,-4.1275 h 0.6096 l -0.4953,4.1275 z m -1.2065,0 0.508,-4.1275 h 0.6096 l -0.4953,4.1275 z m -0.1905,-2.4384 v -0.6858 h 2.8956 v 0.6858 z m -0.127,1.2954 v -0.6858 h 2.8956 v 0.6858 z m -2.28599,1.143 0.508,-4.1275 h 0.6096 l -0.4953,4.1275 z m -1.2065,0 0.508,-4.1275 h 0.6096 l -0.4953,4.1275 z m -0.1905,-2.4384 v -0.6858 h 2.8956 v 0.6858 z m -0.127,1.2954 v -0.6858 h 2.8956 v 0.6858 z m -2.28599,1.143 0.508,-4.1275 h 0.6096 l -0.4953,4.1275 z m -1.2065,0 0.508,-4.1275 h 0.6096 l -0.4953,4.1275 z m -0.1905,-2.4384 v -0.6858 h 2.8956 v 0.6858 z m -0.127,1.2954 v -0.6858 h 2.8956 v 0.6858 z m -2.28599,1.143 0.508,-4.1275 h 0.6096 l -0.4953,4.1275 z m -1.2065,0 0.508,-4.1275 h 0.6096 l -0.4953,4.1275 z m -0.1905,-2.4384 v -0.6858 h 2.8956 v 0.6858 z m -0.127,1.2954 v -0.6858 h 2.8956 v 0.6858 z m -2.28599,1.143 0.508,-4.1275 h 0.6096 l -0.4953,4.1275 z m -1.2065,0 0.508,-4.1275 h 0.6096 l -0.4953,4.1275 z m -0.1905,-2.4384 v -0.6858 h 2.8956 v 0.6858 z m -0.127,1.2954 v -0.6858 h 2.8956 v 0.6858 z m -2.28599,1.143 0.508,-4.1275 h 0.6096 l -0.4953,4.1275 z m -1.2065,0 0.508,-4.1275 h 0.6096 l -0.4953,4.1275 z m -0.1905,-2.4384 v -0.6858 h 2.8956 v 0.6858 z m -0.127,1.2954 v -0.6858 h 2.8956 v 0.6858 z m -2.28599,1.143 0.508,-4.1275 h 0.6096 l -0.4953,4.1275 z m -1.2065,0 0.508,-4.1275 h 0.6096 l -0.4953,4.1275 z m -0.1905,-2.4384 v -0.6858 h 2.8956 v 0.6858 z m -0.127,1.2954 v -0.6858 h 2.8956 v 0.6858 z m -2.28599,1.143 0.508,-4.1275 h 0.6096 l -0.4953,4.1275 z m -1.2065,0 0.508,-4.1275 h 0.6096 l -0.4953,4.1275 z m -0.1905,-2.4384 v -0.6858 h 2.8956 v 0.6858 z m -0.127,1.2954 v -0.6858 h 2.8956 v 0.6858 z m -2.28599,1.143 0.508,-4.1275 h 0.6096 l -0.4953,4.1275 z m -1.2065,0 0.508,-4.1275 h 0.6096 l -0.4953,4.1275 z m -0.1905,-2.4384 v -0.6858 h 2.8956 v 0.6858 z m -0.127,1.2954 v -0.6858 h 2.8956 v 0.6858 z m -2.28599,1.143 0.508,-4.1275 h 0.6096 l -0.4953,4.1275 z m -1.2065,0 0.508,-4.1275 h 0.6096 l -0.4953,4.1275 z m -0.1905,-2.4384 v -0.6858 h 2.8956 v 0.6858 z m -0.127,1.2954 v -0.6858 h 2.8956 v 0.6858 z m -2.28599,1.143 0.508,-4.1275 h 0.6096 l -0.4953,4.1275 z m -1.2065,0 0.508,-4.1275 h 0.6096 l -0.4953,4.1275 z m -0.1905,-2.4384 v -0.6858 h 2.8956 v 0.6858 z m -0.127,1.2954 v -0.6858 h 2.8956 v 0.6858 z m -2.28599,1.143 0.508,-4.1275 h 0.6096 l -0.4953,4.1275 z m -1.2065,0 0.508,-4.1275 h 0.6096 l -0.4953,4.1275 z m -0.1905,-2.4384 v -0.6858 h 2.8956 v 0.6858 z m -0.127,1.2954 v -0.6858 h 2.8956 v 0.6858 z m -2.28599,1.143 0.508,-4.1275 h 0.6096 l -0.4953,4.1275 z m -1.2065,0 0.508,-4.1275 h 0.6096 l -0.4953,4.1275 z m -0.1905,-2.4384 v -0.6858 h 2.8956 v 0.6858 z m -0.127,1.2954 v -0.6858 h 2.8956 v 0.6858 z m -2.28599,1.143 0.508,-4.1275 h 0.6096 l -0.4953,4.1275 z m -1.2065,0 0.508,-4.1275 h 0.6096 l -0.4953,4.1275 z m -0.1905,-2.4384 v -0.6858 h 2.8956 v 0.6858 z m -0.127,1.2954 v -0.6858 h 2.8956 v 0.6858 z m -2.28599,1.143 0.508,-4.1275 h 0.6096 l -0.4953,4.1275 z m -1.2065,0 0.508,-4.1275 h 0.6096 l -0.4953,4.1275 z m -0.1905,-2.4384 v -0.6858 h 2.8956 v 0.6858 z m -0.127,1.2954 v -0.6858 h 2.8956 v 0.6858 z m -2.28599,1.143 0.508,-4.1275 h 0.6096 l -0.4953,4.1275 z m -1.2065,0 0.508,-4.1275 h 0.6096 l -0.4953,4.1275 z m -0.1905,-2.4384 v -0.6858 h 2.8956 v 0.6858 z m -0.127,1.2954 v -0.6858 h 2.8956 v 0.6858 z m -2.28599,1.143 0.508,-4.1275 h 0.6096 l -0.4953,4.1275 z m -1.2065,0 0.508,-4.1275 h 0.6096 l -0.4953,4.1275 z m -0.1905,-2.4384 v -0.6858 h 2.8956 v 0.6858 z m -0.127,1.2954 v -0.6858 h 2.8956 v 0.6858 z m -2.28599,1.143 0.508,-4.1275 h 0.6096 l -0.4953,4.1275 z m -1.2065,0 0.508,-4.1275 h 0.6096 l -0.4953,4.1275 z m -0.1905,-2.4384 v -0.6858 h 2.8956 v 0.6858 z m -0.127,1.2954 v -0.6858 h 2.8956 v 0.6858 z m -2.28599,1.143 0.508,-4.1275 h 0.6096 l -0.4953,4.1275 z m -1.2065,0 0.508,-4.1275 h 0.6096 l -0.4953,4.1275 z m -0.1905,-2.4384 v -0.6858 h 2.8956 v 0.6858 z m -0.127,1.2954 v -0.6858 h 2.8956 v 0.6858 z m -2.28599,1.143 0.508,-4.1275 h 0.6096 l -0.4953,4.1275 z m -1.2065,0 0.508,-4.1275 h 0.6096 l -0.4953,4.1275 z m -0.1905,-2.4384 v -0.6858 h 2.8956 v 0.6858 z m -0.127,1.2954 v -0.6858 h 2.8956 v 0.6858 z m -2.28599,1.143 0.508,-4.1275 h 0.6096 l -0.4953,4.1275 z m -1.206503,0 0.508,-4.1275 h 0.609603 l -0.495303,4.1275 z m -0.1905,-2.4384 v -0.6858 h 2.895603 v 0.6858 z m -0.127,1.2954 v -0.6858 h 2.895603 v 0.6858 z m -2.28599,1.143 0.508,-4.1275 h 0.6096 l -0.4953,4.1275 z m -1.2065,0 0.508,-4.1275 h 0.6096 l -0.4953,4.1275 z m -0.1905,-2.4384 v -0.6858 h 2.8956 v 0.6858 z m -0.127,1.2954 v -0.6858 h 2.8956 v 0.6858 z m -2.28599,1.143 0.508,-4.1275 h 0.6096 l -0.4953,4.1275 z m -1.2065,0 0.508,-4.1275 h 0.6096 l -0.4953,4.1275 z m -0.1905,-2.4384 v -0.6858 h 2.8956 v 0.6858 z m -0.127,1.2954 v -0.6858 h 2.8956 v 0.6858 z m -2.28599,1.143 0.508,-4.1275 h 0.6096 l -0.4953,4.1275 z m -1.2065,0 0.508,-4.1275 h 0.6096 l -0.4953,4.1275 z m -0.1905,-2.4384 v -0.6858 h 2.8956 v 0.6858 z m -0.127,1.2954 v -0.6858 h 2.8956 v 0.6858 z m -2.28599,1.143 0.508,-4.1275 h 0.6096 l -0.4953,4.1275 z m -1.2065,0 0.508,-4.1275 h 0.6096 l -0.4953,4.1275 z m -0.1905,-2.4384 v -0.6858 h 2.8956 v 0.6858 z m -0.127,1.2954 v -0.6858 h 2.8956 v 0.6858 z m -2.28599,1.143 0.508,-4.1275 h 0.6096 l -0.4953,4.1275 z m -1.2065,0 0.508,-4.1275 h 0.6096 l -0.4953,4.1275 z m -0.1905,-2.4384 v -0.6858 h 2.8956 v 0.6858 z m -0.127,1.2954 v -0.6858 h 2.8956 v 0.6858 z m -2.28599,1.143 0.508,-4.1275 h 0.6096 l -0.4953,4.1275 z m -1.2065,0 0.508,-4.1275 h 0.6096 l -0.4953,4.1275 z m -0.1905,-2.4384 v -0.6858 h 2.8956 v 0.6858 z m -0.127,1.2954 v -0.6858 h 2.8956 v 0.6858 z m -2.285993,1.143 0.508,-4.1275 h 0.6096 l -0.4953,4.1275 z m -1.2065,0 0.508,-4.1275 h 0.6096 l -0.4953,4.1275 z m -0.1905,-2.4384 v -0.6858 h 2.8956 v 0.6858 z m -0.127,1.2954 v -0.6858 h 2.8956 v 0.6858 z m -2.28599,1.143 0.508,-4.1275 h 0.6096 l -0.4953,4.1275 z m -1.2065,0 0.508,-4.1275 h 0.6096 l -0.4953,4.1275 z m -0.1905,-2.4384 v -0.6858 h 2.8956 v 0.6858 z m -0.127,1.2954 v -0.6858 h 2.8956 v 0.6858 z m -2.28599,1.143 0.508,-4.1275 h 0.6096 l -0.4953,4.1275 z m -1.2065,0 0.508,-4.1275 h 0.6096 l -0.4953,4.1275 z m -0.1905,-2.4384 v -0.6858 h 2.8956 v 0.6858 z m -0.127,1.2954 v -0.6858 h 2.8956 v 0.6858 z m -17.55135,1.2192 q -0.3683,0 -0.5969,-0.2413 -0.2286,-0.2413 -0.2286,-0.5842 0,-0.33655 0.2286,-0.57785 0.2286,-0.24765 0.5969,-0.24765 0.37465,0 0.5969,0.24765 0.2286,0.2413 0.2286,0.57785 0,0.3429 -0.2286,0.5842 -0.22225,0.2413 -0.5969,0.2413 z m 201.929476,-7.9375 q -0.3683,0 -0.5969,-0.2413 -0.2286,-0.2413 -0.2286,-0.5842 0,-0.33655 0.2286,-0.57785 0.2286,-0.24765 0.5969,-0.24765 0.37465,0 0.5969,0.24765 0.2286,0.2413 0.2286,0.57785 0,0.3429 -0.2286,0.5842 -0.22225,0.2413 -0.5969,0.2413 z m -60.95984,0 q -0.3683,0 -0.5969,-0.2413 -0.2286,-0.2413 -0.2286,-0.5842 0,-0.33655 0.2286,-0.57785 0.2286,-0.24765 0.5969,-0.24765 0.37465,0 0.5969,0.24765 0.2286,0.2413 0.2286,0.57785 0,0.3429 -0.2286,0.5842 -0.22225,0.2413 -0.5969,0.2413 z m -64.76983,0 q -0.3683,0 -0.5969,-0.2413 -0.2286,-0.2413 -0.2286,-0.5842 0,-0.33655 0.2286,-0.57785 0.2286,-0.24765 0.5969,-0.24765 0.37465,0 0.5969,0.24765 0.2286,0.2413 0.2286,0.57785 0,0.3429 -0.2286,0.5842 -0.22225,0.2413 -0.5969,0.2413 z m -26.644533,-0.0762 0.508,-4.1275 h 0.6096 l -0.4953,4.1275 z m -1.2065,0 0.508,-4.1275 h 0.6096 l -0.4953,4.1275 z m -0.1905,-2.4384 v -0.6858 h 2.8956 v 0.6858 z m -0.127,1.2954 v -0.6858 h 2.8956 v 0.6858 z m -2.28599,1.143 0.508,-4.1275 h 0.6096 l -0.4953,4.1275 z m -1.2065,0 0.508,-4.1275 h 0.6096 l -0.4953,4.1275 z m -0.1905,-2.4384 v -0.6858 h 2.8956 v 0.6858 z m -0.127,1.2954 v -0.6858 h 2.8956 v 0.6858 z m -2.28599,1.143 0.508,-4.1275 h 0.6096 l -0.4953,4.1275 z m -1.2065,0 0.508,-4.1275 h 0.6096 l -0.4953,4.1275 z m -0.1905,-2.4384 v -0.6858 h 2.8956 v 0.6858 z m -0.127,1.2954 v -0.6858 h 2.8956 v 0.6858 z m -2.28599,1.143 0.508,-4.1275 h 0.6096 l -0.4953,4.1275 z m -1.2065,0 0.508,-4.1275 h 0.6096 l -0.4953,4.1275 z m -0.1905,-2.4384 v -0.6858 h 2.8956 v 0.6858 z m -0.127,1.2954 v -0.6858 h 2.8956 v 0.6858 z m -2.28599,1.143 0.508,-4.1275 h 0.6096 l -0.4953,4.1275 z m -1.2065,0 0.508,-4.1275 h 0.6096 l -0.4953,4.1275 z m -0.1905,-2.4384 v -0.6858 h 2.8956 v 0.6858 z m -0.127,1.2954 v -0.6858 h 2.8956 v 0.6858 z m -2.28599,1.143 0.508,-4.1275 h 0.6096 l -0.4953,4.1275 z m -1.2065,0 0.508,-4.1275 h 0.6096 l -0.4953,4.1275 z m -0.1905,-2.4384 v -0.6858 h 2.8956 v 0.6858 z m -0.127,1.2954 v -0.6858 h 2.8956 v 0.6858 z m -2.285993,1.143 0.508,-4.1275 h 0.6096 l -0.4953,4.1275 z m -1.2065,0 0.508,-4.1275 h 0.6096 l -0.4953,4.1275 z m -0.1905,-2.4384 v -0.6858 h 2.8956 v 0.6858 z m -0.127,1.2954 v -0.6858 h 2.8956 v 0.6858 z m -32.791312,1.2192 q -0.3683,0 -0.5969,-0.2413 -0.2286,-0.2413 -0.2286,-0.5842 0,-0.33655 0.2286,-0.57785 0.2286,-0.24765 0.5969,-0.24765 0.37465,0 0.5969,0.24765 0.2286,0.2413 0.2286,0.57785 0,0.3429 -0.2286,0.5842 -0.22225,0.2413 -0.5969,0.2413 z m 99.059748,-7.9375 q -0.3683,0 -0.5969,-0.2413 -0.2286,-0.2413 -0.2286,-0.5842 0,-0.33655 0.2286,-0.57785 0.2286,-0.24765 0.5969,-0.24765 0.37465,0 0.5969,0.24765 0.2286,0.2413 0.2286,0.57785 0,0.3429 -0.2286,0.5842 -0.22225,0.2413 -0.5969,0.2413 z m -38.0745,-0.0762 0.508,-4.1275 h 0.6096 l -0.4953,4.1275 z m -1.206503,0 0.508,-4.1275 h 0.609603 l -0.495303,4.1275 z m -0.1905,-2.4384 v -0.6858 h 2.895603 v 0.6858 z m -0.127,1.2954 v -0.6858 h 2.895603 v 0.6858 z m -2.28599,1.143 0.508,-4.1275 h 0.6096 l -0.4953,4.1275 z m -1.2065,0 0.508,-4.1275 h 0.6096 l -0.4953,4.1275 z m -0.1905,-2.4384 v -0.6858 h 2.8956 v 0.6858 z m -0.127,1.2954 v -0.6858 h 2.8956 v 0.6858 z m -2.28599,1.143 0.508,-4.1275 h 0.6096 l -0.4953,4.1275 z m -1.2065,0 0.508,-4.1275 h 0.6096 l -0.4953,4.1275 z m -0.1905,-2.4384 v -0.6858 h 2.8956 v 0.6858 z m -0.127,1.2954 v -0.6858 h 2.8956 v 0.6858 z m -2.28599,1.143 0.508,-4.1275 h 0.6096 l -0.4953,4.1275 z m -1.2065,0 0.508,-4.1275 h 0.6096 l -0.4953,4.1275 z m -0.1905,-2.4384 v -0.6858 h 2.8956 v 0.6858 z m -0.127,1.2954 v -0.6858 h 2.8956 v 0.6858 z m -2.28599,1.143 0.508,-4.1275 h 0.6096 l -0.4953,4.1275 z m -1.2065,0 0.508,-4.1275 h 0.6096 l -0.4953,4.1275 z m -0.1905,-2.4384 v -0.6858 h 2.8956 v 0.6858 z m -0.127,1.2954 v -0.6858 h 2.8956 v 0.6858 z m -2.28599,1.143 0.508,-4.1275 h 0.6096 l -0.4953,4.1275 z m -1.2065,0 0.508,-4.1275 h 0.6096 l -0.4953,4.1275 z m -0.1905,-2.4384 v -0.6858 h 2.8956 v 0.6858 z m -0.127,1.2954 v -0.6858 h 2.8956 v 0.6858 z m -2.28599,1.143 0.508,-4.1275 h 0.6096 l -0.4953,4.1275 z m -1.2065,0 0.508,-4.1275 h 0.6096 l -0.4953,4.1275 z m -0.1905,-2.4384 v -0.6858 h 2.8956 v 0.6858 z m -0.127,1.2954 v -0.6858 h 2.8956 v 0.6858 z m -59.461246,1.2192 q -0.3683,0 -0.5969,-0.2413 -0.2286,-0.2413 -0.2286,-0.5842 0,-0.33655 0.2286,-0.57785 0.2286,-0.24765 0.5969,-0.24765 0.37465,0 0.5969,0.24765 0.2286,0.2413 0.2286,0.57785 0,0.3429 -0.2286,0.5842 -0.22225,0.2413 -0.5969,0.2413 z m 198.119479,-7.9375 q -0.3683,0 -0.5969,-0.2413 -0.2286,-0.2413 -0.2286,-0.5842 0,-0.33655 0.2286,-0.57785 0.2286,-0.24765 0.5969,-0.24765 0.37465,0 0.5969,0.24765 0.2286,0.2413 0.2286,0.57785 0,0.3429 -0.2286,0.5842 -0.22225,0.2413 -0.5969,0.2413 z m -45.71987,0 q -0.3683,0 -0.5969,-0.2413 -0.2286,-0.2413 -0.2286,-0.5842 0,-0.33655 0.2286,-0.57785 0.2286,-0.24765 0.5969,-0.24765 0.37465,0 0.5969,0.24765 0.2286,0.2413 0.2286,0.57785 0,0.3429 -0.2286,0.5842 -0.22225,0.2413 -0.5969,0.2413 z m -53.33986,0 q -0.3683,0 -0.5969,-0.2413 -0.2286,-0.2413 -0.2286,-0.5842 0,-0.33655 0.2286,-0.57785 0.2286,-0.24765 0.5969,-0.24765 0.37465,0 0.5969,0.24765 0.2286,0.2413 0.2286,0.57785 0,0.3429 -0.2286,0.5842 -0.22225,0.2413 -0.5969,0.2413 z m -11.40457,-0.0762 0.508,-4.1275 h 0.6096 l -0.4953,4.1275 z m -1.2065,0 0.508,-4.1275 h 0.6096 l -0.4953,4.1275 z m -0.1905,-2.4384 v -0.6858 h 2.8956 v 0.6858 z m -0.127,1.2954 v -0.6858 h 2.8956 v 0.6858 z m -2.28599,1.143 0.508,-4.1275 h 0.6096 l -0.4953,4.1275 z m -1.206503,0 0.508,-4.1275 h 0.609603 l -0.495303,4.1275 z m -0.1905,-2.4384 v -0.6858 h 2.895603 v 0.6858 z m -0.127,1.2954 v -0.6858 h 2.895603 v 0.6858 z m -2.28599,1.143 0.508,-4.1275 h 0.6096 l -0.4953,4.1275 z m -1.2065,0 0.508,-4.1275 h 0.6096 l -0.4953,4.1275 z m -0.1905,-2.4384 v -0.6858 h 2.8956 v 0.6858 z m -0.127,1.2954 v -0.6858 h 2.8956 v 0.6858 z m -2.28599,1.143 0.508,-4.1275 h 0.6096 l -0.4953,4.1275 z m -1.2065,0 0.508,-4.1275 h 0.6096 l -0.4953,4.1275 z m -0.1905,-2.4384 v -0.6858 h 2.8956 v 0.6858 z m -0.127,1.2954 v -0.6858 h 2.8956 v 0.6858 z m -2.28599,1.143 0.508,-4.1275 h 0.6096 l -0.4953,4.1275 z m -1.2065,0 0.508,-4.1275 h 0.6096 l -0.4953,4.1275 z m -0.1905,-2.4384 v -0.6858 h 2.8956 v 0.6858 z m -0.127,1.2954 v -0.6858 h 2.8956 v 0.6858 z m -2.28599,1.143 0.508,-4.1275 h 0.6096 l -0.4953,4.1275 z m -1.2065,0 0.508,-4.1275 h 0.6096 l -0.4953,4.1275 z m -0.1905,-2.4384 v -0.6858 h 2.8956 v 0.6858 z m -0.127,1.2954 v -0.6858 h 2.8956 v 0.6858 z m -2.28599,1.143 0.508,-4.1275 h 0.6096 l -0.4953,4.1275 z m -1.2065,0 0.508,-4.1275 h 0.6096 l -0.4953,4.1275 z m -0.1905,-2.4384 v -0.6858 h 2.8956 v 0.6858 z m -0.127,1.2954 v -0.6858 h 2.8956 v 0.6858 z m -2.28599,1.143 0.508,-4.1275 h 0.6096 l -0.4953,4.1275 z m -1.2065,0 0.508,-4.1275 h 0.6096 l -0.4953,4.1275 z m -0.1905,-2.4384 v -0.6858 h 2.8956 v 0.6858 z m -0.127,1.2954 v -0.6858 h 2.8956 v 0.6858 z m -2.285993,1.143 0.508,-4.1275 h 0.6096 l -0.4953,4.1275 z m -1.2065,0 0.508,-4.1275 h 0.6096 l -0.4953,4.1275 z m -0.1905,-2.4384 v -0.6858 h 2.8956 v 0.6858 z m -0.127,1.2954 v -0.6858 h 2.8956 v 0.6858 z m -2.28599,1.143 0.508,-4.1275 h 0.6096 l -0.4953,4.1275 z m -1.2065,0 0.508,-4.1275 h 0.6096 l -0.4953,4.1275 z m -0.1905,-2.4384 v -0.6858 h 2.8956 v 0.6858 z m -0.127,1.2954 v -0.6858 h 2.8956 v 0.6858 z m -2.28599,1.143 0.508,-4.1275 h 0.6096 l -0.4953,4.1275 z m -1.2065,0 0.508,-4.1275 h 0.6096 l -0.4953,4.1275 z m -0.1905,-2.4384 v -0.6858 h 2.8956 v 0.6858 z m -0.127,1.2954 v -0.6858 h 2.8956 v 0.6858 z m -2.28599,1.143 0.508,-4.1275 h 0.6096 l -0.4953,4.1275 z m -1.2065,0 0.508,-4.1275 h 0.6096 l -0.4953,4.1275 z m -0.1905,-2.4384 v -0.6858 h 2.8956 v 0.6858 z m -0.127,1.2954 v -0.6858 h 2.8956 v 0.6858 z m -2.28599,1.143 0.508,-4.1275 h 0.6096 l -0.4953,4.1275 z m -1.2065,0 0.508,-4.1275 h 0.6096 l -0.4953,4.1275 z m -0.1905,-2.4384 v -0.6858 h 2.8956 v 0.6858 z m -0.127,1.2954 v -0.6858 h 2.8956 v 0.6858 z m -2.28599,1.143 0.508,-4.1275 h 0.6096 l -0.4953,4.1275 z m -1.2065,0 0.508,-4.1275 h 0.6096 l -0.4953,4.1275 z m -0.1905,-2.4384 v -0.6858 h 2.8956 v 0.6858 z m -0.127,1.2954 v -0.6858 h 2.8956 v 0.6858 z m -2.28599,1.143 0.508,-4.1275 h 0.6096 l -0.4953,4.1275 z m -1.2065,0 0.508,-4.1275 h 0.6096 l -0.4953,4.1275 z m -0.1905,-2.4384 v -0.6858 h 2.8956 v 0.6858 z m -0.127,1.2954 v -0.6858 h 2.8956 v 0.6858 z m -13.741362,1.2192 q -0.3683,0 -0.5969,-0.2413 -0.2286,-0.2413 -0.2286,-0.5842 0,-0.33655 0.2286,-0.57785 0.2286,-0.24765 0.5969,-0.24765 0.37465,0 0.5969,0.24765 0.2286,0.2413 0.2286,0.57785 0,0.3429 -0.2286,0.5842 -0.22225,0.2413 -0.5969,0.2413 z M 237.26959,97.436516 q -0.3683,0 -0.5969,-0.2413 -0.2286,-0.2413 -0.2286,-0.5842 0,-0.33655 0.2286,-0.57785 0.2286,-0.24765 0.5969,-0.24765 0.37465,0 0.5969,0.24765 0.2286,0.2413 0.2286,0.57785 0,0.3429 -0.2286,0.5842 -0.22225,0.2413 -0.5969,0.2413 z m -38.09989,0 q -0.3683,0 -0.5969,-0.2413 -0.2286,-0.2413 -0.2286,-0.5842 0,-0.33655 0.2286,-0.57785 0.2286,-0.24765 0.5969,-0.24765 0.37465,0 0.5969,0.24765 0.2286,0.2413 0.2286,0.57785 0,0.3429 -0.2286,0.5842 -0.22225,0.2413 -0.5969,0.2413 z m -68.57982,0 q -0.3683,0 -0.5969,-0.2413 -0.2286,-0.2413 -0.2286,-0.5842 0,-0.33655 0.2286,-0.57785 0.2286,-0.24765 0.5969,-0.24765 0.37465,0 0.5969,0.24765 0.2286,0.2413 0.2286,0.57785 0,0.3429 -0.2286,0.5842 -0.22225,0.2413 -0.5969,0.2413 z m -26.64453,-0.0762 0.508,-4.1275 h 0.6096 l -0.4953,4.1275 z m -1.2065,0 0.508,-4.1275 h 0.6096 l -0.4953,4.1275 z m -0.1905,-2.4384 v -0.6858 h 2.8956 v 0.6858 z m -0.127,1.2954 v -0.6858 h 2.8956 v 0.6858 z m -2.28599,1.143 0.508,-4.1275 h 0.6096 l -0.4953,4.1275 z m -1.206503,0 0.508,-4.1275 h 0.609603 l -0.495303,4.1275 z m -0.1905,-2.4384 v -0.6858 h 2.895603 v 0.6858 z m -0.127,1.2954 v -0.6858 h 2.895603 v 0.6858 z m -2.28599,1.143 0.508,-4.1275 h 0.6096 l -0.4953,4.1275 z m -1.2065,0 0.508,-4.1275 h 0.6096 l -0.4953,4.1275 z m -0.1905,-2.4384 v -0.6858 h 2.8956 v 0.6858 z m -0.127,1.2954 v -0.6858 h 2.8956 v 0.6858 z m -2.28599,1.143 0.508,-4.1275 h 0.6096 l -0.4953,4.1275 z m -1.2065,0 0.508,-4.1275 h 0.6096 l -0.4953,4.1275 z m -0.1905,-2.4384 v -0.6858 h 2.8956 v 0.6858 z m -0.127,1.2954 v -0.6858 h 2.8956 v 0.6858 z m -2.28599,1.143 0.508,-4.1275 h 0.6096 l -0.4953,4.1275 z m -1.2065,0 0.508,-4.1275 h 0.6096 l -0.4953,4.1275 z m -0.1905,-2.4384 v -0.6858 h 2.8956 v 0.6858 z m -0.127,1.2954 v -0.6858 h 2.8956 v 0.6858 z m -2.28599,1.143 0.508,-4.1275 h 0.6096 l -0.4953,4.1275 z m -1.2065,0 0.508,-4.1275 h 0.6096 l -0.4953,4.1275 z m -0.1905,-2.4384 v -0.6858 h 2.8956 v 0.6858 z m -0.127,1.2954 v -0.6858 h 2.8956 v 0.6858 z m -2.28599,1.143 0.508,-4.1275 h 0.6096 l -0.4953,4.1275 z m -1.2065,0 0.508,-4.1275 h 0.6096 l -0.4953,4.1275 z m -0.1905,-2.4384 v -0.6858 h 2.8956 v 0.6858 z m -0.127,1.2954 v -0.6858 h 2.8956 v 0.6858 z m -2.28599,1.143 0.508,-4.1275 h 0.6096 l -0.4953,4.1275 z m -1.2065,0 0.508,-4.1275 h 0.6096 l -0.4953,4.1275 z m -0.1905,-2.4384 v -0.6858 h 2.8956 v 0.6858 z m -0.127,1.2954 v -0.6858 h 2.8956 v 0.6858 z m -2.285993,1.143 0.508,-4.1275 h 0.6096 l -0.4953,4.1275 z m -1.2065,0 0.508,-4.1275 h 0.6096 l -0.4953,4.1275 z m -0.1905,-2.4384 v -0.6858 h 2.8956 v 0.6858 z m -0.127,1.2954 v -0.6858 h 2.8956 v 0.6858 z m -2.28599,1.143 0.508,-4.1275 h 0.6096 l -0.4953,4.1275 z m -1.2065,0 0.508,-4.1275 h 0.6096 l -0.4953,4.1275 z m -0.1905,-2.4384 v -0.6858 h 2.8956 v 0.6858 z m -0.127,1.2954 v -0.6858 h 2.8956 v 0.6858 z m -2.28599,1.143 0.508,-4.1275 h 0.6096 l -0.4953,4.1275 z m -1.2065,0 0.508,-4.1275 h 0.6096 l -0.4953,4.1275 z m -0.1905,-2.4384 v -0.6858 h 2.8956 v 0.6858 z m -0.127,1.2954 v -0.6858 h 2.8956 v 0.6858 z m -2.28599,1.143 0.508,-4.1275 h 0.6096 l -0.4953,4.1275 z m -1.2065,0 0.508,-4.1275 h 0.6096 l -0.4953,4.1275 z m -0.1905,-2.4384 v -0.6858 h 2.8956 v 0.6858 z m -0.127,1.2954 v -0.6858 h 2.8956 v 0.6858 z m -2.28599,1.143 0.508,-4.1275 h 0.6096 l -0.4953,4.1275 z m -1.2065,0 0.508,-4.1275 h 0.6096 l -0.4953,4.1275 z m -0.1905,-2.4384 v -0.6858 h 2.8956 v 0.6858 z m -0.127,1.2954 v -0.6858 h 2.8956 v 0.6858 z m -2.28599,1.143 0.508,-4.1275 h 0.6096 l -0.4953,4.1275 z m -1.2065,0 0.508,-4.1275 h 0.6096 l -0.4953,4.1275 z m -0.1905,-2.4384 v -0.6858 h 2.8956 v 0.6858 z m -0.127,1.2954 v -0.6858 h 2.8956 v 0.6858 z m -32.791313,1.2192 q -0.3683,0 -0.5969,-0.2413 -0.2286,-0.2413 -0.2286,-0.5842 0,-0.33655 0.2286,-0.57785 0.2286,-0.24765 0.5969,-0.24765 0.37465,0 0.5969,0.24765 0.2286,0.2413 0.2286,0.57785 0,0.3429 -0.2286,0.5842 -0.22225,0.2413 -0.5969,0.2413 z M 168.68978,89.499017 q -0.3683,0 -0.5969,-0.2413 -0.2286,-0.2413 -0.2286,-0.5842 0,-0.33655 0.2286,-0.57785 0.2286,-0.24765 0.5969,-0.24765 0.37465,0 0.5969,0.24765 0.2286,0.2413 0.2286,0.57785 0,0.3429 -0.2286,0.5842 -0.22225,0.2413 -0.5969,0.2413 z m -30.47992,0 q -0.3683,0 -0.5969,-0.2413 -0.2286,-0.2413 -0.2286,-0.5842 0,-0.33655 0.2286,-0.57785 0.2286,-0.24765 0.5969,-0.24765 0.37465,0 0.5969,0.24765 0.2286,0.2413 0.2286,0.57785 0,0.3429 -0.2286,0.5842 -0.22225,0.2413 -0.5969,0.2413 z m -38.0745,-0.0762 0.508,-4.1275 h 0.6096 l -0.4953,4.1275 z m -1.206503,0 0.508,-4.1275 h 0.609603 l -0.495303,4.1275 z m -0.1905,-2.4384 v -0.6858 h 2.895603 v 0.6858 z m -0.127,1.2954 v -0.6858 h 2.895603 v 0.6858 z m -2.28599,1.143 0.508,-4.1275 h 0.6096 l -0.4953,4.1275 z m -1.2065,0 0.508,-4.1275 h 0.6096 l -0.4953,4.1275 z m -0.1905,-2.4384 v -0.6858 h 2.8956 v 0.6858 z m -0.127,1.2954 v -0.6858 h 2.8956 v 0.6858 z m -2.28599,1.143 0.508,-4.1275 h 0.6096 l -0.4953,4.1275 z m -1.2065,0 0.508,-4.1275 h 0.6096 l -0.4953,4.1275 z m -0.1905,-2.4384 v -0.6858 h 2.8956 v 0.6858 z m -0.127,1.2954 v -0.6858 h 2.8956 v 0.6858 z m -2.28599,1.143 0.508,-4.1275 h 0.6096 l -0.4953,4.1275 z m -1.2065,0 0.508,-4.1275 h 0.6096 l -0.4953,4.1275 z m -0.1905,-2.4384 v -0.6858 h 2.8956 v 0.6858 z m -0.127,1.2954 v -0.6858 h 2.8956 v 0.6858 z m -2.28599,1.143 0.508,-4.1275 h 0.6096 l -0.4953,4.1275 z m -1.2065,0 0.508,-4.1275 h 0.6096 l -0.4953,4.1275 z m -0.1905,-2.4384 v -0.6858 h 2.8956 v 0.6858 z m -0.127,1.2954 v -0.6858 h 2.8956 v 0.6858 z m -2.28599,1.143 0.508,-4.1275 h 0.6096 l -0.4953,4.1275 z m -1.2065,0 0.508,-4.1275 h 0.6096 l -0.4953,4.1275 z m -0.1905,-2.4384 v -0.6858 h 2.8956 v 0.6858 z m -0.127,1.2954 v -0.6858 h 2.8956 v 0.6858 z m -2.28599,1.143 0.508,-4.1275 h 0.6096 l -0.4953,4.1275 z m -1.2065,0 0.508,-4.1275 h 0.6096 l -0.4953,4.1275 z m -0.1905,-2.4384 v -0.6858 h 2.8956 v 0.6858 z m -0.127,1.2954 v -0.6858 h 2.8956 v 0.6858 z m -2.285993,1.143 0.508,-4.1275 h 0.6096 l -0.4953,4.1275 z m -1.2065,0 0.508,-4.1275 h 0.6096 l -0.4953,4.1275 z m -0.1905,-2.4384 v -0.6858 h 2.8956 v 0.6858 z m -0.127,1.2954 v -0.6858 h 2.8956 v 0.6858 z m 157.708186,-6.7183 q -0.3683,0 -0.5969,-0.2413 -0.2286,-0.2413 -0.2286,-0.5842 0,-0.33655 0.2286,-0.57785 0.2286,-0.24765 0.5969,-0.24765 0.37465,0 0.5969,0.24765 0.2286,0.2413 0.2286,0.57785 0,0.3429 -0.2286,0.5842 -0.22225,0.2413 -0.5969,0.2413 z m -15.23996,0 q -0.3683,0 -0.5969,-0.2413 -0.2286,-0.2413 -0.2286,-0.5842 0,-0.33655 0.2286,-0.57785 0.2286,-0.24765 0.5969,-0.24765 0.37465,0 0.5969,0.24765 0.2286,0.2413 0.2286,0.57785 0,0.3429 -0.2286,0.5842 -0.22225,0.2413 -0.5969,0.2413 z m -30.47991,0 q -0.3683,0 -0.5969,-0.2413 -0.2286,-0.2413 -0.2286,-0.5842 0,-0.33655 0.2286,-0.57785 0.2286,-0.24765 0.5969,-0.24765 0.37465,0 0.5969,0.24765 0.2286,0.2413 0.2286,0.57785 0,0.3429 -0.2286,0.5842 -0.22225,0.2413 -0.5969,0.2413 z m -38.0999,0 q -0.3683,0 -0.5969,-0.2413 -0.2286,-0.2413 -0.2286,-0.5842 0,-0.33655 0.2286,-0.57785 0.2286,-0.24765 0.5969,-0.24765 0.37465,0 0.5969,0.24765 0.2286,0.2413 0.2286,0.57785 0,0.3429 -0.2286,0.5842 -0.22225,0.2413 -0.5969,0.2413 z m -34.28991,0 q -0.3683,0 -0.5969,-0.2413 -0.2286,-0.2413 -0.2286,-0.5842 0,-0.33655 0.2286,-0.57785 0.2286,-0.24765 0.5969,-0.24765 0.37465,0 0.5969,0.24765 0.2286,0.2413 0.2286,0.57785 0,0.3429 -0.2286,0.5842 -0.22225,0.2413 -0.5969,0.2413 z m -15.214563,-0.0762 0.508,-4.1275 h 0.6096 l -0.4953,4.1275 z m -1.2065,0 0.508,-4.1275 h 0.6096 l -0.4953,4.1275 z m -0.1905,-2.4384 v -0.6858 h 2.8956 v 0.6858 z m -0.127,1.2954 v -0.6858 h 2.8956 v 0.6858 z m -2.28599,1.143 0.508,-4.1275 h 0.6096 l -0.4953,4.1275 z m -1.2065,0 0.508,-4.1275 h 0.6096 l -0.4953,4.1275 z m -0.1905,-2.4384 v -0.6858 h 2.8956 v 0.6858 z m -0.127,1.2954 v -0.6858 h 2.8956 v 0.6858 z m -2.28599,1.143 0.508,-4.1275 h 0.6096 l -0.4953,4.1275 z m -1.2065,0 0.508,-4.1275 h 0.6096 l -0.4953,4.1275 z m -0.1905,-2.4384 v -0.6858 h 2.8956 v 0.6858 z m -0.127,1.2954 v -0.6858 h 2.8956 v 0.6858 z m -2.28599,1.143 0.508,-4.1275 h 0.6096 l -0.4953,4.1275 z m -1.2065,0 0.508,-4.1275 h 0.6096 l -0.4953,4.1275 z m -0.1905,-2.4384 v -0.6858 h 2.8956 v 0.6858 z m -0.127,1.2954 v -0.6858 h 2.8956 v 0.6858 z m -2.28599,1.143 0.508,-4.1275 h 0.6096 l -0.4953,4.1275 z m -1.2065,0 0.508,-4.1275 h 0.6096 l -0.4953,4.1275 z m -0.1905,-2.4384 v -0.6858 h 2.8956 v 0.6858 z m -0.127,1.2954 v -0.6858 h 2.8956 v 0.6858 z m -2.28599,1.143 0.508,-4.1275 h 0.6096 l -0.4953,4.1275 z m -1.2065,0 0.508,-4.1275 h 0.6096 l -0.4953,4.1275 z m -0.1905,-2.4384 v -0.6858 h 2.8956 v 0.6858 z m -0.127,1.2954 v -0.6858 h 2.8956 v 0.6858 z m -21.361343,1.2192 q -0.3683,0 -0.5969,-0.2413 -0.2286,-0.2413 -0.2286,-0.5842 0,-0.33655 0.2286,-0.57785 0.2286,-0.24765 0.5969,-0.24765 0.37465,0 0.5969,0.24765 0.2286,0.2413 0.2286,0.57785 0,0.3429 -0.2286,0.5842 -0.22225,0.2413 -0.5969,0.2413 z m -22.859941,0 q -0.3683,0 -0.5969,-0.2413 -0.2286,-0.2413 -0.2286,-0.5842 0,-0.33655 0.2286,-0.57785 0.2286,-0.24765 0.5969,-0.24765 0.37465,0 0.5969,0.24765 0.2286,0.2413 0.2286,0.57785 0,0.3429 -0.2286,0.5842 -0.22225,0.2413 -0.5969,0.2413 z m 7.619979,-7.9375 q -0.3683,0 -0.5969,-0.2413 -0.2286,-0.2413 -0.2286,-0.5842 0,-0.33655 0.2286,-0.57785 0.2286,-0.24765 0.5969,-0.24765 0.37465,0 0.5969,0.24765 0.2286,0.2413 0.2286,0.57785 0,0.3429 -0.2286,0.5842 -0.22225,0.2413 -0.5969,0.2413 z m 171.449558,-7.9375 q -0.3683,0 -0.5969,-0.2413 -0.2286,-0.2413 -0.2286,-0.5842 0,-0.33655 0.2286,-0.57785 0.2286,-0.24765 0.5969,-0.24765 0.37465,0 0.5969,0.24765 0.2286,0.2413 0.2286,0.57785 0,0.3429 -0.2286,0.5842 -0.22225,0.2413 -0.5969,0.2413 z m -11.42997,0 q -0.3683,0 -0.5969,-0.2413 -0.2286,-0.2413 -0.2286,-0.5842 0,-0.33655 0.2286,-0.57785 0.2286,-0.24765 0.5969,-0.24765 0.37465,0 0.5969,0.24765 0.2286,0.2413 0.2286,0.57785 0,0.3429 -0.2286,0.5842 -0.22225,0.2413 -0.5969,0.2413 z m -26.66993,0 q -0.3683,0 -0.5969,-0.2413 -0.2286,-0.2413 -0.2286,-0.5842 0,-0.33655 0.2286,-0.57785 0.2286,-0.24765 0.5969,-0.24765 0.37465,0 0.5969,0.24765 0.2286,0.2413 0.2286,0.57785 0,0.3429 -0.2286,0.5842 -0.22225,0.2413 -0.5969,0.2413 z m -34.28991,0 q -0.3683,0 -0.5969,-0.2413 -0.2286,-0.2413 -0.2286,-0.5842 0,-0.33655 0.2286,-0.57785 0.2286,-0.24765 0.5969,-0.24765 0.37465,0 0.5969,0.24765 0.2286,0.2413 0.2286,0.57785 0,0.3429 -0.2286,0.5842 -0.22225,0.2413 -0.5969,0.2413 z m -45.719883,0 q -0.3683,0 -0.5969,-0.2413 -0.2286,-0.2413 -0.2286,-0.5842 0,-0.33655 0.2286,-0.57785 0.2286,-0.24765 0.5969,-0.24765 0.37465,0 0.5969,0.24765 0.2286,0.2413 0.2286,0.57785 0,0.3429 -0.2286,0.5842 -0.22225,0.2413 -0.5969,0.2413 z m -30.479923,0 q -0.3683,0 -0.5969,-0.2413 -0.2286,-0.2413 -0.2286,-0.5842 0,-0.33655 0.2286,-0.57785 0.2286,-0.24765 0.5969,-0.24765 0.37465,0 0.5969,0.24765 0.2286,0.2413 0.2286,0.57785 0,0.3429 -0.2286,0.5842 -0.22225,0.2413 -0.5969,0.2413 z m 95.249756,-7.9375 q -0.3683,0 -0.5969,-0.2413 -0.2286,-0.2413 -0.2286,-0.5842 0,-0.33655 0.2286,-0.57785 0.2286,-0.24765 0.5969,-0.24765 0.37465,0 0.5969,0.24765 0.2286,0.2413 0.2286,0.57785 0,0.3429 -0.2286,0.5842 -0.22225,0.2413 -0.5969,0.2413 z m -38.0999,0 q -0.3683,0 -0.5969,-0.2413 -0.2286,-0.2413 -0.2286,-0.5842 0,-0.33655 0.2286,-0.57785 0.2286,-0.24765 0.5969,-0.24765 0.37465,0 0.5969,0.24765 0.2286,0.2413 0.2286,0.57785 0,0.3429 -0.2286,0.5842 -0.22225,0.2413 -0.5969,0.2413 z m -60.959846,0 q -0.3683,0 -0.5969,-0.2413 -0.2286,-0.2413 -0.2286,-0.5842 0,-0.33655 0.2286,-0.57785 0.2286,-0.24765 0.5969,-0.24765 0.37465,0 0.5969,0.24765 0.2286,0.2413 0.2286,0.57785 0,0.3429 -0.2286,0.5842 -0.22225,0.2413 -0.5969,0.2413 z m 121.919686,-7.9375 q -0.3683,0 -0.5969,-0.2413 -0.2286,-0.2413 -0.2286,-0.5842 0,-0.33655 0.2286,-0.57785 0.2286,-0.24765 0.5969,-0.24765 0.37465,0 0.5969,0.24765 0.2286,0.2413 0.2286,0.57785 0,0.3429 -0.2286,0.5842 -0.22225,0.2413 -0.5969,0.2413 z m -26.66993,0 q -0.3683,0 -0.5969,-0.2413 -0.2286,-0.2413 -0.2286,-0.5842 0,-0.33655 0.2286,-0.57785 0.2286,-0.24765 0.5969,-0.24765 0.37465,0 0.5969,0.24765 0.2286,0.2413 0.2286,0.57785 0,0.3429 -0.2286,0.5842 -0.22225,0.2413 -0.5969,0.2413 z m -53.33986,0 q -0.368303,0 -0.596903,-0.2413 -0.2286,-0.2413 -0.2286,-0.5842 0,-0.33655 0.2286,-0.57785 0.2286,-0.24765 0.596903,-0.24765 0.37465,0 0.5969,0.24765 0.2286,0.2413 0.2286,0.57785 0,0.3429 -0.2286,0.5842 -0.22225,0.2413 -0.5969,0.2413 z m -22.859943,0 q -0.3683,0 -0.5969,-0.2413 -0.2286,-0.2413 -0.2286,-0.5842 0,-0.33655 0.2286,-0.57785 0.2286,-0.24765 0.5969,-0.24765 0.37465,0 0.5969,0.24765 0.2286,0.2413 0.2286,0.57785 0,0.3429 -0.2286,0.5842 -0.22225,0.2413 -0.5969,0.2413 z m 80.009793,-7.9375 q -0.3683,0 -0.5969,-0.2413 -0.2286,-0.2413 -0.2286,-0.5842 0,-0.33655 0.2286,-0.57785 0.2286,-0.24765 0.5969,-0.24765 0.37465,0 0.5969,0.24765 0.2286,0.2413 0.2286,0.57785 0,0.3429 -0.2286,0.5842 -0.22225,0.2413 -0.5969,0.2413 z m -19.04995,0 q -0.3683,0 -0.5969,-0.2413 -0.2286,-0.2413 -0.2286,-0.5842 0,-0.33655 0.2286,-0.57785 0.2286,-0.24765 0.5969,-0.24765 0.37465,0 0.5969,0.24765 0.2286,0.2413 0.2286,0.57785 0,0.3429 -0.2286,0.5842 -0.22225,0.2413 -0.5969,0.2413 z m -34.28991,0 q -0.3683,0 -0.5969,-0.2413 -0.2286,-0.2413 -0.2286,-0.5842 0,-0.33655 0.2286,-0.57785 0.2286,-0.24765 0.5969,-0.24765 0.37465,0 0.5969,0.24765 0.2286,0.2413 0.2286,0.57785 0,0.3429 -0.2286,0.5842 -0.22225,0.2413 -0.5969,0.2413 z" />
  </g>
</svg>
