<?xml version="1.0" encoding="UTF-8" standalone="no"?>
<!-- Created with Inkscape (http://www.inkscape.org/) -->

<svg
   width="352"
   height="224"
   viewBox="0 0 93.133332 59.266669"
   version="1.1"
   id="svg5"
   inkscape:version="1.1 (c68e22c387, 2021-05-23)"
   sodipodi:docname="Icons v49.svg"
   inkscape:export-filename="C:\Users\VIAPRIES\Documents\2021 Semester 2 Github\Clubs\FUCS Branding\2022 In Progress\Icons v7.png"
   inkscape:export-xdpi="768.289"
   inkscape:export-ydpi="768.289"
   xmlns:inkscape="http://www.inkscape.org/namespaces/inkscape"
   xmlns:sodipodi="http://sodipodi.sourceforge.net/DTD/sodipodi-0.dtd"
   xmlns:xlink="http://www.w3.org/1999/xlink"
   xmlns="http://www.w3.org/2000/svg"
   xmlns:svg="http://www.w3.org/2000/svg">
  <sodipodi:namedview
     id="namedview7"
     pagecolor="#ffffff"
     bordercolor="#666666"
     borderopacity="1.0"
     inkscape:pageshadow="2"
     inkscape:pageopacity="0.0"
     inkscape:pagecheckerboard="0"
     inkscape:document-units="px"
     showgrid="true"
     units="px"
     inkscape:zoom="16"
     inkscape:cx="329.28125"
     inkscape:cy="36.21875"
     inkscape:window-width="1920"
     inkscape:window-height="1001"
     inkscape:window-x="-9"
     inkscape:window-y="-9"
     inkscape:window-maximized="1"
     inkscape:current-layer="layer1"
     inkscape:object-paths="false"
     inkscape:snap-intersection-paths="true"
     inkscape:snap-midpoints="false"
     inkscape:snap-center="true"
     inkscape:snap-others="true"
     inkscape:snap-global="true"
     inkscape:snap-object-midpoints="false"
     inkscape:snap-smooth-nodes="true"
     inkscape:snap-bbox="true"
     inkscape:bbox-paths="false"
     inkscape:bbox-nodes="false"
     inkscape:snap-bbox-edge-midpoints="false"
     inkscape:snap-bbox-midpoints="true"
     inkscape:snap-to-guides="false"
     inkscape:snap-grids="false"
     inkscape:snap-nodes="false"
     inkscape:snap-text-baseline="false"
     inkscape:object-nodes="true">
    <inkscape:grid
       type="xygrid"
       id="grid4513"
       spacingx="8.4666668"
       spacingy="8.4666668"
       empspacing="1"
       dotted="false"
       color="#3f3fff"
       opacity="0.0627451"
       enabled="true"
       visible="false" />
    <inkscape:grid
       type="axonomgrid"
       id="grid34136"
       enabled="false"
       units="px"
       spacingy="0.26458333" />
  </sodipodi:namedview>
  <defs
     id="defs2">
    <linearGradient
       id="Icons"
       inkscape:swatch="solid">
      <stop
         style="stop-color:#000000;stop-opacity:1;"
         offset="0"
         id="stop1069" />
    </linearGradient>
    <marker
       style="overflow:visible"
       id="Torso"
       refX="0"
       refY="0"
       orient="auto"
       inkscape:stockid="Torso"
       inkscape:isstock="true">
      <g
         transform="scale(0.7)"
         id="g6337">
        <path
           style="fill:none;fill-opacity:0.75;fill-rule:evenodd;stroke:context-stroke;stroke-width:1.25"
           d="m -4.7792281,-3.239542 c 2.350374,0.3659393 5.30026732,1.9375477 5.03715532,3.62748546 C -0.00518779,2.0778819 -2.2126741,2.6176539 -4.5630471,2.2517169 -6.9134221,1.8857769 -8.521035,0.75201414 -8.257922,-0.93792336 -7.994809,-2.6278615 -7.1296041,-3.6054813 -4.7792281,-3.239542 Z"
           id="path6323" />
        <path
           style="fill:none;fill-opacity:0.75;fill-rule:evenodd;stroke:context-stroke;stroke-width:1pt"
           d="M 4.4598789,0.08866574 C -2.5564571,-4.378332 5.2248769,-3.9061806 -0.84829578,-8.7197331"
           id="path6325" />
        <path
           style="fill:none;fill-opacity:0.75;fill-rule:evenodd;stroke:context-stroke;stroke-width:1pt"
           d="M 4.9298719,0.05752074 C -1.3872731,1.7494689 1.8027579,5.4782079 -4.9448731,7.5462725"
           id="path6327" />
        <rect
           style="fill:context-stroke;fill-rule:evenodd;stroke-width:1pt"
           width="2.6366582"
           height="2.7608147"
           x="-10.391706"
           y="-1.7408575"
           transform="matrix(0.527536,-0.849533,0.887668,0.460484,0,0)"
           id="rect6329" />
        <rect
           style="fill:context-stroke;fill-rule:evenodd;stroke-width:1pt"
           width="2.7327356"
           height="2.8614161"
           x="4.9587269"
           y="-7.9629307"
           transform="matrix(0.671205,-0.741272,0.790802,0.612072,0,0)"
           id="rect6331" />
        <path
           style="fill:#ff0000;fill-opacity:0.75;fill-rule:evenodd;stroke:context-stroke;stroke-width:1pt"
           d="m 16.779951,-28.685045 a 0.60731727,0.60731727 0 1 0 -1.214634,0 0.60731727,0.60731727 0 1 0 1.214634,0 z"
           transform="matrix(0,-1.109517,1.109517,0,25.96648,19.71619)"
           id="path6333" />
        <path
           style="fill:#ff0000;fill-opacity:0.75;fill-rule:evenodd;stroke:context-stroke;stroke-width:1pt"
           d="m 16.779951,-28.685045 a 0.60731727,0.60731727 0 1 0 -1.214634,0 0.60731727,0.60731727 0 1 0 1.214634,0 z"
           transform="matrix(0,-1.109517,1.109517,0,26.8245,16.99126)"
           id="path6335" />
      </g>
    </marker>
    <marker
       style="overflow:visible"
       id="EmptyTriangleInL"
       refX="0"
       refY="0"
       orient="auto"
       inkscape:stockid="EmptyTriangleInL"
       inkscape:isstock="true">
      <path
         transform="matrix(-0.8,0,0,-0.8,4.8,0)"
         style="fill:context-fill;fill-rule:evenodd;stroke:context-stroke;stroke-width:1pt"
         d="M 5.77,0 -2.88,5 V -5 Z"
         id="path6262" />
    </marker>
    <marker
       style="overflow:visible"
       id="EmptyTriangleOutL"
       refX="0"
       refY="0"
       orient="auto"
       inkscape:stockid="EmptyTriangleOutL"
       inkscape:isstock="true">
      <path
         transform="matrix(0.8,0,0,0.8,-4.8,0)"
         style="fill:context-fill;fill-rule:evenodd;stroke:context-stroke;stroke-width:1pt"
         d="M 5.77,0 -2.88,5 V -5 Z"
         id="path6271" />
    </marker>
    <marker
       style="overflow:visible"
       id="Tail"
       refX="0"
       refY="0"
       orient="auto"
       inkscape:stockid="Tail"
       inkscape:isstock="true">
      <g
         transform="scale(-1.2)"
         id="g6159">
        <path
           style="fill:none;fill-rule:evenodd;stroke:context-stroke;stroke-width:0.8;stroke-linecap:round"
           d="M -3.8048674,-3.9585227 0.54352094,0"
           id="path6147" />
        <path
           style="fill:none;fill-rule:evenodd;stroke:context-stroke;stroke-width:0.8;stroke-linecap:round"
           d="M -1.2866832,-3.9585227 3.0617053,0"
           id="path6149" />
        <path
           style="fill:none;fill-rule:evenodd;stroke:context-stroke;stroke-width:0.8;stroke-linecap:round"
           d="M 1.3053582,-3.9585227 5.6537466,0"
           id="path6151" />
        <path
           style="fill:none;fill-rule:evenodd;stroke:context-stroke;stroke-width:0.8;stroke-linecap:round"
           d="M -3.8048674,4.1775838 0.54352094,0.21974226"
           id="path6153" />
        <path
           style="fill:none;fill-rule:evenodd;stroke:context-stroke;stroke-width:0.8;stroke-linecap:round"
           d="M -1.2866832,4.1775838 3.0617053,0.21974226"
           id="path6155" />
        <path
           style="fill:none;fill-rule:evenodd;stroke:context-stroke;stroke-width:0.8;stroke-linecap:round"
           d="M 1.3053582,4.1775838 5.6537466,0.21974226"
           id="path6157" />
      </g>
    </marker>
    <clipPath
       clipPathUnits="userSpaceOnUse"
       id="clipPath2169">
      <path
         style="fill:none;stroke:#000000;stroke-width:0.264583px;stroke-linecap:butt;stroke-linejoin:miter;stroke-opacity:1"
         d="m 92.234711,185.59196 2.057977,96.16357 195.694752,0.18709 0.18708,-125.16232 -51.82356,1.30962 1.49671,13.84457 z"
         id="path2171"
         sodipodi:nodetypes="ccccccc" />
    </clipPath>
    <linearGradient
       inkscape:collect="always"
       xlink:href="#Icons"
       id="linearGradient1073"
       x1="4.7624985"
       y1="50.800005"
       x2="12.170831"
       y2="50.800005"
       gradientUnits="userSpaceOnUse" />
  </defs>
  <g
     inkscape:label="Icons"
     inkscape:groupmode="layer"
     id="layer1"
     style="display:inline">
    <path
       id="ellipse5317"
       style="display:inline;fill:none;stroke:url(#Icons);stroke-width:0.264583;stroke-linecap:round;stroke-miterlimit:10;stroke-opacity:1;stroke-linejoin:round"
       d="m 5.953128,5.15937 c -3e-6,0.37455 0.225619,0.71222 0.571656,0.85556 C 6.870821,6.15826 7.268691,6.07863 7.559991,5.77405 7.88826,5.43083 8.343903,5.3407 8.739375,5.50451 9.134846,5.66832 9.392702,6.05423 9.392703,6.48229 v 1.32292 m 1e-6,-10e-6 c 0.07329,0 0.132292,0.059 0.132292,0.13229 v 1.05834 c 0,0.0733 -0.059,0.13229 -0.132292,0.13229 -0.07329,0 -0.132291,-0.059 -0.132291,-0.13229 V 7.93749 c 0,-0.0733 0.059,-0.13229 0.132291,-0.13229 z m -1.587495,0.66145 3.174994,10e-6 M 9.392705,6.74685 c 0.879475,0 1.5875,0.70804 1.5875,1.58752 v 1.85207 c 0,0.87948 -0.708025,1.58752 -1.5875,1.58752 -0.879475,0 -1.5875,-0.70804 -1.5875,-1.58752 V 8.33437 c 0,-0.87948 0.708025,-1.58752 1.5875,-1.58752 z"
       sodipodi:nodetypes="csssscsssssssccsssssss" />
    <g
       id="g2667">
      <path
         id="circle7152"
         style="fill:url(#Icons);fill-opacity:1;stroke:none;stroke-width:0;stroke-linecap:round;stroke-miterlimit:10;stroke-opacity:1"
         d="M 17.266863,7.775396 A 0.13229166,0.13229166 0 0 1 17.134572,7.907688 0.13229166,0.13229166 0 0 1 17.00228,7.775396 0.13229166,0.13229166 0 0 1 17.134572,7.643105 0.13229166,0.13229166 0 0 1 17.266863,7.775396 Z m 0.52578,-1.005848 A 0.13229166,0.13229166 0 0 1 17.660351,6.90184 0.13229166,0.13229166 0 0 1 17.52806,6.769548 0.13229166,0.13229166 0 0 1 17.660351,6.637257 0.13229166,0.13229166 0 0 1 17.792643,6.769548 Z m -0.26289,0.04572 A 0.13229166,0.13229166 0 0 1 17.397462,6.94756 0.13229166,0.13229166 0 0 1 17.26517,6.815268 0.13229166,0.13229166 0 0 1 17.397462,6.682977 0.13229166,0.13229166 0 0 1 17.529753,6.815268 Z M 17.192564,7.146743 A 0.13229166,0.13229166 0 0 1 17.060273,7.279034 0.13229166,0.13229166 0 0 1 16.927981,7.146743 0.13229166,0.13229166 0 0 1 17.060273,7.014451 0.13229166,0.13229166 0 0 1 17.192564,7.146743 Z M 17.00968,6.792411 A 0.13229166,0.13229166 0 0 1 16.877389,6.924702 0.13229166,0.13229166 0 0 1 16.745097,6.792411 0.13229166,0.13229166 0 0 1 16.877389,6.660119 0.13229166,0.13229166 0 0 1 17.00968,6.792411 Z m 0.600079,0.422901 A 0.13229166,0.13229166 0 0 1 17.477467,7.347604 0.13229166,0.13229166 0 0 1 17.345176,7.215312 0.13229166,0.13229166 0 0 1 17.477467,7.08302 0.13229166,0.13229166 0 0 1 17.609759,7.215312 Z m -0.70866,0.08573 a 0.13229166,0.13229166 0 0 1 -0.132292,0.132292 0.13229166,0.13229166 0 0 1 -0.132292,-0.132292 0.13229166,0.13229166 0 0 1 0.132292,-0.132291 0.13229166,0.13229166 0 0 1 0.132292,0.132291 z m -0.04001,0.285756 A 0.13229166,0.13229166 0 0 1 16.728798,7.719089 0.13229166,0.13229166 0 0 1 16.596506,7.586798 0.13229166,0.13229166 0 0 1 16.728798,7.454506 0.13229166,0.13229166 0 0 1 16.861089,7.586798 Z M 16.575342,7.518218 A 0.13229166,0.13229166 0 0 1 16.44305,7.65051 0.13229166,0.13229166 0 0 1 16.310758,7.518218 0.13229166,0.13229166 0 0 1 16.44305,7.385926 0.13229166,0.13229166 0 0 1 16.575342,7.518218 Z m 0.09219,0.550278 A 0.13229166,0.13229166 0 0 1 16.535241,8.200787 0.13229166,0.13229166 0 0 1 16.402949,8.068496 0.13229166,0.13229166 0 0 1 16.535241,7.936204 0.13229166,0.13229166 0 0 1 16.667532,8.068496 Z M 16.346739,7.615374 a 0.13229166,0.13229166 0 0 1 -0.132291,0.132292 0.13229166,0.13229166 0 0 1 -0.132292,-0.132292 0.13229166,0.13229166 0 0 1 0.132292,-0.132291 0.13229166,0.13229166 0 0 1 0.132291,0.132291 z m -0.04,0.434346 A 0.13229166,0.13229166 0 0 1 16.174447,8.182011 0.13229166,0.13229166 0 0 1 16.042155,8.04972 0.13229166,0.13229166 0 0 1 16.174447,7.917428 0.13229166,0.13229166 0 0 1 16.306739,8.04972 Z m -0.462922,0 A 0.13229166,0.13229166 0 0 1 15.711526,8.182011 0.13229166,0.13229166 0 0 1 15.579234,8.04972 0.13229166,0.13229166 0 0 1 15.711526,7.917428 0.13229166,0.13229166 0 0 1 15.843817,8.04972 Z m 0.337182,0.302898 A 0.13229166,0.13229166 0 0 1 16.048703,8.484909 0.13229166,0.13229166 0 0 1 15.916411,8.352617 0.13229166,0.13229166 0 0 1 16.048703,8.220325 0.13229166,0.13229166 0 0 1 16.180995,8.352617 Z M 15.93526,8.489783 A 0.13229166,0.13229166 0 0 1 15.802968,8.622075 0.13229166,0.13229166 0 0 1 15.670676,8.489783 0.13229166,0.13229166 0 0 1 15.802968,8.357491 0.13229166,0.13229166 0 0 1 15.93526,8.489783 Z" />
      <path
         id="path7632"
         style="fill:none;fill-opacity:0;stroke:url(#Icons);stroke-width:0.264583;stroke-linecap:round;stroke-linejoin:round;stroke-miterlimit:4;stroke-dasharray:none;stroke-opacity:1"
         inkscape:transform-center-x="0.1870885"
         inkscape:transform-center-y="0.18708851"
         d="m 19.601298,11.13463 -0.187089,0.187089 -1.309622,-1.309619 0.374177,-0.374178 1.309622,1.309619 -0.187088,0.187089 M 17.385579,9.183495 17.650163,8.918912 17.385579,8.654328 m 0.531919,0.796506 0.374177,0.374177 M 15.533496,6.802245 15.268912,6.537662 15.004329,6.802245 m 2.645834,2.116667 h -2.381251 v -2.38125 m 3.307291,1.322916 a 2.2489586,2.2489586 0 0 1 -2.248959,2.248959 2.2489586,2.2489586 0 0 1 -2.248958,-2.248959 2.2489586,2.2489586 0 0 1 2.248958,-2.248958 2.2489586,2.2489586 0 0 1 2.248959,2.248958 z" />
    </g>
    <path
       id="path3343"
       style="fill:none;fill-opacity:1;stroke:url(#Icons);stroke-width:0.264583;stroke-linecap:round;stroke-linejoin:round;stroke-miterlimit:7.42857;stroke-dasharray:none;stroke-opacity:1"
       d="M 26.730973,8.134569 24.606251,8.598958 M 25.473199,7.591023 24.542718,8.42696 m -0.415027,-0.626638 0.139312,0.544806 m 0.07466,-0.804504 c 0,0.146125 -0.118458,0.264583 -0.264583,0.264583 -0.146125,0 -0.264583,-0.118458 -0.264583,-0.264583 0,-0.146125 0.118458,-0.264584 0.264583,-0.264584 0.146125,0 0.264583,0.118459 0.264583,0.264584 z m 1.587502,-0.13229 c 0,0.146125 -0.118458,0.264583 -0.264583,0.264583 -0.146125,0 -0.264584,-0.118458 -0.264584,-0.264583 0,-0.146126 0.118458,-0.264584 0.264584,-0.264584 0.146125,0 0.264583,0.118459 0.264583,0.264584 z m 1.322918,0.661457 c 0,0.146125 -0.118458,0.264583 -0.264583,0.264583 -0.146125,0 -0.264584,-0.118458 -0.264584,-0.264583 0,-0.146125 0.118459,-0.264583 0.264584,-0.264583 0.146125,0 0.264583,0.118458 0.264583,0.264583 z m -2.645836,0.529167 c 0,0.146125 -0.118458,0.264583 -0.264583,0.264583 -0.146125,0 -0.264584,-0.118458 -0.264584,-0.264583 0,-0.146125 0.118459,-0.264583 0.264584,-0.264583 0.146125,0 0.264583,0.118458 0.264583,0.264583 z m -0.793746,1.587501 h 3.175 m -1.5875,-0.79375 v 0.79375 M 25.4,6.746875 h 2.381251 V 9.392709 H 23.01875 V 6.746875 H 25.4"
       sodipodi:nodetypes="ccccccsssssssssssssssssssscccccccccc" />
    <g
       id="g2671">
      <path
         id="circle15724"
         style="display:inline;fill:url(#Icons);fill-opacity:1;stroke:none;stroke-width:0;stroke-linecap:round;stroke-miterlimit:10"
         d="M 31.75,8.731252 A 0.13229166,0.13229166 0 0 1 31.617708,8.863543 0.13229166,0.13229166 0 0 1 31.485417,8.731252 0.13229166,0.13229166 0 0 1 31.617708,8.59896 0.13229166,0.13229166 0 0 1 31.75,8.731252 Z m 0,-0.529164 A 0.13229166,0.13229166 0 0 1 31.617708,8.33438 0.13229166,0.13229166 0 0 1 31.485417,8.202088 0.13229166,0.13229166 0 0 1 31.617708,8.069797 0.13229166,0.13229166 0 0 1 31.75,8.202088 Z" />
      <path
         id="rect16107"
         style="fill:none;fill-opacity:0;stroke:url(#Icons);stroke-width:0.264583;stroke-linecap:round;stroke-linejoin:round;stroke-opacity:1"
         d="m 32.676043,7.408334 h 3.704162 c 0.219871,0 0.396878,0.177007 0.396878,0.396878 v 1.32291 c 0,0.219871 -0.177007,0.396878 -0.396878,0.396878 h -3.704162 c -0.21987,0 -0.396878,-0.177007 -0.396878,-0.396878 v -1.32291 c 0,-0.219871 0.177008,-0.396878 0.396878,-0.396878 z M 32.279168,9.128129 H 30.956251 V 7.805211 h 1.322917" />
    </g>
    <path
       id="path18035-6-0-4"
       style="display:inline;fill:none;stroke:url(#Icons);stroke-width:0.264582px;stroke-linecap:round;stroke-linejoin:round;stroke-opacity:1"
       d="m 41.241979,7.9375487 h 3.704164 M 41.82162,6.4424867 c -0.283888,-0.259074 -0.705221,-0.298302 -1.032056,-0.09609 -0.326836,0.202211 -0.479801,0.596755 -0.374689,0.966437 0.105112,0.369682 0.442772,0.624714 0.827103,0.624714 m 1.872956,-2.027883 c -0.242374,-0.448347 -0.801481,-0.616566 -1.251011,-0.376393 -0.273478,0.146111 -0.443854,0.409956 -0.481782,0.695684 m 3.564003,1.708592 c 0.298636,0 0.566955,-0.182483 0.676696,-0.460228 0.109741,-0.277745 0.03862,-0.594345 -0.179359,-0.798473 -0.217983,-0.204127 -0.538562,-0.254327 -0.808508,-0.126605 m 0.490961,-0.04716 c 0.07395,-0.114414 0.102301,-0.255255 0.07405,-0.393364 -0.04084,-0.1997 -0.192757,-0.358188 -0.390543,-0.407448 -0.197789,-0.04926 -0.406289,0.01946 -0.536025,0.176673 m 0.125407,-0.110884 c -0.06932,-0.343435 -0.330996,-0.629468 -0.688742,-0.716619 -0.411588,-0.100264 -0.83136,0.0917 -1.029941,0.452056 m -3.687123,4.416422 c 0,0.5114393 0.947664,0.9260433 2.116666,0.9260433 1.169002,0 2.116666,-0.414604 2.116666,-0.9260433 m -4.233332,-1.058334 c 0,0.511439 0.947664,0.926043 2.116666,0.926043 1.169002,0 2.116666,-0.414604 2.116666,-0.926043 m -2.832504,-1.930076 c -0.816731,0.128389 -1.400828,0.470225 -1.400828,0.871746 0,0.51144 0.947666,0.926044 2.116669,0.926044 1.066274,0 1.948402,-0.34494 2.095204,-0.793676 m -4.211871,-0.132366 -10e-7,3.1749983 c -10e-7,0.511437 0.947663,0.926041 2.116665,0.926041 1.169002,0 2.116666,-0.414604 2.116666,-0.926043 l -3e-6,-3.0427083"
       sodipodi:nodetypes="cccssccsccssccssccsccsccsccsscccscc" />
    <path
       id="ellipse39873-62"
       style="display:inline;fill:none;stroke:url(#Icons);stroke-width:0.264582;stroke-linecap:round;stroke-miterlimit:10;stroke-opacity:1;stroke-linejoin:round"
       d="m 49.190199,8.4713723 c -0.35167,-0.314328 -0.868901,-0.357992 -1.268289,-0.107069 -0.399387,0.250924 -0.584519,0.735863 -0.453957,1.189106 0.130562,0.4532437 0.545302,0.7653777 1.01697,0.7653767 l 4.7625,1e-6 c 0.388688,0 0.736009,-0.24273 0.869611,-0.6077387 0.133602,-0.365008 0.02505,-0.774604 -0.271795,-1.025529 -0.296843,-0.250924 -0.71879,-0.28977 -1.056456,-0.09726 M 50.81451,7.7671943 c -0.182811,-0.367273 -0.551127,-0.605837 -0.96104,-0.622485 -0.409917,-0.01665 -0.796367,0.191268 -1.008354,0.542505 -0.09926,0.164465 -0.152895,0.34813 -0.160745,0.533394 m 4.688689,0.254823 c 0.07648,-0.09847 0.125564,-0.219006 0.136607,-0.350067 0.02543,-0.3018 -0.157363,-0.582317 -0.443722,-0.680943 -0.286358,-0.09863 -0.603118,0.0098 -0.768924,0.263287 m 0.245208,-0.222938 c -0.127291,-0.455985 -0.519853,-0.805846 -1.010756,-0.862346 -0.506635,-0.05831 -0.982247,0.211469 -1.20138,0.650582" />
    <path
       id="path128411"
       style="display:inline;fill:none;stroke:url(#Icons);stroke-width:0.264582px;stroke-linecap:round;stroke-linejoin:round;stroke-opacity:1"
       d="m 61.912499,11.112501 -0.894,-0.894003 m 0.232537,-0.5612014 c 0,-0.438381 -0.35537,-0.793756 -0.793745,-0.793756 -0.438372,-2e-6 -0.79375,0.355375 -0.79375,0.793756 0,0.4383764 0.355373,0.7937544 0.793747,0.7937544 0.438375,0 0.793748,-0.355378 0.793748,-0.7937544 z m 0.05164,-0.838407 c 0.05261,-0.196725 0.08066,-0.403489 0.08066,-0.616807 0,-1.315143 -1.06612,-2.38125 -2.38125,-2.38125 -1.31513,0 -2.38125,1.066107 -2.38125,2.38125 0,1.315146 1.06612,2.3812494 2.38125,2.3812494 0.213312,0 0.420076,-0.02805 0.616799,-0.08066 m 0.292132,-1.9030284 c 0.01114,-0.125534 0.01712,-0.257905 0.01712,-0.397557 0,-1.31513 -0.529166,-1.984378 -0.926049,-2.38125 -0.396867,0.396872 -0.926055,1.06612 -0.926055,2.38125 0,1.315127 0.529188,1.9843714 0.926055,2.3812494 0.117655,-0.117655 0.246933,-0.259242 0.370607,-0.434499 m 1.566996,-3.2696724 h -3.875206 m 2.232158,2.513544 h -2.27893 m 4.365622,-1.190625 H 56.62084"
       sodipodi:nodetypes="ccssssscssssccscscccccccc" />
    <path
       id="path47011"
       style="display:inline;fill:none;stroke:url(#Icons);stroke-width:0.264583;stroke-linecap:round;stroke-linejoin:round;stroke-miterlimit:10;stroke-opacity:1"
       d="m 68.659375,8.4666657 c 0,-1.315128 -0.52917,-1.984376 -0.92605,-2.38125 -0.39687,0.396874 -0.92606,1.066122 -0.92606,2.38125 0,1.315128 0.52919,1.9843743 0.92606,2.3812503 0.39688,-0.396876 0.92605,-1.0661223 0.92605,-2.3812503 z m 1.011558,-1.322918 h -3.875206 m 3.921978,2.513542 h -3.96875 m 4.3656,-1.190623 c 0,-1.3151298 -1.066114,-2.3812524 -2.38123,-2.38125 -1.315112,3.1e-6 -2.38122,1.0661241 -2.38122,2.38125 0,1.315126 1.066108,2.3812473 2.38122,2.3812503 1.315116,2e-6 2.38123,-1.0661204 2.38123,-2.3812503 z m 3e-5,-2e-6 h -4.7625"
       sodipodi:nodetypes="scscsccccssssscc" />
    <path
       id="rect26278"
       style="display:inline;fill:none;fill-opacity:0;stroke:url(#Icons);stroke-width:0.264583;stroke-linecap:round;stroke-linejoin:round;stroke-opacity:1"
       d="m 73.686465,8.2020839 h 5.027071 c 0.07329,0 0.132293,0.059 0.132293,0.132291 0,0.07329 -0.059,0.132291 -0.132293,0.132291 h -5.027071 c -0.07329,0 -0.132293,-0.059 -0.132293,-0.132291 0,-0.07329 0.059,-0.132291 0.132293,-0.132291 z m 4.894786,-0.132293 v 0.529167 m -0.529166,-0.529167 v 0.529167 m -0.529167,-0.529167 v 0.529167 m -0.529167,-0.529167 v 0.529167 m -0.529167,-0.529167 v 0.529167 m -0.529166,-0.529167 v 0.529167 m -0.529166,-0.529167 v 0.529167 m -0.529167,-0.529167 v 0.529167 m -0.529167,-0.529167 v 0.529167 m -1.587501,-1.322916 c -0.293158,0 -0.529167,0.236008 -0.529167,0.529167 l 3e-6,0.793752 c 3e-6,0.293159 0.236008,0.529167 0.529167,0.529167 h 0.264583 c 0.117938,0.0095 0.216739,0.07979 0.324011,0.148828 l 0.381371,0.245459 c 0.105592,0.06796 0.216916,0.134877 0.352949,0.134877 h 4.233333 c 0.135771,0 0.247152,-0.06636 0.352433,-0.134358 l 0.380857,-0.245989 c 0.107625,-0.06951 0.206573,-0.139668 0.325046,-0.148828 l 0.264583,1.1e-5 c 0.293159,1.1e-5 0.52917,-0.236008 0.529167,-0.529167 l -3e-6,-0.793752 c 0,-0.293159 -0.236008,-0.529167 -0.529166,-0.529167 z m 1.058335,0.793749 v 0.529167" />
    <path
       id="path11356"
       style="fill:none;stroke:url(#Icons);stroke-width:0.264583px;stroke-linecap:round;stroke-linejoin:round;stroke-opacity:1"
       d="m 86.651041,7.4082668 c 0.219865,0 0.396867,0.177 0.396868,0.39686 l 7e-6,1.98439 c 10e-7,0.2198702 -0.177003,0.3968702 -0.396868,0.3968702 h -3.968751 c -0.219864,0 -0.396866,-0.177 -0.396867,-0.3968702 l -8e-6,-1.98439 c 0,-0.21986 0.177003,-0.39686 0.396868,-0.39686 h 0.529167 c 0.08114,0 0.164891,-0.0418 0.222299,-0.0992 l 0.463021,-0.46292 c 0.07693,-0.0769 0.149175,-0.0992 0.264583,-0.0992 h 1.01061 c 0.117814,0 0.200332,0.035 0.264584,0.0992 l 0.46302,0.46292 c 0.05741,0.0574 0.141157,0.0992 0.2223,0.0992 z m -1.124489,1.12449 a 0.85988569,0.85989457 0 0 0 -0.859886,-0.8599 0.85988569,0.85989457 0 0 0 -0.859886,0.8599 0.85988569,0.85989457 0 0 0 0.859886,0.85989 0.85988569,0.85989457 0 0 0 0.859886,-0.85989 z" />
    <g
       id="g2675">
      <path
         id="rect16107-7"
         style="display:inline;fill:none;fill-opacity:0;stroke:url(#Icons);stroke-width:0.264584;stroke-linecap:round;stroke-linejoin:round;stroke-opacity:1"
         d="m 5.159371,14.684377 h 6.614591 c 0.513025,0 0.926038,0.413013 0.926038,0.926038 v 2.645841 c 0,0.513026 -0.413013,0.926039 -0.926038,0.926039 H 5.159371 c -0.513025,0 -0.926038,-0.413013 -0.926038,-0.926039 v -2.645841 c 0,-0.513025 0.413013,-0.926038 0.926038,-0.926038 z m 5.688546,-4e-6 v 4.497917 m -4.7625,-4.497917 v 4.497917" />
      <path
         id="circle18213"
         style="display:inline;fill:url(#Icons);fill-opacity:1;stroke:none;stroke-width:0;stroke-linecap:round;stroke-miterlimit:10"
         d="m 5.291667,17.330213 a 0.13229166,-0.13229166 0 0 0 -0.132292,-0.132292 0.13229166,-0.13229166 0 0 0 -0.132291,0.132292 0.13229166,-0.13229166 0 0 0 0.132291,0.132291 0.13229166,-0.13229166 0 0 0 0.132292,-0.132291 z m 0.396877,0.396873 a 0.13229166,-0.13229166 0 0 0 -0.132291,-0.132292 0.13229166,-0.13229166 0 0 0 -0.132292,0.132292 0.13229166,-0.13229166 0 0 0 0.132292,0.132292 0.13229166,-0.13229166 0 0 0 0.132291,-0.132292 z m -0.79375,0 A 0.13229166,-0.13229166 0 0 0 4.762502,17.594794 0.13229166,-0.13229166 0 0 0 4.63021,17.727086 0.13229166,-0.13229166 0 0 0 4.762502,17.859378 0.13229166,-0.13229166 0 0 0 4.894794,17.727086 Z M 5.291667,18.12396 A 0.13229166,-0.13229166 0 0 0 5.159375,17.991668 0.13229166,-0.13229166 0 0 0 5.027084,18.12396 0.13229166,-0.13229166 0 0 0 5.159375,18.256251 0.13229166,-0.13229166 0 0 0 5.291667,18.12396 Z m 0.264581,-2.116669 a 0.39687246,-0.39687639 0 0 0 -0.396873,-0.396877 0.39687246,-0.39687639 0 0 0 -0.396872,0.396877 0.39687246,-0.39687639 0 0 0 0.396872,0.396876 0.39687246,-0.39687639 0 0 0 0.396873,-0.396876 z m 6.350001,0.529167 a 0.13229166,-0.13229166 0 0 1 -0.132292,0.132292 0.13229166,-0.13229166 0 0 1 -0.132291,-0.132292 0.13229166,-0.13229166 0 0 1 0.132291,-0.132292 0.13229166,-0.13229166 0 0 1 0.132292,0.132292 z m 0.396877,-0.396873 a 0.13229166,-0.13229166 0 0 1 -0.132291,0.132291 0.13229166,-0.13229166 0 0 1 -0.132292,-0.132291 0.13229166,-0.13229166 0 0 1 0.132292,-0.132292 0.13229166,-0.13229166 0 0 1 0.132291,0.132292 z m -0.79375,0 a 0.13229166,-0.13229166 0 0 1 -0.132292,0.132291 0.13229166,-0.13229166 0 0 1 -0.132292,-0.132291 0.13229166,-0.13229166 0 0 1 0.132292,-0.132292 0.13229166,-0.13229166 0 0 1 0.132292,0.132292 z m 0.396873,-0.396874 a 0.13229166,-0.13229166 0 0 1 -0.132292,0.132292 0.13229166,-0.13229166 0 0 1 -0.132291,-0.132292 0.13229166,-0.13229166 0 0 1 0.132291,-0.132292 0.13229166,-0.13229166 0 0 1 0.132292,0.132292 z m 0.264581,2.116669 a 0.39687246,-0.39687639 0 0 1 -0.396873,0.396876 0.39687246,-0.39687639 0 0 1 -0.396872,-0.396876 0.39687246,-0.39687639 0 0 1 0.396872,-0.396877 0.39687246,-0.39687639 0 0 1 0.396873,0.396877 z" />
    </g>
    <path
       id="path3223"
       style="fill:none;stroke:url(#Icons);stroke-width:0.264583px;stroke-linecap:round;stroke-linejoin:round;stroke-opacity:1"
       d="m 18.78542,15.478126 0.264584,0.264584 3e-6,0.529168 -0.264584,0.264583 m -3.704172,-1.058335 -0.264583,0.264584 3e-6,0.529168 0.264583,0.264583 m 1.852082,-1.322918 h 1.852084 l 3e-6,1.587502 h -1.587502 l -0.264584,-0.264584 -0.264583,0.264584 h -1.5875 l -3e-6,-1.587502 h 1.852085 m -0.793752,2.513542 c -0.879475,0 -1.5875,0.708025 -1.5875,1.5875 v 0.132291 h 4.7625 v -0.132291 c 0,-0.879475 -0.708025,-1.5875 -1.5875,-1.5875 z m 2.149909,-2.513716 c -0.278738,-0.475884 -0.781833,-0.793578 -1.356159,-0.793578 -0.574328,0 -1.077417,0.317694 -1.356153,0.793581 m -0.06974,1.587833 c 0.258437,0.548389 0.799846,0.925881 1.425892,0.925881 0.626049,0 1.167455,-0.377492 1.425893,-0.925881" />
    <path
       id="path17515"
       style="display:inline;fill:none;stroke:url(#Icons);stroke-width:0.264584;stroke-linecap:round;stroke-linejoin:round;stroke-miterlimit:4;stroke-dasharray:none;stroke-opacity:1"
       d="m 25.105661,17.722175 0.37676,0.988996 0.494502,-0.188382 -0.37676,-0.988995 m -0.294346,-0.02944 -0.894809,0.624012 -10e-7,-2.972888 1.978,2.219365 -1.08319,0.129511" />
    <path
       id="path42238"
       style="fill:none;stroke:url(#Icons);stroke-width:0.264583;stroke-linecap:round;stroke-linejoin:round;stroke-miterlimit:4;stroke-dasharray:none;stroke-opacity:1"
       d="m 38.496873,16.271879 v 1.322917 m -2.116666,-1.322917 v 1.322917 m 0.529166,-1.322917 v 1.322917 m 0.529167,-1.322915 v 1.322917 m 0.529167,-1.322919 v 1.322917 m 1.058333,-0.661458 h -4.101042 m -3.571876,-0.661459 v 1.322917 m -0.529166,-1.322917 v 1.322917 m -0.529167,-1.322917 v 1.322917 m -0.529167,-1.322917 v 1.322917 m -0.529166,-1.322917 v 1.322917 M 28.70729,16.933338 h 4.101041 m -2.513542,-0.661461 h 1.587498 l 10e-7,1e-6 1e-6,10e-7 v 1.322918 c 0,2e-6 -1e-6,3e-6 -2e-6,3e-6 h -3.174995 c -10e-7,0 -2e-6,-1e-6 -2e-6,-3e-6 v -1.322918 l 1e-6,-10e-7 10e-7,-1e-6 h 1.587497 m 7.143755,0 h 1.587498 l 1e-6,1e-6 10e-7,10e-7 v 1.322918 c 0,2e-6 -10e-7,3e-6 -2e-6,3e-6 h -3.174997 c -10e-7,0 -2e-6,-1e-6 -2e-6,-3e-6 v -1.322918 l 1e-6,-10e-7 10e-7,-1e-6 h 1.587499 m -4.365627,-0.396874 h 1.587498 c 0.146579,0 0.264583,0.118004 0.264583,0.264584 v 1.587493 c 0,0.14658 -0.118004,0.264584 -0.264583,0.264584 h -1.587498 c -0.146579,0 -0.264584,-0.118004 -0.264584,-0.264584 v -1.587493 c 0,-0.14658 0.118005,-0.264584 0.264584,-0.264584 z" />
    <path
       id="path2041"
       style="display:inline;fill:none;stroke:url(#Icons);stroke-width:0.264582px;stroke-linecap:round;stroke-linejoin:round;stroke-opacity:1"
       d="m 42.333335,15.874996 v 0.661458 m -0.527832,-0.23172 a 0.92604727,0.92604178 89.912285 0 0 -0.356557,1.035493 0.92604727,0.92604178 89.912285 0 0 0.880342,0.651435 0.92604727,0.92604178 89.912285 0 0 0.886005,-0.643711 0.92604727,0.92604178 89.912285 0 0 -0.347489,-1.038571" />
    <path
       id="rect32558"
       style="display:inline;fill:none;fill-opacity:0;stroke:url(#Icons);stroke-width:0.264584;stroke-linecap:round;stroke-linejoin:round;stroke-opacity:1"
       d="m 49.212499,14.684375 h 3.175005 c 0.366446,0 0.661455,0.295009 0.661455,0.661455 v 3.175007 c 0,0.366447 -0.295009,0.661456 -0.661455,0.661456 h -3.175005 c -0.366447,0 -0.661456,-0.295009 -0.661456,-0.661456 V 15.34583 c 0,-0.366446 0.295009,-0.661455 0.661456,-0.661455 z m 1.591545,1.058331 v 0.661458 m -0.527833,-0.231716 a 0.92604727,0.92604178 89.912285 0 0 -0.356557,1.035492 0.92604727,0.92604178 89.912285 0 0 0.880342,0.651436 0.92604727,0.92604178 89.912285 0 0 0.886005,-0.643712 0.92604727,0.92604178 89.912285 0 0 -0.347488,-1.038571" />
    <path
       id="rect50562"
       style="display:inline;fill:none;fill-opacity:0;stroke:url(#Icons);stroke-width:0.264585;stroke-linecap:round;stroke-linejoin:round;stroke-opacity:1"
       d="m 59.635865,15.862726 c -0.05795,0.04486 -0.0685,0.127631 -0.02364,0.185585 l 0.485863,0.627685 c 0.04486,0.05796 0.127631,0.0685 0.185585,0.02364 l 0.20923,-0.161956 c 0.05795,-0.04486 0.0685,-0.12763 0.02364,-0.185585 l -0.485862,-0.627686 c -0.04486,-0.05796 -0.12763,-0.06849 -0.185585,-0.02363 z m -0.738389,-1e-6 c 0.05796,0.04486 0.06849,0.12763 0.02363,0.185584 l -0.485862,0.627685 c -0.04486,0.05795 -0.127632,0.06849 -0.185582,0.02364 l -0.209231,-0.161956 c -0.05796,-0.04486 -0.0685,-0.12763 -0.02364,-0.185586 l 0.485862,-0.627685 c 0.04486,-0.05795 0.127631,-0.06849 0.185588,-0.02363 z m 0.501489,1.271603 c 0.07329,-1e-6 0.132289,0.059 0.132289,0.132288 v 0.793757 c 2e-6,0.07329 -0.059,0.132292 -0.132287,0.132292 H 59.13438 c -0.07329,10e-7 -0.132289,-0.059 -0.132289,-0.132289 l -2e-6,-0.793761 c -3e-6,-0.07329 0.059,-0.132282 0.132292,-0.132283 z"
       sodipodi:nodetypes="sscssscssssccsscsssscssscss" />
    <path
       id="rect20780"
       style="display:inline;fill:none;fill-opacity:0;stroke:url(#Icons);stroke-width:0.264584;stroke-linecap:round;stroke-linejoin:round;stroke-opacity:1"
       d="m 66.145832,14.684375 h 3.175005 c 0.366446,0 0.661456,0.295009 0.661456,0.661456 v 3.175007 c 0,0.366446 -0.29501,0.661455 -0.661456,0.661455 h -3.175005 c -0.366447,0 -0.661456,-0.295009 -0.661456,-0.661455 v -3.175007 c 0,-0.366447 0.295009,-0.661456 0.661456,-0.661456 z m 2.165919,1.079989 -0.20923,0.161955 c -0.05795,0.04486 -0.0685,0.127631 -0.02364,0.185586 l 0.485862,0.627685 c 0.04486,0.05796 0.127632,0.0685 0.185586,0.02364 l 0.20923,-0.161955 c 0.05796,-0.04486 0.0685,-0.127631 0.02364,-0.185586 L 68.497337,15.788 c -0.04486,-0.05796 -0.127631,-0.0685 -0.185586,-0.02364 z m -1.15685,-2e-6 0.20923,0.161956 c 0.05796,0.04486 0.0685,0.12763 0.02364,0.185585 l -0.485863,0.627685 c -0.04486,0.05796 -0.12763,0.0685 -0.185586,0.02364 l -0.20923,-0.161955 c -0.05796,-0.04486 -0.0685,-0.127631 -0.02364,-0.185586 l 0.485863,-0.627685 c 0.04486,-0.05796 0.12763,-0.0685 0.185586,-0.02364 z m 0.446135,1.433563 h 0.264588 c 0.07329,0 0.132289,0.059 0.132289,0.132289 v 0.793757 c 0,0.07329 -0.059,0.132289 -0.132289,0.132289 h -0.264588 c -0.07329,0 -0.132289,-0.059 -0.132289,-0.132289 v -0.793757 c 0,-0.07329 0.059,-0.132289 0.132289,-0.132289 z" />
    <path
       id="path29529"
       style="display:inline;fill:none;stroke:url(#Icons);stroke-width:0.264582px;stroke-linecap:round;stroke-linejoin:round;stroke-opacity:1"
       d="m 78.382816,17.925516 h -0.52917 m 0.52917,-0.66145 h -0.52917 m 0.52917,-0.66146 h -0.52917 m 0.52917,-0.66146 h -0.52917 m -3.30729,1.98437 h -0.52917 m 0.52917,-0.66145 h -0.52917 m 0.52917,-0.66146 h -0.52917 m 0.52917,-0.66146 h -0.52917 m 3.175,2.645834 v 0.529166 m -0.66145,-0.529166 v 0.529166 m -0.66146,-0.529166 v 0.529166 m -0.66146,-0.529166 v 0.529166 m 1.98437,-4.365625 v 0.529166 m -0.66145,-0.529166 v 0.529166 m -0.66146,-0.529166 v 0.529166 m -0.66146,-0.529166 v 0.529166 m 0,2.645834 h 1.98437 m -2.11667,-2.645833 h 2.24896 c 0.29316,0 0.52917,0.236008 0.52917,0.529165 v 2.248963 c 0,0.293158 -0.23601,0.529165 -0.52917,0.529165 h -2.24896 c -0.29315,0 -0.52916,-0.236007 -0.52916,-0.529165 v -2.248963 c 0,-0.293157 0.23601,-0.529165 0.52916,-0.529165 z m 2.11667,0.529168 v 2.116667" />
    <path
       id="path10165"
       style="fill:none;stroke:url(#Icons);stroke-width:0.264583px;stroke-linecap:round;stroke-linejoin:round;stroke-opacity:1"
       d="m 84.527197,15.23509 0.345419,0.19943 -0.502,0.28983 0.741265,0.42797 -1.10263,0.6366 1.628174,0.94003 -2.404205,1.38807 3.550116,2.04966 -2.116667,-6.35 -2.116669,6.35 3.550115,-2.04966 -2.404205,-1.38807 1.628174,-0.94003 -1.10263,-0.6366 0.741265,-0.42797 -0.502,-0.28983 0.345419,-0.19943 m 1.357238,-1.91512 c -0.396951,-0.39695 -0.935333,-0.61996 -1.496707,-0.61996 -0.561375,0 -1.099757,0.22301 -1.496708,0.61996 m 2.525694,0.46772 c -0.272904,-0.2729 -0.643041,-0.42622 -1.028986,-0.42622 -0.385945,0 -0.756083,0.15332 -1.028987,0.42622 m 1.590256,0.46772 c -0.148857,-0.14886 -0.35075,-0.23248 -0.561265,-0.23248 -0.210515,0 -0.412408,0.0836 -0.561265,0.23248"
       sodipodi:nodetypes="ccccccccccccccccccsccsccsc" />
    <g
       id="g2679">
      <path
         id="circle10558"
         style="display:inline;fill:url(#Icons);fill-opacity:1;stroke:none;stroke-width:0;stroke-linecap:round;stroke-miterlimit:10"
         d="m 8.9296878,25.730719 a 0.13229166,0.13229166 0 0 1 -0.132292,0.132292 0.13229166,0.13229166 0 0 1 -0.132292,-0.132292 0.13229166,0.13229166 0 0 1 0.132292,-0.132292 0.13229166,0.13229166 0 0 1 0.132292,0.132292 z m -0.793749,0 a 0.13229166,0.13229166 0 0 1 -0.132292,0.132292 0.13229166,0.13229166 0 0 1 -0.132292,-0.132292 0.13229166,0.13229166 0 0 1 0.132292,-0.132292 0.13229166,0.13229166 0 0 1 0.132292,0.132292 z" />
      <path
         id="circle12142"
         style="display:inline;fill:none;fill-opacity:0;stroke:url(#Icons);stroke-width:0.264583;stroke-linecap:round;stroke-linejoin:round;stroke-miterlimit:10;stroke-dasharray:none;stroke-opacity:1"
         d="m 11.178648,25.201558 c 0,0.438376 -0.355374,0.79375 -0.79375,0.79375 m 0.793751,-1.455204 c 0,0 -0.608117,-0.457047 -0.740835,-0.793757 -0.03881,-0.09846 -0.0405,-0.219723 0,-0.317499 0.03818,-0.09219 0.119483,-0.173479 0.211668,-0.211663 0.08148,-0.03375 0.183103,-0.03375 0.264584,0 0.115232,0.04773 0.264583,0.264586 0.264583,0.264586 0,0 0.149351,-0.216855 0.264583,-0.264586 0.08148,-0.03375 0.183103,-0.03375 0.264584,0 0.09218,0.03818 0.173481,0.119479 0.211665,0.211663 0.0405,0.09778 0.03881,0.219043 0,0.317506 -0.132717,0.336707 -0.740832,0.79375 -0.740832,0.79375 z m -4.2333342,1.455203 h 0.354025 m 2.197503,0 h 0.358888 m -1.817907,0.396875 h 0.7254 m 1.137709,1.984381 h 0.7253992 m -3.7262182,-1.1e-5 h -0.725398 m 1.852083,2e-6 h 0.7254 m 3.7493622,-4.630202 a 1.3229144,1.3229144 0 0 1 -1.322915,1.322914 1.3229144,1.3229144 0 0 1 -1.3229142,-1.322914 1.3229144,1.3229144 0 0 1 1.3229142,-1.322915 1.3229144,1.3229144 0 0 1 1.322915,1.322915 z M 7.3421898,27.05364 v -2.116666 h 2.116667 v 2.116666 m -4.233334,0.529167 h -0.79375 v 0.79375 m 7.1437502,0 V 27.05364 H 5.2255228 v 1.322917 m 7.1437512,0 v -0.79375 h -0.793751" />
    </g>
    <g
       id="g2683">
      <path
         id="circle18203-1"
         style="display:inline;fill:url(#Icons);fill-opacity:1;stroke:none;stroke-width:0;stroke-linecap:round;stroke-miterlimit:10"
         d="m 18.52083,24.892323 a 0.13229166,0.13229166 0 0 1 -0.132292,0.132292 0.13229166,0.13229166 0 0 1 -0.132292,-0.132292 0.13229166,0.13229166 0 0 1 0.132292,-0.132291 0.13229166,0.13229166 0 0 1 0.132292,0.132291 z m 0.396877,-0.396873 a 0.13229166,0.13229166 0 0 1 -0.132292,0.132292 0.13229166,0.13229166 0 0 1 -0.132291,-0.132292 0.13229166,0.13229166 0 0 1 0.132291,-0.132292 0.13229166,0.13229166 0 0 1 0.132292,0.132292 z m -0.793751,0 a 0.13229166,0.13229166 0 0 1 -0.132292,0.132292 0.13229166,0.13229166 0 0 1 -0.132291,-0.132292 0.13229166,0.13229166 0 0 1 0.132291,-0.132292 0.13229166,0.13229166 0 0 1 0.132292,0.132292 z m 0.396874,-0.396874 a 0.13229166,0.13229166 0 0 1 -0.132292,0.132292 0.13229166,0.13229166 0 0 1 -0.132292,-0.132292 0.13229166,0.13229166 0 0 1 0.132292,-0.132291 0.13229166,0.13229166 0 0 1 0.132292,0.132291 z" />
      <path
         id="path38653"
         style="fill:none;stroke:url(#Icons);stroke-width:0.264583;stroke-linecap:round;stroke-linejoin:round;stroke-miterlimit:4;stroke-dasharray:none;stroke-opacity:1"
         d="m 19.007424,26.623893 c 0.376178,0.410973 0.701143,0.879984 1.138913,0.703042 0.314561,-0.127144 0.359995,-0.466073 0.226581,-0.847113 L 19.58002,24.215248 c -0.204195,-0.583197 -0.483502,-0.778135 -1.059186,-0.778135 h -3.175 c -0.575684,0 -0.854991,0.194938 -1.059186,0.778135 l -0.792898,2.264574 c -0.133414,0.38104 -0.08798,0.719969 0.226581,0.847113 0.43777,0.176942 0.762735,-0.292069 1.138913,-0.703042 m 1.809508,-2.128447 h 0.529166 m -0.79375,1.322917 h 1.058333 m -1.587499,0.132295 a 0.39687183,0.39687601 0 0 0 -0.396872,-0.396876 0.39687183,0.39687601 0 0 0 -0.396872,0.396876 0.39687183,0.39687601 0 0 0 0.396872,0.396876 0.39687183,0.39687601 0 0 0 0.396872,-0.396876 z M 15.081251,24.495446 H 15.875 m -0.396876,-0.396874 v 0.79375 m 3.307293,1.058336 a 0.39687183,0.39687601 0 0 0 -0.396871,-0.396876 0.39687183,0.39687601 0 0 0 -0.396872,0.396876 0.39687183,0.39687601 0 0 0 0.396872,0.396876 0.39687183,0.39687601 0 0 0 0.396871,-0.396876 z" />
    </g>
    <path
       id="rect19504"
       style="display:inline;fill:none;fill-opacity:0;stroke:url(#Icons);stroke-width:0.264584;stroke-linecap:round;stroke-linejoin:round;stroke-opacity:1"
       d="m 24.47396,26.987498 h 0.529167 c 0.146579,0 0.264584,0.118004 0.264584,0.264584 v 0.529166 c 0,0.146579 -0.118005,0.264584 -0.264584,0.264584 H 24.47396 c -0.146579,0 -0.264584,-0.118005 -0.264584,-0.264584 v -0.529166 c 0,-0.14658 0.118005,-0.264584 0.264584,-0.264584 z m 2.91042,0 -1e-6,-0.529167 h -2.645833 l 2e-6,0.529167 m 1.322911,-1.058334 1e-6,0.529167 m 1.058332,0.529167 h 0.529167 c 0.14658,0 0.264584,0.118004 0.264584,0.264584 v 0.529166 c 0,0.146579 -0.118004,0.264584 -0.264584,0.264584 h -0.529167 c -0.146579,0 -0.264584,-0.118005 -0.264584,-0.264584 v -0.529166 c 0,-0.14658 0.118005,-0.264584 0.264584,-0.264584 z m -3.96875,-2.116669 h 0.529167 c 0.14658,0 0.264584,0.118005 0.264584,0.264584 v 0.529166 c 0,0.14658 -0.118004,0.264584 -0.264584,0.264584 h -0.529167 c -0.146579,0 -0.264584,-0.118004 -0.264584,-0.264584 v -0.529166 c 0,-0.146579 0.118005,-0.264584 0.264584,-0.264584 z m 2.91042,0 -10e-7,-0.529167 h -2.645833 l 2e-6,0.529167 m 1.322911,-1.058334 10e-7,0.529167 m 1.058332,0.529167 h 0.529167 c 0.14658,0 0.264584,0.118005 0.264584,0.264584 v 0.529166 c 0,0.14658 -0.118004,0.264584 -0.264584,0.264584 h -0.529167 c -0.146579,0 -0.264584,-0.118004 -0.264584,-0.264584 v -0.529166 c 0,-0.146579 0.118005,-0.264584 0.264584,-0.264584 z M 24.47396,22.754168 h 0.529165 c 0.146579,0 0.264583,0.118005 0.264583,0.264584 v 0.529166 c 0,0.14658 -0.118004,0.264584 -0.264583,0.264584 H 24.47396 c -0.146579,0 -0.264584,-0.118004 -0.264584,-0.264584 v -0.529166 c 0,-0.146579 0.118005,-0.264584 0.264584,-0.264584 z" />
    <path
       id="rect21308"
       style="display:inline;fill:none;fill-opacity:0;stroke:url(#Icons);stroke-width:0.264584;stroke-linecap:round;stroke-linejoin:round;stroke-opacity:1"
       d="m 31.220824,27.252079 -0.529168,-10e-6 c -0.146579,0 -0.264582,-0.118 -0.264581,-0.26458 l 5e-6,-0.52917 c 1e-6,-0.14658 0.118006,-0.26458 0.264585,-0.26458 l 0.529168,10e-6 c 0.146579,0 0.264582,0.118 0.264581,0.26458 l -5e-6,0.52917 c -1e-6,0.14658 -0.118006,0.26458 -0.264585,0.26458 z m 0.926052,-0.1323 -0.396872,-0.39687 0.396878,-0.39688 m 1.190622,0.39689 -1.5875,-10e-6 m 2.381239,0.52918 h -0.529167 c -0.14658,0 -0.264583,-0.11801 -0.264582,-0.26459 l 5e-6,-0.52916 c 10e-7,-0.14658 0.118006,-0.26459 0.264586,-0.26459 h 0.529167 c 0.146579,0 0.264583,0.11802 0.264582,0.2646 l -5e-6,0.52916 c -10e-7,0.14658 -0.118007,0.26458 -0.264586,0.26458 z m 0.926056,-0.92605 -0.396878,0.39687 0.396872,0.39688 m 1.190628,-0.39687 -1.5875,-10e-6 m 2.381238,0.52918 -0.529168,-1e-5 c -0.146579,0 -0.264582,-0.11801 -0.264581,-0.26459 l 5e-6,-0.52916 c 10e-7,-0.14658 0.118006,-0.26459 0.264585,-0.26459 l 0.529168,10e-6 c 0.146579,0 0.264582,0.11801 0.264581,0.26459 l -5e-6,0.52916 c -10e-7,0.14658 -0.118006,0.26459 -0.264585,0.26459 z m 0.132308,-1.719811 -0.396875,0.396875 -0.396875,-0.396875 m 0.396875,-0.92604 v 1.322915 m 0.529167,-2.116658 v 0.529167 c 0,0.14658 -0.118005,0.264584 -0.264584,0.264584 h -0.529166 c -0.14658,0 -0.264584,-0.118004 -0.264584,-0.264584 v -0.529167 c 0,-0.146579 0.118004,-0.264584 0.264584,-0.264584 h 0.529166 c 0.146579,0 0.264584,0.118005 0.264584,0.264584 z m -1.719789,0.661447 0.396875,-0.396875 -0.396875,-0.396875 m -1.190625,0.396875 h 1.5875 m -2.381253,-0.529156 h 0.529168 c 0.146579,0 0.264583,0.118005 0.264583,0.264584 v 0.529166 c 0,0.14658 -0.118004,0.264584 -0.264583,0.264584 h -0.529168 c -0.146579,0 -0.264583,-0.118004 -0.264583,-0.264584 v -0.529166 c 0,-0.146579 0.118004,-0.264584 0.264583,-0.264584 z m -0.926041,0.926035 0.396875,-0.396875 -0.396875,-0.396875 m -1.190625,0.396875 h 1.5875 m -2.381253,-0.52916 h 0.529167 c 0.146579,0 0.264584,0.118005 0.264584,0.264584 v 0.529166 c 0,0.14658 -0.118005,0.264584 -0.264584,0.264584 h -0.529167 c -0.146579,0 -0.264584,-0.118004 -0.264584,-0.264584 v -0.529166 c 0,-0.146579 0.118005,-0.264584 0.264584,-0.264584 z" />
    <path
       id="path188015"
       style="display:inline;fill:none;stroke:url(#Icons);stroke-width:0.264584;stroke-linecap:round;stroke-linejoin:round;stroke-opacity:1"
       d="m 43.523959,23.680207 v -0.396874 h 0.132292 v 0.793747 h -0.132292 v -0.396873 m -0.661458,0 v -0.396874 h 0.132292 v 0.793747 h -0.132292 v -0.396873 m -0.661459,0 v -0.396874 h 0.132292 v 0.793747 h -0.132292 v -0.396873 m -0.661457,0 v -0.396874 h 0.132292 v 0.793747 h -0.132292 v -0.396873 m 1.058333,-0.926041 h -1.058334 c -0.293158,0 -0.529166,0.236008 -0.529167,0.529166 l 1e-6,0.926042 -0.529167,0.529167 v 0.661457 h 0.529167 v 0.661458 l -0.529167,0.529167 -10e-7,0.926043 c 10e-7,0.293159 0.236009,0.529168 0.529167,0.529168 h 2.645835 c 0.293157,0 0.529166,-0.236009 0.529166,-0.529166 v -4.233336 c 0,-0.293158 -0.236009,-0.529166 -0.529166,-0.529166 h -1.058334" />
    <path
       id="path6398"
       style="display:inline;fill:none;stroke:url(#Icons);stroke-width:0.264582px;stroke-linecap:round;stroke-linejoin:round;stroke-opacity:1"
       d="m 51.461457,26.061452 0.661458,0.661458 M 53.181232,25.4 A 2.3812315,2.3812568 0 0 0 50.800001,23.018743 2.3812315,2.3812568 0 0 0 48.418769,25.4 2.3812315,2.3812568 0 0 0 50.800001,27.781257 2.3812315,2.3812568 0 0 0 53.181232,25.4 Z m -1.98436,-7e-6 a 0.39687183,0.39687601 0 0 0 -0.396871,-0.396876 0.39687183,0.39687601 0 0 0 -0.396872,0.396876 0.39687183,0.39687601 0 0 0 0.396872,0.396876 0.39687183,0.39687601 0 0 0 0.396871,-0.396876 z m -1.71979,-1.322916 0.661458,0.661458" />
    <path
       id="rect20091"
       style="display:inline;fill:none;fill-opacity:0;stroke:url(#Icons);stroke-width:0.264584;stroke-linecap:round;stroke-linejoin:round;stroke-opacity:1"
       d="m 59.531243,22.886465 h 0.26459 v 0.79375 h -0.26459 z m 0.92605,-2e-6 v 1.190626 c 0,0.219869 -0.177,0.396875 -0.39687,0.396875 h -1.5875 c -0.21987,0 -0.39687,-0.177006 -0.39687,-0.396875 l -1e-5,-1.190626 z m -2.38127,4.497909 h 2.38125 m -2.51353,-1.05833 h 2.64584 c 0.21987,0 0.39687,0.177 0.39687,0.39687 l -10e-6,1.19063 h -3.43958 l 10e-6,-1.19063 c 0,-0.21987 0.17701,-0.39687 0.39687,-0.39687 z m -0.66145,-3.439583 c -0.29316,0 -0.52917,0.236009 -0.52917,0.529167 v 3.968746 c 0,0.29316 0.23601,0.52917 0.52917,0.52917 h 3.96875 c 0.29316,0 0.52917,-0.23601 0.52917,-0.52917 v -3.307288 l -1.19063,-1.190625 z m 0.79373,3.968743 h 2.38125" />
    <path
       id="path41787"
       style="display:inline;fill:none;stroke:url(#Icons);stroke-width:0.264582px;stroke-linecap:round;stroke-linejoin:round;stroke-opacity:1"
       d="m 66.389534,26.722916 c 0.99567,-2e-6 1.96153,-0.560897 2.53444,-1.322917 -0.57291,-0.762019 -1.53877,-1.322916 -2.53444,-1.322916 h -0.90515 c 0.66146,0.826823 0.66146,1.819011 0,2.645834 z m -1.68236,-2.645833 c 0.66146,0.826823 0.66146,1.819011 0,2.645834 m 1.10174,-0.529169 h -2.44119 m 2.44119,-1.5875 h -2.44119 m 6.34999,0.793754 a 0.39687183,0.39687601 0 0 0 -0.39687,-0.396876 0.39687183,0.39687601 0 0 0 -0.39687,0.396876 0.39687183,0.39687601 0 0 0 0.39687,0.396876 0.39687183,0.39687601 0 0 0 0.39687,-0.396876 z m 2.38123,-2e-6 h -2.38125" />
    <path
       style="fill:none;stroke:url(#Icons);stroke-width:0.264583px;stroke-linecap:round;stroke-linejoin:round;stroke-opacity:1"
       d="m 76.993752,22.621875 -1.852084,3.175 h 0.926042 l -0.661458,2.38125 1.852083,-3.175 h -0.926042 z"
       id="path15163"
       sodipodi:nodetypes="ccccccc" />
    <path
       id="path5730"
       style="display:inline;fill:none;fill-opacity:1;stroke:url(#Icons);stroke-width:0.264584;stroke-linecap:round;stroke-miterlimit:10;stroke-opacity:1;stroke-linejoin:round"
       d="m 84.931249,26.39218 a 0.26458326,0.26458337 0 0 0 -0.264583,-0.26458 0.26458326,0.26458337 0 0 0 -0.264584,0.26458 0.26458326,0.26458337 0 0 0 0.264584,0.26459 0.26458326,0.26458337 0 0 0 0.264583,-0.26459 z m -0.132292,0 a 0.13229163,0.13229169 0 0 0 -0.132291,-0.13229 0.13229163,0.13229169 0 0 0 -0.132292,0.13229 0.13229163,0.13229169 0 0 0 0.132292,0.13229 0.13229163,0.13229169 0 0 0 0.132291,-0.13229 z m 1.551506,-1.55149 c -0.44657,-0.44657 -1.052249,-0.69745 -1.683795,-0.69745 -0.631545,0 -1.237224,0.25088 -1.683794,0.69745 m 2.899868,0.46773 C 85.56022,24.9859 85.122785,24.8047 84.666669,24.8047 c -0.456117,0 -0.893551,0.1812 -1.216073,0.50372 m 1.96443,0.46772 c -0.198475,-0.19848 -0.46767,-0.30998 -0.748357,-0.30998 -0.280688,0 -0.549874,0.1115 -0.74835,0.30998" />
    <path
       id="ellipse138445"
       style="display:inline;fill:none;stroke:url(#Icons);stroke-width:0.264583;stroke-linecap:round;stroke-linejoin:round;stroke-miterlimit:10;stroke-opacity:1"
       d="m 11.112502,33.403646 a 0.13229126,0.13229257 0 0 0 -0.1323,-0.132293 0.13229126,0.13229257 0 0 0 -0.13229,0.132293 0.13229126,0.13229257 0 0 0 0.13229,0.132292 0.13229126,0.13229257 0 0 0 0.1323,-0.132292 z M 9.5250018,30.493232 v 1.058333 h 0.9260402 m -3.3072902,5.027084 h 2.64583 m -2.64583,-0.661458 h 2.64583 m -2.64583,-0.661459 h 2.64583 m -2.64582,-0.661458 h 2.64583 m -1.32292,-0.661461 h 1.9843702 v 3.307295 H 6.4822918 v -3.307295 h 1.98438 m -1.98439,1.587504 h -0.52916 c -0.43973,0 -0.79375,-0.354012 -0.79375,-0.79375 v -1.322919 c 0,-0.439738 0.35402,-0.79375 0.79375,-0.79375 v 0 h 5.0270902 c 0.43974,0 0.79375,0.354012 0.79375,0.79375 v 1.322919 c 0,0.439738 -0.35401,0.79375 -0.79375,0.79375 l -0.52917,-2e-6 m 2e-5,-2.910417 -2e-5,-1.190628 -0.9260402,-0.926044 h -3.04271 v 2.116669" />
    <g
       id="g2687">
      <path
         id="circle17222"
         style="display:inline;fill:url(#Icons);fill-opacity:1;stroke:none;stroke-width:0;stroke-linecap:round;stroke-miterlimit:10"
         d="m 19.05001,35.454167 a 0.13229166,0.13229166 0 0 1 -0.13229,0.132291 0.13229166,0.13229166 0 0 1 -0.1323,-0.132291 0.13229166,0.13229166 0 0 1 0.1323,-0.132292 0.13229166,0.13229166 0 0 1 0.13229,0.132292 z m -0.52918,0 a 0.13229166,0.13229166 0 0 1 -0.13229,0.132291 0.13229166,0.13229166 0 0 1 -0.13229,-0.132291 0.13229166,0.13229166 0 0 1 0.13229,-0.132292 0.13229166,0.13229166 0 0 1 0.13229,0.132292 z m -0.52916,0 a 0.13229166,0.13229166 0 0 1 -0.13229,0.132291 0.13229166,0.13229166 0 0 1 -0.13229,-0.132291 0.13229166,0.13229166 0 0 1 0.13229,-0.132292 0.13229166,0.13229166 0 0 1 0.13229,0.132292 z m 1.05834,-1.587498 a 0.13229166,0.13229166 0 0 1 -0.13229,0.132292 0.13229166,0.13229166 0 0 1 -0.1323,-0.132292 0.13229166,0.13229166 0 0 1 0.1323,-0.132292 0.13229166,0.13229166 0 0 1 0.13229,0.132292 z m -0.52918,0 a 0.13229166,0.13229166 0 0 1 -0.13229,0.132292 0.13229166,0.13229166 0 0 1 -0.13229,-0.132292 0.13229166,0.13229166 0 0 1 0.13229,-0.132292 0.13229166,0.13229166 0 0 1 0.13229,0.132292 z m -0.52916,0 a 0.13229166,0.13229166 0 0 1 -0.13229,0.132292 0.13229166,0.13229166 0 0 1 -0.13229,-0.132292 0.13229166,0.13229166 0 0 1 0.13229,-0.132292 0.13229166,0.13229166 0 0 1 0.13229,0.132292 z m 1.05834,-1.587501 a 0.13229166,0.13229166 0 0 1 -0.13229,0.132291 0.13229166,0.13229166 0 0 1 -0.1323,-0.132291 0.13229166,0.13229166 0 0 1 0.1323,-0.132292 0.13229166,0.13229166 0 0 1 0.13229,0.132292 z m -0.52918,0 a 0.13229166,0.13229166 0 0 1 -0.13229,0.132291 0.13229166,0.13229166 0 0 1 -0.13229,-0.132291 0.13229166,0.13229166 0 0 1 0.13229,-0.132292 0.13229166,0.13229166 0 0 1 0.13229,0.132292 z m -0.52916,0 a 0.13229166,0.13229166 0 0 1 -0.13229,0.132291 0.13229166,0.13229166 0 0 1 -0.13229,-0.132291 0.13229166,0.13229166 0 0 1 0.13229,-0.132292 0.13229166,0.13229166 0 0 1 0.13229,0.132292 z" />
      <path
         id="path17386"
         style="display:inline;fill:none;fill-opacity:1;stroke:url(#Icons);stroke-width:0.264583px;stroke-linecap:round;stroke-linejoin:round;stroke-opacity:1"
         d="m 14.94895,35.454168 h 2.38125 m -2.38129,-1.5875 h 2.38133 M 14.81667,34.925 H 19.05 c 0.21987,0 0.39688,0.177006 0.39688,0.396875 v 0.264583 c 0,0.219869 -0.17701,0.396876 -0.39688,0.396876 h -4.23333 c -0.21987,0 -0.39688,-0.177007 -0.39688,-0.396876 v -0.264583 c 0,-0.219869 0.17701,-0.396875 0.39688,-0.396875 z m 0,-1.587498 H 19.05 c 0.21987,0 0.39688,0.177007 0.39688,0.396876 v 0.264582 c 0,0.21987 -0.17701,0.396876 -0.39688,0.396876 h -4.23333 c -0.21987,0 -0.39688,-0.177006 -0.39688,-0.396876 v -0.264582 c 0,-0.219869 0.17701,-0.396876 0.39688,-0.396876 z m 0.13224,-1.058334 h 2.38133 M 14.81665,31.75 h 4.23333 c 0.21987,0 0.39687,0.177007 0.39687,0.396876 v 0.264583 c 0,0.219869 -0.177,0.396876 -0.39687,0.396876 h -4.23333 c -0.21987,0 -0.39687,-0.177007 -0.39687,-0.396876 v -0.264583 c 0,-0.219869 0.177,-0.396876 0.39687,-0.396876 z" />
    </g>
    <path
       id="path224770"
       style="display:inline;fill:none;fill-opacity:0;stroke:url(#Icons);stroke-width:0.264584;stroke-linecap:round;stroke-linejoin:round;stroke-opacity:1"
       d="m 24.710705,35.652607 0.116047,-0.52917 m 1.146519,-1e-5 0.220492,1.05835 m -2.381263,0 0.440981,-1.05834 m 2.293047,-1e-5 0.440983,1.05835 m -1.587506,0 h -2.381256 l 0.661469,-1.05834 h 3.43958 l 0.661462,1.05834 h -2.381255 m 5e-6,-1.05835 v 0.52917 m -2.050521,0 h 4.101039 m -4.299477,-4.10104 h 4.497897 c 0.0733,0 0.132302,0.059 0.132302,0.1323 v 2.51354 c 0,0.0733 -0.05901,0.1323 -0.132302,0.1323 h -4.497897 c -0.0733,0 -0.132301,-0.059 -0.132301,-0.1323 v -2.51354 c 0,-0.0733 0.05901,-0.1323 0.132301,-0.1323 z" />
    <path
       id="path24626"
       style="display:inline;fill:none;fill-opacity:0;stroke:url(#Icons);stroke-width:0.264584;stroke-linecap:round;stroke-linejoin:round;stroke-opacity:1"
       d="m 33.177368,34.991142 0.116047,-0.52917 m 1.146519,-1e-5 0.220492,1.05835 m -2.381263,0 0.440981,-1.05834 m 2.293047,-1e-5 0.440983,1.05835 m -3.307293,-1.05835 h 3.439584 m -1.719797,1.05835 h -2.381256 l 0.661469,-1.05834 10e-7,-2.11665 c 0,-0.0733 0.05784,-0.1323 0.129676,-0.1323 h 3.180215 c 0.07183,0 0.129675,0.059 0.129675,0.1323 l 9e-6,2.11665 0.661466,1.05834 h -2.381255 m 5e-6,-1.05835 v 0.52917 m -2.050521,0 h 4.101039" />
    <g
       id="g2691">
      <path
         id="circle18203-5-5"
         style="display:inline;fill:url(#Icons);fill-opacity:1;stroke:none;stroke-width:0;stroke-linecap:round;stroke-miterlimit:10"
         d="m 44.66952,35.321872 a 0.16160031,0.16160031 0 0 1 -0.1616,0.1616 0.16160031,0.16160031 0 0 1 -0.1616,-0.1616 0.16160031,0.16160031 0 0 1 0.1616,-0.1616 0.16160031,0.16160031 0 0 1 0.1616,0.1616 z" />
      <path
         id="path12215"
         style="fill:none;stroke:url(#Icons);stroke-width:0.264583px;stroke-linecap:round;stroke-linejoin:round;stroke-opacity:1"
         d="m 44.726147,34.788662 c 0,0 0.575526,-1.45114 0.575526,-2.50948 m -3.307298,1.98437 c 0.264583,-0.52917 0.529167,-1.05834 0.79375,-0.92605 0.264583,0.1323 -0.264583,1.45521 -0.529167,1.98438 0.264585,-0.52917 1.110517,-1.98438 1.5875,-1.98438 0.407452,0 0.374005,0.44262 1e-6,1.19063 -0.243931,0.48786 -0.267918,0.65184 -0.08234,0.67534 0.09992,0.0127 0.212209,-0.0816 0.302014,-0.2232 m 1.500117,1.00306 c 0.396874,-0.52917 0.793749,-1.32292 0.926041,-2.38125 0.167339,-1.3387 -0.264583,-1.85208 -0.264583,-1.85208 m -4.497917,0 c -0.396874,0.52917 -0.793749,1.32292 -0.926041,2.38125 -0.167339,1.3387 0.264583,1.85208 0.264583,1.85208 m -1.984375,-3.70416 c -0.396874,0.66145 -0.79375,1.19062 -0.926043,2.11666 -0.09355,0.65481 0.116007,1.05834 0.661458,1.05834 0.793751,0 1.45521,-1.32292 1.5875,-2.24896 0.113801,-0.79661 -0.661458,-1.05834 -1.058333,-0.79375 -0.396875,0.26458 -0.529167,0.79375 -0.529167,1.05833" />
    </g>
    <path
       id="path4734"
       style="display:inline;fill:none;stroke:url(#Icons);stroke-width:0.264582px;stroke-linecap:round;stroke-linejoin:round;stroke-opacity:1"
       d="m 51.551736,33.859227 c 0,-1.05833 -0.30918,-1.58009 -0.70605,-1.977 0.44146,0.3895 0.83467,0.91867 0.83467,1.98441 0,1.06574 -0.39321,1.58009 -0.83467,1.98433 0.44146,-0.53646 0.70605,-0.93341 0.70605,-1.99174 z m -1.36751,0.8011 a 0.13229185,0.13229533 0 0 0 -0.13229,-0.1323 0.13229185,0.13229533 0 0 0 -0.13229,0.1323 0.13229185,0.13229533 0 0 0 0.13229,0.13229 0.13229185,0.13229533 0 0 0 0.13229,-0.13229 z m 0,-1.58752 a 0.13229167,0.13229114 0 0 0 -0.13229,-0.13229 0.13229167,0.13229114 0 0 0 -0.13229,0.13229 0.13229167,0.13229114 0 0 0 0.13229,0.13229 0.13229167,0.13229114 0 0 0 0.13229,-0.13229 z" />
    <path
       id="path7046"
       style="display:inline;fill:none;fill-opacity:1;stroke:url(#Icons);stroke-width:0.264583;stroke-linecap:round;stroke-linejoin:round;stroke-miterlimit:10;stroke-dasharray:none;stroke-opacity:1"
       d="m 63.433847,33.86665 c -10e-7,-0.0731 -0.05923,-0.13229 -0.132292,-0.13229 -0.07306,0 -0.13229,0.0592 -0.132291,0.13229 1e-6,0.0731 0.05923,0.13229 0.132291,0.13229 0.07306,0 0.132291,-0.0592 0.132292,-0.13229 z m 0.132292,0 c -2e-6,-0.14612 -0.118459,-0.26458 -0.264583,-0.26458 -0.146124,0 -0.264581,0.11846 -0.264583,0.26458 -3e-6,0.14613 0.118456,0.26459 0.264583,0.26459 0.146127,0 0.264586,-0.11846 0.264583,-0.26459 z m -1.719785,0 c -10e-7,-0.0731 -0.05923,-0.13229 -0.132292,-0.13229 -0.07306,0 -0.13229,0.0592 -0.132291,0.13229 10e-7,0.0731 0.05923,0.13229 0.132291,0.13229 0.07306,0 0.132291,-0.0592 0.132292,-0.13229 z m 0.132292,0 c -2e-6,-0.14612 -0.118459,-0.26458 -0.264583,-0.26458 -0.146124,0 -0.264581,0.11846 -0.264583,0.26458 -3e-6,0.14613 0.118456,0.26459 0.264583,0.26459 0.146127,0 0.264586,-0.11846 0.264583,-0.26459 z m -1.587503,0 c -10e-7,-0.0731 -0.05923,-0.13229 -0.132292,-0.13229 -0.07306,0 -0.13229,0.0592 -0.132291,0.13229 1e-6,0.0731 0.05923,0.13229 0.132291,0.13229 0.07306,0 0.132291,-0.0592 0.132292,-0.13229 z m 0.132292,0 c -2e-6,-0.14612 -0.118459,-0.26458 -0.264583,-0.26458 -0.146124,0 -0.264581,0.11846 -0.264583,0.26458 -3e-6,0.14613 0.118456,0.26459 0.264583,0.26459 0.146127,0 0.264586,-0.11846 0.264583,-0.26459 z m -2.095918,0.50319 1.079075,0.50318 c -0.471867,1.01193 -1.583471,1.56011 -2.673543,1.31845 -1.090068,-0.24166 -1.865849,-1.20827 -1.865851,-2.3248 -3e-6,-1.11654 0.77578,-2.08315 1.865852,-2.32481 1.090069,-0.24166 2.20167,0.30652 2.673541,1.31844 l -2.158149,1.00636 1.079075,0.50318" />
    <path
       style="display:inline;fill:none;stroke:url(#Icons);stroke-width:0.264583px;stroke-linecap:round;stroke-linejoin:round;stroke-opacity:1"
       d="m 67.071879,33.205202 1.322916,1.32292 -0.661459,0.66146 v -2.64583 l 0.661459,0.66145 -1.322916,1.32292"
       id="path2464"
       sodipodi:nodetypes="cccccc" />
    <g
       id="g2695">
      <circle
         style="display:inline;fill:url(#Icons);fill-opacity:1;stroke:none;stroke-width:0;stroke-linecap:round;stroke-miterlimit:10;stroke-dasharray:none;stroke-opacity:1"
         id="circle18203-5-1"
         cx="76.199997"
         cy="33.998966"
         r="0.13229166" />
      <path
         id="path13047"
         style="fill:none;stroke:url(#Icons);stroke-width:0.264583;stroke-linecap:round;stroke-linejoin:round;stroke-miterlimit:4;stroke-dasharray:none;stroke-opacity:1"
         d="m 77.655206,36.51251 0.926041,-1.19063 -0.661458,-2.51354 m -3.175002,3.70417 -0.926041,-1.19063 0.661458,-2.51354 m -0.264582,-1.32293 c -1e-5,-0.14612 -0.533066,-0.26458 -1.19062,-0.26458 -0.657554,0 -1.190611,0.11846 -1.190621,0.26458 -1.4e-5,0.14613 0.533049,0.26459 1.190621,0.26459 0.657572,0 1.190634,-0.11846 1.19062,-0.26459 z m 6.349999,0 c -10e-6,-0.14612 -0.533067,-0.26458 -1.190621,-0.26458 -0.657554,0 -1.19061,0.11846 -1.19062,0.26458 -1.4e-5,0.14613 0.533048,0.26459 1.19062,0.26459 0.657572,0 1.190635,-0.11846 1.190621,-0.26459 z m -7.540624,0.13231 v 0.66148 m 6.35,-0.66148 v 0.66147 m -4.365626,-2e-5 h -2.248958 c -0.146582,0 -0.264583,0.118 -0.264583,0.26458 0,0.14658 0.118001,0.26459 0.264583,0.26459 h 2.248958 m 2.38125,0 h 2.248959 c 0.146581,0 0.264583,-0.11801 0.264583,-0.26459 0,-0.14658 -0.118002,-0.26458 -0.264583,-0.26458 h -2.248959 m -0.66146,1.71979 c -3e-6,-0.29225 -0.236915,-0.52916 -0.52916,-0.52916 -0.292245,0 -0.529157,0.23691 -0.52916,0.52916 -3e-6,0.29225 0.236911,0.52917 0.52916,0.52917 0.292249,0 0.529163,-0.23692 0.52916,-0.52917 z M 75.406246,31.75 c -0.219868,0 -0.396875,0.17701 -0.396875,0.39688 v 1.98437 c 0,0.10465 0.03804,0.20158 0.105937,0.27027 l 0.804084,0.81339 c 0.154575,0.15636 0.406633,0.15636 0.561208,0 l 0.804085,-0.81339 c 0.0679,-0.0687 0.105936,-0.16562 0.105936,-0.27027 v -1.98437 c 0,-0.21987 -0.177006,-0.39688 -0.396875,-0.39688 z"
         sodipodi:nodetypes="ccccccsssssssssscccccsssccssscsssssssscsscssss" />
    </g>
    <path
       id="rect40479"
       style="display:inline;fill:none;fill-opacity:0;stroke:url(#Icons);stroke-width:0.264583;stroke-linecap:round;stroke-linejoin:round"
       d="m 83.079164,36.31406 h 3.175008 c 0.219867,0 0.396872,0.17701 0.396872,0.39687 0,0.21987 -0.177005,0.39688 -0.396872,0.39688 h -3.175008 c -0.219866,0 -0.396871,-0.17701 -0.396871,-0.39688 0,-0.21986 0.177005,-0.39687 0.396871,-0.39687 z m 1.587504,-4.49791 h 1.322916 l 1e-6,-1.19062 h -0.529166 v 0.39688 h -0.529167 v -0.39688 h -0.529167 v 0.39688 h -0.529166 v -0.39688 h -0.529167 l -10e-7,1.19062 z m 0.926041,0.52917 c 0,0 0,1.98437 0.529167,3.43958 m -2.38125,-3.43958 c 0,0 0,1.98437 -0.529167,3.43958 m 0.529171,-3.96875 h 1.852077 c 0.14658,0 0.264586,0.11801 0.264586,0.26459 v 0 c 0,0.14658 -0.118006,0.26459 -0.264586,0.26459 H 83.74063 c -0.146581,0 -0.264586,-0.11801 -0.264586,-0.26459 v 0 c 0,-0.14658 0.118005,-0.26459 0.264586,-0.26459 z m -0.529168,3.96875 h 2.910412 c 0.146581,0 0.264586,0.11801 0.264586,0.26459 v 0 c 0,0.14658 -0.118005,0.26459 -0.264586,0.26459 h -2.910412 c -0.14658,0 -0.264586,-0.11801 -0.264586,-0.26459 v 0 c 0,-0.14658 0.118006,-0.26459 0.264586,-0.26459 z" />
    <path
       id="path8150"
       style="display:inline;fill:none;fill-opacity:1;stroke:url(#Icons);stroke-width:0.264583;stroke-linecap:round;stroke-linejoin:round;stroke-miterlimit:10;stroke-dasharray:none;stroke-opacity:1"
       d="m 11.773961,44.71458 c -10e-7,-0.0731 -0.05923,-0.13229 -0.132292,-0.13229 -0.07306,0 -0.132289,0.0592 -0.132291,0.13229 10e-7,0.0731 0.05923,0.13229 0.132291,0.13229 0.07306,0 0.132291,-0.0592 0.132292,-0.13229 z m 0.132292,0 C 11.906251,44.56846 11.787794,44.45 11.64167,44.45 c -0.146124,0 -0.264581,0.11846 -0.264583,0.26458 -3e-6,0.14613 0.118456,0.26459 0.264583,0.26459 0.146127,0 0.264586,-0.11846 0.264583,-0.26459 z m -0.132292,-2.381255 c -10e-7,-0.0731 -0.05923,-0.13229 -0.132292,-0.13229 -0.07306,0 -0.132289,0.0592 -0.132291,0.13229 10e-7,0.0731 0.05923,0.13229 0.132291,0.13229 0.07306,0 0.132291,-0.0592 0.132292,-0.13229 z m 0.132292,0 c -2e-6,-0.14612 -0.118459,-0.26458 -0.264583,-0.26458 -0.146124,0 -0.264581,0.11846 -0.264583,0.26458 -3e-6,0.14613 0.118456,0.26459 0.264583,0.26459 0.146127,0 0.264586,-0.11846 0.264583,-0.26459 z M 11.773961,39.95209 c -10e-7,-0.0731 -0.05923,-0.13229 -0.132292,-0.13229 -0.07306,0 -0.132289,0.0592 -0.132291,0.13229 10e-7,0.0731 0.05923,0.13229 0.132291,0.13229 0.07306,0 0.132291,-0.0592 0.132292,-0.13229 z m 0.132292,0 c -2e-6,-0.14612 -0.118459,-0.26458 -0.264583,-0.26458 -0.146124,0 -0.264581,0.11846 -0.264583,0.26458 -3e-6,0.14613 0.118456,0.26459 0.264583,0.26459 0.146127,0 0.264586,-0.11846 0.264583,-0.26459 z m -2.248962,1.3229 c -1e-6,-0.0731 -0.05923,-0.13229 -0.132292,-0.13229 -0.07306,0 -0.13229,0.0592 -0.132291,0.13229 10e-7,0.0731 0.05923,0.13229 0.132291,0.13229 0.07306,0 0.132291,-0.0592 0.132292,-0.13229 z m 0.132292,0 c -2e-6,-0.14612 -0.118459,-0.26458 -0.264583,-0.26458 -0.146124,0 -0.264581,0.11846 -0.264583,0.26458 -3e-6,0.14613 0.118456,0.26459 0.264583,0.26459 0.146127,0 0.264586,-0.11846 0.264583,-0.26459 z m -0.1322915,2.116675 c -10e-7,-0.0731 -0.05923,-0.13229 -0.132292,-0.13229 -0.07306,0 -0.13229,0.0592 -0.132291,0.13229 1e-6,0.0731 0.05923,0.13229 0.132291,0.13229 0.07306,0 0.132291,-0.0592 0.132292,-0.13229 z m 0.132292,0 c -2e-6,-0.14612 -0.118459,-0.26458 -0.264583,-0.26458 -0.146124,0 -0.264581,0.11846 -0.264583,0.26458 -3e-6,0.14613 0.118456,0.26459 0.264583,0.26459 0.146127,0 0.264586,-0.11846 0.264583,-0.26459 z M 5.423961,44.71458 c -1e-6,-0.0731 -0.05923,-0.13229 -0.132292,-0.13229 -0.07306,0 -0.13229,0.0592 -0.132291,0.13229 1e-6,0.0731 0.05923,0.13229 0.132291,0.13229 0.07306,0 0.132291,-0.0592 0.132292,-0.13229 z m 0.132292,0 C 5.556251,44.56846 5.437794,44.45 5.29167,44.45 c -0.146124,0 -0.264581,0.11846 -0.264583,0.26458 -3e-6,0.14613 0.118456,0.26459 0.264583,0.26459 0.146127,0 0.264586,-0.11846 0.264583,-0.26459 z m 1.9843685,-1.322915 c -1e-6,-0.0731 -0.05923,-0.13229 -0.132292,-0.13229 -0.07306,0 -0.13229,0.0592 -0.132291,0.13229 1e-6,0.0731 0.05923,0.13229 0.132291,0.13229 0.07306,0 0.132291,-0.0592 0.132292,-0.13229 z m 0.132292,0 c -2e-6,-0.14612 -0.118459,-0.26458 -0.264583,-0.26458 -0.146124,0 -0.264581,0.11846 -0.264583,0.26458 -3e-6,0.14613 0.118456,0.26459 0.264583,0.26459 0.146127,0 0.264586,-0.11846 0.264583,-0.26459 z M 5.423961,42.333325 c -1e-6,-0.0731 -0.05923,-0.13229 -0.132292,-0.13229 -0.07306,0 -0.13229,0.0592 -0.132291,0.13229 1e-6,0.0731 0.05923,0.13229 0.132291,0.13229 0.07306,0 0.132291,-0.0592 0.132292,-0.13229 z m 0.132292,0 c -2e-6,-0.14612 -0.118459,-0.26458 -0.264583,-0.26458 -0.146124,0 -0.264581,0.11846 -0.264583,0.26458 -3e-6,0.14613 0.118456,0.26459 0.264583,0.26459 0.146127,0 0.264586,-0.11846 0.264583,-0.26459 z M 7.540621,41.27499 c -1e-6,-0.0731 -0.05923,-0.13229 -0.132292,-0.13229 -0.07306,0 -0.13229,0.0592 -0.132291,0.13229 1e-6,0.0731 0.05923,0.13229 0.132291,0.13229 0.07306,0 0.132291,-0.0592 0.132292,-0.13229 z m 0.132292,0 c -2e-6,-0.14612 -0.118459,-0.26458 -0.264583,-0.26458 -0.146124,0 -0.264581,0.11846 -0.264583,0.26458 -3e-6,0.14613 0.118456,0.26459 0.264583,0.26459 0.146127,0 0.264586,-0.11846 0.264583,-0.26459 z m -2.2489515,-1.3229 c -1e-6,-0.0731 -0.05923,-0.13229 -0.132292,-0.13229 -0.07306,0 -0.13229,0.0592 -0.132291,0.13229 1e-6,0.0731 0.05923,0.13229 0.132291,0.13229 0.07306,0 0.132291,-0.0592 0.132292,-0.13229 z m 0.132292,0 c -2e-6,-0.14612 -0.118459,-0.26458 -0.264583,-0.26458 -0.146124,0 -0.264581,0.11846 -0.264583,0.26458 -3e-6,0.14613 0.118456,0.26459 0.264583,0.26459 0.146127,0 0.264586,-0.11846 0.264583,-0.26459 z M 9.525,41.275 H 7.40833 m 0,2.11667 L 5.29167,42.33334 7.40833,41.275 5.29167,44.71459 7.40833,43.39167 5.29167,39.95209 7.40833,41.275 9.525,43.39167 11.64167,42.33334 9.525,41.275 11.64167,44.71459 9.525,43.39167 11.64167,39.95209 9.525,41.275 Z m 2.11667,0 H 7.40833" />
    <path
       style="display:inline;fill:none;stroke:url(#Icons);stroke-width:0.529168;stroke-linecap:round;stroke-linejoin:round;stroke-miterlimit:4;stroke-dasharray:none;stroke-opacity:1"
       d="m 13.493754,42.333334 h 8.334372"
       id="path102414"
       sodipodi:nodetypes="cc" />
    <path
       id="rect35255"
       style="display:inline;fill:none;stroke:url(#Icons);stroke-width:0.264583;stroke-linecap:round;stroke-linejoin:round;stroke-opacity:1"
       d="m 24.341668,42.730214 h 0.793753 v 0.26458 h -0.793753 z m 0,-1.05833 h 0.793753 v 0.26458 h -0.793753 z m -2.248925,0.52916 h -0.26459 v 0.26458 h 0.26459 z m 6.614518,0 h 0.264587 v 0.26458 h -0.264587 z m -1.190587,-1.05833 h -1.058337 v 2.38125 h 1.058337 m -1.1e-5,-2.38126 a 1.1906147,1.1906272 0 0 1 1.031103,0.59532 1.1906147,1.1906272 0 0 1 0,1.19062 1.1906147,1.1906272 0 0 1 -1.031103,0.59532 m -4.233325,-2.38125 h 1.05833 v 2.38125 h -1.05833 m 0,-2.38125 c -0.425367,0 -0.81841,0.22693 -1.031091,0.59531 -0.21268,0.36838 -0.21268,0.82224 0,1.19062 0.212681,0.36838 0.605735,0.59532 1.031102,0.59532" />
    <path
       style="display:inline;fill:none;stroke:url(#Icons);stroke-width:0.529167;stroke-linecap:round;stroke-linejoin:round;stroke-miterlimit:4;stroke-dasharray:none;stroke-opacity:1"
       d="m 28.971876,42.333334 h 8.334379"
       id="path103202"
       sodipodi:nodetypes="cc" />
    <g
       id="g2699">
      <path
         id="path2062"
         style="display:inline;fill:none;fill-opacity:1;stroke:url(#Icons);stroke-width:0.264583;stroke-linecap:round;stroke-linejoin:round;stroke-miterlimit:10;stroke-opacity:1"
         d="m 45.243751,42.33333 c -1e-6,-0.35086 -0.139378,-0.68735 -0.387103,-0.93507 0.387116,0.40591 0.651699,0.80278 1.577741,0.80278 l -1e-6,0.13234 1e-6,0.13224 c -0.926042,0 -1.190625,0.39688 -1.57774,0.80279 0.247727,-0.24773 0.387104,-0.58422 0.387102,-0.93508 z m -2.875871,1.05145 c -0.332432,0.17016 -0.456006,0.29977 -1.041202,0.22057 m 2.505845,0.62039 c -0.127055,0.57289 0.159928,0.50475 -0.152087,1.21016 m 0.572923,-5.17951 c 0.246112,-0.37542 0.585883,-0.90888 0.177425,-1.10081 m -2.99363,2.38688 c -0.289447,-0.30731 -0.715533,-0.63565 -1.030207,-0.0441 m 4.720353,2.35331 c 0.219569,0.39749 -0.139169,0.61963 0.264292,0.92842 m -0.748934,-1.33811 c 0.316612,0.0218 0.410964,0.29478 0.571788,0.56219 0.183971,0.3059 0.54402,0.37999 0.783302,0.125 m -2.588056,0.53875 c -0.466153,0.39164 -0.253293,0.77877 -0.585771,1.072 m 0.93434,-2.0937 c 0.247211,0.31862 0.102873,0.68373 -0.205936,0.92306 -0.465108,0.36047 -0.777077,0.2182 -1.247573,0.62283 m 0.647758,-1.95744 c -0.369058,-0.0147 -0.564094,0.12229 -0.689492,0.24961 -0.127693,0.12965 -0.171002,0.30148 -0.199678,0.57125 m -0.109264,-2.10121 c -0.69971,-0.15782 -0.893108,-1.47607 -0.893108,-1.47607 m 1.536995,1.86183 c -0.308954,-0.4089 -0.752492,-0.47848 -1.126495,-0.28911 -0.264646,0.13399 -0.608959,0.0846 -0.730111,-0.0464 M 42.586774,40.4307 C 42.70868,39.88631 42.35353,39.55135 42.461089,39.26291 m 0.622159,2.04645 c -0.719926,-0.0563 -0.791075,-0.59592 -0.23373,-1.27403 0.557344,-0.6781 0.142857,-1.09186 -0.01506,-1.26835 m 1.767092,1.32653 c 0,0 0.929353,-0.11304 0.678547,-0.86546 m -1.02221,1.82602 c -0.185372,-0.43265 -0.09248,-0.92498 0.251214,-0.96213 0.343697,-0.0372 0.775865,0.4603 1.208357,0.0341 m -0.861177,1.27185 a 1.3229028,1.3229167 0 0 0 -1.870867,0 1.3229028,1.3229167 0 0 0 0,1.87089 1.3229028,1.3229167 0 0 0 1.870867,0" />
      <path
         id="path63598"
         style="display:inline;fill:url(#Icons);fill-opacity:1;stroke:none;stroke-width:0.264583;stroke-linecap:round;stroke-linejoin:round;stroke-miterlimit:10;stroke-opacity:1"
         d="m 45.243751,42.33333 c -1e-6,-0.35086 -0.139378,-0.68735 -0.387103,-0.93507 0.387116,0.40591 0.651699,0.80278 1.577741,0.80278 l -1e-6,0.13234 1e-6,0.13224 c -0.926042,0 -1.190625,0.39688 -1.57774,0.80279 0.247727,-0.24773 0.387104,-0.58422 0.387102,-0.93508 z"
         sodipodi:nodetypes="scccccs" />
    </g>
    <path
       style="display:inline;fill:none;stroke:url(#Icons);stroke-width:0.529166;stroke-linecap:round;stroke-linejoin:round;stroke-miterlimit:4;stroke-dasharray:none;stroke-opacity:1"
       d="m 46.434375,42.333334 h 8.731251"
       id="path18035-6-2"
       sodipodi:nodetypes="cc" />
    <path
       id="rect22630"
       style="fill:none;stroke:url(#Icons);stroke-width:0.264583;stroke-linecap:round;stroke-linejoin:round;stroke-miterlimit:10;stroke-opacity:1;paint-order:markers fill stroke"
       d="m 57.017709,42.333334 v 0.1323 h -1.852083 v -0.1323 -0.13229 h 1.852083 v 0.13229 m 1.056976,-2.24051 c -0.01822,-0.58564 0.76786,-1.2229 1.47529,-1.05627 m 0.558139,2.38026 c 0.270629,-0.2865 0.795663,-0.87768 0.353311,-1.34897 m -1.332587,5.12419 c 0.282522,-0.36169 0.536178,-0.41968 0.873701,-0.46505 0.337523,-0.0454 0.50036,-0.17344 0.615982,-0.3638 m -0.384728,-1.78764 c 0.500103,0.41033 0.850895,0.60911 1.067216,1.33408 m -2.841504,-1.76716 c 0.608132,0.35815 2.367934,0.54524 3.075364,0.48093 m -2.418165,-1.11617 c 0.377338,-0.26116 0.856895,-0.17434 1.249638,0.0117 0.392739,0.18604 1.050065,0.0786 1.318781,-0.19844 m -4.270748,0.25761 c 0.308566,-0.66189 0.05132,-1.15884 -0.708732,-1.47455 m 1.235975,0.89692 c 0.289967,-0.69229 0.205194,-1.36172 -0.589934,-1.85575 m -1.230693,3.05633 c 0.666504,0 1.011449,-0.28508 1.51425,-0.86973 0.502798,-0.58466 1.04068,-0.98807 1.432396,-1.19269 m -2.133981,2.06242 c 0.871133,0 1.6838,0.10664 2.005359,-0.36693 0.321559,-0.47357 0.309864,-1.04653 1.081606,-1.30962 m -1.874268,2.58333 c 0.757581,0.14115 1.108374,0.26977 1.546862,0.84273 m -1.037095,0.60322 c 0.0081,0.66547 -0.342683,1.13904 -0.453768,1.26182 m -1.251154,-3.34996 c 0.795126,0.12852 1.104993,0.40916 1.3447,0.90611 0.239707,0.49696 0.128622,1.91181 1.789033,2.25676 m -3.219495,-2.55946 c -0.288417,0.38455 -0.3995,0.7295 -0.323496,1.07444 m -1.244023,-1.67785 c 0.926042,0 2.146036,0.69044 2.513542,2.11667" />
    <path
       id="path8751"
       style="display:inline;fill:none;fill-opacity:1;stroke:url(#Icons);stroke-width:0.264583;stroke-linecap:round;stroke-linejoin:round;stroke-miterlimit:4;stroke-dasharray:none;stroke-opacity:1"
       inkscape:transform-center-x="0.2494525"
       inkscape:transform-center-y="0.24945257"
       d="m 68.294609,40.251631 0.4989,-0.498903 m 0.42525,2.537353 0.49891,-0.498903 0.4989,0.498903 m -0.93382,1.49857 0.4989,-0.498903 0.49891,0.498903 m -0.95972,-0.726795 0.49891,-0.498903 0.4989,0.498903 m -3.14657,-2.810225 -0.49891,-0.498903 m 1.85392,1.060169 a 0.79375017,0.79375017 0 0 1 -0.79375,0.793751 0.79375017,0.79375017 0 0 1 -0.79375,-0.793751 0.79375017,0.79375017 0 0 1 0.79375,-0.79375 0.79375017,0.79375017 0 0 1 0.79375,0.79375 z m -0.19303,0.51896 c 0.23017,0.09387 0.44083,0.238247 0.59694,0.420378 0.28728,0.335161 0.38984,0.798182 0.38984,1.309619 v 0 c 0,0.51144 -0.002,0.97446 -0.28968,1.309621 -0.28728,0.335161 -0.61973,0.542465 -1.29782,0.542465 -0.67808,0 -1.01053,-0.207304 -1.29781,-0.542465 -0.28728,-0.335161 -0.28969,-0.798181 -0.28969,-1.309621 0,-0.511437 0.10257,-0.974458 0.38985,-1.309619 0.15635,-0.182414 0.36742,-0.326953 0.59801,-0.420812 m -1.88359,0.958658 0.49891,-0.498903 0.4989,0.498903 m -0.064,1.49857 -0.4989,-0.498903 -0.49891,0.498903 m 0.95972,-0.726795 -0.4989,-0.498903 -0.49891,0.498903 m 2.58532,1.84104 v -3.296213" />
    <path
       id="path91960"
       style="display:inline;fill:none;stroke:url(#Icons);stroke-width:0.264582px;stroke-linecap:round;stroke-linejoin:round;stroke-opacity:1"
       d="m 77.126048,39.489074 -0.41374,0.55166 m -0.75976,4.47542 h 0.49489 m -0.7084,-0.26459 h 0.9219 m -1.31154,-0.66146 h 1.7012 m -1.80196,-0.26459 h 1.90273 m -2.00705,-0.79374 h 2.11133 m -2.08962,-0.26458 h 2.06792 m -1.96,-2.77813 0.41369,0.55158 m 0.51237,4.74009 v 0.39687 m 0,-3.83644 c -0.29571,-0.44358 -1.13647,-0.88717 -1.626423,-0.88717 -0.48995,0 -0.88713,0.39719 -0.88713,0.887139 0,0.489961 0.39718,0.887151 0.88713,0.887151 0.489963,0 1.330713,-0.443561 1.626423,-0.88712 z m 2.51354,-3e-5 c 0,-0.48995 -0.39718,-0.887131 -0.88713,-0.887131 -0.48994,0 -1.3307,0.443581 -1.62641,0.887161 0.29571,0.443559 1.13646,0.88712 1.62641,0.88712 0.48995,0 0.88713,-0.39719 0.88713,-0.88715 z m -1.60241,-0.69455 c -0.0799,-0.44045 -0.46351,-0.76066 -0.91116,-0.76065 -0.44764,0 -0.8312,0.3202 -0.91115,0.76065 m -0.0928,1.429999 c -0.0352,0.18459 -0.0543,0.382131 -0.0543,0.58748 0,1.022871 0.79374,1.852081 1.05833,2.116661 0.26459,-0.26458 1.05834,-1.09379 1.05834,-2.116661 0,-0.205349 -0.0191,-0.40289 -0.0543,-0.58748"
       sodipodi:nodetypes="cccccccccccccccccccssscsscssccccscsc" />
    <path
       id="ellipse46796"
       style="display:inline;fill:none;stroke:url(#Icons);stroke-width:0.264583;stroke-linecap:round;stroke-linejoin:round;stroke-miterlimit:10;stroke-dasharray:none;stroke-opacity:1"
       d="m 84.865123,41.067296 c 0,0.10959 -0.0888,0.19843 -0.19843,0.19843 -0.10959,0 -0.19843,-0.0888 -0.19843,-0.19843 0,-0.10959 0.0888,-0.19843 0.19843,-0.19843 0.10959,0 0.19843,0.0888 0.19843,0.19843 z m -0.72762,2.3151 -0.26459,0.79375 m 1.32292,-0.79375 0.26459,0.79375 m -1.5875,-1.5875 -0.52916,1.5875 m 2.11666,-1.5875 0.52916,1.5875 m -2.91042,-0.79375 -0.79375,0.26459 v 0.52917 l -0.79375,0.26458 m 1.98438,-2.24896 -0.79375,0.26458 v 0.52917 l -0.79375,0.26458 m 1.71979,-1.45521 -0.79375,-0.26458 v -0.52917 l -0.39688,-0.39687 m 3.83647,2.77812 0.79375,0.26459 v 0.52917 l 0.79375,0.26458 m -1.98438,-2.24896 0.79375,0.26458 v 0.52917 l 0.79375,0.26458 m -1.71979,-1.45521 0.79375,-0.26458 v -0.52917 l 0.39688,-0.39687 m -2.39035,0.60206 c -0.0878,0.0591 -0.20645,0.10773 -0.33404,0.13681 -0.29232,0.0666 -0.55329,0.0153 -0.5829,-0.11461 v 0 c -0.0296,-0.12992 0.18335,-0.28925 0.47567,-0.35588 0.19438,-0.0443 0.38393,-0.0377 0.49373,0.0172 m 0.23025,0.31642 c 0.0878,0.0592 0.20649,0.10777 0.33411,0.13686 0.29232,0.0666 0.55329,0.0153 0.5829,-0.11461 v 0 c 0.0296,-0.12992 -0.18335,-0.28925 -0.47567,-0.35588 -0.19438,-0.0443 -0.38392,-0.0377 -0.49372,0.0172 m 0.72809,0.47703 0.109,0.0311 0.95591,2.86771 c 0.23472,0.70416 -0.39546,0.76218 -0.82361,0.70416 -0.37488,-0.0508 -1.05834,-0.26458 -1.05834,-1.71979 l 1e-5,-2e-5 c 0,1.4552 -0.68346,1.66898 -1.05834,1.71978 -0.42815,0.058 -1.05833,-1e-5 -0.82361,-0.70416 l 0.95591,-2.86771 0.10899,-0.0311 m 0.81704,1.88326 v -2.38125 m 0.2696,-0.0228 c 0.0387,-0.588 0.30162,-1.04608 0.78874,-1.16786 m -1.32793,1.16784 c -0.0387,-0.58799 -0.30163,-1.04606 -0.78874,-1.16784"
       sodipodi:nodetypes="ssssscccccccccccccccccccccccccccccccccssssccsssscccssccsscccccccc" />
    <path
       id="path58982-1"
       style="display:inline;fill:none;stroke:url(#linearGradient1073);stroke-width:0.264583;stroke-linecap:round;stroke-linejoin:round;stroke-miterlimit:4;stroke-dasharray:none;stroke-opacity:1"
       d="m 8.99585,48.08801 0.52916,3.43958 c 0.0889,0.57771 -0.47383,1.05834 -1.05833,1.05834 -0.5845,0 -1.14721,-0.48063 -1.05833,-1.05834 L 7.93751,48.08801 M 7.27604,54.57032 6.48229,52.18907 7.40064,51.69928 m 2.13205,0 0.91835,0.48979 -0.79375,2.38125 m -4.7625,-1.98437 0.79375,-2.38126 h 1.9234 m 1.70946,0 h 1.92339 l 0.79375,2.38126 M 6.74687,47.02969 6.08541,49.01407 h 1.70946 m 1.3436,0 h 1.70945 l -0.66146,-1.98438 m -2.61947,3.46594 0.89968,0.89969 0.89968,-0.89969 M 9.15448,49.12 8.46667,49.80782 7.77886,49.12 m 0.68781,-1.03197 v 4.49791 m 0.46304,-5.29168 c -0.18874,0.27656 -0.16367,0.53955 0,0.79375 M 8.00356,47.29426 c 0.21371,0.3112 0.13524,0.55867 0,0.79375 m -0.066,-0.79374 h 1.05833 c 0.21986,0 0.39687,0.17701 0.39687,0.39688 0,0.21986 -0.17701,0.39687 -0.39687,0.39687 H 7.93756 c -0.21987,0 -0.39687,-0.17701 -0.39687,-0.39687 0,-0.21987 0.177,-0.39688 0.39687,-0.39688 z" />
    <path
       id="path24613"
       style="display:inline;fill:#fffffa;fill-opacity:0.0403226;stroke:url(#Icons);stroke-width:0.264584;stroke-linecap:round;stroke-miterlimit:10;stroke-opacity:1;stroke-linejoin:round"
       d="m 20.317544,49.964811 c -0.17508,-1.81238 -0.73841,-3.16238 -1.42733,-3.42054 -0.68892,-0.25816 -1.37036,0.63101 -1.72262,2.24577 m -3.61847,1.17477 c 0.17508,-1.81238 0.73841,-3.16238 1.42733,-3.42054 0.68892,-0.25816 1.37036,0.63101 1.72262,2.24577 m -1.88241,6.30899 0.79375,-0.39688 -0.66145,-1.19062 1.25136,-0.66146 m -0.19303,-1.32292 h -1.05833 l -0.66146,0.92604 -0.52916,0.26458 m 5.29166,2.38126 -0.79375,-0.39688 0.66145,-1.19062 -1.25137,-0.66146 m 0.19304,-1.32292 h 1.05833 l 0.66146,0.92604 0.52916,0.26458 m -2.64584,-3.57186 c -10e-6,-0.21919 -0.23691,-0.39689 -0.52915,-0.39689 -0.29225,0 -0.52916,0.1777 -0.52917,0.39689 0,0.21919 0.23691,0.39688 0.52916,0.39688 0.29225,0 0.52916,-0.17769 0.52916,-0.39688 z m -2.9104,-0.1323 0.52917,0.39687 v 0.66146 l 0.979,0.52917 m 0.87308,-1.05834 v 4.23333 m -0.46484,-4.44122 c -0.27579,0.41239 -0.4612,1.1805 -0.4612,2.05997 0,1.31512 0.41459,2.38124 0.92603,2.38125 0.51144,0 0.92604,-1.06612 0.92604,-2.38125 v 0 c 0,-0.87948 -0.18542,-1.6476 -0.46121,-2.05998 m 1.91643,-0.32126 -0.52917,0.39687 v 0.66146 l -0.979,0.52917" />
    <path
       id="path74937"
       style="fill:none;stroke:url(#Icons);stroke-width:0.264583;stroke-linecap:round;stroke-linejoin:round;stroke-miterlimit:4;stroke-dasharray:none;stroke-opacity:1"
       d="m 26.716259,52.515037 0.93269,0.66621 v 1.5875 m -1.597964,-6.232115 c 0.0069,-0.03826 0.01048,-0.07765 0.01048,-0.117885 v 0 c 0,-0.36531 -0.296151,-0.661461 -0.661461,-0.661461 -0.365311,0 -0.661461,0.29614 -0.661461,0.661461 0,0.04023 0.0036,0.07963 0.01048,0.117888 m -0.665295,3.978402 -0.932685,0.66621 v 1.5875 m 0.926044,-4.101037 -1.190622,0.132289 -0.79375,1.190631 m 2.024676,-2.691826 -0.966348,-0.483177 -0.39687,-1.5875 m 3.968753,2.501813 c -0.31749,0.173299 -0.717219,0.276309 -1.15253,0.276309 H 25.22961 c -0.435308,0 -0.835038,-0.10301 -1.152528,-0.276309 m 0.95127,0.269055 c -0.0163,0.04341 -0.02522,0.09043 -0.02522,0.139541 0,0.219191 0.177681,0.39688 0.39687,0.39688 0.219189,0 0.39688,-0.177689 0.39687,-0.39688 v 0 c 2e-6,-0.04911 -0.0089,-0.09613 -0.02521,-0.139541 M 25.26771,48.418749 h 0.264581 c 0.659611,0 1.19063,0.531022 1.19063,1.190631 v 2.778119 c 0,0.659612 -0.531019,1.190631 -1.19063,1.190631 H 25.26771 c -0.659609,0 -1.190628,-0.531019 -1.190628,-1.190631 V 49.60938 c 0,-0.659609 0.531019,-1.190631 1.190628,-1.190631 z m 1.455211,2.248961 1.19062,0.132289 0.79375,1.190631 m -2.024687,-2.691826 0.966356,-0.483177 0.39687,-1.5875 m -3.012731,0.640265 -0.691431,-1.037145 m 1.425231,1.037145 0.691431,-1.037145 m -0.403731,1.683112 c 0.0045,-0.03122 0.0069,-0.06314 0.0069,-0.09561 v 0 c 0,-0.36531 -0.296151,-0.66144 -0.661461,-0.66144 -0.36531,0 -0.661461,0.296148 -0.661461,0.661458 0,0.03247 0.0024,0.06439 0.0069,0.09561 m 0.654619,2.021025 v 3.042727"
       sodipodi:nodetypes="ccccsssscccccccccccssccsssscssssssssscccccccccccssssccc" />
    <path
       id="circle6548"
       style="fill:none;stroke:url(#Icons);stroke-width:0.264583;stroke-linecap:round;stroke-linejoin:round;stroke-miterlimit:10;paint-order:markers fill stroke"
       d="m 36.655924,48.76239 a 0.13229184,0.13229184 0 0 1 -0.132292,0.132292 0.13229184,0.13229184 0 0 1 -0.132292,-0.132292 0.13229184,0.13229184 0 0 1 0.132292,-0.132292 0.13229184,0.13229184 0 0 1 0.132292,0.132292 z m -0.696076,-0.168728 a 0.13229184,0.13229184 0 0 1 -0.132291,0.132292 0.13229184,0.13229184 0 0 1 -0.132292,-0.132292 0.13229184,0.13229184 0 0 1 0.132292,-0.132292 0.13229184,0.13229184 0 0 1 0.132291,0.132292 z m -2.791486,3.21409 c 0.570764,0.389865 1.044328,0.300198 1.449848,-0.125132 m 1.246298,-1.985421 c 0.0579,-0.445589 0.275525,-0.834237 0.587865,-1.046287 m -0.943244,1.062873 c -0.09,-0.440231 -0.01001,-0.902695 0.216749,-1.20471 m -1.107644,3.173547 c 0.297323,2e-6 0.607302,-1.113379 0.607302,-1.568849 -3e-6,-0.455482 0.455455,-0.455484 0.708512,-0.404858 0.253027,0.0506 0.404861,0.25303 0.303647,0.404857 -0.101213,0.151826 -0.303648,0.202432 -0.303648,0.202432 0,0 -0.556691,2.821629 -1.315809,2.821631 l -3.439583,-3e-6 c 0.181319,-0.304237 0.568859,-0.591629 1.049337,-0.678882 m 0.437313,-0.760078 c 0.01042,0.04595 -0.04002,0.07812 -0.07978,0.08025 -0.09672,0.0057 -0.156046,-0.09647 -0.152571,-0.182377 0.007,-0.171652 0.187797,-0.269964 0.343838,-0.253269 0.274347,0.02937 0.425083,0.320145 0.385897,0.57366 -0.06307,0.408038 -0.499225,0.626136 -0.880811,0.553565 -0.575803,-0.109504 -0.877614,-0.730303 -0.759244,-1.273633 0.170054,-0.780533 1.018336,-1.183772 1.760012,-1.005755 0.704649,0.169127 1.217917,0.787388 1.335282,1.491066" />
    <path
       id="path65103"
       style="display:inline;fill:none;stroke:url(#Icons);stroke-width:0.264583;stroke-linecap:round;stroke-miterlimit:10;stroke-opacity:1;stroke-linejoin:round"
       d="m 44.053119,47.228121 a 0.1322839,0.13228521 0 0 0 -0.13228,-0.13229 0.1322839,0.13228521 0 0 0 -0.13229,0.13229 0.1322839,0.13228521 0 0 0 0.13229,0.13229 0.1322839,0.13228521 0 0 0 0.13228,-0.13229 z m -3.175,0 a 0.1322839,0.13228521 0 0 0 -0.13228,-0.13229 0.1322839,0.13228521 0 0 0 -0.13229,0.13229 0.1322839,0.13228521 0 0 0 0.13229,0.13229 0.1322839,0.13228521 0 0 0 0.13228,-0.13229 z m 1e-5,4.89479 a 0.1322839,0.13228521 0 0 0 -0.13228,-0.13229 0.1322839,0.13228521 0 0 0 -0.13229,0.13229 0.1322839,0.13228521 0 0 0 0.13229,0.13229 0.1322839,0.13228521 0 0 0 0.13228,-0.13229 z m 0.66145,1.32292 a 0.1322839,0.13228521 0 0 0 -0.13228,-0.13229 0.1322839,0.13228521 0 0 0 -0.13229,0.13229 0.1322839,0.13228521 0 0 0 0.13229,0.13229 0.1322839,0.13228521 0 0 0 0.13228,-0.13229 z m 1.85208,0 a 0.1322839,0.13228521 0 0 0 -0.13228,-0.13229 0.1322839,0.13228521 0 0 0 -0.13229,0.13229 0.1322839,0.13228521 0 0 0 0.13229,0.13229 0.1322839,0.13228521 0 0 0 0.13228,-0.13229 z m -0.92604,-1.05833 a 0.1322839,0.13228521 0 0 0 -0.13228,-0.13229 0.1322839,0.13228521 0 0 0 -0.13229,0.13229 0.1322839,0.13228521 0 0 0 0.13229,0.13229 0.1322839,0.13228521 0 0 0 0.13228,-0.13229 z m 1.45522,-5.15938 -0.79375,1.5875 m -2.38125,-1.5875 0.79375,1.5875 m 1.93657,0.93628 c 0.23601,-0.73871 -0.45067,-1.06269 -1.14281,-1.06857 -0.69215,0.006 -1.37883,0.32986 -1.14282,1.06857 m 3.6248,4.61998 -0.66823,-0.64109 m 1.4988,-0.81412 -0.89184,-0.24931 m 0.92601,-1.47048 -0.90104,0.2137 m -4.92769,2.96129 0.66823,-0.64109 m -1.4988,-0.81412 0.89184,-0.24931 m 4.63667,-1.84406 c -0.69366,0.33083 -1.45247,0.50252 -2.22098,0.50252 -0.76851,0 -1.52732,-0.17169 -2.22098,-0.50252 m 4.73954,1.16733 a 2.5135205,2.5135469 0 0 0 -2.51352,-2.51355 2.5135205,2.5135469 0 0 0 -2.51352,2.51355 2.5135205,2.5135469 0 0 0 2.51352,2.51355 2.5135205,2.5135469 0 0 0 2.51352,-2.51355 z m -5.86026,-0.79375 0.90104,0.2137 m 4.16549,0.71233 a 0.1322839,0.13228521 0 0 0 -0.13228,-0.13229 0.1322839,0.13228521 0 0 0 -0.13229,0.13229 0.1322839,0.13228521 0 0 0 0.13229,0.13229 0.1322839,0.13228521 0 0 0 0.13228,-0.13229 z" />
    <path
       id="ellipse87805"
       style="display:inline;fill:none;stroke:url(#Icons);stroke-width:0.26458334;stroke-linecap:round;stroke-miterlimit:10;stroke-dasharray:none;stroke-linejoin:round"
       inkscape:transform-center-x="0.046769865"
       inkscape:transform-center-y="0.046777601"
       d="m 52.177682,47.085744 a 0.13229236,0.13229097 44.922882 0 0 -0.187087,0 0.13229236,0.13229097 44.922882 0 0 -10e-7,0.187087 0.13229236,0.13229097 44.922882 0 0 0.187087,0 0.13229236,0.13229097 44.922882 0 0 10e-7,-0.187087 z m -2.568446,1.35e-4 a 0.13229236,0.13229097 44.922882 0 0 -0.187087,0 0.13229236,0.13229097 44.922882 0 0 -10e-7,0.187087 0.13229236,0.13229097 44.922882 0 0 0.187087,0 0.13229236,0.13229097 44.922882 0 0 1e-6,-0.187087 z m 1.190754,1.98424 c -4e-6,-0.661452 -0.661457,-1.455197 -1.190622,-1.984372 m 1.190622,1.984372 c -4e-6,-0.661452 0.661459,-1.4552 1.190617,-1.984373 m -2.116666,4.630205 a 0.26458347,0.26458624 0 0 0 -0.26458,-0.26459 0.26458347,0.26458624 0 0 0 -0.264579,0.264592 0.26458347,0.26458624 0 0 0 0.264581,0.26459 0.26458347,0.26458624 0 0 0 0.264578,-0.264592 z m -0.132289,-1.984379 a 0.52915913,0.52916467 0 0 0 -0.529164,-0.529163 0.52915913,0.52916467 0 0 0 -0.529147,0.529162 0.52915913,0.52916467 0 0 0 0.529146,0.529166 0.52915913,0.52916467 0 0 0 0.529165,-0.529165 z m 2.513545,1.984375 a 0.26458347,0.26458624 0 0 0 -0.26458,-0.26459 0.26458347,0.26458624 0 0 0 -0.26459,0.26459 0.26458347,0.26458624 0 0 0 0.264592,0.264593 0.26458347,0.26458624 0 0 0 0.264578,-0.264593 z m -1.190625,-0.793714 c -10e-7,-1.022872 -0.118465,-1.852086 -0.264586,-1.852096 -0.146116,1.3e-5 -0.264575,0.829214 -0.264574,1.852085 10e-7,1.022872 0.118456,1.852067 0.264577,1.852077 0.146123,-7e-6 0.264578,-0.829202 0.264583,-1.852066 z M 50.6541,49.377838 48.418741,48.011788 c -0.396876,0.396877 -0.661491,0.793721 -0.661462,1.322919 -4e-6,0.793745 1.058329,1.455209 1.058332,2.248962 -10e-7,0.473918 -0.243591,0.89007 -0.264584,1.455195 -0.0176,0.475252 1.2e-5,1.058343 0.396883,1.455214 l 1.747074,-1.871807 m 0.250908,-3.244403 2.235373,-1.366056 c 0.396872,0.396884 0.661463,0.793749 0.66146,1.322922 3e-6,0.793753 -1.058339,1.45521 -1.058336,2.248963 -10e-7,0.473918 0.243596,0.890066 0.264586,1.455196 0.0176,0.475252 -1.2e-5,1.058339 -0.396882,1.455209 L 50.905052,52.62227 m 2.011614,-2.890675 a 0.52915913,0.52916467 0 0 0 -0.529156,-0.529156 0.52915913,0.52916467 0 0 0 -0.52916,0.52916 0.52915913,0.52916467 0 0 0 0.529158,0.529168 0.52915913,0.52916467 0 0 0 0.529158,-0.529172 z" />
    <path
       id="ellipse68322"
       style="display:inline;fill:none;stroke:url(#Icons);stroke-width:0.264583;stroke-linecap:round;stroke-miterlimit:10;stroke-linejoin:round"
       d="m 59.465078,49.27866 a 0.19842692,0.19842927 0 0 1 -0.19842,0.19843 0.19842692,0.19842927 0 0 1 -0.19843,-0.19843 0.19842692,0.19842927 0 0 1 0.19843,-0.19843 0.19842692,0.19842927 0 0 1 0.19842,0.19843 z m 0.19846,1.38905 c 0,-0.73062 -0.17768,-1.32291 -0.39687,-1.32292 -0.21919,10e-6 -0.39688,0.5923 -0.39688,1.32292 0,0.73063 0.17769,1.32291 0.39688,1.32292 0.21919,-1e-5 0.39687,-0.5923 0.39687,-1.32292 z m -1.05832,-2.38125 c 0.37224,0.0713 0.60934,0.37781 0.66145,0.79375 m 0.37985,1.96916 c 0.87001,0.35884 1.41515,1.28172 1.47224,2.92564 m -2.23194,-2.92564 c -0.87002,0.35884 -1.41515,1.28172 -1.47224,2.92564 m 1.45662,-3.43089 c -0.86092,-0.36342 -1.39987,-1.28506 -1.45662,-2.91912 m 2.51354,0.66146 c -0.37224,0.0713 -0.60934,0.37781 -0.66145,0.79375 m 0.39545,1.46391 c 0.86092,-0.36342 1.39988,-1.28506 1.45663,-2.91912" />
    <path
       id="rect78658"
       style="fill:none;stroke:url(#Icons);stroke-width:0.264583;stroke-linecap:round;stroke-linejoin:round;paint-order:markers fill stroke"
       d="m 67.733329,50.53547 c 0.0367,0 0.0662,0.0295 0.0662,0.0661 v 4.36562 c 0,0.0366 -0.0295,0.0661 -0.0662,0.0661 -0.0366,0 -0.0661,-0.0295 -0.0661,-0.0661 v -4.36562 c 0,-0.0366 0.0295,-0.0661 0.0661,-0.0661 z m 0.52916,-3.17501 a 0.5291642,0.39686972 0 0 0 -0.52916,-0.39687 0.5291642,0.39686972 0 0 0 -0.52917,0.39687 0.5291642,0.39686972 0 0 0 0.52917,0.39687 0.5291642,0.39686972 0 0 0 0.52916,-0.39687 z m -0.52916,1.19063 c -0.26458,-0.26458 -3.86801,-0.66146 -4.23332,-0.66146 -0.36531,0 -0.66145,0.29615 -0.66145,0.66146 0,0.36531 0.29614,0.66146 0.66145,0.66146 0.36531,0 3.96874,-0.39687 4.23332,-0.66146 z m 4.89478,0 c 0,-0.36531 -0.29614,-0.66146 -0.66145,-0.66146 -0.36531,0 -3.96875,0.39688 -4.23333,0.66146 0.26458,0.26459 3.86802,0.66146 4.23333,0.66146 0.36531,0 0.66145,-0.29615 0.66145,-0.66146 z m -2.76681,0.43633 c 0.93642,0.26068 1.85884,0.55131 2.02395,0.62201 0.33582,0.1438 0.49147,0.5326 0.34767,0.86843 -0.1438,0.33581 -0.53261,0.49148 -0.86842,0.34767 -0.33581,-0.14379 -3.49211,-1.92706 -3.63117,-2.27444 m -2.12797,0.43633 c -0.93643,0.26068 -1.85884,0.55131 -2.02395,0.62201 -0.33582,0.1438 -0.49147,0.5326 -0.34767,0.86843 0.1438,0.33581 0.53261,0.49148 0.86842,0.34767 0.33581,-0.14379 3.49211,-1.92706 3.63117,-2.27444 v 0 c 0,0 0,0 0,0 m -0.39689,-0.14471 v -0.38447 c 0,-0.12618 0.0583,-0.23824 0.14954,-0.31084 m 0.49468,0 c 0.0912,0.0726 0.14954,0.18466 0.14954,0.31084 v 0.38447 m 0,0.49919 v 1.233 c 0,0.21987 -0.17701,0.39687 -0.39687,0.39687 h -1e-5 c -0.21987,0 -0.39688,-0.177 -0.39688,-0.39687 v -1.233 m -1.1906,-2.33886 0.52916,1.32292 0.66145,0.16537 m 0.79375,0 0.66146,-0.16537 0.52917,-1.32292" />
    <path
       id="path63213"
       style="fill:none;fill-opacity:1;stroke:url(#Icons);stroke-width:0.264583;stroke-linecap:round;stroke-linejoin:round;stroke-miterlimit:4;stroke-dasharray:none;stroke-opacity:1"
       d="m 76.067711,48.718996 v -0.56483 c 0,-0.1323 -0.1323,-0.26458 -0.26459,-0.26458 m 0.52917,0.8294 -1e-5,-0.56483 c 0,-0.13229 0.1323,-0.26458 0.26458,-0.26458 m -0.66145,3.83646 -1.32292,0.79375 -0.26459,1.85209 m 1.58752,-3.3073 -1.05834,-0.66145 -1.5875,0.92604 m 3.175,-2.38125 c 0,-0.14613 -0.11845,-0.26459 -0.26458,-0.26459 -0.14613,0 -0.26458,0.11846 -0.26458,0.26459 0,0.14612 0.11846,0.26458 0.26458,0.26458 0.14612,0 0.26458,-0.11846 0.26458,-0.26458 z m -0.52916,0.92604 -1.19063,-0.92604 -0.39688,-1.71979 m 2.11668,4.49791 1.32292,0.79375 0.26459,1.85209 m -1.58752,-3.3073 1.05834,-0.66145 1.5875,0.92604 m -2.64584,-1.45521 1.19063,-0.92604 0.39688,-1.71979 m -2.11667,4.7625 h 0.52917 m -0.52917,-0.92605 h 0.52917 m -0.26459,-1.85208 c 0.14658,0 0.26458,0.11801 0.26458,0.26458 v 3.175 c 0,0.14658 -0.118,0.26458 -0.26458,0.26458 -0.14657,0 -0.26457,-0.118 -0.26457,-0.26458 v -3.175 c 0,-0.14657 0.118,-0.26458 0.26457,-0.26458 z m -0.26458,0.92604 h 0.52917" />
    <path
       id="path3937"
       style="fill:none;stroke:url(#Icons);stroke-width:0.264583;stroke-linecap:round;stroke-linejoin:round;stroke-miterlimit:4;stroke-dasharray:none;stroke-opacity:1"
       d="m 84.159533,51.773526 h 1.01424 m 0.41893,-0.77513 v 0 c 0,-0.51144 -0.41459,-0.92604 -0.92603,-0.92604 -0.51145,0 -0.92605,0.4146 -0.92605,0.92604 0,0.32431 0.16672,0.60968 0.41891,0.77514 -0.0144,0.0479 -0.022,0.0985 -0.022,0.15091 0,0.29225 0.23693,0.52916 0.52917,0.52916 0.29224,0 0.52915,-0.23692 0.52915,-0.52916 v 0 c 0,-0.0524 -0.008,-0.10301 -0.022,-0.15092 0.25221,-0.16545 0.41892,-0.45082 0.41892,-0.77513 z m -1.84697,-0.0979 -1.19573,-0.29894 v -1.4552 m 1.25315,2.18643 -0.59169,0.5917 v 0.92603 l 0.66146,0.66146 m -0.12707,-2.41563 -1.19585,0.29896 v 1.45521 m 1.25315,-2.18643 -0.59169,-0.59169 v -1.45521 l 0.52916,-0.52916 m 1.84698,2.81247 1.19573,-0.29894 v -1.4552 m -1.25316,2.18643 0.5917,0.5917 v 0.92603 l -0.66145,0.66146 m 0.12706,-2.41563 1.19585,0.29896 v 1.45521 m -1.25316,-2.18643 0.5917,-0.59169 v -1.45521 l -0.52916,-0.52916 m -0.85989,1.78589 v 0.19844 h -0.1323 v -0.39688 h 0.0661 0.0662 v 0.19844"
       sodipodi:nodetypes="cccssscsssscccccccccccccccccccccccccccccccccccccc" />
    <path
       style="fill:none;fill-opacity:0;stroke:url(#Icons);stroke-width:0.396875;stroke-linecap:round;stroke-linejoin:round;stroke-miterlimit:4;stroke-dasharray:none;stroke-opacity:1"
       d="m 84.666623,49.675476 6e-5,-2.64585"
       id="path11405"
       sodipodi:nodetypes="cc" />
  </g>
</svg>
