<?xml version="1.0" encoding="UTF-8" standalone="no"?>
<!-- Created with Inkscape (http://www.inkscape.org/) -->

<svg
   width="40"
   height="40"
   viewBox="0 0 10.583333 10.583334"
   version="1.1"
   id="svg5"
   inkscape:version="1.1 (c68e22c387, 2021-05-23)"
   sodipodi:docname="cloud-db.svg"
   inkscape:export-filename="C:\Users\VIAPRIES\Documents\2021 Semester 2 Github\Clubs\FUCS Branding\2022 In Progress\Icons v7.png"
   inkscape:export-xdpi="768.289"
   inkscape:export-ydpi="768.289"
   xmlns:inkscape="http://www.inkscape.org/namespaces/inkscape"
   xmlns:sodipodi="http://sodipodi.sourceforge.net/DTD/sodipodi-0.dtd"
   xmlns="http://www.w3.org/2000/svg"
   xmlns:svg="http://www.w3.org/2000/svg">
  <sodipodi:namedview
     id="namedview7"
     pagecolor="#ffffff"
     bordercolor="#666666"
     borderopacity="1.0"
     inkscape:pageshadow="2"
     inkscape:pageopacity="0.0"
     inkscape:pagecheckerboard="0"
     inkscape:document-units="px"
     showgrid="true"
     units="px"
     inkscape:zoom="2.8284271"
     inkscape:cx="140.00714"
     inkscape:cy="95.989746"
     inkscape:window-width="1920"
     inkscape:window-height="1001"
     inkscape:window-x="-9"
     inkscape:window-y="-9"
     inkscape:window-maximized="1"
     inkscape:current-layer="layer1"
     inkscape:object-paths="false"
     inkscape:snap-intersection-paths="true"
     inkscape:snap-midpoints="false"
     inkscape:snap-center="true"
     inkscape:snap-others="true"
     inkscape:snap-global="true"
     inkscape:snap-object-midpoints="false"
     inkscape:snap-smooth-nodes="true"
     inkscape:snap-bbox="true"
     inkscape:bbox-paths="false"
     inkscape:bbox-nodes="false"
     inkscape:snap-bbox-edge-midpoints="false"
     inkscape:snap-bbox-midpoints="true"
     inkscape:snap-to-guides="false"
     inkscape:snap-grids="false"
     inkscape:snap-nodes="false"
     inkscape:snap-text-baseline="false"
     inkscape:object-nodes="true">
    <inkscape:grid
       type="xygrid"
       id="grid4513"
       spacingx="8.4666668"
       spacingy="8.4666668"
       empspacing="1"
       dotted="false"
       color="#3f3fff"
       opacity="0.0627451"
       enabled="true"
       visible="false" />
    <inkscape:grid
       type="axonomgrid"
       id="grid34136"
       enabled="false"
       units="px"
       spacingy="0.26458333" />
  </sodipodi:namedview>
  <defs
     id="defs2">
    <linearGradient
       id="Icons"
       inkscape:swatch="solid"
       gradientTransform="translate(-40.216667,-6.3499984)">
      <stop
         style="stop-color:#000000;stop-opacity:1;"
         offset="0"
         id="stop1069" />
    </linearGradient>
    <marker
       style="overflow:visible"
       id="Torso"
       refX="0"
       refY="0"
       orient="auto"
       inkscape:stockid="Torso"
       inkscape:isstock="true">
      <g
         transform="scale(0.7)"
         id="g6337">
        <path
           style="fill:none;fill-opacity:0.75;fill-rule:evenodd;stroke:context-stroke;stroke-width:1.25"
           d="m -4.7792281,-3.239542 c 2.350374,0.3659393 5.30026732,1.9375477 5.03715532,3.62748546 C -0.00518779,2.0778819 -2.2126741,2.6176539 -4.5630471,2.2517169 -6.9134221,1.8857769 -8.521035,0.75201414 -8.257922,-0.93792336 -7.994809,-2.6278615 -7.1296041,-3.6054813 -4.7792281,-3.239542 Z"
           id="path6323" />
        <path
           style="fill:none;fill-opacity:0.75;fill-rule:evenodd;stroke:context-stroke;stroke-width:1pt"
           d="M 4.4598789,0.08866574 C -2.5564571,-4.378332 5.2248769,-3.9061806 -0.84829578,-8.7197331"
           id="path6325" />
        <path
           style="fill:none;fill-opacity:0.75;fill-rule:evenodd;stroke:context-stroke;stroke-width:1pt"
           d="M 4.9298719,0.05752074 C -1.3872731,1.7494689 1.8027579,5.4782079 -4.9448731,7.5462725"
           id="path6327" />
        <rect
           style="fill:context-stroke;fill-rule:evenodd;stroke-width:1pt"
           width="2.6366582"
           height="2.7608147"
           x="-10.391706"
           y="-1.7408575"
           transform="matrix(0.527536,-0.849533,0.887668,0.460484,0,0)"
           id="rect6329" />
        <rect
           style="fill:context-stroke;fill-rule:evenodd;stroke-width:1pt"
           width="2.7327356"
           height="2.8614161"
           x="4.9587269"
           y="-7.9629307"
           transform="matrix(0.671205,-0.741272,0.790802,0.612072,0,0)"
           id="rect6331" />
        <path
           style="fill:#ff0000;fill-opacity:0.75;fill-rule:evenodd;stroke:context-stroke;stroke-width:1pt"
           d="m 16.779951,-28.685045 a 0.60731727,0.60731727 0 1 0 -1.214634,0 0.60731727,0.60731727 0 1 0 1.214634,0 z"
           transform="matrix(0,-1.109517,1.109517,0,25.96648,19.71619)"
           id="path6333" />
        <path
           style="fill:#ff0000;fill-opacity:0.75;fill-rule:evenodd;stroke:context-stroke;stroke-width:1pt"
           d="m 16.779951,-28.685045 a 0.60731727,0.60731727 0 1 0 -1.214634,0 0.60731727,0.60731727 0 1 0 1.214634,0 z"
           transform="matrix(0,-1.109517,1.109517,0,26.8245,16.99126)"
           id="path6335" />
      </g>
    </marker>
    <marker
       style="overflow:visible"
       id="EmptyTriangleInL"
       refX="0"
       refY="0"
       orient="auto"
       inkscape:stockid="EmptyTriangleInL"
       inkscape:isstock="true">
      <path
         transform="matrix(-0.8,0,0,-0.8,4.8,0)"
         style="fill:context-fill;fill-rule:evenodd;stroke:context-stroke;stroke-width:1pt"
         d="M 5.77,0 -2.88,5 V -5 Z"
         id="path6262" />
    </marker>
    <marker
       style="overflow:visible"
       id="EmptyTriangleOutL"
       refX="0"
       refY="0"
       orient="auto"
       inkscape:stockid="EmptyTriangleOutL"
       inkscape:isstock="true">
      <path
         transform="matrix(0.8,0,0,0.8,-4.8,0)"
         style="fill:context-fill;fill-rule:evenodd;stroke:context-stroke;stroke-width:1pt"
         d="M 5.77,0 -2.88,5 V -5 Z"
         id="path6271" />
    </marker>
    <marker
       style="overflow:visible"
       id="Tail"
       refX="0"
       refY="0"
       orient="auto"
       inkscape:stockid="Tail"
       inkscape:isstock="true">
      <g
         transform="scale(-1.2)"
         id="g6159">
        <path
           style="fill:none;fill-rule:evenodd;stroke:context-stroke;stroke-width:0.8;stroke-linecap:round"
           d="M -3.8048674,-3.9585227 0.54352094,0"
           id="path6147" />
        <path
           style="fill:none;fill-rule:evenodd;stroke:context-stroke;stroke-width:0.8;stroke-linecap:round"
           d="M -1.2866832,-3.9585227 3.0617053,0"
           id="path6149" />
        <path
           style="fill:none;fill-rule:evenodd;stroke:context-stroke;stroke-width:0.8;stroke-linecap:round"
           d="M 1.3053582,-3.9585227 5.6537466,0"
           id="path6151" />
        <path
           style="fill:none;fill-rule:evenodd;stroke:context-stroke;stroke-width:0.8;stroke-linecap:round"
           d="M -3.8048674,4.1775838 0.54352094,0.21974226"
           id="path6153" />
        <path
           style="fill:none;fill-rule:evenodd;stroke:context-stroke;stroke-width:0.8;stroke-linecap:round"
           d="M -1.2866832,4.1775838 3.0617053,0.21974226"
           id="path6155" />
        <path
           style="fill:none;fill-rule:evenodd;stroke:context-stroke;stroke-width:0.8;stroke-linecap:round"
           d="M 1.3053582,4.1775838 5.6537466,0.21974226"
           id="path6157" />
      </g>
    </marker>
    <clipPath
       clipPathUnits="userSpaceOnUse"
       id="clipPath2169">
      <path
         style="fill:none;stroke:#000000;stroke-width:0.264583px;stroke-linecap:butt;stroke-linejoin:miter;stroke-opacity:1"
         d="m 92.234711,185.59196 2.057977,96.16357 195.694752,0.18709 0.18708,-125.16232 -51.82356,1.30962 1.49671,13.84457 z"
         id="path2171"
         sodipodi:nodetypes="ccccccc" />
    </clipPath>
  </defs>
  <g
     inkscape:label="Icons"
     inkscape:groupmode="layer"
     id="layer1"
     style="display:inline">
    <path
       id="path18035-6-0-4"
       style="display:inline;fill:none;stroke:url(#Icons);stroke-width:0.264582px;stroke-linecap:round;stroke-linejoin:round;stroke-opacity:1"
       d="m 4.2003113,4.7625486 h 3.704164 m -3.124523,-1.495062 c -0.283888,-0.259074 -0.705221,-0.298302 -1.032056,-0.09609 -0.326836,0.202211 -0.479801,0.596755 -0.374689,0.966437 0.105112,0.369682 0.442772,0.624714 0.827103,0.624714 m 1.872956,-2.027883 c -0.242374,-0.448347 -0.801481,-0.616566 -1.251011,-0.376393 -0.273478,0.146111 -0.443854,0.409956 -0.481782,0.695684 m 3.564003,1.708592 c 0.298636,0 0.566955,-0.182483 0.676696,-0.460228 0.109741,-0.277745 0.03862,-0.594345 -0.179359,-0.798473 -0.217983,-0.204127 -0.538562,-0.254327 -0.808508,-0.126605 m 0.490961,-0.04716 c 0.07395,-0.114414 0.102301,-0.255255 0.07405,-0.393364 -0.04084,-0.1997 -0.192757,-0.358188 -0.390543,-0.407448 -0.197789,-0.04926 -0.406289,0.01946 -0.536025,0.176673 m 0.125407,-0.110884 c -0.06932,-0.343435 -0.330996,-0.629468 -0.688742,-0.716619 -0.411588,-0.100264 -0.83136,0.0917 -1.029941,0.452056 m -3.687123,4.416422 c 0,0.5114393 0.947664,0.9260433 2.116666,0.9260433 1.169002,0 2.116666,-0.414604 2.116666,-0.9260433 m -4.233332,-1.058334 c 0,0.511439 0.947664,0.926043 2.116666,0.926043 1.169002,0 2.116666,-0.414604 2.116666,-0.926043 m -2.832504,-1.930076 c -0.816731,0.128389 -1.400828,0.470225 -1.400828,0.871746 0,0.51144 0.947666,0.926044 2.116669,0.926044 1.066274,0 1.948402,-0.34494 2.095204,-0.793676 m -4.211871,-0.132366 -10e-7,3.1749983 c -1e-6,0.511437 0.947663,0.926041 2.116665,0.926041 1.169002,0 2.116666,-0.414604 2.116666,-0.926043 l -3e-6,-3.0427083"
       sodipodi:nodetypes="cccssccsccssccssccsccsccsccsscccscc" />
  </g>
</svg>
