<?xml version="1.0" encoding="UTF-8" standalone="no"?>
<!-- Created with Inkscape (http://www.inkscape.org/) -->

<svg
   width="40"
   height="40"
   viewBox="0 0 10.583333 10.583334"
   version="1.1"
   id="svg5"
   inkscape:version="1.1 (c68e22c387, 2021-05-23)"
   sodipodi:docname="robot.svg"
   inkscape:export-filename="C:\Users\VIAPRIES\Documents\2021 Semester 2 Github\Clubs\FUCS Branding\2022 In Progress\Icons v7.png"
   inkscape:export-xdpi="768.289"
   inkscape:export-ydpi="768.289"
   xmlns:inkscape="http://www.inkscape.org/namespaces/inkscape"
   xmlns:sodipodi="http://sodipodi.sourceforge.net/DTD/sodipodi-0.dtd"
   xmlns="http://www.w3.org/2000/svg"
   xmlns:svg="http://www.w3.org/2000/svg">
  <sodipodi:namedview
     id="namedview7"
     pagecolor="#ffffff"
     bordercolor="#666666"
     borderopacity="1.0"
     inkscape:pageshadow="2"
     inkscape:pageopacity="0.0"
     inkscape:pagecheckerboard="0"
     inkscape:document-units="px"
     showgrid="true"
     units="px"
     inkscape:zoom="2"
     inkscape:cx="140"
     inkscape:cy="71.25"
     inkscape:window-width="1920"
     inkscape:window-height="1001"
     inkscape:window-x="-9"
     inkscape:window-y="-9"
     inkscape:window-maximized="1"
     inkscape:current-layer="layer1"
     inkscape:object-paths="false"
     inkscape:snap-intersection-paths="true"
     inkscape:snap-midpoints="false"
     inkscape:snap-center="true"
     inkscape:snap-others="true"
     inkscape:snap-global="true"
     inkscape:snap-object-midpoints="false"
     inkscape:snap-smooth-nodes="true"
     inkscape:snap-bbox="true"
     inkscape:bbox-paths="false"
     inkscape:bbox-nodes="false"
     inkscape:snap-bbox-edge-midpoints="false"
     inkscape:snap-bbox-midpoints="true"
     inkscape:snap-to-guides="false"
     inkscape:snap-grids="false"
     inkscape:snap-nodes="false"
     inkscape:snap-text-baseline="false"
     inkscape:object-nodes="true">
    <inkscape:grid
       type="xygrid"
       id="grid4513"
       spacingx="8.4666668"
       spacingy="8.4666668"
       empspacing="1"
       dotted="false"
       color="#3f3fff"
       opacity="0.0627451"
       enabled="true"
       visible="false" />
    <inkscape:grid
       type="axonomgrid"
       id="grid34136"
       enabled="false"
       units="px"
       spacingy="0.26458333" />
  </sodipodi:namedview>
  <defs
     id="defs2">
    <linearGradient
       id="Icons"
       inkscape:swatch="solid"
       gradientTransform="translate(-716.49167,-123.82501)">
      <stop
         style="stop-color:#000000;stop-opacity:1;"
         offset="0"
         id="stop1069" />
    </linearGradient>
    <marker
       style="overflow:visible"
       id="Torso"
       refX="0"
       refY="0"
       orient="auto"
       inkscape:stockid="Torso"
       inkscape:isstock="true">
      <g
         transform="scale(0.7)"
         id="g6337">
        <path
           style="fill:none;fill-opacity:0.75;fill-rule:evenodd;stroke:context-stroke;stroke-width:1.25"
           d="m -4.7792281,-3.239542 c 2.350374,0.3659393 5.30026732,1.9375477 5.03715532,3.62748546 C -0.00518779,2.0778819 -2.2126741,2.6176539 -4.5630471,2.2517169 -6.9134221,1.8857769 -8.521035,0.75201414 -8.257922,-0.93792336 -7.994809,-2.6278615 -7.1296041,-3.6054813 -4.7792281,-3.239542 Z"
           id="path6323" />
        <path
           style="fill:none;fill-opacity:0.75;fill-rule:evenodd;stroke:context-stroke;stroke-width:1pt"
           d="M 4.4598789,0.08866574 C -2.5564571,-4.378332 5.2248769,-3.9061806 -0.84829578,-8.7197331"
           id="path6325" />
        <path
           style="fill:none;fill-opacity:0.75;fill-rule:evenodd;stroke:context-stroke;stroke-width:1pt"
           d="M 4.9298719,0.05752074 C -1.3872731,1.7494689 1.8027579,5.4782079 -4.9448731,7.5462725"
           id="path6327" />
        <rect
           style="fill:context-stroke;fill-rule:evenodd;stroke-width:1pt"
           width="2.6366582"
           height="2.7608147"
           x="-10.391706"
           y="-1.7408575"
           transform="matrix(0.527536,-0.849533,0.887668,0.460484,0,0)"
           id="rect6329" />
        <rect
           style="fill:context-stroke;fill-rule:evenodd;stroke-width:1pt"
           width="2.7327356"
           height="2.8614161"
           x="4.9587269"
           y="-7.9629307"
           transform="matrix(0.671205,-0.741272,0.790802,0.612072,0,0)"
           id="rect6331" />
        <path
           style="fill:#ff0000;fill-opacity:0.75;fill-rule:evenodd;stroke:context-stroke;stroke-width:1pt"
           d="m 16.779951,-28.685045 a 0.60731727,0.60731727 0 1 0 -1.214634,0 0.60731727,0.60731727 0 1 0 1.214634,0 z"
           transform="matrix(0,-1.109517,1.109517,0,25.96648,19.71619)"
           id="path6333" />
        <path
           style="fill:#ff0000;fill-opacity:0.75;fill-rule:evenodd;stroke:context-stroke;stroke-width:1pt"
           d="m 16.779951,-28.685045 a 0.60731727,0.60731727 0 1 0 -1.214634,0 0.60731727,0.60731727 0 1 0 1.214634,0 z"
           transform="matrix(0,-1.109517,1.109517,0,26.8245,16.99126)"
           id="path6335" />
      </g>
    </marker>
    <marker
       style="overflow:visible"
       id="EmptyTriangleInL"
       refX="0"
       refY="0"
       orient="auto"
       inkscape:stockid="EmptyTriangleInL"
       inkscape:isstock="true">
      <path
         transform="matrix(-0.8,0,0,-0.8,4.8,0)"
         style="fill:context-fill;fill-rule:evenodd;stroke:context-stroke;stroke-width:1pt"
         d="M 5.77,0 -2.88,5 V -5 Z"
         id="path6262" />
    </marker>
    <marker
       style="overflow:visible"
       id="EmptyTriangleOutL"
       refX="0"
       refY="0"
       orient="auto"
       inkscape:stockid="EmptyTriangleOutL"
       inkscape:isstock="true">
      <path
         transform="matrix(0.8,0,0,0.8,-4.8,0)"
         style="fill:context-fill;fill-rule:evenodd;stroke:context-stroke;stroke-width:1pt"
         d="M 5.77,0 -2.88,5 V -5 Z"
         id="path6271" />
    </marker>
    <marker
       style="overflow:visible"
       id="Tail"
       refX="0"
       refY="0"
       orient="auto"
       inkscape:stockid="Tail"
       inkscape:isstock="true">
      <g
         transform="scale(-1.2)"
         id="g6159">
        <path
           style="fill:none;fill-rule:evenodd;stroke:context-stroke;stroke-width:0.8;stroke-linecap:round"
           d="M -3.8048674,-3.9585227 0.54352094,0"
           id="path6147" />
        <path
           style="fill:none;fill-rule:evenodd;stroke:context-stroke;stroke-width:0.8;stroke-linecap:round"
           d="M -1.2866832,-3.9585227 3.0617053,0"
           id="path6149" />
        <path
           style="fill:none;fill-rule:evenodd;stroke:context-stroke;stroke-width:0.8;stroke-linecap:round"
           d="M 1.3053582,-3.9585227 5.6537466,0"
           id="path6151" />
        <path
           style="fill:none;fill-rule:evenodd;stroke:context-stroke;stroke-width:0.8;stroke-linecap:round"
           d="M -3.8048674,4.1775838 0.54352094,0.21974226"
           id="path6153" />
        <path
           style="fill:none;fill-rule:evenodd;stroke:context-stroke;stroke-width:0.8;stroke-linecap:round"
           d="M -1.2866832,4.1775838 3.0617053,0.21974226"
           id="path6155" />
        <path
           style="fill:none;fill-rule:evenodd;stroke:context-stroke;stroke-width:0.8;stroke-linecap:round"
           d="M 1.3053582,4.1775838 5.6537466,0.21974226"
           id="path6157" />
      </g>
    </marker>
    <clipPath
       clipPathUnits="userSpaceOnUse"
       id="clipPath2169">
      <path
         style="fill:none;stroke:#000000;stroke-width:0.264583px;stroke-linecap:butt;stroke-linejoin:miter;stroke-opacity:1"
         d="m 92.234711,185.59196 2.057977,96.16357 195.694752,0.18709 0.18708,-125.16232 -51.82356,1.30962 1.49671,13.84457 z"
         id="path2171"
         sodipodi:nodetypes="ccccccc" />
    </clipPath>
  </defs>
  <g
     inkscape:label="Icons"
     inkscape:groupmode="layer"
     id="layer1"
     style="display:inline">
    <g
       id="g2679"
       transform="translate(-3.1750002,-20.108333)">
      <path
         id="circle10558"
         style="display:inline;fill:url(#Icons);fill-opacity:1;stroke:none;stroke-width:0;stroke-linecap:round;stroke-miterlimit:10"
         d="m 8.9296878,25.730719 a 0.13229166,0.13229166 0 0 1 -0.132292,0.132292 0.13229166,0.13229166 0 0 1 -0.132292,-0.132292 0.13229166,0.13229166 0 0 1 0.132292,-0.132292 0.13229166,0.13229166 0 0 1 0.132292,0.132292 z m -0.793749,0 a 0.13229166,0.13229166 0 0 1 -0.132292,0.132292 0.13229166,0.13229166 0 0 1 -0.132292,-0.132292 0.13229166,0.13229166 0 0 1 0.132292,-0.132292 0.13229166,0.13229166 0 0 1 0.132292,0.132292 z" />
      <path
         id="circle12142"
         style="display:inline;fill:none;fill-opacity:0;stroke:url(#Icons);stroke-width:0.264583;stroke-linecap:round;stroke-linejoin:round;stroke-miterlimit:10;stroke-dasharray:none;stroke-opacity:1"
         d="m 11.178648,25.201558 c 0,0.438376 -0.355374,0.79375 -0.79375,0.79375 m 0.793751,-1.455204 c 0,0 -0.608117,-0.457047 -0.740835,-0.793757 -0.03881,-0.09846 -0.0405,-0.219723 0,-0.317499 0.03818,-0.09219 0.119483,-0.173479 0.211668,-0.211663 0.08148,-0.03375 0.183103,-0.03375 0.264584,0 0.115232,0.04773 0.264583,0.264586 0.264583,0.264586 0,0 0.149351,-0.216855 0.264583,-0.264586 0.08148,-0.03375 0.183103,-0.03375 0.264584,0 0.09218,0.03818 0.173481,0.119479 0.211665,0.211663 0.0405,0.09778 0.03881,0.219043 0,0.317506 -0.132717,0.336707 -0.740832,0.79375 -0.740832,0.79375 z m -4.2333342,1.455203 h 0.354025 m 2.197503,0 h 0.358888 m -1.817907,0.396875 h 0.7254 m 1.137709,1.984381 h 0.7253992 m -3.7262182,-1.1e-5 h -0.725398 m 1.852083,2e-6 h 0.7254 m 3.7493622,-4.630202 a 1.3229144,1.3229144 0 0 1 -1.322915,1.322914 1.3229144,1.3229144 0 0 1 -1.3229142,-1.322914 1.3229144,1.3229144 0 0 1 1.3229142,-1.322915 1.3229144,1.3229144 0 0 1 1.322915,1.322915 z M 7.3421898,27.05364 v -2.116666 h 2.116667 v 2.116666 m -4.233334,0.529167 h -0.79375 v 0.79375 m 7.1437502,0 V 27.05364 H 5.2255228 v 1.322917 m 7.1437512,0 v -0.79375 h -0.793751" />
    </g>
  </g>
</svg>
